<?xml version="1.0" encoding="UTF-8"?>
<svg width="649px" height="72px" viewBox="0 0 649 72" version="1.1" xmlns="http://www.w3.org/2000/svg" xmlns:xlink="http://www.w3.org/1999/xlink">
    <!-- Generator: Sketch 43.2 (39069) - http://www.bohemiancoding.com/sketch -->
    <title>Logo</title>
    <desc>Created with Sketch.</desc>
    <defs></defs>
    <g id="Page-1" stroke="none" stroke-width="1" fill="none" fill-rule="evenodd">
        <g id="Logo" transform="translate(4.000000, 1.000000)">
            <path d="M108.47,67.43 C108.089998,67.0499981 107.9,66.6066692 107.9,66.1 L108.09,65.055 L131.65,3.59 C132.156669,2.1966597 133.169992,1.5 134.69,1.5 L140.77,1.5 C142.290008,1.5 143.303331,2.1966597 143.81,3.59 L167.37,65.055 L167.56,66.1 C167.56,66.6066692 167.354169,67.0499981 166.9425,67.43 C166.530831,67.8100019 166.071669,68 165.565,68 L161.1,68 C160.466664,68 159.944169,67.8258351 159.5325,67.4775 C159.120831,67.1291649 158.851667,66.7650019 158.725,66.385 L153.405,52.705 L121.96,52.705 L116.735,66.385 C116.228331,67.4616721 115.436672,68 114.36,68 L109.8,68 C109.293331,68 108.850002,67.8100019 108.47,67.43 Z M124.715,44.82 L150.745,44.82 L137.73,10.715 L124.715,44.82 Z M185.0609,66.48 C181.229214,64.8333251 178.31591,62.6641801 176.3209,59.9725 C174.32589,57.2808199 173.265067,54.3833489 173.1384,51.28 C173.1384,50.7733308 173.328398,50.3300019 173.7084,49.95 C174.088402,49.5699981 174.563397,49.38 175.1334,49.38 L179.7884,49.38 C180.928406,49.38 181.720064,50.013327 182.1634,51.28 C182.733403,53.9400133 184.36422,56.2358237 187.0559,58.1675 C189.74758,60.0991763 193.595042,61.065 198.5984,61.065 C203.98176,61.065 208.003387,60.1150095 210.6634,58.215 C213.323413,56.3149905 214.6534,53.6866835 214.6534,50.33 C214.6534,48.1766559 214.00424,46.4033403 212.7059,45.01 C211.40756,43.6166597 209.475913,42.3975052 206.9109,41.3525 C204.345887,40.3074948 200.498426,39.0250076 195.3684,37.505 C190.491709,36.1116597 186.612581,34.6233413 183.7309,33.04 C180.849219,31.4566588 178.680074,29.5091782 177.2234,27.1975 C175.766726,24.8858218 175.0384,21.9566844 175.0384,18.41 C175.0384,14.9899829 175.956724,11.9341801 177.7934,9.2425 C179.630076,6.55081988 182.290049,4.42917443 185.7734,2.8775 C189.256751,1.32582558 193.373376,0.55 198.1234,0.55 C203.063425,0.55 207.290882,1.42082463 210.8059,3.1625 C214.320918,4.90417538 216.996724,7.08915353 218.8334,9.7175 C220.670076,12.3458465 221.651733,14.9899867 221.7784,17.65 C221.7784,18.2200029 221.588402,18.6949981 221.2084,19.075 C220.828398,19.4550019 220.353403,19.645 219.7834,19.645 L215.0334,19.645 C214.526731,19.645 214.051736,19.4866683 213.6084,19.17 C213.165064,18.8533318 212.848401,18.3783365 212.6584,17.745 C212.278398,15.0216531 210.758413,12.7733422 208.0984,11 C205.438387,9.2266578 202.11342,8.34 198.1234,8.34 C193.816712,8.34 190.396746,9.17915828 187.8634,10.8575 C185.330054,12.5358417 184.0634,15.0216502 184.0634,18.315 C184.0634,20.5316778 184.649227,22.3366597 185.8209,23.73 C186.992573,25.1233403 188.797554,26.358328 191.2359,27.435 C193.674246,28.5116721 197.23671,29.7466597 201.9234,31.14 C207.30676,32.6600076 211.534218,34.1799924 214.6059,35.7 C217.677582,37.2200076 219.973392,39.1041554 221.4934,41.3525 C223.013408,43.6008446 223.7734,46.4983156 223.7734,50.045 C223.7734,55.9983631 221.509256,60.6374834 216.9809,63.9625 C212.452544,67.2875166 206.325105,68.95 198.5984,68.95 C193.405041,68.95 188.892586,68.1266749 185.0609,66.48 Z M251.2493,67.3825 C250.837631,66.9708313 250.6318,66.4483365 250.6318,65.815 L250.6318,9.67 L232.2968,9.67 C231.663463,9.67 231.140969,9.46416873 230.7293,9.0525 C230.317631,8.64083128 230.1118,8.1183365 230.1118,7.485 L230.1118,3.78 C230.1118,3.08332985 230.317631,2.52916873 230.7293,2.1175 C231.140969,1.70583128 231.663463,1.5 232.2968,1.5 L277.8968,1.5 C278.59347,1.5 279.131798,1.70583128 279.5118,2.1175 C279.891802,2.52916873 280.0818,3.08332985 280.0818,3.78 L280.0818,7.485 C280.0818,8.1183365 279.875969,8.64083128 279.4643,9.0525 C279.052631,9.46416873 278.530136,9.67 277.8968,9.67 L259.6568,9.67 L259.6568,65.815 C259.6568,66.4483365 259.435136,66.9708313 258.9918,67.3825 C258.548464,67.7941687 258.010136,68 257.3768,68 L252.8168,68 C252.183463,68 251.660969,67.7941687 251.2493,67.3825 Z M292.0252,67.3825 C291.645198,66.9708313 291.4552,66.4483365 291.4552,65.815 L291.4552,3.78 C291.4552,3.08332985 291.645198,2.52916873 292.0252,2.1175 C292.405202,1.70583128 292.911863,1.5 293.5452,1.5 L316.7252,1.5 C323.945236,1.5 329.59768,3.19414973 333.6827,6.5825 C337.76772,9.97085028 339.8102,14.8949677 339.8102,21.355 C339.8102,26.1683574 338.606879,30.1266512 336.2002,33.23 C333.793521,36.3333489 330.436888,38.4866607 326.1302,39.69 L340.7602,65.055 C340.950201,65.4350019 341.0452,65.7833318 341.0452,66.1 C341.0452,66.6066692 340.855202,67.0499981 340.4752,67.43 C340.095198,67.8100019 339.651869,68 339.1452,68 L334.9652,68 C334.015195,68 333.271036,67.7783356 332.7327,67.335 C332.194364,66.8916645 331.703536,66.2583375 331.2602,65.435 L317.2952,41.115 L300.3852,41.115 L300.3852,65.815 C300.3852,66.4483365 300.163536,66.9708313 299.7202,67.3825 C299.276864,67.7941687 298.738536,68 298.1052,68 L293.5452,68 C292.911863,68 292.405202,67.7941687 292.0252,67.3825 Z M316.3452,33.325 C325.908581,33.325 330.6902,29.3033736 330.6902,21.26 C330.6902,13.2166265 325.908581,9.195 316.3452,9.195 L300.3852,9.195 L300.3852,33.325 L316.3452,33.325 Z M358.6886,62.4425 C354.191911,58.104145 351.816935,51.5650437 351.5636,42.825 C351.500266,40.9249905 351.4686,38.2333508 351.4686,34.75 C351.4686,31.2666493 351.500266,28.6066759 351.5636,26.77 C351.816935,18.1566236 354.271077,11.6333555 358.9261,7.2 C363.581123,2.7666445 369.866894,0.55 377.7836,0.55 C385.700306,0.55 391.970244,2.7666445 396.5936,7.2 C401.216956,11.6333555 403.655265,18.1566236 403.9086,26.77 C404.035267,30.4433517 404.0986,33.1033251 404.0986,34.75 C404.0986,36.3333413 404.035267,39.024981 403.9086,42.825 C403.655265,51.5650437 401.296122,58.104145 396.8311,62.4425 C392.366078,66.780855 386.016974,68.95 377.7836,68.95 C369.550225,68.95 363.185289,66.780855 358.6886,62.4425 Z M389.9436,56.4575 C392.983615,53.385818 394.630265,48.683365 394.8836,42.35 C395.010267,38.549981 395.0736,36.016673 395.0736,34.75 C395.0736,33.3566597 395.010267,30.8233517 394.8836,27.15 C394.630265,20.816635 392.983615,16.0983489 389.9436,12.995 C386.903585,9.89165115 382.850292,8.34 377.7836,8.34 C372.716908,8.34 368.647782,9.89165115 365.5761,12.995 C362.504418,16.0983489 360.873601,20.816635 360.6836,27.15 C360.620266,28.9866759 360.5886,31.5199839 360.5886,34.75 C360.5886,37.9166825 360.620266,40.4499905 360.6836,42.35 C360.873601,48.683365 362.488585,53.385818 365.5286,56.4575 C368.568615,59.529182 372.653574,61.065 377.7836,61.065 C382.850292,61.065 386.903585,59.529182 389.9436,56.4575 Z M419.272,67.3825 C418.891998,66.9708313 418.702,66.4483365 418.702,65.815 L418.702,3.685 C418.702,3.0516635 418.891998,2.52916873 419.272,2.1175 C419.652002,1.70583128 420.158663,1.5 420.792,1.5 L425.542,1.5 C426.175336,1.5 426.681998,1.70583128 427.062,2.1175 C427.442002,2.52916873 427.632,3.0516635 427.632,3.685 L427.632,60.02 L459.362,60.02 C460.05867,60.02 460.612831,60.2258313 461.0245,60.6375 C461.436169,61.0491687 461.642,61.5716635 461.642,62.205 L461.642,65.815 C461.642,66.4483365 461.420335,66.9708313 460.977,67.3825 C460.533664,67.7941687 459.995336,68 459.362,68 L420.792,68 C420.158663,68 419.652002,67.7941687 419.272,67.3825 Z M466.6504,67.43 C466.270398,67.0499981 466.0804,66.6066692 466.0804,66.1 L466.2704,65.055 L489.8304,3.59 C490.337069,2.1966597 491.350392,1.5 492.8704,1.5 L498.9504,1.5 C500.470408,1.5 501.483731,2.1966597 501.9904,3.59 L525.5504,65.055 L525.7404,66.1 C525.7404,66.6066692 525.534569,67.0499981 525.1229,67.43 C524.711231,67.8100019 524.252069,68 523.7454,68 L519.2804,68 C518.647063,68 518.124569,67.8258351 517.7129,67.4775 C517.301231,67.1291649 517.032067,66.7650019 516.9054,66.385 L511.5854,52.705 L480.1404,52.705 L474.9154,66.385 C474.408731,67.4616721 473.617072,68 472.5404,68 L467.9804,68 C467.473731,68 467.030402,67.8100019 466.6504,67.43 Z M482.8954,44.82 L508.9254,44.82 L495.9104,10.715 L482.8954,44.82 Z M537.1138,67.3825 C536.733798,66.9708313 536.5438,66.4483365 536.5438,65.815 L536.5438,3.78 C536.5438,3.08332985 536.733798,2.52916873 537.1138,2.1175 C537.493802,1.70583128 538.000463,1.5 538.6338,1.5 L564.5688,1.5 C571.282167,1.5 576.348783,3.11498385 579.7688,6.345 C583.188817,9.57501615 584.8988,13.7866407 584.8988,18.98 C584.8988,22.5266844 584.075475,25.4874881 582.4288,27.8625 C580.782125,30.2375119 578.850478,31.963328 576.6338,33.04 C579.357147,34.3700067 581.637124,36.4283194 583.4738,39.215 C585.310476,42.0016806 586.2288,45.199982 586.2288,48.81 C586.2288,52.3566844 585.421308,55.5866521 583.8063,58.5 C582.191292,61.4133479 579.800482,63.7249915 576.6338,65.435 C573.467117,67.1450086 569.698822,68 565.3288,68 L538.6338,68 C538.000463,68 537.493802,67.7941687 537.1138,67.3825 Z M563.1438,29.715 C567.260487,29.715 570.395456,28.7808427 572.5488,26.9125 C574.702144,25.0441573 575.7788,22.4316835 575.7788,19.075 C575.7788,15.7816502 574.717977,13.2800086 572.5963,11.57 C570.474623,9.85999145 567.323821,9.005 563.1438,9.005 L545.4738,9.005 L545.4738,29.715 L563.1438,29.715 Z M564.0938,60.495 C568.147154,60.495 571.329622,59.4025109 573.6413,57.2175 C575.952978,55.0324891 577.1088,52.2300171 577.1088,48.81 C577.1088,45.3266493 575.952978,42.5083441 573.6413,40.355 C571.329622,38.2016559 568.147154,37.125 564.0938,37.125 L545.4738,37.125 L545.4738,60.495 L564.0938,60.495 Z M601.0222,67.3825 C600.642198,66.9708313 600.4522,66.4483365 600.4522,65.815 L600.4522,3.78 C600.4522,3.08332985 600.642198,2.52916873 601.0222,2.1175 C601.402202,1.70583128 601.908863,1.5 602.5422,1.5 L641.5872,1.5 C642.28387,1.5 642.838031,1.70583128 643.2497,2.1175 C643.661369,2.52916873 643.8672,3.08332985 643.8672,3.78 L643.8672,7.2 C643.8672,7.8333365 643.661369,8.3399981 643.2497,8.72 C642.838031,9.1000019 642.28387,9.29 641.5872,9.29 L609.1922,9.29 L609.1922,30.475 L639.4972,30.475 C640.19387,30.475 640.748031,30.6808313 641.1597,31.0925 C641.571369,31.5041687 641.7772,32.0583299 641.7772,32.755 L641.7772,35.985 C641.7772,36.6183365 641.571369,37.1408313 641.1597,37.5525 C640.748031,37.9641687 640.19387,38.17 639.4972,38.17 L609.1922,38.17 L609.1922,60.115 L642.3472,60.115 C643.04387,60.115 643.598031,60.3208313 644.0097,60.7325 C644.421369,61.1441687 644.6272,61.6983299 644.6272,62.395 L644.6272,65.815 C644.6272,66.4483365 644.405535,66.9708313 643.9622,67.3825 C643.518864,67.7941687 642.980536,68 642.3472,68 L602.5422,68 C601.908863,68 601.402202,67.7941687 601.0222,67.3825 Z" id="ASTROLABE" fill="#1A3C44"></path>
            <g id="Group-2" transform="translate(0.000000, 3.000000)">
                <path d="M63.5859913,0 L0,0 L0,63.0447761 C34.9374879,63.0447761 63.2940757,34.8685934 63.5859913,0 Z" id="Combined-Shape" stroke="#1A3C44" stroke-width="8" stroke-linejoin="round"></path>
                <circle id="Oval-4" fill="#193C44" cx="27.2238806" cy="27.2238806" r="7.1641791"></circle>
            </g>
        </g>
    </g>
</svg>