<svg id="Layer_1" data-name="Layer 1" xmlns="http://www.w3.org/2000/svg" xmlns:xlink="http://www.w3.org/1999/xlink" viewBox="0 0 1937.71 2555.37"><defs><style>.cls-1{fill:#3c3c3b;}.cls-2{fill:url(#linear-gradient);}</style><linearGradient id="linear-gradient" x1="3926.84" y1="4322.15" x2="3926.84" y2="-1646.83" gradientUnits="userSpaceOnUse"><stop offset="0" stop-color="#f9c97f"/><stop offset="0.13" stop-color="#f3a879"/><stop offset="0.3" stop-color="#ed8673"/><stop offset="0.47" stop-color="#e86b6f"/><stop offset="0.64" stop-color="#e5586c"/><stop offset="0.81" stop-color="#e34d6a"/><stop offset="1" stop-color="#e24969"/></linearGradient></defs><title>BTlogo_Icon_Black.Orange</title><path class="cls-1" d="M2631.14,4134.5c0-3,.54-4.06,3-4.57,19.76-.49,60.25-1,100.19-1,103.7,0,123.47,47.1,123.47,86,0,36.46-21.26,61.22-50.08,71.86v1c30.85,8.07,63.75,32.36,63.75,78.41,0,64.78-56.18,94.61-143.68,94.61-36.93.51-74.89-.49-93.08-1-3-.54-3.56-2.06-3.56-4Zm59.72,131h47.57c45,0,59.67-19.72,59.67-44.55,0-31.35-21.78-44-64.24-44-20.26,0-37.45.5-43,1Zm0,146.24c5,0,18.22,1,40.45,1,46.56,0,76.91-12.69,76.91-49.59,0-29.82-19.72-48.53-69.78-48.53h-47.57Z" transform="translate(-2631.14 -1913.1)"/><path class="cls-1" d="M3093.07,4406.69c0,11.12.49,20.73,1.46,31.33,0,1.05,0,2.06-1.46,2.58-35.45,16.65-69.84,24.25-105.77,24.25-56.18,0-101.69-23.75-101.69-80.94,0-58.17,50.09-84.48,148.25-80.44v-8.07c0-10.62-6.59-37-50.6-37-24.29,0-49.12,6.59-69.33,16.7-2,.49-4,0-4-3v-39.48c0-2.51.49-4,3-5,22.23-11.16,53.62-18.76,82-18.76,67.29,0,98.17,41.52,98.17,97.63Zm-59.2-62.72c-67.31-3.07-88.56,12.12-88.56,38.92,0,19.27,14.72,36.46,51.61,36.46,14.18,0,27.34-1.54,37-5.11Z" transform="translate(-2631.14 -1913.1)"/><path class="cls-1" d="M3304,4449.17c0,2-.51,3.57-2.51,4.55-16.7,8.09-35.43,11.11-60.75,11.11-82.44,0-123-55.64-123-126.94,0-74.89,53.69-129,133.1-129,26.8,0,43,5.06,51.09,9.1,2,1.05,2.53,2.06,2.53,5.09l-.52,41c0,3-1.5,3.56-3.52,2.51-12.68-5.58-25.81-9.1-45.55-9.1-45.49,0-74.35,31.37-74.35,78.9,0,56.13,35.41,78.43,72.83,78.43,22.27,0,36-4,47.08-9.12,2.51-.49,3.52.54,3.52,2.56Z" transform="translate(-2631.14 -1913.1)"/><path class="cls-1" d="M3720.21,4454.33c0,2.51-.5,4.57-3,5.58-13.67,6.59-28.86,8.56-45.56,8.56-41.45,0-65.77-20.23-65.77-70.32V4263.56l-31.39-1c-3-.49-3.52-1.5-3.52-4.53v-36.46c0-3,.54-4,4.08-4h30.83c.54-17.66,3-49.57,5.54-63.26a5,5,0,0,1,4.1-4l50.6-9.59c2.49-.51,4-.51,4,2.51-1.5,16.69-2.46,49.59-3,74.37h51.07c3,0,3.54,1,3.54,3.54v37.44c0,3.07-1,3.54-3,4l-52.14,1v124c0,22.79,7.08,33.9,28.86,33.9,6.55,0,12.66-1,21.76-3.56,1.52-.47,3,0,3,3.07Z" transform="translate(-2631.14 -1913.1)"/><path class="cls-1" d="M3803.86,4217.54c3,0,4.48,1,5.53,4,2,6.59,4.06,19.76,5.06,30.88,18.71-25.79,50.6-40,74.84-40a29.29,29.29,0,0,1,6.59.49c2.55.52,3.07,1,3.07,5.09v47c0,2.55-1.05,3.56-4.08,3.56-28.82-1-60.19,10.6-77.87,29.82v160.91c0,3-1.07,4-4.06,4H3759.8c-3.07,0-4-1.05-4-4V4288.91c0-22.27-1-51.65-2.51-68.34-.53-2,.5-3,3-3Z" transform="translate(-2631.14 -1913.1)"/><path class="cls-1" d="M4112.44,4410.32a304.47,304.47,0,0,0,1.53,31.32c0,1.05,0,2.06-1.53,2.58-35.4,16.65-69.8,24.25-105.74,24.25-56.16,0-101.69-23.75-101.69-80.94,0-58.17,50.08-84.48,148.25-80.44V4299c0-10.62-6.59-37-50.6-37-24.29,0-49.05,6.59-69.35,16.69-2,.5-4,0-4-3v-39.48c0-2.51.52-4,3-5,22.27-11.16,53.67-18.76,82-18.76,67.29,0,98.17,41.52,98.17,97.63Zm-59.18-62.72c-67.3-3.07-88.56,12.12-88.56,38.92,0,19.27,14.7,36.46,51.58,36.46,14.19,0,27.36-1.54,37-5.11Z" transform="translate(-2631.14 -1913.1)"/><path class="cls-1" d="M4323.41,4452.8c0,2-.53,3.56-2.55,4.55-16.65,8.09-35.45,11.11-60.7,11.11-82.49,0-123-55.64-123-126.94,0-74.89,53.64-129,133.06-129,26.82,0,43,5.07,51.07,9.1,2.08,1.05,2.55,2.06,2.55,5.09l-.47,41c0,3-1.55,3.56-3.56,2.51-12.66-5.58-25.79-9.1-45.51-9.1-45.55,0-74.39,31.37-74.39,78.9,0,56.13,35.43,78.43,72.85,78.43,22.27,0,35.9-4,47.06-9.12,2.55-.49,3.56.54,3.56,2.55Z" transform="translate(-2631.14 -1913.1)"/><path class="cls-1" d="M4403.3,4349c1.05,38.43,24.79,65.74,75.92,65.74,18.69,0,41.46-3,63.24-12.59,1.55-.51,3,0,3,2.51v40.49c0,3.52-1,4.53-3,5.54-19.76,10.11-43.52,13.62-75.85,14.14-92.12,0-125.53-62.68-125.53-126.45,0-72.35,43-129.54,118.94-129.54,74.33,0,104.2,56.67,104.2,103.7,0,21.76-2.55,31.89-4.52,33.43-6.08,2.49-25.34,3-53.2,3Zm81-38.95c18.71,0,21.78-2,22.23-4.05v-5.54c0-15.19-10.06-48.13-49-48.13-32.85,0-50.1,25.34-54.16,57.72Z" transform="translate(-2631.14 -1913.1)"/><path class="cls-1" d="M3398.6,4108c0-2.33-1.05-3.29-3.54-3.29h-53.13c-3.54,0-4,1.52-4,3.52V4458.9c0,3,.49,4.52,4,4.52h53.13c2.84,0,3.49-1.35,3.54-4Z" transform="translate(-2631.14 -1913.1)"/><path class="cls-1" d="M3573.45,4458.9c-33.34-40-68.8-84.5-101.13-123a3.83,3.83,0,0,1,0-4.57c17.66-22.28,67.78-85,82.46-108.75,1.52-2.55,1-5.09-2.51-5.09h-55.17c-3,0-4,.52-5.58,3-6,9.14-15.26,22.63-25.05,36.77v0L3406,4338.5l23,30.72c23.19,31.44,45.87,61.09,68.1,91.18,1.5,2,2.49,3,6.05,3h67.79C3574,4463.42,3575,4460.87,3573.45,4458.9Z" transform="translate(-2631.14 -1913.1)"/><path class="cls-2" d="M4172.3,1913.1c-10.74,0-23.07,7.94-27.5,17.74l-858.39,1902.1c-4.43,9.78.78,17.7,11.45,17.7H4549.34a19.53,19.53,0,0,0,19.51-19.44V1932.59a19.53,19.53,0,0,0-19.51-19.49Z" transform="translate(-2631.14 -1913.1)"/><path class="cls-1" d="M3913.75,1930.84c4.43-9.8-.73-17.74-11.45-17.74H2650.7a19.48,19.48,0,0,0-19.42,19.49v171.66a19.51,19.51,0,0,0,19.42,19.51H3807.27c10.67,0,23-8,27.41-17.77Z" transform="translate(-2631.14 -1913.1)"/><path class="cls-1" d="M3524.09,2794.42c4.34-9.8-.8-17.79-11.45-17.79H2650.7a19.49,19.49,0,0,0-19.42,19.44v171.66a19.46,19.46,0,0,0,19.42,19.44h766.85c10.74,0,23.07-7.9,27.5-17.7Z" transform="translate(-2631.14 -1913.1)"/><path class="cls-1" d="M3718.91,2362.54c4.39-9.71-.8-17.7-11.45-17.7H2650.7a19.5,19.5,0,0,0-19.42,19.49V2536a19.51,19.51,0,0,0,19.42,19.47h961.67c10.65,0,23.07-8,27.46-17.72Z" transform="translate(-2631.14 -1913.1)"/><path class="cls-1" d="M3329.22,3226.17c4.34-9.8-.82-17.79-11.45-17.79H2650.7a19.49,19.49,0,0,0-19.42,19.44V3399.5a19.49,19.49,0,0,0,19.42,19.42h572c10.67,0,23.07-8,27.45-17.77Z" transform="translate(-2631.14 -1913.1)"/><path class="cls-1" d="M3134.37,3657.91c4.41-9.8-.76-17.77-11.45-17.77H2650.7a19.48,19.48,0,0,0-19.42,19.51v171.61a19.52,19.52,0,0,0,19.42,19.51h377.16c10.75,0,23.07-8.06,27.46-17.77Z" transform="translate(-2631.14 -1913.1)"/></svg>