<?xml version="1.0" encoding="UTF-8"?>
<svg width="93px" height="93px" viewBox="0 0 93 93" version="1.1" xmlns="http://www.w3.org/2000/svg" xmlns:xlink="http://www.w3.org/1999/xlink">
    <!-- Generator: Sketch 59.1 (86144) - https://sketch.com -->
    <title>Shape</title>
    <desc>Created with Sketch.</desc>
    <g id="Rebalance.finance" stroke="none" stroke-width="1" fill="none" fill-rule="evenodd">
        <path d="M46.2,0 C20.684,0 0,20.684 0,46.2 C0,71.716 20.684,92.4 46.2,92.4 C71.716,92.4 92.4,71.716 92.4,46.2 C92.4,20.6844446 71.7155554,0 46.2,0 Z M65.2,65.496 L45.896,76.66 L45.896,76.664 L45.888,76.664 L26.572,65.496 L26.572,26.864 L26.592,26.876 L45.88,15.736 L58.26,22.644 L58.264,22.644 L58.264,40.084 L52.24,36.624 L52.24,26.12 L45.888,22.5 L32.592,30.188 L32.592,62.212 L45.888,69.9 L59.184,62.236 L59.248,49.076 L40.356,38.116 L46.424,34.924 L65.248,45.9 L65.2,65.5 L65.2,65.496 Z M49.528,44.944 L54.18,47.62 L40.356,55.492 L40.356,39.62 L45.212,42.484 L45.212,47.248 L49.532,44.944 L49.528,44.944 Z" id="Shape" fill="#5269FF" fill-rule="nonzero"></path>
    </g>
</svg>