<?xml version="1.0" encoding="utf-8"?>
<!-- Generator: Adobe Illustrator 19.1.0, SVG Export Plug-In . SVG Version: 6.00 Build 0)  -->
<svg version="1.1" id="Layer_1" xmlns="http://www.w3.org/2000/svg" xmlns:xlink="http://www.w3.org/1999/xlink" x="0px" y="0px"
	 viewBox="0 0 26.9 27.2" style="enable-background:new 0 0 26.9 27.2;" xml:space="preserve">
<style type="text/css">
	.st0{fill:#231F20;}
	.st1{fill:none;stroke:#FFFFFF;}
</style>
<path class="st0" d="M19,1.4c0,0-1.1-2.2-3.3-1.1l0,0c0,0-2.2,1.1-4.4,0l0,0c0,0-2.2-1.1-3.3,1.1L7.8,1.6c0,0-1.1,2.2-3.5,2.7l0,0
	c0,0-2.4,0.5-2.1,2.9l0,0.2c0,0,0.3,2.4-1.3,4.3l-0.1,0.1c0,0-1.6,1.8,0,3.7l0.1,0.1c0,0,1.6,1.8,1.3,4.3l0,0.2c0,0-0.3,2.4,2.1,2.9
	l0,0c0,0,2.4,0.5,3.5,2.7l0.1,0.2c0,0,1.1,2.2,3.3,1.1l0,0c0,0,2.2-1.1,4.4,0l0,0c0,0,2.2,1.1,3.3-1.1l0.1-0.2c0,0,1.1-2.2,3.5-2.7
	l0,0c0,0,2.4-0.5,2.1-2.9l0-0.2c0,0-0.3-2.4,1.3-4.3l0.1-0.1c0,0,1.6-1.8,0-3.7l-0.1-0.1c0,0-1.6-1.8-1.3-4.3l0-0.2
	c0,0,0.3-2.4-2.1-2.9l0,0c0,0-2.4-0.5-3.5-2.7L19,1.4z"/>
<path class="st1" d="M10.4,25.2c-0.9,0-1.4-0.9-1.4-0.9l-0.1-0.2c-1.2-2.2-3.5-2.7-3.6-2.7c-1.5-0.3-1.4-1.8-1.4-1.9l0-0.2
	c0.3-2.4-1.3-4.3-1.4-4.3c-1.1-1.3-0.1-2.5-0.1-2.5C4.2,10.4,3.9,8,3.9,7.9l0-0.2C3.7,6.1,5.2,5.8,5.3,5.8c2.4-0.5,3.6-2.6,3.6-2.7
	L9,2.9C9.3,2.3,9.8,2,10.3,2c0.4,0,0.8,0.2,0.8,0.2c0.7,0.3,1.4,0.5,2.2,0.5c1.3,0,2.3-0.5,2.3-0.5C16,2.1,16.3,2,16.5,2
	c0.9,0,1.4,0.9,1.4,0.9L18,3.1c1.2,2.2,3.5,2.7,3.6,2.7C23.1,6.1,23,7.5,23,7.7l0,0.2c-0.3,2.4,1.3,4.3,1.4,4.3
	c1.1,1.3,0.2,2.4,0.1,2.5c-1.7,1.9-1.5,4.3-1.4,4.4l0,0.2c0.2,1.5-1.2,1.9-1.4,1.9C19.2,21.9,18,24,18,24.1l-0.1,0.2
	c-0.3,0.6-0.7,0.9-1.3,0.9c-0.4,0-0.8-0.2-0.8-0.2c-0.7-0.3-1.4-0.5-2.2-0.5c-1.3,0-2.3,0.5-2.3,0.5C10.9,25.1,10.6,25.2,10.4,25.2z
	"/>
</svg>
