<?xml version="1.0" encoding="UTF-8" standalone="no"?>
<svg width="210px" height="210px" viewBox="0 0 210 210" version="1.1" xmlns="http://www.w3.org/2000/svg" xmlns:xlink="http://www.w3.org/1999/xlink" xmlns:sketch="http://www.bohemiancoding.com/sketch/ns">
    <!-- Generator: Sketch 3.2.2 (9983) - http://www.bohemiancoding.com/sketch -->
    <title>Logo Square</title>
    <desc>Created with Sketch.</desc>
    <defs></defs>
    <g id="Page-1" stroke="none" stroke-width="1" fill="none" fill-rule="evenodd" sketch:type="MSPage">
        <g id="Logo-+-Name" sketch:type="MSArtboardGroup" transform="translate(4.000000, 22.000000)" fill="#494949">
            <g id="Coursebase-1" sketch:type="MSLayerGroup" transform="translate(1.000000, 0.500000)">
                <g id="Logo" transform="translate(-0.360000, 0.500000)" sketch:type="MSShapeGroup">
                    <path d="M184.217115,92.1662682 L200.332294,102.157679 L200.36,102.157679 L200.346147,102.166268 L200.36,102.174857 L200.332294,102.174857 L100.36,164.157679 L0.387705601,102.174857 L0.387705601,102.174857 L0.36,102.174857 L0.373852801,102.166268 L0.36,102.157679 L0.387705601,102.157679 L16.5028851,92.1662682 L100.36,144.157679 L184.217115,92.1662682 L184.217115,92.1662682 L184.217115,92.1662682 Z" id="Lower"></path>
                    <path d="M100.36,124.174857 L0.36,62.1748569 L200.36,62.1748569 L100.36,124.174857 L100.36,124.174857 Z M100.36,0.174856891 L200.36,62.1748569 L0.36,62.1748569 L100.36,0.174856891 L100.36,0.174856891 Z M100.36,100.174857 L38.36,62.1748569 L162.36,62.1748569 L100.36,100.174857 L100.36,100.174857 Z M100.36,24.1748569 L162.36,62.1748569 L38.36,62.1748569 L100.36,24.1748569 L100.36,24.1748569 Z" id="Upper"></path>
                </g>
            </g>
        </g>
        <g id="Logo-Square" sketch:type="MSArtboardGroup"></g>
        <g id="Logo" sketch:type="MSArtboardGroup" transform="translate(4.000000, 22.000000)"></g>
    </g>
</svg>
