<svg id="svg" version="1.1" xmlns="http://www.w3.org/2000/svg" xmlns:xlink="http://www.w3.org/1999/xlink" width="400" height="160" viewBox="0, 0, 400,160"><g id="svgg"><path id="path0" d="M87.000 12.340 C 85.303 12.468,84.493 12.550,82.750 12.768 C 82.292 12.825,81.740 12.863,81.525 12.853 C 81.310 12.843,81.047 12.890,80.942 12.959 C 80.836 13.027,79.737 13.243,78.500 13.438 C 77.262 13.633,76.100 13.838,75.917 13.893 C 75.733 13.948,74.688 14.181,73.594 14.411 C 72.500 14.641,71.528 14.905,71.436 14.998 C 71.343 15.091,71.089 15.167,70.872 15.167 C 70.656 15.167,70.346 15.237,70.185 15.324 C 70.023 15.410,69.709 15.506,69.487 15.536 C 69.265 15.567,68.985 15.654,68.864 15.729 C 68.743 15.805,68.600 15.822,68.546 15.768 C 68.492 15.714,68.365 15.737,68.265 15.818 C 68.119 15.939,67.380 16.187,66.458 16.426 C 66.390 16.444,66.315 16.473,66.292 16.492 C 66.269 16.510,66.071 16.558,65.852 16.598 C 65.633 16.639,65.117 16.821,64.706 17.003 C 64.294 17.184,63.822 17.333,63.655 17.333 C 63.489 17.333,63.307 17.408,63.250 17.500 C 63.193 17.592,63.001 17.667,62.823 17.667 C 62.646 17.667,62.500 17.725,62.500 17.797 C 62.500 17.869,62.144 18.030,61.708 18.155 C 61.273 18.280,60.823 18.455,60.708 18.545 C 60.594 18.634,60.500 18.653,60.500 18.587 C 60.500 18.521,60.256 18.608,59.958 18.781 C 59.660 18.954,59.098 19.198,58.708 19.324 C 58.319 19.450,58.000 19.624,58.000 19.711 C 58.000 19.798,57.887 19.826,57.750 19.773 C 57.612 19.720,57.500 19.750,57.500 19.839 C 57.500 19.927,57.413 20.000,57.307 20.000 C 57.046 20.000,53.609 21.685,53.481 21.876 C 53.425 21.960,53.350 22.007,53.315 21.982 C 53.204 21.902,51.590 22.739,51.457 22.945 C 51.388 23.053,51.107 23.190,50.832 23.250 C 50.558 23.310,50.333 23.429,50.333 23.513 C 50.333 23.598,50.221 23.667,50.083 23.667 C 49.946 23.667,49.833 23.726,49.833 23.799 C 49.833 23.872,49.496 24.071,49.083 24.241 C 48.671 24.411,48.333 24.602,48.333 24.666 C 48.333 24.729,47.996 24.955,47.583 25.167 C 47.171 25.379,46.833 25.620,46.833 25.703 C 46.833 25.785,46.758 25.807,46.667 25.750 C 46.575 25.693,46.500 25.721,46.500 25.812 C 46.500 25.903,46.350 26.025,46.168 26.083 C 45.985 26.141,45.741 26.281,45.626 26.394 C 45.511 26.507,44.944 26.890,44.367 27.245 C 43.790 27.600,43.265 27.971,43.201 28.070 C 43.136 28.169,42.880 28.355,42.631 28.484 C 42.382 28.612,42.225 28.792,42.281 28.884 C 42.338 28.976,42.312 29.007,42.224 28.952 C 42.135 28.897,41.849 29.036,41.589 29.259 C 41.328 29.483,41.070 29.667,41.016 29.667 C 40.961 29.667,40.580 29.974,40.169 30.350 C 39.758 30.726,39.207 31.186,38.945 31.372 C 38.683 31.559,38.277 31.889,38.043 32.106 C 37.809 32.323,37.559 32.500,37.487 32.500 C 37.415 32.500,37.308 32.650,37.250 32.833 C 37.192 33.017,37.077 33.167,36.994 33.167 C 36.693 33.167,31.167 38.587,31.167 38.881 C 31.167 38.933,30.960 39.189,30.708 39.452 C 30.456 39.715,30.006 40.227,29.709 40.590 C 29.411 40.953,29.029 41.400,28.860 41.583 C 28.691 41.767,28.374 42.179,28.155 42.500 C 27.935 42.821,27.592 43.271,27.392 43.500 C 26.890 44.074,25.833 45.667,25.833 45.850 C 25.833 45.933,25.771 46.000,25.695 46.000 C 25.619 46.000,25.453 46.206,25.327 46.458 C 25.202 46.710,24.968 47.067,24.809 47.250 C 24.650 47.433,24.516 47.640,24.512 47.709 C 24.507 47.779,24.326 48.116,24.108 48.459 C 23.482 49.450,22.868 50.570,22.865 50.731 C 22.863 50.813,22.799 50.925,22.723 50.981 C 22.531 51.122,21.642 52.833,21.761 52.833 C 21.814 52.833,21.739 52.951,21.595 53.095 C 21.451 53.239,21.332 53.483,21.330 53.637 C 21.328 53.791,21.179 54.104,21.000 54.333 C 20.821 54.563,20.672 54.845,20.670 54.961 C 20.668 55.076,20.595 55.301,20.508 55.461 C 20.331 55.784,19.764 57.136,19.584 57.667 C 19.568 57.712,19.468 57.961,19.361 58.219 C 19.254 58.477,19.167 58.716,19.167 58.750 C 19.167 58.784,19.079 59.023,18.972 59.281 C 18.865 59.539,18.762 59.806,18.743 59.875 C 18.724 59.944,18.690 60.038,18.667 60.083 C 18.644 60.129,18.612 60.223,18.596 60.292 C 18.570 60.404,18.152 61.760,17.580 63.583 C 17.465 63.950,17.317 64.587,17.250 65.000 C 17.184 65.412,17.064 65.831,16.985 65.929 C 16.906 66.027,16.873 66.271,16.911 66.471 C 16.949 66.670,16.919 66.833,16.843 66.833 C 16.767 66.833,16.652 67.262,16.586 67.786 C 16.521 68.310,16.437 68.891,16.401 69.077 C 16.365 69.264,16.288 69.867,16.231 70.417 C 16.174 70.967,16.087 71.484,16.038 71.567 C 15.783 71.997,15.669 83.567,15.909 84.583 C 15.974 84.858,16.132 85.833,16.260 86.750 C 16.387 87.667,16.544 88.642,16.608 88.917 C 16.671 89.192,16.748 89.567,16.778 89.750 C 16.869 90.296,16.935 90.569,17.040 90.833 C 17.224 91.290,17.568 92.913,17.526 93.125 C 17.504 93.240,17.564 93.333,17.659 93.333 C 17.755 93.333,17.833 93.522,17.833 93.752 C 17.833 93.983,17.901 94.301,17.984 94.461 C 18.112 94.706,18.470 95.852,18.595 96.417 C 18.615 96.508,18.777 96.958,18.956 97.417 C 19.367 98.472,19.454 98.719,19.472 98.879 C 19.480 98.950,19.598 99.213,19.734 99.462 C 19.870 99.712,20.106 100.217,20.257 100.583 C 20.409 100.950,20.713 101.639,20.933 102.115 C 21.153 102.590,21.333 103.052,21.333 103.142 C 21.333 103.232,21.412 103.332,21.509 103.364 C 21.606 103.396,21.701 103.534,21.721 103.670 C 21.741 103.806,21.962 104.282,22.212 104.729 C 22.462 105.176,22.667 105.593,22.667 105.655 C 22.667 105.718,22.854 106.023,23.083 106.333 C 23.313 106.644,23.500 107.029,23.500 107.190 C 23.500 107.350,23.631 107.579,23.792 107.699 C 23.952 107.819,24.105 108.019,24.131 108.143 C 24.190 108.425,25.625 110.635,26.033 111.073 C 26.198 111.251,26.333 111.487,26.333 111.597 C 26.333 111.707,26.447 111.841,26.585 111.894 C 26.723 111.947,26.817 112.059,26.793 112.141 C 26.769 112.224,26.957 112.526,27.210 112.813 C 27.462 113.099,27.624 113.333,27.569 113.333 C 27.456 113.333,28.537 114.676,30.069 116.437 C 30.398 116.815,30.667 117.203,30.667 117.301 C 30.667 117.398,30.817 117.525,31.000 117.583 C 31.183 117.642,31.333 117.767,31.333 117.862 C 31.333 118.048,36.607 123.333,36.793 123.333 C 36.855 123.333,37.077 123.532,37.286 123.776 C 37.496 124.019,37.667 124.167,37.667 124.104 C 37.667 124.040,37.883 124.197,38.147 124.453 C 39.013 125.289,40.363 126.412,40.809 126.667 C 41.049 126.804,41.323 127.014,41.417 127.132 C 41.512 127.250,41.746 127.438,41.937 127.549 C 42.737 128.011,43.667 128.681,43.989 129.027 C 44.178 129.230,44.334 129.326,44.336 129.240 C 44.337 129.151,44.392 129.156,44.461 129.250 C 44.528 129.342,44.701 129.492,44.846 129.583 C 45.695 130.123,46.795 130.861,47.076 131.080 C 47.255 131.219,47.467 131.333,47.547 131.333 C 47.627 131.333,48.111 131.633,48.623 132.000 C 49.135 132.367,49.675 132.667,49.823 132.667 C 49.971 132.667,50.224 132.820,50.384 133.007 C 50.544 133.194,50.749 133.302,50.838 133.247 C 50.927 133.192,51.000 133.221,51.000 133.312 C 51.000 133.451,51.516 133.713,51.845 133.742 C 51.898 133.746,52.072 133.881,52.232 134.042 C 52.393 134.202,52.593 134.343,52.679 134.354 C 52.994 134.397,53.099 134.440,53.833 134.833 C 54.246 135.054,54.640 135.219,54.708 135.200 C 54.777 135.182,54.833 135.230,54.833 135.307 C 54.833 135.384,55.133 135.546,55.500 135.667 C 55.867 135.788,56.167 135.950,56.167 136.027 C 56.167 136.104,56.280 136.167,56.419 136.167 C 56.558 136.167,56.801 136.237,56.961 136.323 C 57.875 136.818,59.372 137.500,59.547 137.502 C 59.658 137.502,60.123 137.684,60.579 137.905 C 61.036 138.126,61.467 138.270,61.538 138.227 C 61.609 138.183,61.667 138.226,61.667 138.323 C 61.667 138.421,61.820 138.500,62.008 138.500 C 62.196 138.500,62.656 138.648,63.031 138.829 C 63.405 139.010,63.777 139.118,63.856 139.069 C 63.935 139.020,64.000 139.060,64.000 139.157 C 64.000 139.254,64.056 139.320,64.125 139.304 C 64.329 139.257,66.243 139.866,66.335 140.008 C 66.381 140.080,66.681 140.176,67.001 140.221 C 67.321 140.266,67.583 140.315,67.583 140.331 C 67.583 140.346,67.696 140.387,67.833 140.421 C 67.971 140.455,68.496 140.603,69.000 140.750 C 70.270 141.120,70.222 141.106,70.500 141.212 C 70.789 141.322,72.154 141.621,72.986 141.756 C 73.299 141.806,73.637 141.900,73.736 141.964 C 73.835 142.029,74.067 142.096,74.250 142.114 C 74.433 142.131,75.071 142.257,75.667 142.393 C 77.238 142.750,78.677 143.017,79.250 143.058 C 79.525 143.078,79.836 143.148,79.942 143.213 C 80.047 143.279,80.310 143.332,80.525 143.331 C 80.740 143.330,81.854 143.438,83.000 143.572 C 84.146 143.706,85.546 143.836,86.112 143.862 C 86.677 143.887,87.109 143.959,87.071 144.021 C 87.032 144.083,87.607 144.120,88.347 144.104 C 89.087 144.088,89.721 144.119,89.755 144.174 C 89.874 144.367,102.345 144.166,102.833 143.963 C 102.971 143.906,103.810 143.812,104.699 143.754 C 105.588 143.695,106.488 143.619,106.699 143.584 C 106.910 143.549,107.496 143.472,108.000 143.412 C 108.504 143.352,109.104 143.265,109.333 143.219 C 109.563 143.173,109.938 143.136,110.167 143.136 C 110.396 143.137,110.658 143.076,110.750 143.001 C 110.842 142.926,111.329 142.814,111.833 142.751 C 112.337 142.689,113.125 142.561,113.583 142.467 C 114.042 142.374,114.548 142.301,114.708 142.305 C 114.869 142.309,115.000 142.234,115.000 142.138 C 115.000 142.043,115.122 142.011,115.271 142.068 C 115.420 142.126,115.626 142.108,115.729 142.029 C 115.832 141.950,116.554 141.756,117.333 141.598 C 118.112 141.440,118.975 141.212,119.250 141.091 C 119.742 140.874,121.717 140.326,122.125 140.294 C 122.240 140.285,122.333 140.211,122.333 140.129 C 122.333 140.047,122.412 140.029,122.507 140.088 C 122.603 140.147,122.772 140.123,122.882 140.033 C 122.993 139.944,123.552 139.734,124.125 139.566 C 124.698 139.397,125.167 139.197,125.167 139.120 C 125.167 139.043,125.234 139.022,125.316 139.073 C 125.398 139.123,125.679 139.053,125.941 138.917 C 126.203 138.780,126.506 138.668,126.614 138.668 C 126.723 138.667,127.023 138.580,127.281 138.473 C 127.539 138.367,127.806 138.292,127.875 138.306 C 127.944 138.321,128.000 138.269,128.000 138.191 C 128.000 138.113,128.637 137.842,129.417 137.588 C 130.196 137.335,130.833 137.061,130.833 136.980 C 130.833 136.899,130.903 136.833,130.989 136.833 C 131.075 136.833,131.356 136.747,131.614 136.641 C 131.872 136.535,132.188 136.428,132.317 136.402 C 132.445 136.376,132.603 136.269,132.669 136.164 C 132.734 136.058,132.854 135.973,132.935 135.975 C 133.017 135.977,133.421 135.822,133.833 135.631 C 134.246 135.440,134.688 135.263,134.817 135.236 C 134.945 135.210,135.095 135.126,135.150 135.049 C 135.241 134.922,136.250 134.422,136.250 134.504 C 136.250 134.597,138.599 133.246,138.706 133.093 C 138.773 132.996,138.829 132.985,138.831 133.067 C 138.832 133.150,138.965 133.107,139.125 132.970 C 139.285 132.833,139.662 132.624,139.962 132.506 C 140.262 132.387,140.562 132.202,140.629 132.094 C 140.696 131.987,141.037 131.765,141.389 131.602 C 142.009 131.313,143.043 130.679,143.451 130.336 C 143.562 130.243,143.692 130.167,143.740 130.167 C 144.225 130.167,147.218 127.690,147.127 127.364 C 147.110 127.301,147.202 127.063,147.332 126.833 C 149.206 123.534,143.513 118.803,139.810 120.583 C 138.769 121.083,138.500 121.245,138.500 121.373 C 138.500 121.443,138.423 121.500,138.330 121.500 C 138.127 121.500,136.774 122.362,136.694 122.542 C 136.664 122.610,136.571 122.667,136.489 122.667 C 136.406 122.667,135.943 122.910,135.461 123.208 C 134.033 124.090,133.609 124.328,133.125 124.519 C 132.873 124.618,132.667 124.761,132.667 124.836 C 132.667 124.912,132.441 125.023,132.165 125.084 C 131.889 125.144,131.570 125.282,131.457 125.389 C 131.343 125.497,130.837 125.768,130.333 125.993 C 129.829 126.217,129.315 126.476,129.192 126.568 C 129.068 126.660,128.855 126.752,128.719 126.772 C 128.582 126.792,128.319 126.945,128.135 127.112 C 127.950 127.280,127.768 127.396,127.731 127.372 C 127.694 127.347,127.439 127.443,127.165 127.584 C 126.891 127.726,126.667 127.794,126.667 127.735 C 126.667 127.676,126.482 127.749,126.256 127.897 C 126.030 128.046,125.777 128.167,125.693 128.167 C 125.609 128.167,125.269 128.280,124.938 128.419 C 124.606 128.557,124.296 128.668,124.249 128.665 C 124.202 128.662,123.948 128.771,123.685 128.907 C 123.230 129.143,122.035 129.602,121.500 129.748 C 121.362 129.786,120.672 130.036,119.966 130.305 C 119.260 130.574,118.651 130.762,118.612 130.723 C 118.573 130.684,118.288 130.765,117.979 130.902 C 117.277 131.214,115.468 131.738,115.267 131.687 C 115.184 131.667,114.997 131.703,114.850 131.767 C 114.357 131.983,113.168 132.293,112.333 132.425 C 112.013 132.475,111.638 132.559,111.500 132.611 C 111.362 132.663,111.100 132.728,110.917 132.755 C 110.733 132.781,110.358 132.855,110.083 132.918 C 109.619 133.025,107.346 133.397,106.000 133.587 C 104.847 133.749,103.735 133.859,102.917 133.892 C 102.458 133.911,101.973 133.995,101.838 134.079 C 101.496 134.293,90.245 134.338,88.417 134.133 C 87.592 134.040,86.560 133.954,86.125 133.941 C 85.690 133.927,85.334 133.861,85.333 133.794 C 85.333 133.726,85.165 133.678,84.958 133.688 C 84.752 133.698,84.246 133.663,83.833 133.612 C 83.421 133.561,82.671 133.470,82.167 133.411 C 81.252 133.305,80.288 133.126,79.500 132.917 C 79.089 132.808,78.899 132.771,77.917 132.601 C 77.642 132.554,76.929 132.398,76.333 132.254 C 74.968 131.925,74.470 131.811,74.213 131.767 C 74.101 131.748,73.957 131.680,73.894 131.616 C 73.830 131.552,73.627 131.500,73.442 131.500 C 73.151 131.500,72.569 131.347,71.667 131.033 C 71.529 130.985,71.360 130.930,71.292 130.910 C 71.223 130.891,71.129 130.856,71.083 130.833 C 71.037 130.810,70.944 130.777,70.875 130.759 C 70.148 130.568,68.680 130.115,68.417 130.001 C 68.233 129.921,67.596 129.690,67.000 129.488 C 66.404 129.286,65.729 129.044,65.500 128.949 C 65.271 128.855,65.046 128.765,65.000 128.749 C 64.813 128.684,63.528 128.114,62.719 127.736 C 62.243 127.515,61.773 127.333,61.675 127.333 C 61.458 127.333,60.790 126.971,60.648 126.777 C 60.592 126.701,60.479 126.632,60.398 126.625 C 60.173 126.604,58.923 126.034,58.772 125.883 C 58.699 125.810,58.589 125.749,58.528 125.748 C 58.467 125.747,57.839 125.429,57.133 125.040 C 56.427 124.651,55.782 124.333,55.700 124.333 C 55.619 124.333,55.425 124.194,55.271 124.023 C 55.116 123.852,54.674 123.573,54.287 123.403 C 53.900 123.232,53.546 123.045,53.500 122.988 C 53.454 122.930,52.753 122.440,51.942 121.900 C 51.132 121.359,50.161 120.711,49.787 120.460 C 49.412 120.209,48.909 119.815,48.668 119.585 C 48.428 119.355,48.169 119.167,48.093 119.167 C 48.017 119.167,47.781 118.979,47.569 118.750 C 47.356 118.521,47.113 118.333,47.028 118.333 C 46.943 118.333,46.658 118.123,46.395 117.867 C 46.132 117.610,45.449 117.003,44.877 116.519 C 44.305 116.034,43.030 114.806,42.044 113.791 C 41.057 112.776,40.011 111.706,39.719 111.413 C 39.256 110.949,38.718 110.300,37.122 108.279 C 36.917 108.020,36.619 107.652,36.458 107.462 C 36.298 107.271,36.165 107.071,36.164 107.016 C 36.163 106.961,35.938 106.663,35.664 106.352 C 35.390 106.042,35.167 105.686,35.167 105.561 C 35.167 105.436,35.101 105.333,35.020 105.333 C 34.940 105.333,34.783 105.114,34.672 104.845 C 34.560 104.577,34.359 104.315,34.224 104.263 C 34.089 104.211,34.019 104.105,34.067 104.026 C 34.115 103.948,34.024 103.741,33.863 103.567 C 33.702 103.393,33.471 103.006,33.349 102.708 C 33.226 102.410,33.062 102.167,32.983 102.167 C 32.904 102.167,32.793 101.982,32.737 101.757 C 32.680 101.531,32.529 101.260,32.400 101.153 C 32.272 101.046,32.167 100.818,32.167 100.646 C 32.167 100.474,32.101 100.333,32.020 100.333 C 31.940 100.333,31.706 99.883,31.500 99.333 C 31.294 98.783,31.075 98.333,31.013 98.333 C 30.950 98.333,30.762 97.940,30.595 97.458 C 30.428 96.977,30.195 96.428,30.078 96.238 C 29.960 96.048,29.767 95.560,29.649 95.155 C 29.530 94.749,29.375 94.376,29.304 94.326 C 29.233 94.276,29.152 94.089,29.124 93.909 C 29.097 93.730,29.030 93.508,28.975 93.417 C 28.921 93.325,28.705 92.575,28.494 91.750 C 28.284 90.925,28.055 90.175,27.987 90.083 C 27.919 89.992,27.776 89.429,27.669 88.833 C 27.562 88.237,27.375 87.394,27.253 86.959 C 27.131 86.524,27.070 86.017,27.118 85.833 C 27.167 85.649,27.129 85.405,27.035 85.291 C 26.565 84.722,26.373 76.083,26.764 73.083 C 26.895 72.075,27.030 70.950,27.065 70.583 C 27.099 70.217,27.200 69.729,27.288 69.500 C 27.377 69.271,27.551 68.502,27.675 67.792 C 27.798 67.081,27.968 66.500,28.053 66.500 C 28.137 66.500,28.167 66.354,28.120 66.175 C 28.074 65.996,28.098 65.827,28.174 65.800 C 28.250 65.772,28.342 65.563,28.377 65.333 C 28.503 64.509,29.047 62.833,29.189 62.833 C 29.268 62.833,29.336 62.627,29.339 62.375 C 29.342 62.123,29.454 61.771,29.589 61.593 C 29.723 61.415,29.833 61.138,29.833 60.977 C 29.833 60.816,30.011 60.350,30.228 59.942 C 30.606 59.231,31.034 58.154,30.992 58.019 C 30.981 57.983,31.055 57.903,31.156 57.840 C 31.258 57.777,31.373 57.561,31.412 57.359 C 31.450 57.158,31.634 56.780,31.819 56.519 C 32.005 56.259,32.109 55.998,32.051 55.940 C 31.992 55.881,32.021 55.833,32.114 55.833 C 32.207 55.833,32.424 55.515,32.597 55.125 C 32.769 54.735,33.024 54.317,33.163 54.196 C 33.383 54.005,33.383 53.992,33.167 54.103 C 32.930 54.224,33.140 53.847,33.504 53.500 C 33.677 53.335,34.120 52.580,34.129 52.435 C 34.134 52.354,34.203 52.241,34.281 52.185 C 34.447 52.067,35.073 51.129,35.079 50.988 C 35.081 50.936,35.215 50.762,35.375 50.601 C 35.535 50.441,35.667 50.232,35.667 50.137 C 35.667 50.042,35.858 49.814,36.092 49.630 C 36.326 49.446,36.482 49.260,36.439 49.217 C 36.366 49.144,36.641 48.754,37.125 48.243 C 37.240 48.123,37.333 47.950,37.333 47.859 C 37.333 47.769,37.400 47.669,37.482 47.639 C 37.563 47.608,37.905 47.246,38.242 46.833 C 40.005 44.673,43.347 41.168,44.400 40.375 C 44.674 40.169,44.827 39.997,44.741 39.994 C 44.654 39.991,44.743 39.897,44.939 39.786 C 45.316 39.571,46.362 38.703,47.639 37.545 C 48.067 37.158,48.548 36.797,48.708 36.743 C 48.869 36.688,49.000 36.570,49.000 36.479 C 49.000 36.388,49.069 36.356,49.153 36.408 C 49.238 36.461,49.453 36.318,49.631 36.091 C 49.810 35.864,49.991 35.713,50.034 35.757 C 50.078 35.800,50.249 35.685,50.416 35.501 C 50.582 35.317,50.803 35.167,50.905 35.167 C 51.008 35.167,51.221 35.017,51.378 34.833 C 51.535 34.650,51.772 34.500,51.905 34.500 C 52.037 34.500,52.392 34.275,52.694 34.000 C 52.995 33.725,53.304 33.500,53.382 33.500 C 53.460 33.500,53.850 33.275,54.250 33.000 C 54.650 32.725,55.057 32.500,55.155 32.500 C 55.253 32.500,55.333 32.421,55.333 32.323 C 55.333 32.226,55.403 32.190,55.488 32.243 C 55.574 32.296,55.692 32.261,55.750 32.166 C 55.809 32.071,56.245 31.799,56.720 31.561 C 57.195 31.323,57.696 31.037,57.833 30.925 C 57.971 30.813,58.346 30.620,58.667 30.495 C 58.987 30.371,59.288 30.221,59.333 30.163 C 59.379 30.105,59.848 29.881,60.375 29.665 C 60.902 29.449,61.333 29.211,61.333 29.136 C 61.333 29.061,61.390 29.014,61.458 29.031 C 61.527 29.048,61.883 28.931,62.250 28.770 C 62.617 28.610,63.198 28.390,63.542 28.282 C 63.885 28.174,64.167 28.035,64.167 27.973 C 64.167 27.911,64.410 27.807,64.708 27.742 C 65.006 27.677,65.614 27.449,66.058 27.236 C 66.780 26.889,68.339 26.356,68.993 26.232 C 69.126 26.207,69.389 26.115,69.576 26.027 C 70.295 25.692,71.444 25.333,71.797 25.333 C 72.000 25.333,72.167 25.271,72.167 25.194 C 72.167 25.118,72.260 25.048,72.375 25.038 C 72.490 25.028,72.883 24.938,73.250 24.838 C 73.850 24.674,74.227 24.583,75.000 24.414 C 75.137 24.383,75.287 24.344,75.333 24.326 C 75.379 24.308,75.481 24.305,75.559 24.319 C 75.638 24.334,75.808 24.257,75.938 24.149 C 76.068 24.041,76.220 23.998,76.276 24.054 C 76.332 24.109,76.499 24.090,76.648 24.010 C 76.904 23.873,79.403 23.385,80.667 23.225 C 81.615 23.105,81.742 23.079,81.917 22.971 C 82.008 22.914,82.646 22.818,83.333 22.757 C 84.021 22.696,84.696 22.617,84.833 22.582 C 85.103 22.514,87.016 22.332,88.500 22.233 C 89.840 22.143,99.745 22.138,100.917 22.225 C 102.404 22.337,104.173 22.500,104.833 22.585 C 105.750 22.705,107.396 22.881,107.625 22.885 C 107.740 22.887,107.833 22.956,107.833 23.038 C 107.833 23.120,108.058 23.151,108.333 23.108 C 108.607 23.065,108.877 23.103,108.933 23.193 C 108.988 23.283,109.148 23.312,109.288 23.258 C 109.428 23.205,109.626 23.227,109.729 23.308 C 109.832 23.389,110.292 23.505,110.750 23.565 C 112.311 23.771,112.750 23.865,112.962 24.039 C 113.079 24.136,113.220 24.169,113.276 24.113 C 113.332 24.057,113.499 24.077,113.647 24.156 C 113.795 24.235,114.142 24.338,114.417 24.383 C 115.318 24.532,116.579 24.878,116.774 25.030 C 116.879 25.112,117.029 25.164,117.107 25.146 C 117.186 25.128,117.453 25.197,117.702 25.300 C 117.950 25.403,118.325 25.518,118.535 25.555 C 119.526 25.732,120.000 25.889,120.000 26.039 C 120.000 26.129,120.110 26.160,120.245 26.108 C 120.379 26.057,120.527 26.076,120.573 26.151 C 120.620 26.226,121.128 26.419,121.704 26.579 C 122.279 26.740,122.787 26.927,122.833 26.995 C 122.879 27.062,123.404 27.285,124.000 27.490 C 124.596 27.694,125.158 27.924,125.250 28.000 C 125.342 28.076,125.472 28.147,125.540 28.157 C 125.607 28.168,126.007 28.324,126.428 28.505 C 126.850 28.686,127.290 28.833,127.408 28.833 C 127.526 28.833,127.836 29.002,128.098 29.208 C 128.361 29.415,128.596 29.564,128.622 29.540 C 128.647 29.517,129.361 29.850,130.209 30.281 C 131.057 30.713,131.806 31.051,131.875 31.033 C 131.944 31.015,132.000 31.075,132.000 31.167 C 132.000 31.258,132.056 31.319,132.125 31.302 C 132.194 31.285,132.550 31.453,132.917 31.677 C 133.283 31.900,133.640 32.064,133.708 32.041 C 133.777 32.019,133.833 32.079,133.833 32.176 C 133.833 32.273,134.161 32.497,134.561 32.674 C 134.962 32.851,135.383 33.109,135.498 33.248 C 135.613 33.387,135.785 33.500,135.880 33.500 C 135.974 33.500,136.298 33.688,136.598 33.917 C 136.899 34.146,137.190 34.333,137.246 34.333 C 137.302 34.333,137.438 34.407,137.549 34.497 C 139.419 36.023,140.190 36.327,142.250 36.354 C 142.800 36.361,143.438 36.280,143.667 36.174 C 144.533 35.774,145.123 35.402,145.594 34.958 C 145.861 34.706,146.125 34.500,146.180 34.500 C 146.236 34.500,146.422 34.237,146.595 33.917 C 146.768 33.596,146.972 33.333,147.048 33.333 C 147.124 33.333,147.144 33.265,147.092 33.181 C 147.040 33.097,147.069 33.003,147.156 32.973 C 147.308 32.919,147.429 32.477,147.583 31.411 C 147.668 30.820,147.304 29.318,146.977 28.908 C 146.511 28.324,145.407 27.328,145.125 27.237 C 144.965 27.186,144.833 27.070,144.833 26.979 C 144.833 26.888,144.758 26.860,144.667 26.917 C 144.575 26.973,144.500 26.940,144.500 26.843 C 144.500 26.746,144.417 26.667,144.316 26.667 C 144.214 26.667,143.855 26.448,143.518 26.181 C 143.181 25.914,142.626 25.563,142.286 25.400 C 141.945 25.238,141.667 25.057,141.667 24.998 C 141.667 24.939,141.273 24.710,140.792 24.489 C 140.310 24.268,139.879 24.049,139.833 24.002 C 139.787 23.955,139.487 23.777,139.167 23.606 C 137.101 22.504,136.041 21.932,135.750 21.760 C 135.567 21.652,135.060 21.431,134.625 21.268 C 134.190 21.105,133.833 20.904,133.833 20.820 C 133.833 20.735,133.777 20.678,133.708 20.692 C 133.640 20.707,133.283 20.585,132.917 20.422 C 132.550 20.259,132.150 20.111,132.028 20.093 C 131.906 20.075,131.748 19.965,131.676 19.849 C 131.605 19.733,131.517 19.650,131.481 19.664 C 131.379 19.705,130.475 19.347,129.787 18.992 C 129.440 18.813,129.045 18.667,128.909 18.667 C 128.773 18.667,128.532 18.600,128.373 18.519 C 127.254 17.947,126.135 17.487,125.458 17.321 C 125.023 17.214,124.667 17.053,124.667 16.962 C 124.667 16.872,124.545 16.844,124.396 16.902 C 124.246 16.959,124.029 16.927,123.913 16.830 C 123.796 16.733,123.562 16.627,123.392 16.594 C 122.891 16.497,121.264 15.959,121.083 15.831 C 120.992 15.766,120.354 15.583,119.667 15.426 C 118.979 15.268,118.304 15.096,118.167 15.042 C 118.029 14.989,117.879 14.938,117.833 14.929 C 117.787 14.919,117.656 14.852,117.542 14.779 C 117.427 14.707,117.258 14.693,117.167 14.750 C 117.075 14.807,116.906 14.794,116.792 14.723 C 116.572 14.586,116.543 14.577,115.750 14.416 C 115.475 14.360,114.950 14.241,114.583 14.152 C 113.921 13.990,113.630 13.922,112.833 13.742 C 112.604 13.689,111.479 13.496,110.333 13.311 C 109.188 13.126,108.063 12.941,107.833 12.899 C 107.604 12.857,107.117 12.797,106.750 12.766 C 105.867 12.690,104.227 12.498,103.500 12.386 C 102.527 12.236,88.874 12.197,87.000 12.340 M328.417 25.447 C 327.564 25.516,326.428 25.825,325.083 26.354 C 324.808 26.463,324.500 26.569,324.399 26.591 C 324.149 26.644,322.780 27.539,322.628 27.748 C 322.560 27.841,322.504 27.858,322.503 27.786 C 322.501 27.714,322.259 27.902,321.965 28.203 C 321.671 28.504,321.403 28.727,321.371 28.700 C 321.338 28.672,321.149 28.860,320.951 29.116 C 320.753 29.373,320.488 29.689,320.364 29.818 C 319.248 30.975,318.362 33.116,318.095 35.302 C 318.046 35.697,317.963 36.092,317.909 36.179 C 317.855 36.267,317.888 36.731,317.982 37.211 C 318.076 37.691,318.190 38.308,318.234 38.583 C 318.406 39.638,318.526 40.080,318.697 40.286 C 318.794 40.404,318.825 40.500,318.765 40.500 C 318.634 40.500,319.351 41.807,319.999 42.748 C 320.660 43.709,322.406 45.292,323.267 45.710 C 323.670 45.906,324.000 46.120,324.000 46.186 C 324.000 46.253,324.394 46.435,324.875 46.592 C 325.356 46.749,325.843 46.951,325.956 47.041 C 326.070 47.130,326.267 47.164,326.394 47.115 C 326.522 47.066,326.691 47.090,326.771 47.167 C 327.214 47.598,332.109 47.721,332.857 47.321 C 333.020 47.233,333.212 47.172,333.285 47.184 C 333.357 47.196,333.473 47.188,333.542 47.166 C 333.610 47.143,333.723 47.109,333.792 47.090 C 334.071 47.011,334.615 46.794,335.167 46.543 C 335.487 46.396,335.855 46.257,335.983 46.233 C 336.112 46.208,336.262 46.128,336.317 46.053 C 336.372 45.978,336.698 45.774,337.041 45.599 C 337.758 45.235,340.333 42.764,340.333 42.441 C 340.333 42.378,340.537 42.009,340.786 41.622 C 341.035 41.234,341.245 40.879,341.251 40.833 C 341.258 40.787,341.385 40.375,341.534 39.917 C 341.682 39.458,341.858 38.858,341.925 38.583 C 342.098 37.864,342.137 34.667,341.972 34.667 C 341.896 34.667,341.833 34.493,341.833 34.280 C 341.833 33.571,341.332 32.193,340.748 31.300 C 340.431 30.814,340.076 30.267,339.960 30.083 C 339.611 29.530,337.629 27.667,337.390 27.667 C 337.267 27.667,337.167 27.593,337.167 27.503 C 337.167 27.413,336.979 27.293,336.750 27.235 C 336.521 27.178,336.333 27.075,336.333 27.007 C 336.333 26.890,335.793 26.635,334.500 26.143 C 334.179 26.021,333.860 25.910,333.792 25.898 C 333.723 25.885,333.648 25.860,333.625 25.841 C 333.312 25.589,329.877 25.329,328.417 25.447 M367.000 25.384 C 366.954 25.430,366.542 25.509,366.083 25.562 C 365.327 25.648,364.720 25.754,364.500 25.840 C 364.454 25.858,364.360 25.864,364.292 25.853 C 364.223 25.842,364.167 25.908,364.167 26.000 C 364.167 26.092,364.016 26.167,363.832 26.167 C 362.610 26.167,358.000 29.499,358.000 30.382 C 358.000 30.498,357.852 30.719,357.671 30.874 C 357.490 31.029,357.291 31.364,357.227 31.619 C 357.164 31.875,356.980 32.271,356.818 32.500 C 355.528 34.329,356.064 40.350,357.671 42.083 C 357.841 42.267,357.975 42.481,357.970 42.559 C 357.956 42.764,359.678 44.667,359.877 44.667 C 359.969 44.667,360.203 44.843,360.397 45.059 C 360.591 45.275,361.087 45.631,361.500 45.851 C 361.912 46.070,362.287 46.295,362.333 46.351 C 362.379 46.406,362.717 46.544,363.083 46.657 C 363.450 46.770,363.977 46.964,364.255 47.088 C 365.360 47.583,368.975 47.710,370.776 47.318 C 371.311 47.201,371.844 47.123,371.958 47.144 C 372.073 47.164,372.167 47.117,372.167 47.039 C 372.167 46.960,372.545 46.799,373.008 46.681 C 373.471 46.562,374.052 46.296,374.300 46.089 C 374.547 45.882,374.915 45.661,375.117 45.597 C 376.110 45.287,379.374 41.445,379.200 40.792 C 379.182 40.723,379.254 40.667,379.361 40.667 C 379.468 40.667,379.508 40.619,379.450 40.561 C 379.392 40.504,379.419 40.317,379.510 40.147 C 379.945 39.335,380.330 34.333,379.958 34.333 C 379.890 34.333,379.830 34.202,379.826 34.042 C 379.822 33.881,379.706 33.450,379.568 33.083 C 379.430 32.717,379.297 32.342,379.274 32.250 C 378.962 31.041,376.464 28.096,375.250 27.508 C 374.975 27.374,374.600 27.140,374.417 26.987 C 373.844 26.509,371.679 25.776,370.250 25.576 C 369.214 25.431,367.080 25.305,367.000 25.384 M274.330 27.559 C 274.282 27.607,274.020 27.687,273.747 27.736 C 273.475 27.786,273.227 27.903,273.196 27.996 C 273.164 28.090,273.019 28.167,272.871 28.167 C 272.245 28.167,270.888 29.568,270.732 30.375 C 270.719 30.444,270.693 30.519,270.675 30.542 C 270.632 30.595,270.512 31.134,270.424 31.667 C 270.387 31.896,270.351 36.901,270.345 42.788 L 270.333 53.493 262.958 53.547 C 255.219 53.602,254.935 53.619,254.259 54.062 C 254.027 54.214,253.803 54.319,253.761 54.294 C 253.595 54.197,252.510 55.409,252.328 55.897 C 252.221 56.183,252.047 56.597,251.942 56.817 C 251.345 58.064,251.941 60.788,253.056 61.911 C 254.299 63.161,254.470 63.184,263.159 63.274 C 267.051 63.314,270.254 63.365,270.277 63.388 C 270.300 63.411,270.349 76.177,270.387 91.756 C 270.425 107.336,270.497 120.308,270.547 120.583 C 270.598 120.858,270.682 121.622,270.736 122.280 C 270.789 122.938,270.903 123.662,270.989 123.888 C 271.075 124.114,271.193 124.626,271.251 125.025 C 271.477 126.578,272.663 130.539,272.991 130.833 C 273.042 130.879,273.233 131.210,273.417 131.569 C 274.230 133.162,274.379 133.420,274.519 133.472 C 274.600 133.503,274.667 133.602,274.667 133.693 C 274.667 133.934,276.165 135.843,276.435 135.947 C 276.561 135.995,276.623 136.102,276.573 136.184 C 276.522 136.266,276.541 136.333,276.616 136.333 C 276.691 136.333,277.089 136.640,277.501 137.015 C 277.913 137.389,278.400 137.826,278.583 137.984 C 279.035 138.374,280.756 139.500,280.901 139.500 C 280.965 139.500,281.289 139.684,281.620 139.909 C 281.951 140.134,282.285 140.280,282.361 140.233 C 282.438 140.186,282.500 140.217,282.500 140.302 C 282.500 140.387,282.837 140.551,283.250 140.667 C 283.662 140.782,284.000 140.950,284.000 141.039 C 284.000 141.129,284.110 141.160,284.245 141.108 C 284.379 141.057,284.534 141.088,284.590 141.177 C 284.645 141.266,284.763 141.294,284.852 141.238 C 284.941 141.183,285.105 141.212,285.216 141.304 C 285.326 141.395,285.848 141.549,286.376 141.646 C 286.903 141.743,287.471 141.895,287.637 141.984 C 287.803 142.073,288.084 142.123,288.261 142.094 C 288.438 142.066,288.660 142.103,288.754 142.177 C 289.338 142.637,298.736 142.951,301.833 142.614 C 303.985 142.380,305.912 141.119,306.018 139.877 C 306.023 139.807,306.101 139.663,306.189 139.556 C 307.104 138.453,305.374 134.167,304.014 134.167 C 303.838 134.167,303.668 134.088,303.636 133.991 C 303.604 133.894,303.466 133.798,303.330 133.778 C 303.194 133.757,303.008 133.695,302.917 133.640 C 302.573 133.432,301.668 133.344,298.833 133.244 C 297.229 133.188,295.786 133.105,295.625 133.060 C 295.465 133.015,295.053 132.952,294.709 132.920 C 293.483 132.808,289.913 132.126,289.716 131.967 C 289.605 131.878,289.436 131.853,289.341 131.912 C 289.245 131.971,289.167 131.940,289.167 131.843 C 289.167 131.746,289.110 131.679,289.042 131.694 C 288.973 131.709,288.554 131.559,288.111 131.361 C 287.668 131.162,287.237 131.000,287.153 131.000 C 287.069 131.000,287.000 130.923,287.000 130.829 C 287.000 130.735,286.829 130.593,286.620 130.514 C 285.845 130.219,283.333 127.547,283.333 127.018 C 283.333 126.916,283.258 126.833,283.167 126.833 C 283.075 126.833,283.000 126.767,283.000 126.687 C 283.000 126.607,282.874 126.250,282.720 125.895 C 282.566 125.540,282.411 125.064,282.376 124.836 C 282.341 124.609,282.260 124.384,282.197 124.336 C 282.080 124.248,282.053 124.162,281.825 123.167 C 281.553 121.976,281.274 119.518,281.277 118.333 C 281.277 118.013,281.291 105.508,281.306 90.545 L 281.333 63.341 291.542 63.274 C 302.620 63.201,302.161 63.220,303.521 62.775 C 304.424 62.479,306.024 61.161,306.133 60.624 C 306.147 60.554,306.278 60.084,306.425 59.579 C 307.240 56.777,305.308 54.110,302.083 53.582 C 301.900 53.552,297.158 53.522,291.545 53.514 L 281.340 53.500 281.280 42.708 C 281.246 36.773,281.181 31.692,281.134 31.417 C 280.935 30.241,279.735 28.333,279.194 28.333 C 279.056 28.333,278.816 28.219,278.661 28.078 C 278.224 27.682,274.636 27.253,274.330 27.559 M329.791 52.931 C 329.737 52.985,329.218 53.095,328.638 53.175 C 327.616 53.316,326.917 53.448,326.917 53.500 C 326.917 53.513,326.740 53.557,326.523 53.597 C 326.307 53.637,325.920 53.819,325.664 54.002 C 325.408 54.184,325.108 54.333,324.998 54.333 C 324.665 54.333,322.500 56.416,322.500 56.735 C 322.500 56.793,322.311 57.127,322.079 57.477 C 321.847 57.827,321.627 58.275,321.588 58.474 C 321.550 58.672,321.479 58.900,321.430 58.979 C 321.350 59.108,321.234 59.895,321.101 61.209 C 321.076 61.461,321.005 61.717,320.944 61.778 C 320.750 61.972,320.813 133.665,321.009 134.764 C 321.442 137.197,321.556 137.667,321.717 137.667 C 321.812 137.667,321.845 137.711,321.790 137.765 C 321.628 137.927,322.465 139.354,323.087 139.976 C 323.406 140.295,323.667 140.618,323.667 140.694 C 323.667 140.771,323.752 140.833,323.857 140.833 C 323.961 140.833,324.130 140.936,324.232 141.061 C 324.333 141.187,324.829 141.495,325.333 141.747 C 325.837 141.998,326.376 142.268,326.531 142.347 C 327.818 143.000,332.868 142.957,334.083 142.282 C 334.266 142.180,334.510 142.116,334.625 142.139 C 334.740 142.162,334.833 142.112,334.833 142.028 C 334.833 141.943,335.058 141.781,335.333 141.667 C 335.608 141.553,335.833 141.394,335.833 141.313 C 335.833 141.233,335.910 141.167,336.004 141.167 C 336.402 141.167,338.500 138.766,338.500 138.311 C 338.500 138.179,338.648 137.781,338.828 137.427 C 339.008 137.073,339.120 136.725,339.075 136.654 C 339.031 136.582,339.070 136.477,339.162 136.420 C 339.397 136.274,339.400 59.727,339.165 59.582 C 339.071 59.524,339.040 59.403,339.096 59.313 C 339.151 59.223,339.086 58.910,338.951 58.617 C 338.817 58.323,338.575 57.799,338.414 57.451 C 338.254 57.104,337.912 56.621,337.654 56.378 C 337.397 56.135,337.224 55.876,337.270 55.801 C 337.316 55.727,337.247 55.667,337.117 55.667 C 336.986 55.667,336.738 55.474,336.565 55.238 C 336.239 54.794,334.515 53.693,334.027 53.617 C 333.875 53.593,333.675 53.529,333.583 53.474 C 333.296 53.301,330.528 52.963,330.343 53.077 C 330.246 53.137,330.167 53.107,330.167 53.010 C 330.167 52.819,329.949 52.773,329.791 52.931 M367.801 52.921 C 367.753 52.969,367.043 53.117,366.223 53.250 C 364.780 53.483,362.684 54.351,362.250 54.895 C 362.158 55.010,361.950 55.154,361.788 55.215 C 361.625 55.276,361.443 55.459,361.382 55.621 C 361.322 55.784,361.144 56.009,360.987 56.122 C 360.533 56.449,359.638 58.165,359.398 59.166 C 358.986 60.886,359.154 136.527,359.572 137.500 C 360.030 138.564,360.750 139.694,360.885 139.559 C 360.948 139.496,361.000 139.545,361.000 139.668 C 361.000 140.014,362.608 141.457,363.255 141.691 C 363.573 141.806,363.833 141.965,363.833 142.043 C 363.833 142.122,363.908 142.140,364.000 142.083 C 364.092 142.027,364.167 142.050,364.167 142.136 C 364.167 142.758,370.277 143.052,371.583 142.492 C 371.858 142.374,372.121 142.272,372.167 142.264 C 372.605 142.188,374.292 141.152,374.663 140.729 C 374.923 140.433,375.173 140.229,375.219 140.275 C 375.265 140.321,375.352 140.203,375.413 140.013 C 375.473 139.822,375.592 139.667,375.678 139.667 C 375.763 139.667,375.833 139.554,375.833 139.417 C 375.833 139.279,375.902 139.167,375.985 139.167 C 376.153 139.167,376.990 137.473,377.096 136.917 C 377.114 136.825,377.143 136.712,377.160 136.667 C 377.178 136.621,377.240 136.433,377.298 136.250 C 377.356 136.067,377.428 119.117,377.456 98.583 C 377.507 62.244,377.476 59.352,377.018 58.759 C 376.943 58.662,376.794 58.324,376.688 58.007 C 375.799 55.371,372.770 53.346,369.368 53.113 C 368.791 53.073,368.272 52.994,368.215 52.937 C 368.088 52.810,367.919 52.804,367.801 52.921 M157.408 53.747 C 156.555 54.016,155.333 54.634,155.333 54.797 C 155.333 54.865,155.143 55.126,154.910 55.377 C 154.677 55.628,154.546 55.834,154.618 55.836 C 154.691 55.837,154.666 55.894,154.564 55.961 C 154.461 56.028,154.254 56.510,154.104 57.031 C 153.756 58.235,153.797 109.691,154.148 112.083 C 154.528 114.675,154.598 115.083,154.667 115.083 C 154.690 115.083,154.726 115.271,154.746 115.500 C 154.777 115.854,155.309 117.679,155.622 118.500 C 155.674 118.638,155.745 118.900,155.780 119.083 C 155.815 119.267,155.916 119.442,156.005 119.472 C 156.094 119.503,156.167 119.653,156.167 119.806 C 156.168 119.958,156.317 120.328,156.500 120.628 C 156.682 120.927,156.817 121.227,156.798 121.294 C 156.740 121.510,157.714 123.333,157.888 123.333 C 157.980 123.333,158.008 123.381,157.949 123.440 C 157.891 123.498,157.991 123.753,158.172 124.007 C 158.352 124.261,158.500 124.550,158.500 124.651 C 158.500 124.751,158.588 124.833,158.694 124.833 C 158.801 124.833,158.844 124.878,158.789 124.934 C 158.697 125.025,159.728 126.638,160.003 126.833 C 160.067 126.879,160.239 127.142,160.384 127.417 C 160.529 127.692,160.911 128.198,161.232 128.542 C 161.553 128.885,161.789 129.167,161.757 129.167 C 161.638 129.167,162.615 130.238,164.145 131.786 C 165.003 132.654,165.648 133.264,165.577 133.141 C 165.505 133.018,165.747 133.226,166.113 133.603 C 166.479 133.981,166.997 134.430,167.264 134.602 C 167.531 134.774,167.887 135.084,168.054 135.291 C 168.221 135.498,168.430 135.667,168.519 135.667 C 168.608 135.667,168.879 135.850,169.121 136.074 C 169.363 136.299,169.622 136.444,169.697 136.398 C 169.772 136.352,169.833 136.393,169.833 136.490 C 169.833 136.587,169.948 136.667,170.089 136.667 C 170.229 136.667,170.387 136.779,170.439 136.916 C 170.492 137.053,170.602 137.123,170.684 137.073 C 170.766 137.022,170.833 137.060,170.833 137.157 C 170.833 137.254,170.946 137.333,171.083 137.333 C 171.221 137.333,171.334 137.390,171.334 137.458 C 171.335 137.589,172.141 138.091,172.398 138.121 C 172.479 138.130,172.592 138.204,172.648 138.285 C 172.810 138.518,173.995 139.167,174.260 139.167 C 174.392 139.167,174.500 139.225,174.500 139.297 C 174.500 139.368,174.875 139.572,175.333 139.750 C 175.792 139.928,176.167 140.136,176.167 140.213 C 176.167 140.290,176.242 140.307,176.333 140.250 C 176.425 140.193,176.500 140.226,176.500 140.323 C 176.500 140.421,176.556 140.488,176.625 140.474 C 176.694 140.460,177.029 140.573,177.370 140.724 C 177.710 140.876,178.067 141.000,178.161 141.000 C 178.256 141.000,178.333 141.087,178.333 141.194 C 178.333 141.301,178.383 141.340,178.443 141.279 C 178.503 141.219,178.635 141.234,178.735 141.313 C 178.835 141.392,179.217 141.551,179.583 141.667 C 179.950 141.782,180.327 141.937,180.421 142.011 C 180.514 142.084,181.182 142.303,181.904 142.497 C 182.626 142.690,183.337 142.910,183.483 142.985 C 183.630 143.060,183.844 143.088,183.958 143.047 C 184.073 143.006,184.167 143.037,184.167 143.117 C 184.167 143.197,184.298 143.275,184.458 143.292 C 184.992 143.347,187.414 143.920,187.592 144.033 C 187.688 144.095,188.176 144.188,188.675 144.240 C 190.192 144.399,191.063 144.512,191.500 144.609 C 193.148 144.973,204.194 144.813,206.027 144.398 C 206.241 144.350,206.622 144.310,206.872 144.311 C 207.123 144.311,207.369 144.244,207.419 144.163 C 207.469 144.081,207.626 144.059,207.767 144.113 C 207.907 144.167,208.186 144.132,208.386 144.036 C 208.810 143.832,210.082 143.525,211.064 143.389 C 211.441 143.337,211.798 143.218,211.856 143.126 C 211.915 143.033,212.049 143.011,212.155 143.076 C 212.261 143.142,212.438 143.127,212.549 143.044 C 212.660 142.961,213.088 142.796,213.500 142.677 C 213.912 142.558,214.362 142.421,214.500 142.372 C 214.878 142.237,215.227 142.149,215.458 142.129 C 215.573 142.119,215.667 142.061,215.667 141.999 C 215.667 141.937,215.985 141.786,216.375 141.663 C 216.765 141.540,217.165 141.379,217.265 141.305 C 217.365 141.230,217.497 141.219,217.557 141.279 C 217.617 141.340,217.667 141.317,217.667 141.229 C 217.667 141.141,218.079 140.929,218.583 140.757 C 219.088 140.586,219.500 140.383,219.500 140.306 C 219.500 140.229,219.583 140.167,219.685 140.167 C 219.954 140.167,221.970 139.184,222.086 138.995 C 222.141 138.907,222.556 138.675,223.009 138.480 C 223.463 138.285,223.833 138.069,223.833 138.000 C 223.833 137.930,224.060 137.780,224.337 137.665 C 224.614 137.550,224.896 137.372,224.962 137.270 C 225.084 137.083,225.522 136.805,226.375 136.374 C 226.627 136.246,226.833 136.075,226.833 135.992 C 226.833 135.909,227.043 135.733,227.300 135.601 C 227.556 135.468,228.081 135.054,228.466 134.680 C 228.852 134.306,229.167 134.037,229.167 134.083 C 229.167 134.128,229.549 133.790,230.017 133.333 C 231.188 132.186,231.166 132.144,231.173 135.458 C 231.180 138.772,231.261 139.631,231.600 140.013 C 231.728 140.158,231.836 140.383,231.839 140.513 C 231.848 140.895,233.193 142.183,233.667 142.264 C 233.713 142.272,233.975 142.374,234.250 142.492 C 235.418 142.993,239.055 142.677,239.883 142.002 C 239.993 141.912,240.327 141.643,240.625 141.404 C 240.923 141.166,241.167 140.870,241.167 140.747 C 241.167 140.624,241.260 140.423,241.375 140.300 C 241.596 140.062,241.617 140.003,241.888 138.833 C 242.117 137.849,242.249 59.007,242.024 58.167 C 241.938 57.846,241.781 57.208,241.675 56.750 C 241.480 55.900,240.828 54.920,240.242 54.597 C 240.063 54.498,239.879 54.372,239.833 54.317 C 239.415 53.814,238.314 53.591,236.417 53.625 C 234.128 53.665,234.145 53.663,234.272 53.869 C 234.336 53.972,234.309 54.004,234.211 53.944 C 234.032 53.833,232.500 54.606,232.500 54.808 C 232.500 54.869,232.331 55.107,232.124 55.335 C 231.195 56.359,231.258 54.504,231.155 83.833 C 231.102 98.729,231.006 111.142,230.940 111.417 C 230.874 111.692,230.792 112.179,230.758 112.500 C 230.724 112.821,230.684 113.083,230.669 113.083 C 230.654 113.083,230.618 113.196,230.590 113.333 C 230.434 114.092,230.118 115.148,229.909 115.604 C 229.778 115.890,229.644 116.265,229.611 116.437 C 229.578 116.609,229.464 116.961,229.359 117.219 C 229.253 117.477,229.167 117.749,229.167 117.824 C 229.167 117.898,229.052 118.054,228.913 118.170 C 228.773 118.286,228.696 118.419,228.743 118.465 C 228.854 118.577,228.144 119.833,227.969 119.833 C 227.895 119.833,227.833 119.983,227.833 120.167 C 227.833 120.350,227.770 120.500,227.693 120.500 C 227.616 120.500,227.471 120.681,227.371 120.901 C 226.792 122.172,224.065 125.271,222.000 127.007 C 221.404 127.507,220.879 127.958,220.833 128.009 C 220.787 128.059,220.469 128.272,220.125 128.481 C 219.781 128.690,219.500 128.929,219.500 129.014 C 219.500 129.098,219.387 129.167,219.250 129.167 C 219.112 129.167,219.000 129.246,219.000 129.343 C 219.000 129.440,218.928 129.475,218.839 129.420 C 218.751 129.366,218.543 129.455,218.377 129.619 C 218.211 129.783,217.646 130.132,217.121 130.395 C 216.596 130.658,216.167 130.939,216.167 131.020 C 216.167 131.101,216.033 131.167,215.870 131.167 C 215.707 131.167,215.407 131.283,215.204 131.426 C 215.000 131.569,214.832 131.625,214.831 131.551 C 214.829 131.477,214.762 131.521,214.681 131.649 C 214.538 131.875,213.854 132.173,212.667 132.528 C 212.346 132.623,211.896 132.804,211.667 132.928 C 210.907 133.342,206.061 134.558,204.417 134.748 C 204.050 134.790,203.525 134.866,203.250 134.916 C 201.152 135.297,193.823 135.378,193.250 135.027 C 193.158 134.971,192.858 134.908,192.583 134.888 C 191.879 134.838,190.838 134.703,190.250 134.587 C 189.975 134.533,189.338 134.408,188.833 134.310 C 188.329 134.211,187.804 134.090,187.667 134.040 C 187.336 133.920,187.154 133.869,186.729 133.773 C 185.628 133.526,183.158 132.624,181.500 131.864 C 181.179 131.717,180.860 131.612,180.792 131.632 C 180.723 131.651,180.667 131.592,180.667 131.500 C 180.667 131.408,180.610 131.341,180.542 131.351 C 180.282 131.389,179.667 131.121,179.667 130.971 C 179.667 130.884,179.592 130.860,179.500 130.917 C 179.408 130.973,179.333 130.940,179.333 130.843 C 179.333 130.746,179.257 130.667,179.163 130.667 C 179.070 130.667,178.676 130.463,178.288 130.214 C 177.901 129.965,177.527 129.778,177.458 129.798 C 177.390 129.817,177.333 129.775,177.333 129.705 C 177.333 129.634,177.052 129.430,176.708 129.252 C 176.066 128.918,175.573 128.541,174.020 127.194 C 173.527 126.767,173.011 126.351,172.874 126.272 C 172.478 126.041,171.417 125.001,171.417 124.843 C 171.417 124.764,171.229 124.516,171.000 124.294 C 170.771 124.071,170.396 123.640,170.167 123.337 C 169.938 123.034,169.619 122.646,169.458 122.476 C 169.298 122.306,169.167 122.121,169.167 122.066 C 169.167 122.010,168.935 121.673,168.653 121.316 C 168.370 120.959,168.201 120.664,168.278 120.661 C 168.354 120.658,168.303 120.565,168.163 120.453 C 168.024 120.341,167.769 119.931,167.597 119.542 C 167.424 119.152,167.215 118.833,167.132 118.833 C 167.048 118.833,167.027 118.758,167.083 118.667 C 167.140 118.575,167.119 118.500,167.036 118.500 C 166.954 118.500,166.794 118.181,166.680 117.792 C 166.567 117.402,166.336 116.783,166.166 116.417 C 165.996 116.050,165.764 115.412,165.650 115.000 C 165.422 114.169,165.402 114.075,165.244 113.000 C 165.184 112.587,165.048 112.196,164.942 112.131 C 164.799 112.043,164.729 105.014,164.667 84.548 C 164.600 62.515,164.540 56.986,164.367 56.592 C 163.225 54.004,160.335 52.822,157.408 53.747 " stroke="none" fill="#fc8404" fill-rule="evenodd"></path><path id="path1" d="" stroke="none" fill="#1008404" fill-rule="evenodd"></path><path id="path2" d="" stroke="none" fill="#1008404" fill-rule="evenodd"></path><path id="path3" d="" stroke="none" fill="#1008404" fill-rule="evenodd"></path><path id="path4" d="" stroke="none" fill="#1008404" fill-rule="evenodd"></path></g></svg>