<svg id="svg" version="1.1" xmlns="http://www.w3.org/2000/svg" xmlns:xlink="http://www.w3.org/1999/xlink" width="400" height="400" viewBox="0, 0, 400,400"><g id="svgg"><path id="path0" d="M42.230 0.186 C 42.490 0.254,42.916 0.254,43.176 0.186 C 43.436 0.118,43.223 0.063,42.703 0.063 C 42.182 0.063,41.970 0.118,42.230 0.186 M356.824 0.186 C 357.084 0.254,357.510 0.254,357.770 0.186 C 358.030 0.118,357.818 0.063,357.297 0.063 C 356.777 0.063,356.564 0.118,356.824 0.186 M23.446 6.101 C 22.436 6.649,22.497 6.877,23.514 6.351 C 23.959 6.121,24.324 5.874,24.324 5.804 C 24.324 5.630,24.295 5.640,23.446 6.101 M375.676 5.797 C 375.676 5.871,376.041 6.121,376.486 6.351 C 376.932 6.582,377.297 6.710,377.297 6.636 C 377.297 6.561,376.932 6.312,376.486 6.081 C 376.041 5.850,375.676 5.723,375.676 5.797 M20.468 7.983 C 19.913 8.360,19.459 8.726,19.459 8.797 C 19.459 8.868,19.946 8.605,20.541 8.211 C 21.485 7.586,21.804 7.297,21.549 7.297 C 21.509 7.297,21.023 7.606,20.468 7.983 M378.378 7.381 C 378.378 7.444,378.895 7.837,379.527 8.253 C 380.159 8.670,380.533 8.838,380.359 8.627 C 380.023 8.221,378.378 7.186,378.378 7.381 M15.260 12.230 L 13.919 13.649 15.338 12.307 C 16.118 11.570,16.757 10.931,16.757 10.889 C 16.757 10.687,16.506 10.911,15.260 12.230 M384.313 11.959 C 385.433 13.153,385.676 13.367,385.676 13.164 C 385.676 13.121,385.098 12.543,384.392 11.881 L 383.108 10.676 384.313 11.959 M11.892 15.541 C 11.235 16.209,10.759 16.757,10.833 16.757 C 10.908 16.757,11.506 16.209,12.162 15.541 C 12.819 14.872,13.295 14.324,13.221 14.324 C 13.146 14.324,12.548 14.872,11.892 15.541 M387.827 15.473 C 388.947 16.666,389.189 16.881,389.189 16.678 C 389.189 16.635,388.611 16.057,387.905 15.394 L 386.622 14.189 387.827 15.473 M7.897 20.608 C 6.910 22.065,6.697 22.432,6.838 22.432 C 6.900 22.432,7.395 21.764,7.937 20.946 C 8.480 20.128,8.868 19.459,8.800 19.459 C 8.731 19.459,8.325 19.976,7.897 20.608 M392.052 20.878 C 392.601 21.733,393.100 22.432,393.162 22.432 C 393.343 22.432,392.365 20.866,391.683 20.063 C 391.337 19.657,391.503 20.024,392.052 20.878 M0.068 42.838 C 0.071 43.432,0.127 43.644,0.191 43.308 C 0.256 42.971,0.253 42.485,0.186 42.227 C 0.118 41.968,0.065 42.243,0.068 42.838 M399.798 42.838 C 399.801 43.432,399.856 43.644,399.921 43.308 C 399.986 42.971,399.983 42.485,399.915 42.227 C 399.848 41.968,399.795 42.243,399.798 42.838 M65.037 142.001 C 61.790 143.209,61.622 143.854,61.622 155.082 L 61.622 164.543 59.431 163.226 C 41.505 152.452,20.859 169.247,25.943 190.466 C 29.548 205.514,47.140 212.807,59.790 204.499 L 61.594 203.314 61.841 204.026 C 63.377 208.431,69.993 208.723,71.924 204.471 C 72.396 203.433,72.421 201.935,72.426 174.570 L 72.432 145.761 71.804 144.570 C 70.548 142.192,67.567 141.060,65.037 142.001 M182.405 145.077 C 181.236 145.687,180.822 146.103,180.207 147.279 L 179.450 148.729 179.522 176.324 L 179.595 203.919 180.236 204.951 C 182.686 208.891,189.019 208.037,190.251 203.600 C 190.671 202.086,190.650 150.134,190.228 148.459 C 189.369 145.048,185.589 143.413,182.405 145.077 M199.865 145.315 C 196.098 147.305,196.053 152.448,199.787 154.353 C 200.711 154.825,201.490 154.865,209.719 154.865 L 218.649 154.865 218.655 179.122 C 218.660 202.071,218.687 203.437,219.157 204.471 C 220.837 208.170,225.812 208.619,228.485 205.313 L 229.324 204.274 229.396 179.570 L 229.468 154.865 238.393 154.865 C 246.719 154.865,247.389 154.829,248.355 154.336 C 252.021 152.466,252.031 147.269,248.373 145.403 C 246.904 144.653,201.274 144.570,199.865 145.315 M267.703 147.534 C 260.014 149.556,261.445 160.511,269.401 160.535 C 273.631 160.547,276.204 158.096,276.204 154.054 C 276.204 149.577,272.050 146.391,267.703 147.534 M288.443 148.107 C 286.746 149.142,286.052 151.237,286.771 153.158 C 286.928 153.577,292.430 159.301,298.999 165.880 L 310.941 177.841 298.996 189.799 C 292.427 196.376,286.925 202.099,286.769 202.518 C 285.638 205.561,288.449 208.695,291.554 207.855 C 293.129 207.428,320.103 180.343,320.514 178.775 C 321.138 176.397,321.412 176.733,307.072 162.336 C 290.962 146.164,291.258 146.390,288.443 148.107 M98.919 160.187 C 87.708 162.072,80.740 171.148,80.702 183.919 C 80.671 194.371,84.592 201.508,92.504 205.396 C 105.324 211.696,128.667 205.378,123.184 197.093 C 121.633 194.750,119.367 194.368,115.645 195.823 C 104.394 200.219,93.954 197.144,92.010 188.860 L 91.838 188.126 106.952 188.049 L 122.067 187.973 123.163 187.248 C 128.201 183.913,124.496 170.144,117.038 164.484 C 112.237 160.840,105.101 159.148,98.919 160.187 M130.534 160.878 C 128.671 161.820,127.698 163.421,127.724 165.496 C 127.744 167.080,142.075 201.250,144.085 204.509 C 146.383 208.233,153.036 208.392,155.784 204.789 C 156.164 204.291,160.032 195.681,164.379 185.658 L 172.283 167.432 172.290 165.493 C 172.306 161.268,167.753 158.821,164.171 161.128 C 162.622 162.126,162.879 161.582,156.197 178.022 C 152.863 186.224,150.064 192.853,149.977 192.752 C 149.891 192.650,147.230 186.182,144.066 178.378 C 140.901 170.574,138.095 163.764,137.831 163.243 C 136.467 160.561,133.234 159.513,130.534 160.878 M105.916 169.746 C 109.963 170.679,113.646 174.301,114.234 177.928 L 114.395 178.919 103.113 178.919 L 91.832 178.919 92.011 177.905 C 93.022 172.197,99.657 168.303,105.916 169.746 M51.259 170.293 C 54.627 170.762,57.863 172.308,60.473 174.694 L 61.622 175.745 61.622 184.031 L 61.622 192.318 60.457 193.292 C 50.920 201.263,38.487 198.387,36.468 187.742 C 34.776 178.820,39.065 171.358,46.486 170.314 C 48.949 169.967,48.916 169.967,51.259 170.293 M266.983 193.006 C 263.785 193.910,261.563 198.072,262.635 201.151 C 265.218 208.573,275.978 207.104,276.022 199.324 C 276.049 194.666,271.748 191.660,266.983 193.006 M341.081 199.984 C 330.870 200.132,330.660 200.146,329.831 200.738 C 327.588 202.338,327.634 205.911,329.917 207.459 C 331.124 208.277,369.125 208.401,370.952 207.593 C 374.069 206.214,374.066 202.033,370.946 200.312 C 370.024 199.803,360.674 199.701,341.081 199.984 M83.749 289.636 C 83.219 290.274,83.068 317.629,83.589 318.649 C 84.044 319.541,88.869 319.833,89.765 319.022 C 90.973 317.929,90.033 317.027,87.683 317.027 L 85.946 317.027 85.946 304.324 L 85.946 291.622 87.683 291.622 C 89.444 291.622,90.270 291.233,90.270 290.405 C 90.270 289.168,84.685 288.509,83.749 289.636 M107.452 289.614 C 107.099 289.967,107.027 290.815,107.027 294.613 L 107.027 299.188 105.743 298.281 C 100.000 294.224,93.649 298.320,93.649 306.081 C 93.649 313.842,100.000 317.938,105.743 313.881 L 107.027 312.974 107.027 313.775 C 107.027 315.123,108.798 315.650,109.579 314.534 C 109.944 314.013,110.000 312.379,110.000 302.162 C 110.000 291.945,109.944 290.311,109.579 289.790 C 109.089 289.089,108.061 289.004,107.452 289.614 M219.308 289.573 C 218.640 290.061,218.346 313.058,218.992 314.324 C 219.724 315.760,221.892 315.071,221.892 313.403 C 221.892 312.919,221.957 312.934,222.635 313.582 C 226.302 317.087,232.622 315.260,234.589 310.127 C 237.946 301.369,228.880 292.612,222.635 298.580 L 221.892 299.290 221.892 294.840 C 221.892 289.382,221.279 288.132,219.308 289.573 M290.660 289.573 C 290.156 289.941,290.132 290.430,290.067 301.802 C 289.992 314.852,290.001 314.933,291.534 315.083 C 292.870 315.213,293.243 314.426,293.243 311.484 L 293.243 309.034 294.588 307.709 C 295.328 306.980,295.977 306.437,296.030 306.503 C 296.083 306.568,297.257 308.264,298.640 310.270 C 302.230 315.482,302.738 315.899,303.910 314.604 C 304.659 313.777,304.368 313.149,301.137 308.608 L 298.127 304.378 300.685 301.869 C 303.323 299.281,303.828 298.261,302.919 297.351 C 302.060 296.492,301.309 296.975,297.250 301.002 L 293.243 304.977 293.243 297.623 C 293.243 289.134,292.866 287.960,290.660 289.573 M308.090 289.764 C 307.419 291.018,308.125 291.622,310.264 291.622 L 312.162 291.622 312.162 304.324 L 312.162 317.027 310.280 317.027 C 308.401 317.027,307.838 317.330,307.838 318.341 C 307.838 319.447,312.899 320.031,314.205 319.076 C 315.026 318.476,315.026 290.173,314.205 289.573 C 313.272 288.890,308.477 289.040,308.090 289.764 M187.838 290.000 C 186.685 291.153,187.529 293.243,189.147 293.243 C 190.158 293.243,190.811 292.482,190.811 291.304 C 190.811 289.616,189.011 288.826,187.838 290.000 M156.371 290.965 C 155.998 291.338,155.946 292.791,155.946 302.838 C 155.946 315.280,155.928 315.135,157.436 315.135 C 158.889 315.135,158.919 314.890,158.919 302.838 C 158.919 293.233,158.862 291.661,158.498 291.141 C 158.007 290.441,156.980 290.356,156.371 290.965 M164.594 290.947 C 164.408 291.170,164.257 291.656,164.257 292.027 C 164.257 293.383,164.633 293.514,168.547 293.514 L 172.162 293.514 172.162 303.724 C 172.162 314.811,172.204 315.135,173.645 315.135 C 175.141 315.135,175.135 315.182,175.135 303.900 L 175.135 293.514 178.742 293.514 C 183.012 293.514,184.461 292.608,182.819 290.965 C 182.193 290.340,165.112 290.323,164.594 290.947 M120.724 297.157 C 114.159 299.669,113.845 311.733,120.267 314.706 C 124.346 316.594,132.551 314.148,130.161 311.758 L 129.516 311.113 127.664 311.767 C 123.059 313.392,118.649 311.314,118.649 307.519 C 118.649 307.397,121.309 307.297,124.562 307.297 C 131.438 307.297,131.259 307.365,131.147 304.829 C 130.895 299.112,125.669 295.266,120.724 297.157 M202.432 297.009 C 195.182 299.223,194.159 311.084,200.922 314.517 C 205.192 316.684,210.313 314.872,212.312 310.487 C 215.655 303.152,209.558 294.834,202.432 297.009 M243.935 297.142 C 241.582 298.020,240.270 299.846,240.270 302.246 C 240.270 305.122,241.500 306.269,246.142 307.724 C 249.302 308.714,250.000 309.133,250.000 310.037 C 250.000 312.197,247.082 313.028,243.470 311.895 C 239.601 310.682,238.436 312.850,242.065 314.512 C 247.185 316.855,252.973 314.548,252.973 310.163 C 252.973 307.439,251.527 306.096,247.101 304.709 C 243.623 303.619,243.181 303.298,243.296 301.953 C 243.461 300.039,245.967 299.276,249.437 300.085 C 251.841 300.645,253.068 299.793,252.064 298.261 C 251.268 297.047,246.099 296.335,243.935 297.142 M135.312 297.521 C 134.626 298.279,134.667 298.425,137.844 306.561 C 140.912 314.417,141.318 315.135,142.703 315.135 C 144.084 315.135,144.495 314.413,147.561 306.586 C 150.724 298.513,150.817 298.172,150.046 297.474 C 148.544 296.115,148.043 296.845,145.264 304.444 C 143.929 308.092,142.777 311.075,142.703 311.074 C 142.628 311.072,141.477 308.088,140.143 304.442 C 137.370 296.859,136.735 295.949,135.312 297.521 M188.015 297.521 C 187.614 297.964,187.568 299.148,187.568 308.857 L 187.568 319.699 186.967 320.120 C 186.637 320.351,185.849 320.541,185.216 320.541 C 183.174 320.541,182.638 322.551,184.493 323.256 C 186.612 324.062,189.137 323.196,190.067 321.346 C 190.751 319.985,190.795 298.131,190.116 297.452 C 189.546 296.882,188.564 296.915,188.015 297.521 M268.812 297.537 C 267.966 298.471,268.286 310.522,269.204 312.303 C 271.103 315.990,275.712 316.487,279.155 313.377 L 280.270 312.370 280.270 313.305 C 280.270 314.899,281.820 315.719,282.796 314.641 C 283.513 313.848,283.470 298.127,282.749 297.474 C 280.820 295.728,280.270 297.086,280.270 303.602 L 280.270 309.188 279.307 310.254 C 276.614 313.235,272.481 313.109,271.623 310.020 C 271.475 309.489,271.354 306.549,271.353 303.488 C 271.351 298.440,271.305 297.880,270.857 297.474 C 270.203 296.883,269.381 296.908,268.812 297.537 M125.066 299.875 C 126.781 300.591,128.108 302.352,128.108 303.908 L 128.108 304.595 123.378 304.595 C 118.203 304.595,118.379 304.660,118.960 302.946 C 119.917 300.124,122.524 298.813,125.066 299.875 M103.566 300.048 C 104.149 300.222,105.167 300.841,105.827 301.422 L 107.027 302.478 107.027 306.072 L 107.027 309.666 106.178 310.496 C 102.893 313.707,97.917 312.657,96.785 308.514 C 95.289 303.036,98.821 298.626,103.566 300.048 M206.892 300.241 C 211.405 302.323,211.194 310.295,206.579 312.058 C 202.198 313.731,198.291 309.094,199.699 303.892 C 200.612 300.517,203.888 298.854,206.892 300.241 M228.690 300.007 C 234.522 301.627,232.836 312.453,226.757 312.425 C 223.198 312.408,221.892 310.705,221.892 306.081 C 221.892 302.269,221.893 302.262,222.635 301.553 C 224.254 300.006,226.563 299.416,228.690 300.007 M258.668 311.793 C 257.557 313.206,258.415 315.135,260.155 315.135 C 261.377 315.135,262.162 314.342,262.162 313.108 C 262.162 311.171,259.844 310.299,258.668 311.793 M0.063 357.297 C 0.063 357.818,0.118 358.030,0.186 357.770 C 0.254 357.510,0.254 357.084,0.186 356.824 C 0.118 356.564,0.063 356.777,0.063 357.297 M399.792 357.297 C 399.792 357.818,399.848 358.030,399.916 357.770 C 399.984 357.510,399.984 357.084,399.916 356.824 C 399.848 356.564,399.792 356.777,399.792 357.297 M4.324 373.076 C 4.324 373.367,5.128 374.865,5.284 374.865 C 5.358 374.865,5.218 374.470,4.973 373.986 C 4.471 373.000,4.324 372.794,4.324 373.076 M7.208 378.383 C 7.472 378.831,7.972 379.530,8.317 379.937 C 8.663 380.343,8.497 379.976,7.948 379.122 C 6.908 377.502,6.370 376.965,7.208 378.383 M392.052 379.122 C 391.503 379.976,391.337 380.343,391.683 379.937 C 392.365 379.134,393.343 377.568,393.162 377.568 C 393.100 377.568,392.601 378.267,392.052 379.122 M11.881 384.392 C 12.543 385.098,13.121 385.676,13.164 385.676 C 13.367 385.676,13.153 385.433,11.959 384.313 L 10.676 383.108 11.881 384.392 M387.838 384.459 C 387.181 385.128,386.705 385.676,386.779 385.676 C 386.854 385.676,387.452 385.128,388.108 384.459 C 388.765 383.791,389.241 383.243,389.167 383.243 C 389.092 383.243,388.494 383.791,387.838 384.459 M15.394 387.905 C 16.057 388.611,16.635 389.189,16.678 389.189 C 16.881 389.189,16.666 388.947,15.473 387.827 L 14.189 386.622 15.394 387.905 M384.324 387.973 C 383.668 388.642,383.192 389.189,383.266 389.189 C 383.340 389.189,383.938 388.642,384.595 387.973 C 385.251 387.304,385.727 386.757,385.653 386.757 C 385.579 386.757,384.981 387.304,384.324 387.973 M19.641 391.373 C 19.977 391.779,21.622 392.814,21.622 392.619 C 21.622 392.556,21.105 392.163,20.473 391.747 C 19.841 391.330,19.467 391.162,19.641 391.373 M379.514 391.738 C 378.259 392.625,378.082 392.879,379.142 392.272 C 379.637 391.989,380.169 391.605,380.324 391.419 C 380.724 390.941,380.536 391.015,379.514 391.738 M22.703 393.364 C 22.703 393.439,23.068 393.688,23.514 393.919 C 23.959 394.150,24.324 394.277,24.324 394.203 C 24.324 394.129,23.959 393.879,23.514 393.649 C 23.068 393.418,22.703 393.290,22.703 393.364 M376.419 393.668 C 375.409 394.216,375.470 394.445,376.486 393.919 C 376.932 393.688,377.297 393.442,377.297 393.371 C 377.297 393.198,377.268 393.207,376.419 393.668 M25.135 394.727 C 25.135 394.912,26.790 395.733,26.914 395.609 C 26.972 395.550,26.596 395.300,26.078 395.053 C 25.559 394.806,25.135 394.659,25.135 394.727 M373.784 395.135 C 373.264 395.420,372.935 395.658,373.054 395.664 C 373.340 395.679,374.865 394.887,374.865 394.723 C 374.865 394.546,374.849 394.552,373.784 395.135 M42.230 399.916 C 42.490 399.984,42.916 399.984,43.176 399.916 C 43.436 399.848,43.223 399.792,42.703 399.792 C 42.182 399.792,41.970 399.848,42.230 399.916 M356.824 399.916 C 357.084 399.984,357.510 399.984,357.770 399.916 C 358.030 399.848,357.818 399.792,357.297 399.792 C 356.777 399.792,356.564 399.848,356.824 399.916 " stroke="none" fill="#fafafb" fill-rule="evenodd"></path><path id="path1" d="M42.838 0.174 C 20.478 2.797,4.451 17.873,0.497 40.000 C -0.042 43.018,-0.042 356.982,0.497 360.000 C 4.260 381.060,18.940 395.740,40.000 399.503 C 41.679 399.803,69.153 399.865,200.000 399.865 C 330.847 399.865,358.321 399.803,360.000 399.503 C 381.060 395.740,395.740 381.060,399.503 360.000 C 400.042 356.982,400.042 43.018,399.503 40.000 C 395.784 19.183,381.984 5.130,360.811 0.598 C 358.955 0.201,46.165 -0.217,42.838 0.174 M70.100 142.621 C 70.691 143.038,71.458 143.914,71.804 144.570 L 72.432 145.761 72.426 174.570 C 72.421 201.935,72.396 203.433,71.924 204.471 C 69.993 208.723,63.377 208.431,61.841 204.026 L 61.594 203.314 59.790 204.499 C 47.140 212.807,29.548 205.514,25.943 190.466 C 20.859 169.247,41.505 152.452,59.431 163.226 L 61.622 164.543 61.622 155.082 C 61.622 144.752,61.636 144.648,63.225 143.125 C 64.986 141.438,68.096 141.210,70.100 142.621 M186.622 144.624 C 188.110 145.033,189.825 146.856,190.228 148.459 C 190.650 150.134,190.671 202.086,190.251 203.600 C 189.019 208.037,182.686 208.891,180.236 204.951 L 179.595 203.919 179.522 176.324 L 179.450 148.729 180.207 147.279 C 181.446 144.908,183.923 143.883,186.622 144.624 M248.373 145.403 C 252.031 147.269,252.021 152.466,248.355 154.336 C 247.389 154.829,246.719 154.865,238.393 154.865 L 229.468 154.865 229.396 179.570 L 229.324 204.274 228.485 205.313 C 225.812 208.619,220.837 208.170,219.157 204.471 C 218.687 203.437,218.660 202.071,218.655 179.122 L 218.649 154.865 209.719 154.865 C 201.490 154.865,200.711 154.825,199.787 154.353 C 196.053 152.448,196.098 147.305,199.865 145.315 C 201.274 144.570,246.904 144.653,248.373 145.403 M272.642 148.077 C 276.674 150.134,277.536 155.758,274.290 158.838 C 270.864 162.088,264.183 160.589,262.992 156.303 C 261.320 150.281,267.176 145.289,272.642 148.077 M292.865 148.350 C 293.445 148.780,299.838 155.074,307.072 162.336 C 321.412 176.733,321.138 176.397,320.514 178.775 C 320.103 180.343,293.129 207.428,291.554 207.855 C 288.449 208.695,285.638 205.561,286.769 202.518 C 286.925 202.099,292.427 196.376,298.996 189.799 L 310.941 177.841 298.999 165.880 C 292.430 159.301,286.928 153.577,286.771 153.158 C 285.328 149.304,289.604 145.930,292.865 148.350 M107.882 160.382 C 117.914 162.312,124.762 170.454,125.327 181.122 C 125.511 184.597,125.006 186.028,123.163 187.248 L 122.067 187.973 106.952 188.049 L 91.838 188.126 92.010 188.860 C 93.954 197.144,104.394 200.219,115.645 195.823 C 119.367 194.368,121.633 194.750,123.184 197.093 C 128.667 205.378,105.324 211.696,92.504 205.396 C 84.592 201.508,80.671 194.371,80.702 183.919 C 80.751 167.648,92.549 157.431,107.882 160.382 M135.073 160.689 C 137.373 161.650,136.923 160.764,144.066 178.378 C 147.230 186.182,149.891 192.650,149.977 192.752 C 150.064 192.853,152.863 186.224,156.197 178.022 C 162.879 161.582,162.622 162.126,164.171 161.128 C 167.753 158.821,172.306 161.268,172.290 165.493 L 172.283 167.432 164.379 185.658 C 160.032 195.681,156.164 204.291,155.784 204.789 C 153.036 208.392,146.383 208.233,144.085 204.509 C 142.075 201.250,127.744 167.080,127.724 165.496 C 127.676 161.744,131.543 159.214,135.073 160.689 M100.189 169.756 C 96.193 170.696,92.665 174.212,92.011 177.905 L 91.832 178.919 103.113 178.919 L 114.395 178.919 114.234 177.928 C 113.319 172.287,106.440 168.284,100.189 169.756 M46.486 170.314 C 39.065 171.358,34.776 178.820,36.468 187.742 C 38.487 198.387,50.920 201.263,60.457 193.292 L 61.622 192.318 61.622 184.031 L 61.622 175.745 60.473 174.694 C 57.863 172.308,54.627 170.762,51.259 170.293 C 48.916 169.967,48.949 169.967,46.486 170.314 M272.568 193.448 C 277.532 196.003,277.143 203.755,271.963 205.521 C 267.982 206.877,263.974 204.999,262.635 201.151 C 260.777 195.811,267.311 190.744,272.568 193.448 M370.946 200.312 C 374.066 202.033,374.069 206.214,370.952 207.593 C 369.125 208.401,331.124 208.277,329.917 207.459 C 327.634 205.911,327.588 202.338,329.831 200.738 C 331.195 199.764,369.239 199.370,370.946 200.312 M89.846 289.614 C 90.955 290.723,89.988 291.622,87.683 291.622 L 85.946 291.622 85.946 304.324 L 85.946 317.027 87.683 317.027 C 90.033 317.027,90.973 317.929,89.765 319.022 C 88.869 319.833,84.044 319.541,83.589 318.649 C 83.068 317.629,83.219 290.274,83.749 289.636 C 84.277 289.001,89.214 288.983,89.846 289.614 M109.579 289.790 C 109.944 290.311,110.000 291.945,110.000 302.162 C 110.000 312.379,109.944 314.013,109.579 314.534 C 108.798 315.650,107.027 315.123,107.027 313.775 L 107.027 312.974 105.743 313.881 C 100.000 317.938,93.649 313.842,93.649 306.081 C 93.649 298.320,100.000 294.224,105.743 298.281 L 107.027 299.188 107.027 294.613 C 107.027 290.815,107.099 289.967,107.452 289.614 C 108.061 289.004,109.089 289.089,109.579 289.790 M221.471 289.790 C 221.811 290.274,221.892 291.250,221.892 294.840 L 221.892 299.290 222.635 298.580 C 226.302 295.075,232.622 296.902,234.589 302.035 C 237.946 310.793,228.880 319.550,222.635 313.582 C 221.957 312.934,221.892 312.919,221.892 313.403 C 221.892 315.071,219.724 315.760,218.992 314.324 C 218.346 313.058,218.640 290.061,219.308 289.573 C 220.076 289.012,220.991 289.104,221.471 289.790 M292.703 289.730 C 293.217 290.244,293.243 290.631,293.243 297.623 L 293.243 304.977 297.250 301.002 C 301.309 296.975,302.060 296.492,302.919 297.351 C 303.828 298.261,303.323 299.281,300.685 301.869 L 298.127 304.378 301.137 308.608 C 304.368 313.149,304.659 313.777,303.910 314.604 C 302.738 315.899,302.230 315.482,298.640 310.270 C 297.257 308.264,296.083 306.568,296.030 306.503 C 295.977 306.437,295.328 306.980,294.588 307.709 L 293.243 309.034 293.243 311.484 C 293.243 314.426,292.870 315.213,291.534 315.083 C 290.001 314.933,289.992 314.852,290.067 301.802 C 290.132 290.430,290.156 289.941,290.660 289.573 C 291.387 289.041,292.066 289.093,292.703 289.730 M314.205 289.573 C 315.026 290.173,315.026 318.476,314.205 319.076 C 312.899 320.031,307.838 319.447,307.838 318.341 C 307.838 317.330,308.401 317.027,310.280 317.027 L 312.162 317.027 312.162 304.324 L 312.162 291.622 310.264 291.622 C 308.125 291.622,307.419 291.018,308.090 289.764 C 308.477 289.040,313.272 288.890,314.205 289.573 M190.317 289.907 C 190.941 290.472,190.968 292.081,190.364 292.749 C 189.338 293.882,187.297 292.952,187.297 291.351 C 187.297 289.773,189.176 288.874,190.317 289.907 M158.498 291.141 C 158.862 291.661,158.919 293.233,158.919 302.838 C 158.919 314.890,158.889 315.135,157.436 315.135 C 155.928 315.135,155.946 315.280,155.946 302.838 C 155.946 292.791,155.998 291.338,156.371 290.965 C 156.980 290.356,158.007 290.441,158.498 291.141 M182.819 290.965 C 184.461 292.608,183.012 293.514,178.742 293.514 L 175.135 293.514 175.135 303.900 C 175.135 315.182,175.141 315.135,173.645 315.135 C 172.204 315.135,172.162 314.811,172.162 303.724 L 172.162 293.514 168.547 293.514 C 164.633 293.514,164.257 293.383,164.257 292.027 C 164.257 290.530,164.190 290.541,173.662 290.541 C 181.240 290.541,182.450 290.597,182.819 290.965 M127.106 297.656 C 129.494 299.055,131.011 301.748,131.147 304.829 C 131.259 307.365,131.438 307.297,124.562 307.297 C 121.309 307.297,118.649 307.397,118.649 307.519 C 118.649 311.314,123.059 313.392,127.664 311.767 L 129.516 311.113 130.161 311.758 C 132.551 314.148,124.346 316.594,120.267 314.706 C 113.845 311.733,114.159 299.669,120.724 297.157 C 122.398 296.517,125.588 296.766,127.106 297.656 M207.492 297.165 C 215.103 299.425,214.999 312.812,207.354 315.034 C 201.206 316.822,196.634 313.004,196.634 306.081 C 196.634 299.068,201.220 295.302,207.492 297.165 M250.638 297.334 C 253.733 298.350,252.649 300.833,249.437 300.085 C 245.967 299.276,243.461 300.039,243.296 301.953 C 243.181 303.298,243.623 303.619,247.101 304.709 C 251.527 306.096,252.973 307.439,252.973 310.163 C 252.973 314.548,247.185 316.855,242.065 314.512 C 238.436 312.850,239.601 310.682,243.470 311.895 C 247.082 313.028,250.000 312.197,250.000 310.037 C 250.000 309.133,249.302 308.714,246.142 307.724 C 241.500 306.269,240.270 305.122,240.270 302.246 C 240.270 297.862,245.170 295.540,250.638 297.334 M137.284 297.421 C 137.523 297.637,138.810 300.797,140.143 304.442 C 141.477 308.088,142.628 311.072,142.703 311.074 C 142.777 311.075,143.929 308.092,145.264 304.444 C 148.043 296.845,148.544 296.115,150.046 297.474 C 150.817 298.172,150.724 298.513,147.561 306.586 C 144.495 314.413,144.084 315.135,142.703 315.135 C 142.290 315.135,141.698 314.922,141.387 314.662 C 140.824 314.190,134.865 299.400,134.865 298.474 C 134.865 297.300,136.408 296.628,137.284 297.421 M190.116 297.452 C 190.795 298.131,190.751 319.985,190.067 321.346 C 189.137 323.196,186.612 324.062,184.493 323.256 C 182.638 322.551,183.174 320.541,185.216 320.541 C 185.849 320.541,186.637 320.351,186.967 320.120 L 187.568 319.699 187.568 308.857 C 187.568 299.148,187.614 297.964,188.015 297.521 C 188.564 296.915,189.546 296.882,190.116 297.452 M270.857 297.474 C 271.305 297.880,271.351 298.440,271.353 303.488 C 271.354 306.549,271.475 309.489,271.623 310.020 C 272.481 313.109,276.614 313.235,279.307 310.254 L 280.270 309.188 280.270 303.602 C 280.270 297.086,280.820 295.728,282.749 297.474 C 283.470 298.127,283.513 313.848,282.796 314.641 C 281.820 315.719,280.270 314.899,280.270 313.305 L 280.270 312.370 279.155 313.377 C 275.712 316.487,271.103 315.990,269.204 312.303 C 268.286 310.522,267.966 298.471,268.812 297.537 C 269.381 296.908,270.203 296.883,270.857 297.474 M121.460 299.974 C 120.269 300.515,119.458 301.480,118.960 302.946 C 118.379 304.660,118.203 304.595,123.378 304.595 L 128.108 304.595 128.108 303.908 C 128.108 300.841,124.393 298.642,121.460 299.974 M99.451 300.338 C 96.975 301.589,95.842 305.062,96.785 308.514 C 97.917 312.657,102.893 313.707,106.178 310.496 L 107.027 309.666 107.027 306.072 L 107.027 302.478 105.827 301.422 C 103.831 299.665,101.551 299.277,99.451 300.338 M202.424 300.338 C 200.304 301.409,199.303 303.642,199.527 306.804 C 200.092 314.786,210.060 314.101,210.060 306.081 C 210.060 301.205,206.302 298.379,202.424 300.338 M224.595 300.292 C 222.020 301.458,221.892 301.732,221.892 306.081 C 221.892 309.894,221.893 309.900,222.635 310.609 C 225.787 313.621,230.798 312.605,231.872 308.735 C 233.520 302.801,229.460 298.090,224.595 300.292 M261.622 311.622 C 262.895 312.895,261.960 315.135,260.155 315.135 C 259.107 315.135,258.108 314.145,258.108 313.108 C 258.108 311.393,260.416 310.416,261.622 311.622 " stroke="none" fill="#1c74d4" fill-rule="evenodd"></path></g></svg>