<?xml version="1.0" encoding="UTF-8"?>
<svg width="800px" height="800px" viewBox="0 0 800 800" version="1.1" xmlns="http://www.w3.org/2000/svg" xmlns:xlink="http://www.w3.org/1999/xlink">
    <!-- Generator: Sketch 51.2 (57519) - http://www.bohemiancoding.com/sketch -->
    <title>Gangverk</title>
    <desc>Created with Sketch.</desc>
    <defs></defs>
    <g id="Gangverk" stroke="none" stroke-width="1" fill="none" fill-rule="evenodd">
        <g id="Group-2" transform="translate(148.000000, 150.000000)" fill="#333333">
            <path d="M420.70813,325.335993 C391.937242,388.986402 327.970619,433.360125 253.524076,433.360125 C152.164502,433.360125 69.9931882,351.283389 69.9931882,250.039134 C69.9931882,148.777643 152.164502,66.6951609 253.524076,66.6951609 C321.609043,66.6951609 380.916646,103.8351 412.58648,158.861274 L484.019039,158.861274 C447.546388,65.9654622 357.115379,0.12595761 251.154303,0.12595761 C113.011476,0.12595761 0.999424812,112.011172 0.999424812,250.039134 C0.999424812,388.044114 113.011476,499.917837 251.154303,499.917837 C363.068572,499.917837 457.761721,426.534282 489.730653,325.335993 L420.70813,325.335993 Z" id="Fill-17"></path>
            <path d="M500.526926,213.452503 L490.51866,213.452503 L340.107079,213.452503 C317.663256,213.452503 299.493077,227.477656 299.493077,244.772089 C299.493077,262.066522 317.663256,276.080184 340.107079,276.080184 L384.356268,276.080184 L501.57952,276.080184 C503.863015,255.413049 503.575421,234.395429 500.526926,213.452503" id="Fill-20"></path>
        </g>
    </g>
</svg>