<svg version="1.1" id="Lager_1" xmlns="http://www.w3.org/2000/svg" x="0" y="0" viewBox="0 0 1026.35 420.466" xml:space="preserve"><style>.st0{fill:#013a14}.st1{fill:#0bb70b}</style><path class="st0" d="M426.95 193.964h-46v-44h-22v111h22v-45h46v45h23v-111h-23zM503.134 181.074c-9.943 0-19.318 3.937-26.41 11.084-7.458 7.517-11.563 18.002-11.563 29.514 0 12.293 4.141 22.79 11.98 30.353 7.257 7.004 17.146 10.863 27.846 10.863 20.616 0 31.683-12.667 35.17-24.52l.161-.548-18.22-5.413-.184.509c-2.708 7.438-8.35 11.21-16.77 11.21-9.943 0-17.814-6.904-18.552-16.162h53.789l.569-.004.004-.569c0-.076.018-.304.045-.645.085-1.123.26-3.456.26-5.692 0-25.032-14.255-39.98-38.125-39.98zm-16.079 31.89c.757-6.823 6.617-13.847 16.376-13.847 11.34 0 15.875 7.042 16.386 13.847h-32.762zM645.392 181.621c-10.643 0-18.273 3.855-23.929 12.11-4.051-7.711-12.203-12.11-22.529-12.11-7.184 0-16.65 3.158-21.584 10.05v-7.707h-21v77h22v-45.077c0-8.627 5.584-14.42 13.894-14.42 8.328 0 13.106 5.03 13.106 13.802v45.695h21v-45.077c0-8.49 5.47-14.42 13.306-14.42 11.042 0 12.694 8.647 12.694 13.802v45.695h21v-49.867c0-9.558-2.986-17.346-8.629-22.523-4.889-4.484-11.752-6.953-19.33-6.953zM736.023 181.778c-6.956 0-15.921 2.686-21.173 10.077v-7.89h-22v77h22v-44.306c0-9.086 5.457-15.192 13.578-15.192 8.53 0 13.422 5.312 13.422 14.574v44.923h22V212.49c0-18.946-10.665-30.711-27.827-30.711zM816.534 181.074c-9.943 0-19.322 3.937-26.41 11.084-7.453 7.517-11.558 18-11.558 29.514 0 12.293 4.14 22.79 11.98 30.353 7.257 7.004 17.146 10.863 27.846 10.863 20.61 0 31.678-12.667 35.165-24.52l.161-.548-18.216-5.413-.184.509c-2.712 7.438-8.353 11.21-16.774 11.21-9.943 0-17.814-6.904-18.552-16.162h53.789l.569-.004.004-.569c0-.076.018-.304.045-.645.085-1.123.26-3.456.26-5.692 0-25.032-14.255-39.98-38.125-39.98zm-16.515 31.89c.762-6.823 6.622-13.847 16.372-13.847 11.35 0 15.884 7.042 16.394 13.847H800.02zM915.35 202.964v-19h-15v-23h-20v11.744c0 7.048-4.281 11.256-11.453 11.256h-4.547v19h14v34.814c0 14.841 9.495 24.063 24.785 24.063 6.352 0 10.16-1.19 11.86-1.9l.355-.146v-18.903l-.716.206c-.996.28-3.666.584-6.054.584-5.921 0-8.23-2.265-8.23-8.075v-30.643h15z"/><path class="st1" d="M252.95 242.91v-53.916c0-1.021-.503-1.977-1.344-2.555l-40.402-27.261a3.099 3.099 0 00-3.51 0l-40.4 27.261a3.099 3.099 0 00-1.344 2.555v53.871a3.099 3.099 0 003.098 3.1h24.803a3.099 3.099 0 003.099-3.1v-25.802a3.099 3.099 0 013.098-3.099h18.803a3.099 3.099 0 013.099 3.099v25.848a3.054 3.054 0 003.053 3.053h24.893a3.054 3.054 0 003.054-3.053z"/><path class="st1" d="M210.27 111c-54.8 0-99.156 44.356-99.156 99.157 0 21.325 6.672 40.982 18.152 57.105.873 1.225.706 2.908-.357 3.971L115.2 284.941c-5.601 5.601-5.601 14.685 0 20.286 2.725 2.876 6.51 4.239 10.143 4.239s7.266-1.363 10.143-4.24l13.71-13.709c1.083-1.084 2.782-1.199 4.032-.311 16.877 11.988 37.745 18.72 60.016 18.064 53.58-1.576 97.426-47.928 96.154-101.516-1.274-53.69-45.13-96.754-99.128-96.754m0 173.184c-38.208 0-74.028-33.153-74.028-74.027 0-41.47 34.127-74.992 75.82-74.006 39.263.928 71.285 32.95 72.214 72.214.985 41.693-32.537 75.82-74.006 75.82"/></svg>