<svg id="imandra_logo" data-name="Imandra Inc" xmlns="http://www.w3.org/2000/svg" xmlns:xlink="http://www.w3.org/1999/xlink" width="212" height="226" viewBox="0 0 212 226">
  <defs>
    <style>
      .cls-1 {
        fill: url(#radial-gradient);
      }

      .cls-2 {
        opacity: 0.37;
        fill: url(#radial-gradient-2);
      }

      .cls-3 {
        fill: #fff;
      }
    </style>
    <radialGradient id="radial-gradient" cx="109.03" cy="119.05" fx="221.94839992941417" fy="201.82247651987205" r="181.74" gradientTransform="matrix(1, 0, 0, 1, -3.79, -6.04)" gradientUnits="userSpaceOnUse">
      <stop offset="0.45" stop-color="#0052ce"/>
      <stop offset="0.94" stop-color="#1c1d33"/>
    </radialGradient>
    <radialGradient id="radial-gradient-2" cx="-716.62" cy="239" fx="-944.6425208095036" r="796.32" gradientTransform="translate(613.51 199.15) scale(0.68 0.73)" gradientUnits="userSpaceOnUse">
      <stop offset="0.18" stop-color="#02a299"/>
      <stop offset="0.43" stop-color="#3867b0"/>
      <stop offset="0.65" stop-color="#004c94"/>
      <stop offset="0.9" stop-color="#111b3c"/>
    </radialGradient>
  </defs>
  <title>Imandra Inc</title>
  <g id="imandra">
    <polygon class="cls-1" points="-6.02 226 -6.02 -0.32 220.02 -0.32 220.02 225.69 -6.02 226"/>
    <rect class="cls-2" x="-6.24" y="-0.48" width="226.48" height="226.32"/>
    <g>
      <path id="Fill-6" class="cls-3" d="M51.8,83.36a17.07,17.07,0,1,0,.32,0Z"/>
      <path id="Fill-12" class="cls-3" d="M98.94,91.44v18c0,4.69,2.9,8.64,8,8.64s8-3.75,8-8.64v-18a8,8,0,0,0-16.06,0"/>
      <path id="Fill-9" class="cls-3" d="M161.7,83.36a17.11,17.11,0,0,0,.24,34.22h0a17.11,17.11,0,0,0,.11-34.22Z"/>
      <polygon id="Fill-15" class="cls-3" points="38.85 141.98 40.11 141.98 40.11 131.64 38.85 131.64 38.85 141.98"/>
      <polygon id="Fill-17" class="cls-3" points="63.05 131.64 59.42 136.91 55.79 131.64 54.23 131.64 54.23 141.98 55.49 141.98 55.49 133.46 59.24 138.73 59.51 138.73 63.34 133.54 63.34 141.98 64.61 141.98 64.61 131.64 63.05 131.64"/>
      <path id="Fill-20" class="cls-3" d="M82.27,131.64,77.64,142h1.44l.94-2.31H86L87,142H88.4l-4.6-10.34ZM83,133l2.41,5.57h-4.9Z"/>
      <polygon id="Fill-23" class="cls-3" points="109.7 131.64 109.7 139.49 103.37 131.64 102.52 131.64 102.52 141.98 103.75 141.98 103.75 134.13 110.11 141.98 111.16 141.98 111.16 131.64 109.7 131.64"/>
      <path id="Fill-26" class="cls-3" d="M124.81,131.64V142h3.75c3.64,0,5.19-2.6,5.19-5.27a4.89,4.89,0,0,0-4.6-5.1h-.59Zm1.21,1.23h2.51a3.7,3.7,0,0,1,4,3.43v.44a3.74,3.74,0,0,1-3.49,4h-3Z"/>
      <path id="Fill-29" class="cls-3" d="M146.61,131.64v1.17h4.69a2.16,2.16,0,0,1,2.11,2.17h0V135a2.11,2.11,0,0,1-2,2.14,1,1,0,0,1-.3,0h-3.36v-2.46l-1.15-.94V142h1.23v-3.78h2.49l3.29,3.64h1.61L151.74,138a3,3,0,0,0,3-2.93v-.24a3.24,3.24,0,0,0-3.17-3.28h-.29Z"/>
      <path id="Fill-32" class="cls-3" d="M171.11,131.64,166.51,142h1.43l.94-2.31h6l1,2.31h1.35l-4.69-10.34Zm.76,1.32,2.4,5.57h-4.86Z"/>
    </g>
  </g>
</svg>
