<svg id="Layer_1" data-name="Layer 1" xmlns="http://www.w3.org/2000/svg" viewBox="0 0 203 43"><defs><style>.cls-1{fill:#76bf45;}.cls-2{fill:#3f54a1;}.cls-3{fill:#f78d36;}.cls-4{fill:#3ec4ee;}.cls-5{fill:#f8ea37;}.cls-6{fill:#eb3b42;}.cls-7{fill:#8a4aaf;}</style></defs><title>roggfib</title><polygon class="cls-1" points="107 11 86 11 75 11 75 22 75 43 86 43 86 22 107 22 107 11"/><polygon class="cls-2" points="150 32 150 22 160 22 160 11 150 11 150 0 139 0 139 11 139 22 139 32 139 43 171 43 171 32 150 32"/><polygon class="cls-3" points="22 32 22 22 32 22 32 11 22 11 22 0 11 0 11 11 11 22 11 32 11 43 43 43 43 32 22 32"/><polygon class="cls-4" points="192 11 182 11 171 11 171 22 171 32 171 43 182 43 192 43 192 32 182 32 182 22 192 22 192 32 203 32 203 22 203 11 192 11"/><polygon class="cls-5" points="64 11 54 11 43 11 43 22 43 32 43 43 54 43 64 43 64 32 54 32 54 22 64 22 64 32 75 32 75 22 75 11 64 11"/><rect class="cls-6" width="11" height="11" transform="translate(11 11) rotate(180)"/><polygon class="cls-7" points="128 11 118 11 118 22 128 22 128 32 118 32 118 22 107 22 107 32 107 43 118 43 128 43 139 43 139 32 139 22 139 11 128 11"/><rect class="cls-6" y="22" width="11" height="21" transform="translate(11 65) rotate(180)"/></svg>