<?xml version="1.0" standalone="no"?>
<!DOCTYPE svg PUBLIC "-//W3C//DTD SVG 20010904//EN"
 "http://www.w3.org/TR/2001/REC-SVG-20010904/DTD/svg10.dtd">
<svg version="1.0" xmlns="http://www.w3.org/2000/svg"
 width="144.000000pt" height="144.000000pt" viewBox="0 0 144.000000 144.000000"
 preserveAspectRatio="xMidYMid meet" style="background-color: white;">

<g transform="translate(0.000000,144.000000) scale(0.100000,-0.100000)"
fill="#000000" stroke="none">
<path d="M0 720 l0 -720 720 0 720 0 0 720 0 720 -720 0 -720 0 0 -720z m1048
614 c26 -7 29 -30 5 -43 -10 -5 -53 -12 -96 -16 -59 -6 -83 -12 -97 -27 -10
-11 -32 -70 -49 -131 -43 -159 -218 -877 -226 -930 -6 -40 -5 -45 17 -50 72
-20 267 2 349 39 81 36 133 97 198 230 56 115 76 144 98 144 24 0 14 -46 -48
-222 -74 -210 -86 -240 -102 -250 -7 -4 -202 -8 -435 -8 -368 0 -423 2 -428
15 -11 26 14 42 77 49 83 10 86 12 103 64 25 76 256 1011 256 1036 0 33 -19
46 -66 46 -23 0 -49 3 -58 6 -22 8 -20 41 2 47 26 7 474 8 500 1z" style="fill:#4d394b;fill-opacity:1"/>
</g>
</svg>
