<?xml version="1.0" encoding="windows-1252"?>
<!-- Generator: Adobe Illustrator 15.0.2, SVG Export Plug-In . SVG Version: 6.00 Build 0)  -->
<!DOCTYPE svg PUBLIC "-//W3C//DTD SVG 1.1//EN" "http://www.w3.org/Graphics/SVG/1.1/DTD/svg11.dtd">
<svg version="1.1" id="Layer_1" xmlns="http://www.w3.org/2000/svg" xmlns:xlink="http://www.w3.org/1999/xlink" x="0px" y="0px" width="571.893px" height="268.124px" viewBox="0 0 571.893 268.124" style="enable-background:new 0 0 571.893 268.124;" xml:space="preserve">
<g>
	<path style="fill:#2F4D83;" d="M195.78,113.451c-4.979,0-15.901,8.453-16.497,25.031c0.404,3.522,2.408,18.584,15.691,19.294   c13.269,0.69,17.088-17.275,17.088-17.275s2.019-13.08-2.611-18.801C205.394,114.89,200.766,113.451,195.78,113.451z"/>
	<path style="fill:#2F4D83;" d="M162.088,117.476c0,0,16.391,1.398,16.391-22.724c-2.421-32.437-15.619-33.012-21.137-33.012   c-3.562,0-18.005,4.495-13.57,40.067C147.083,116.572,162.088,117.476,162.088,117.476z"/>
	<path style="fill:#2F4D83;" d="M116.503,120.086c22.438-3.514,18.217-26.511,18.217-26.511s0.51-26.531-16.698-26.635   c-10.561,0.104-19.536,10.651-19.911,25.611C97.691,108.239,104.837,119.99,116.503,120.086z"/>
	<path style="fill:#2F4D83;" d="M97.188,130.648c0.892-26.955-11.57-27.937-18.605-27.937c-7.035-0.095-15.212,6.132-16.497,28.343   c1.416,25.002,19.011,24.102,19.011,24.102S96.291,156.568,97.188,130.648z"/>
	<path style="fill:#2F4D83;" d="M178.883,156.413c-5.675-6.477-3.78-13.218-11.371-19.974c-4.275-4.686-8.068-8.091-17.494-8.31   c-5.08-0.161-6.647,1.296-11.11,1.76c-4.449-0.464-6.021-1.921-11.087-1.76c-9.419,0.219-13.219,3.624-17.492,8.31   c-7.595,6.756-5.692,13.497-11.368,19.974c-5.696,6.468-7.289,1.059-15.266,10.528c-6.931,15.047,3.537,38.764,14.426,39.081   c10.889,0.313,20.103-8.852,23.034-8.873c2.515,0.308,7.488,9.049,17.669,9.24v0.013c0.036,0,0.063-0.013,0.083-0.013   c0.05,0,0.075,0.013,0.097,0.013v-0.013c10.181-0.191,15.165-8.933,17.672-9.24c2.939,0.021,12.161,9.187,23.044,8.873   c10.881-0.317,21.353-24.034,14.421-39.081C186.164,157.472,184.58,162.881,178.883,156.413z"/>
	<polygon style="fill:#2F4D83;" points="251.829,61.559 232.373,61.559 232.373,155.738 293.803,155.738 293.803,141.407    251.829,141.407  "/>
	<path style="fill:#2F4D83;" d="M332.366,84.734c-9.655-0.039-17.207,3.312-22.937,10.065c-5.736,6.755-8.462,15.347-8.462,25.779   v2.598c0,10.002,2.889,18.247,8.942,24.74c6.063,6.491,14.085,9.738,24.22,9.738c5.665,0,10.782-0.771,15.417-2.313   c4.628-1.543,8.354-3.491,11.215-5.842l-5.14-11.711c-3.293,1.817-6.326,3.149-9.093,3.99c-2.772,0.845-6.261,1.268-10.459,1.268   c-4.722,0-8.452-1.49-11.202-4.464c-2.751-2.977-4.296-6.636-4.644-11.251l0.128-0.256h42.036v-10.59   c0-9.739-2.659-17.465-7.899-23.181C349.245,87.594,341.848,84.734,332.366,84.734z M343.964,113.771h-23.479l-0.194-0.069   c0.471-4.371,1.73-7.772,3.762-10.459c2.034-2.681,4.81-3.957,8.314-3.957c3.812,0,6.769,1.235,8.653,3.636   c1.884,2.4,2.944,5.646,2.944,9.675V113.771z"/>
	<path style="fill:#2F4D83;" d="M403.602,157.655c10.343,0,18.65-3.317,24.519-9.966c5.865-6.644,8.999-15.248,8.999-25.811v-1.364   c0-10.517-3.149-19.112-9.033-25.776c-5.887-6.664-14.126-10.004-24.516-10.004c-10.349,0-18.412,3.348-24.258,10.035   c-5.847,6.689-8.735,15.271-8.735,25.745v1.364c0,10.563,2.851,19.167,8.716,25.811   C385.158,154.338,393.206,157.655,403.602,157.655z M389.008,120.486c0-6.186,1.284-11.25,3.561-15.203   c2.271-3.959,5.932-5.935,10.82-5.935c4.938,0,8.546,1.966,10.845,5.898c2.295,3.935,3.435,9.017,3.435,15.239v1.358   c0,6.356-1.093,11.479-3.366,15.37c-2.272,3.888-5.833,5.833-10.726,5.833c-5.023,0-8.804-1.937-11.049-5.806   c-2.251-3.864-3.52-9.001-3.52-15.397V120.486z"/>
	<path style="fill:#2F4D83;" d="M503.579,91.423c-3.975-4.456-9.642-6.688-16.744-6.688c-4.242,0-8.139,1.002-11.552,2.989   c-3.422,1.992-6.333,4.829-8.666,8.421l-0.879-10.019h-17.356v69.612h18.424v-50.535c2.054-1.863,3.121-3.31,5.118-4.326   c1.991-1.018,4.299-1.528,6.808-1.528c3.849,0,6.801,0.984,8.7,2.955c1.902,1.978,2.92,5.331,2.92,10.06v43.375h19.454v-43.342   C509.806,102.878,507.567,95.885,503.579,91.423z"/>
	<path style="fill:#2F4D83;" d="M244.871,189.405c-2.62-0.663-4.515-1.426-5.68-2.299c-1.167-0.87-1.746-1.956-1.746-3.258   c0-1.471,0.537-2.656,1.612-3.568c1.077-0.912,2.626-1.372,4.639-1.372c2.164,0,3.831,0.349,4.986,1.436   c1.162,1.081,1.739,2.011,1.739,4.06h3.87l0.041,0.072c0.072-2.372-0.87-4.36-2.809-6.156c-1.937-1.792-4.549-2.644-7.828-2.644   c-3.047,0-5.523,0.804-7.433,2.372c-1.917,1.567-2.873,3.532-2.873,5.867c0,2.232,0.89,4.085,2.666,5.554   c1.774,1.472,4.248,2.591,7.412,3.345c2.619,0.628,4.443,1.403,5.476,2.323c1.027,0.923,1.542,2.063,1.542,3.426   c0,1.473-0.597,2.644-1.79,3.5c-1.193,0.857-2.813,1.288-4.86,1.288c-2.082,0-3.831-0.377-5.242-1.379   c-1.408-1.001-2.12-3.233-2.12-4.261h-3.86h-0.045c-0.069,2.713,1.044,4.826,3.341,6.449c2.298,1.627,4.94,2.405,7.926,2.405   c3.187,0,5.765-0.747,7.737-2.21c1.979-1.47,2.965-3.42,2.965-5.834c0-2.248-0.823-4.132-2.469-5.661   C250.422,191.341,248.023,190.186,244.871,189.405z"/>
	<path style="fill:#2F4D83;" d="M279.297,175.723c-3.495,0-6.493,1.216-8.679,3.645c-2.191,2.424-3.438,5.463-3.438,9.113v5.325   c0,3.661,1.247,6.7,3.438,9.114c2.186,2.415,5.105,3.617,8.604,3.617c3.617,0,6.706-1.202,8.979-3.617   c2.267-2.414,3.548-5.453,3.548-9.114v-5.325c0-3.664-1.24-6.705-3.51-9.126C285.966,176.934,282.92,175.723,279.297,175.723z    M287.662,193.806c0,2.784-0.829,5.052-2.305,6.797c-1.47,1.753-3.504,2.625-6.016,2.625c-2.355,0-4.396-0.876-5.803-2.634   c-1.406-1.759-2.26-4.016-2.26-6.788v-5.373c0-2.737,0.835-4.988,2.242-6.745c1.407-1.754,3.354-2.635,5.715-2.635   c2.492,0,4.603,0.881,6.085,2.635c1.481,1.757,2.342,4.008,2.342,6.745V193.806z"/>
	<polygon style="fill:#2F4D83;" points="306.086,205.899 310.18,205.899 310.18,192.597 323.483,192.597 323.483,189.522    310.18,189.522 310.18,179.285 325.533,179.285 325.533,176.213 306.086,176.213  "/>
	<polygon style="fill:#2F4D83;" points="336.799,179.285 346.005,179.285 346.005,205.899 350.1,205.899 350.1,179.285    359.318,179.285 359.318,176.213 336.799,176.213  "/>
	<polygon style="fill:#2F4D83;" points="396.446,195.853 395.847,199.759 395.728,199.759 394.901,195.853 389.366,176.213    385.793,176.213 380.298,195.768 379.494,199.52 379.375,199.488 378.816,195.768 374.251,176.213 370.216,176.213    377.416,205.899 381.039,205.899 387.046,185.086 387.558,182.354 387.683,182.354 388.217,185.086 394.119,205.899    397.743,205.899 404.965,176.213 400.908,176.213  "/>
	<path style="fill:#2F4D83;" d="M425.856,176.213l-11.583,29.687h4.136l2.832-8.188h12.55l2.804,8.188h4.132l-11.395-29.687H425.856   z M422.5,194.641l5.021-13.309h0.123l4.933,13.309H422.5z"/>
	<path style="fill:#2F4D83;" d="M473.971,201.291v-2.816c0-1.771-0.282-3.25-0.998-4.456c-0.726-1.196-1.868-2.063-3.517-2.603   c1.542-0.669,2.729-1.573,3.526-2.713c0.804-1.142,1.215-2.476,1.215-4.015c0-2.766-0.86-4.856-2.591-6.313   c-1.727-1.456-4.217-2.162-7.494-2.162h-10.609v29.687h4.091v-13.303h7.25c1.598,0,2.766,0.757,3.714,1.742   c0.948,0.989,1.319,2.563,1.319,4.18v2.731c0,0.961,0.176,1.793,0.326,2.697c0.151,0.904,0.591,1.952,1.124,1.952h3.668v-0.285   c0-0.471-0.685-1.074-0.889-1.815C473.902,203.064,473.971,202.227,473.971,201.291z M463.697,189.522h-6.104v-10.237h6.519   c2.065,0,3.589,0.501,4.571,1.421c0.982,0.93,1.476,2.149,1.476,3.835c0,1.774-0.512,3.015-1.52,3.888   C467.635,189.297,465.983,189.522,463.697,189.522z"/>
	<polygon style="fill:#2F4D83;" points="493.422,191.569 507.756,191.569 507.756,188.499 493.422,188.499 493.422,179.285    508.779,179.285 508.779,176.213 489.331,176.213 489.331,205.899 509.806,205.899 509.806,202.832 493.422,202.832  "/>
</g>
</svg>