<?xml version="1.0" encoding="UTF-8" standalone="no"?>
<!-- Created with Inkscape (http://www.inkscape.org/) -->

<svg
   xmlns:dc="http://purl.org/dc/elements/1.1/"
   xmlns:cc="http://creativecommons.org/ns#"
   xmlns:rdf="http://www.w3.org/1999/02/22-rdf-syntax-ns#"
   xmlns:svg="http://www.w3.org/2000/svg"
   xmlns="http://www.w3.org/2000/svg"
   xmlns:sodipodi="http://sodipodi.sourceforge.net/DTD/sodipodi-0.dtd"
   xmlns:inkscape="http://www.inkscape.org/namespaces/inkscape"
   width="50.5mm"
   height="74.5mm"
   viewBox="0 0 50.5 74.5"
   version="1.1"
   id="svg8"
   inkscape:version="0.92.3 (unknown)"
   sodipodi:docname="rysunek.svg">
  <defs
     id="defs2" />
  <sodipodi:namedview
     id="base"
     pagecolor="#ffffff"
     bordercolor="#666666"
     borderopacity="1.0"
     inkscape:pageopacity="0.0"
     inkscape:pageshadow="2"
     inkscape:zoom="2.8"
     inkscape:cx="160.03669"
     inkscape:cy="180.90888"
     inkscape:document-units="mm"
     inkscape:current-layer="layer1"
     showgrid="false"
     inkscape:window-width="2522"
     inkscape:window-height="1051"
     inkscape:window-x="38"
     inkscape:window-y="0"
     inkscape:window-maximized="1" />
  <metadata
     id="metadata5">
    <rdf:RDF>
      <cc:Work
         rdf:about="">
        <dc:format>image/svg+xml</dc:format>
        <dc:type
           rdf:resource="http://purl.org/dc/dcmitype/StillImage" />
        <dc:title></dc:title>
      </cc:Work>
    </rdf:RDF>
  </metadata>
  <g
     inkscape:label="Layer 1"
     inkscape:groupmode="layer"
     id="layer1"
     transform="translate(0,-222.5)">
    <g
       id="g3747"
       transform="matrix(0.26458333,0,0,0.26458333,-13.702594,208.87336)">
	<path
   id="path3713"
   d="m 76.324,170.969 c 0,0 19.173,1.787 20.313,-30.934 1.121,-34.02 -14.609,-35.263 -23.492,-35.263 -8.882,-0.123 -19.206,7.746 -20.825,35.772 1.785,31.564 24.004,30.425 24.004,30.425 z"
   style="fill:#2f4d83"
   inkscape:connector-curvature="0" />

	<path
   id="path3715"
   d="m 178.548,123.407 c 0,0 20.691,1.765 20.691,-28.679 C 196.18,53.785 179.518,53.06 172.557,53.06 c -4.497,0 -22.726,5.667 -17.125,50.57 4.18,18.64 23.116,19.777 23.116,19.777 z"
   style="fill:#2f4d83"
   inkscape:connector-curvature="0" />

	<path
   id="path3717"
   d="m 79.602,185.848 c -8.75,18.993 4.465,48.927 18.2,49.327 13.757,0.396 25.376,-11.172 29.078,-11.203 3.177,0.393 9.457,11.429 22.305,11.668 v 0.012 c 0.044,0 0.075,-0.012 0.106,-0.012 0.063,0 0.095,0.012 0.119,0.012 v -0.012 c 12.854,-0.239 19.15,-11.275 22.311,-11.668 3.712,0.031 15.348,11.599 29.091,11.203 13.73,-0.399 26.945,-30.334 18.201,-49.327 -10.066,-11.957 -12.075,-5.121 -19.266,-13.294 -7.162,-8.176 -4.767,-16.682 -14.355,-25.209 -5.395,-5.909 -10.186,-10.214 -22.076,-10.49 -6.417,-0.204 -8.392,1.636 -14.025,2.229 -5.614,-0.594 -7.592,-2.434 -13.991,-2.229 -11.894,0.276 -16.688,4.581 -22.083,10.49 -9.587,8.528 -7.19,17.033 -14.355,25.209 -7.189,8.173 -9.195,1.338 -19.26,13.294 z"
   style="fill:#2f4d83"
   inkscape:connector-curvature="0" />

	<path
   id="path3719"
   d="m 121.011,126.701 c 28.327,-4.431 22.993,-33.461 22.993,-33.461 0,0 0.646,-33.489 -21.081,-33.618 -13.333,0.128 -24.652,13.447 -25.132,32.324 -0.521,19.803 8.492,34.638 23.22,34.755 z"
   style="fill:#2f4d83"
   inkscape:connector-curvature="0" />

	<path
   id="path3721"
   d="m 238.336,128.745 c -5.124,-8.603 -10.964,-10.418 -17.25,-10.418 -6.299,0 -20.088,10.672 -20.829,31.596 0.502,4.453 3.039,23.458 19.8,24.359 16.754,0.87 21.576,-21.813 21.576,-21.813 0,0 2.543,-16.512 -3.297,-23.724 z"
   style="fill:#2f4d83"
   inkscape:connector-curvature="0" />

	<polygon
   id="polygon3723"
   points="104.722,296.586 81.63,296.586 81.63,252.654 70.93,252.654 70.93,304.473 104.722,304.473 "
   style="fill:#2f4d83" />

	<path
   id="path3725"
   d="m 125.944,265.414 c -5.313,-0.028 -9.466,1.818 -12.624,5.529 -3.155,3.721 -4.656,8.449 -4.656,14.183 v 1.438 c 0,5.501 1.594,10.035 4.926,13.609 3.339,3.568 7.748,5.354 13.324,5.354 3.125,0 5.938,-0.422 8.484,-1.27 2.543,-0.848 4.6,-1.918 6.17,-3.215 l -2.826,-6.443 c -1.809,1.002 -3.479,1.736 -5.008,2.194 -1.523,0.465 -3.444,0.704 -5.749,0.704 -2.6,0 -4.653,-0.826 -6.167,-2.462 -1.513,-1.633 -2.364,-3.648 -2.553,-6.188 l 0.066,-0.145 h 23.134 v -5.824 c 0,-5.356 -1.469,-9.614 -4.345,-12.754 -2.885,-3.14 -6.954,-4.71 -12.176,-4.71 z m 6.38,15.969 h -12.917 l -0.107,-0.034 c 0.261,-2.402 0.955,-4.279 2.069,-5.755 1.124,-1.479 2.65,-2.18 4.574,-2.18 2.098,0 3.727,0.682 4.76,2.004 1.042,1.318 1.62,3.102 1.62,5.321 v 0.644 z"
   style="fill:#2f4d83"
   inkscape:connector-curvature="0" />

	<path
   id="path3727"
   d="m 165.122,265.414 c -5.689,0 -10.128,1.837 -13.343,5.517 -3.222,3.677 -4.811,8.399 -4.811,14.16 v 0.751 c 0,5.812 1.576,10.55 4.801,14.204 3.225,3.658 7.655,5.48 13.372,5.48 5.689,0 10.258,-1.822 13.489,-5.48 3.228,-3.654 4.954,-8.392 4.954,-14.204 v -0.751 c 0,-5.78 -1.733,-10.512 -4.967,-14.179 -3.247,-3.671 -7.78,-5.498 -13.495,-5.498 z m 7.762,20.409 c 0,3.5 -0.606,6.323 -1.858,8.458 -1.244,2.139 -3.206,3.216 -5.897,3.216 -2.763,0 -4.841,-1.068 -6.081,-3.196 -1.24,-2.129 -1.938,-4.958 -1.938,-8.478 v -0.744 c 0,-3.407 0.71,-6.195 1.959,-8.365 1.255,-2.179 3.265,-3.265 5.959,-3.265 2.712,0 4.7,1.083 5.962,3.246 1.266,2.167 1.894,4.958 1.894,8.384 z"
   style="fill:#2f4d83"
   inkscape:connector-curvature="0" />

	<path
   id="path3729"
   d="m 210.938,265.414 c -2.336,0 -4.478,0.546 -6.358,1.639 -1.884,1.1 -3.482,2.653 -4.77,4.632 l -0.483,-5.511 h -9.552 v 38.299 h 10.143 V 276.67 c 1.127,-1.029 1.717,-1.817 2.819,-2.376 1.093,-0.565 2.36,-0.845 3.742,-0.845 2.123,0 3.736,0.54 4.785,1.626 1.049,1.087 1.61,2.933 1.61,5.532 v 23.866 h 10.701 V 280.63 c 0,-5.24 -1.234,-9.087 -3.42,-11.539 -2.196,-2.452 -5.311,-3.677 -9.217,-3.677 z"
   style="fill:#2f4d83"
   inkscape:connector-curvature="0" />

	<path
   id="path3731"
   d="m 77.798,322.999 c -1.438,-0.365 -2.48,-0.785 -3.123,-1.266 -0.637,-0.477 -0.962,-1.07 -0.962,-1.793 0,-0.807 0.298,-1.457 0.892,-1.963 0.594,-0.502 1.443,-0.75 2.548,-0.75 1.195,0 2.11,0.189 2.75,0.789 0.638,0.592 0.956,1.098 0.956,2.229 h 2.127 l 0.019,0.041 c 0.041,-1.303 -0.478,-2.398 -1.546,-3.385 -1.064,-0.986 -2.5,-1.453 -4.307,-1.453 -1.673,0 -3.038,0.439 -4.089,1.303 -1.053,0.859 -1.576,1.943 -1.576,3.225 0,1.23 0.49,2.25 1.463,3.061 0.977,0.813 2.338,1.426 4.082,1.84 1.438,0.342 2.444,0.766 3.009,1.277 0.572,0.51 0.851,1.141 0.851,1.885 0,0.813 -0.328,1.451 -0.984,1.924 -0.659,0.473 -1.549,0.711 -2.673,0.711 -1.143,0 -2.105,-0.211 -2.882,-0.758 -0.784,-0.555 -1.167,-1.783 -1.167,-2.342 h -2.13 -0.019 c -0.041,1.492 0.571,2.652 1.835,3.549 1.262,0.891 2.717,1.32 4.363,1.32 1.75,0 3.171,-0.41 4.256,-1.221 1.086,-0.807 1.628,-1.875 1.628,-3.209 0,-1.234 -0.452,-2.275 -1.353,-3.111 -0.907,-0.837 -2.23,-1.474 -3.968,-1.903 z"
   style="fill:#2f4d83"
   inkscape:connector-curvature="0" />

	<path
   id="path3733"
   d="m 96.744,315.471 c -1.926,0 -3.573,0.67 -4.775,2.004 -1.206,1.334 -1.887,3.006 -1.887,5.018 v 2.926 c 0,2.016 0.682,3.689 1.887,5.016 1.203,1.33 2.81,1.99 4.73,1.99 1.996,0 3.696,-0.66 4.945,-1.99 1.25,-1.326 1.955,-3 1.955,-5.016 v -2.926 c 0,-2.021 -0.686,-3.689 -1.931,-5.023 -1.252,-1.333 -2.934,-1.999 -4.924,-1.999 z m 4.601,9.947 c 0,1.533 -0.457,2.779 -1.265,3.746 -0.81,0.957 -1.933,1.438 -3.314,1.438 -1.293,0 -2.415,-0.48 -3.19,-1.447 -0.774,-0.967 -1.242,-2.209 -1.242,-3.736 v -2.953 c 0,-1.508 0.457,-2.748 1.232,-3.715 0.769,-0.961 1.846,-1.447 3.14,-1.447 1.375,0 2.534,0.486 3.354,1.447 0.813,0.967 1.286,2.207 1.286,3.715 v 2.952 z"
   style="fill:#2f4d83"
   inkscape:connector-curvature="0" />

	<polygon
   id="polygon3735"
   points="113.74,317.432 122.186,317.432 122.186,315.743 111.485,315.743 111.485,332.083 113.74,332.083 113.74,324.752 121.062,324.752 121.062,323.067 113.74,323.067 "
   style="fill:#2f4d83" />

	<polygon
   id="polygon3737"
   points="135.709,317.432 140.777,317.432 140.777,315.743 128.38,315.743 128.38,317.432 133.455,317.432 133.455,332.083 135.709,332.083 "
   style="fill:#2f4d83" />

	<polygon
   id="polygon3739"
   points="157.311,315.743 155.342,315.743 152.319,326.502 151.875,328.569 151.81,328.553 151.502,326.502 148.991,315.743 146.77,315.743 150.73,332.083 152.727,332.083 156.03,320.624 156.312,319.114 156.378,319.114 156.673,320.624 159.923,332.083 161.916,332.083 165.889,315.743 163.656,315.743 161.204,326.549 160.877,328.698 160.802,328.698 160.355,326.549 "
   style="fill:#2f4d83" />

	<path
   id="path3741"
   d="m 177.383,315.743 -6.374,16.34 h 2.276 l 1.561,-4.51 h 6.905 l 1.538,4.51 h 2.279 l -6.273,-16.34 z m -1.846,10.134 2.766,-7.322 h 0.063 l 2.719,7.322 z"
   style="fill:#2f4d83"
   inkscape:connector-curvature="0" />

	<path
   id="path3743"
   d="m 203.861,329.545 v -1.555 c 0,-0.977 -0.157,-1.789 -0.55,-2.453 -0.398,-0.656 -1.026,-1.133 -1.931,-1.434 0.841,-0.365 1.494,-0.867 1.94,-1.492 0.437,-0.621 0.659,-1.363 0.659,-2.207 0,-1.523 -0.471,-2.676 -1.419,-3.477 -0.955,-0.797 -2.324,-1.186 -4.132,-1.186 h -5.834 v 16.34 h 2.254 v -7.33 h 3.987 c 0.876,0 1.526,0.418 2.045,0.961 0.521,0.543 0.725,1.408 0.725,2.295 v 1.508 c 0,0.527 0.095,0.982 0.183,1.486 0.088,0.498 0.326,1.08 0.612,1.08 h 2.019 v -0.164 c 0,-0.258 -0.377,-0.59 -0.49,-0.998 -0.106,-0.411 -0.068,-0.866 -0.068,-1.374 z m -5.655,-6.478 h -3.356 v -5.635 h 3.58 c 1.143,0 1.978,0.275 2.523,0.781 0.537,0.512 0.808,1.184 0.808,2.107 0,0.982 -0.279,1.66 -0.832,2.141 -0.56,0.477 -1.464,0.606 -2.723,0.606 z"
   style="fill:#2f4d83"
   inkscape:connector-curvature="0" />

	<polygon
   id="polygon3745"
   points="214.562,317.432 223.014,317.432 223.014,315.743 212.313,315.743 212.313,332.083 223.576,332.083 223.576,330.385 214.562,330.385 214.562,324.192 222.445,324.192 222.445,322.502 214.562,322.502 "
   style="fill:#2f4d83" />

</g>
  </g>
</svg>
