
<svg xmlns="http://www.w3.org/2000/svg" viewBox="0 0 107 29.3">
  <style>
    .st0{fill:#231f20}
  </style>
  <g id="Layer_1">
    <path class="st0" d="M24.2 28.6V16.9c0-1.4-.3-2.4-.8-3-.5-.6-1.3-.9-2.4-.9-1.4 0-2.7.6-4 1.7v14h-4.9V16.9c0-1.4-.3-2.4-.8-3-.5-.6-1.3-.9-2.4-.9-1.6 0-2.9.5-4 1.6v14H0V9.4l4.9-.7v2.7c1.8-1.8 3.9-2.8 6.2-2.8 2.5 0 4.3 1.1 5.3 3.3 2-2.2 4.3-3.3 6.9-3.3 1.8 0 3.3.6 4.4 1.8s1.6 2.8 1.6 4.9v13.2h-5.1zM44.1 26.4c-1.6 1.9-3.4 2.8-5.4 2.8-1.7 0-3.2-.5-4.3-1.6-1.1-1-1.7-2.3-1.7-3.9 0-4.3 3.8-6.6 11.4-6.9v-.5c0-1.3-.3-2.3-.9-2.8-.6-.6-1.6-.9-3-.9-1.9 0-4 .7-6.4 2.1l-1-3.9c2.4-1.5 5.1-2.3 8.1-2.3 2.9 0 5 .6 6.3 1.9 1.3 1.3 1.9 3.3 1.8 6v6.9c0 .7.1 1.2.3 1.4s.7.3 1.4.4l-.4 3.7c-3.3.4-5.3-.5-6.1-2.6h-.1zm0-6.8c-2.4.3-4.1.7-5.1 1.3s-1.5 1.3-1.5 2.3c0 .8.3 1.4.8 1.8.5.5 1.2.7 2.1.7 1.4 0 2.7-.6 3.7-1.7v-4.4zM58.8 19.3v9.3h-4.9V.6l4.9-.6v17.9h.1l6.9-8.6h5.9l-8 9.2 8 10.1h-5.9l-7-9.3zM76.8 20.1c.1 1.6.7 2.9 1.7 3.8 1 1 2.4 1.4 4.1 1.4 2.1 0 4.1-.6 6-1.8l.6 4.1c-2 1.1-4.3 1.6-7 1.6-3.1 0-5.6-.9-7.5-2.7-1.9-1.8-2.8-4.3-2.8-7.3 0-3.1.9-5.7 2.8-7.6 1.9-1.9 4.3-2.9 7.2-2.9 2.5 0 4.5.7 5.9 2.1 1.4 1.4 2.1 3.3 2.1 5.7 0 1.2-.1 2.3-.4 3.2l-12.6.2v.2zm8.4-3.1v-.3c0-2.8-1.2-4.2-3.7-4.2-1.3 0-2.3.4-3.2 1.3-.8.9-1.3 2-1.4 3.3l8.3-.1zM98.5 28.6h-4.9V9.5l4.9-.7v3.1c1.3-2.1 2.9-3.2 5-3.2 1.3 0 2.5.3 3.4.9l-1.1 4.4c-.9-.5-1.8-.8-2.8-.8-1.8 0-3.4 1.1-4.6 3.4v12z"/>
  </g>
</svg>
