<?xml version="1.0" encoding="utf-8"?>
<!-- Generator: Adobe Illustrator 22.1.0, SVG Export Plug-In . SVG Version: 6.00 Build 0)  -->
<svg version="1.1" xmlns="http://www.w3.org/2000/svg" xmlns:xlink="http://www.w3.org/1999/xlink" x="0px" y="0px"
	 viewBox="0 0 107 29.3" style="enable-background:new 0 0 107 29.3;" xml:space="preserve">
<style type="text/css">
	.st0{fill:#231F20;}
	.st1{fill:#FFFFFF;}
	.st2{fill:#050505;}
	.st3{fill:#E6E7E8;}
	.st4{fill:none;stroke:#FFFFFF;stroke-width:0.5;stroke-miterlimit:10;}
	.st5{fill:#211D1E;}
	.st6{fill:#EEEEEE;}
	.st7{fill:#00ADFF;}
	.st8{fill:#696969;}
	.st9{fill:#333333;}
	.st10{fill:none;stroke:#696969;stroke-miterlimit:10;}
	.st11{clip-path:url(#SVGID_2_);}
	.st12{clip-path:url(#SVGID_4_);}
	.st13{clip-path:url(#SVGID_6_);}
	.st14{clip-path:url(#SVGID_8_);}
</style>
<g id="Layer_1">
	<g>
		<path class="st0" d="M24.2,28.6V16.9c0-1.4-0.3-2.4-0.8-3c-0.5-0.6-1.3-0.9-2.4-0.9c-1.4,0-2.7,0.6-4,1.7V16v12.7h-4.9V16.9
			c0-1.4-0.3-2.4-0.8-3c-0.5-0.6-1.3-0.9-2.4-0.9c-1.6,0-2.9,0.5-4,1.6v14H0V9.4l4.9-0.7v2.7c1.8-1.8,3.9-2.8,6.2-2.8
			c2.5,0,4.3,1.1,5.3,3.3c2-2.2,4.3-3.3,6.9-3.3c1.8,0,3.3,0.6,4.4,1.8s1.6,2.8,1.6,4.9v13.2H24.2z"/>
		<path class="st0" d="M44.1,26.4c-1.6,1.9-3.4,2.8-5.4,2.8c-1.7,0-3.2-0.5-4.3-1.6c-1.1-1-1.7-2.3-1.7-3.9c0-4.3,3.8-6.6,11.4-6.9
			v-0.5c0-1.3-0.3-2.3-0.9-2.8c-0.6-0.6-1.6-0.9-3-0.9c-1.9,0-4,0.7-6.4,2.1l-1-3.9c2.4-1.5,5.1-2.3,8.1-2.3c2.9,0,5,0.6,6.3,1.9
			c1.3,1.3,1.9,3.3,1.8,6v6.9c0,0.7,0.1,1.2,0.3,1.4s0.7,0.3,1.4,0.4l-0.4,3.7c-3.3,0.4-5.3-0.5-6.1-2.6H44.1z M44.1,19.6
			c-2.4,0.3-4.1,0.7-5.1,1.3s-1.5,1.3-1.5,2.3c0,0.8,0.3,1.4,0.8,1.8c0.5,0.5,1.2,0.7,2.1,0.7c1.4,0,2.7-0.6,3.7-1.7V19.6z"/>
		<path class="st0" d="M58.8,19.3v9.3h-4.9v-28L58.8,0v17.9h0.1l6.9-8.6h5.9l-8,9.2l8,10.1h-5.9L58.8,19.3L58.8,19.3z"/>
		<path class="st0" d="M76.8,20.1c0.1,1.6,0.7,2.9,1.7,3.8c1,1,2.4,1.4,4.1,1.4c2.1,0,4.1-0.6,6-1.8l0.6,4.1c-2,1.1-4.3,1.6-7,1.6
			c-3.1,0-5.6-0.9-7.5-2.7c-1.9-1.8-2.8-4.3-2.8-7.3c0-3.1,0.9-5.7,2.8-7.6c1.9-1.9,4.3-2.9,7.2-2.9c2.5,0,4.5,0.7,5.9,2.1
			c1.4,1.4,2.1,3.3,2.1,5.7c0,1.2-0.1,2.3-0.4,3.2l-12.6,0.2V20.1z M85.2,17v-0.3c0-2.8-1.2-4.2-3.7-4.2c-1.3,0-2.3,0.4-3.2,1.3
			c-0.8,0.9-1.3,2-1.4,3.3L85.2,17z"/>
		<path class="st0" d="M98.5,28.6h-4.9V9.5l4.9-0.7v3.1c1.3-2.1,2.9-3.2,5-3.2c1.3,0,2.5,0.3,3.4,0.9l-1.1,4.4
			c-0.9-0.5-1.8-0.8-2.8-0.8c-1.8,0-3.4,1.1-4.6,3.4V28.6z"/>
	</g>
</g>
<g id="Layer_2">
</g>
</svg>
