<svg xmlns="http://www.w3.org/2000/svg" width="512" height="512" viewBox="0 0 512 512">
  <g fill="none" fill-rule="evenodd">
    <path fill="#42AFE3" d="M100,4.26325641e-14 L412,4.26325641e-14 L412,4.26325641e-14 C467.228475,3.24872579e-14 512,44.771525 512,100 L512,412 L512,412 C512,467.228475 467.228475,512 412,512 L100,512 L100,512 C44.771525,512 6.76353751e-15,467.228475 0,412 L0,100 L0,100 C-6.76353751e-15,44.771525 44.771525,5.27778704e-14 100,4.26325641e-14 Z"/>
    <path fill="#FFF" d="M118.153846,167.778462 C126.555939,165.677938 137.649162,163.446166 151.433846,161.083077 C165.21853,158.719988 181.16914,157.538462 199.286154,157.538462 C212.414425,157.538462 223.442007,159.310752 232.369231,162.855385 C241.296455,166.400018 248.779457,171.585607 254.818462,178.412308 C256.656419,177.099481 259.544596,175.26155 263.483077,172.898462 C267.421558,170.535373 272.278945,168.23796 278.055385,166.006154 C283.831824,163.774348 290.26458,161.805137 297.353846,160.098462 C304.443112,158.391786 312.057395,157.538462 320.196923,157.538462 C335.950848,157.538462 348.81636,159.835874 358.793846,164.430769 C368.771332,169.025664 376.582536,175.524061 382.227692,183.926154 C387.872849,192.328247 391.67999,202.305583 393.649231,213.858462 C395.618471,225.41134 396.603077,238.014291 396.603077,251.667692 L396.603077,366.670769 L359.975385,366.670769 L359.975385,259.544615 C359.975385,247.466606 359.384621,237.095428 358.203077,228.430769 C357.021533,219.766111 354.78976,212.54567 351.507692,206.769231 C348.225625,200.992792 343.76208,196.726168 338.116923,193.969231 C332.471767,191.212294 325.185686,189.833846 316.258462,189.833846 C303.917887,189.833846 293.74363,191.474855 285.735385,194.756923 C277.727139,198.038991 272.278989,200.992807 269.390769,203.618462 C271.491293,210.445162 273.066661,217.928164 274.116923,226.067692 C275.167185,234.20722 275.692308,242.740468 275.692308,251.667692 L275.692308,366.670769 L239.064615,366.670769 L239.064615,259.544615 C239.064615,247.466606 238.408212,237.095428 237.095385,228.430769 C235.782558,219.766111 233.485145,212.54567 230.203077,206.769231 C226.921009,200.992792 222.457464,196.726168 216.812308,193.969231 C211.167151,191.212294 204.012351,189.833846 195.347692,189.833846 C191.671776,189.833846 187.733354,189.965127 183.532308,190.227692 C179.331261,190.490258 175.327199,190.81846 171.52,191.212308 C167.712801,191.606156 164.233862,192.065638 161.083077,192.590769 C157.932292,193.1159 155.8318,193.509742 154.781538,193.772308 L154.781538,366.670769 L118.153846,366.670769 L118.153846,167.778462 Z"/>
  </g>
</svg>
