<?xml version="1.0" encoding="utf-8"?>
<!-- Generator: Adobe Illustrator 22.0.1, SVG Export Plug-In . SVG Version: 6.00 Build 0)  -->
<svg version="1.1" id="Layer_1" xmlns="http://www.w3.org/2000/svg" xmlns:xlink="http://www.w3.org/1999/xlink" x="0px" y="0px"
	 viewBox="0 0 168 40.9" style="enable-background:new 0 0 168 40.9;" xml:space="preserve">
<style type="text/css">
	.st0{fill:#253746;}
</style>
<g>
	<g>
		<polygon class="st0" points="2.9,38.3 0.8,33.2 0.8,33.2 0,33.2 0,39.3 0.6,39.3 0.6,36.6 0.6,34.3 2.7,39.2 2.7,39.3 3.1,39.3 
			5.3,34.3 5.2,36.6 5.2,39.3 5.9,39.3 5.9,33.2 5.1,33.2 		"/>
		<path class="st0" d="M10.1,33.1c-0.7,0-1.3,0.3-1.7,0.7c-0.4,0.5-0.6,1.1-0.6,1.9v1c0,0.8,0.2,1.4,0.6,1.9c0.4,0.5,1,0.7,1.7,0.7
			c0.7,0,1.3-0.2,1.8-0.7c0.4-0.5,0.7-1.1,0.7-1.9v-1c0-0.8-0.2-1.4-0.7-1.9C11.4,33.3,10.8,33.1,10.1,33.1z M11.8,35.7v1
			c0,0.6-0.2,1.1-0.5,1.5c-0.3,0.4-0.7,0.6-1.3,0.6c-0.5,0-1-0.2-1.3-0.6c-0.3-0.4-0.5-0.9-0.5-1.5v-1c0-0.6,0.2-1.1,0.5-1.5
			c0.3-0.4,0.7-0.6,1.3-0.6c0.6,0,1,0.2,1.3,0.6C11.7,34.6,11.8,35.1,11.8,35.7z"/>
		<path class="st0" d="M17.4,36.1c0.2-0.1,0.4-0.2,0.5-0.4c0.2-0.2,0.3-0.5,0.3-0.8c0-0.5-0.2-1-0.5-1.2c-0.4-0.3-0.9-0.4-1.5-0.4
			h-1.8v6.1h2.1c0.6,0,1.1-0.2,1.4-0.4c0.4-0.3,0.5-0.7,0.5-1.3c0-0.4-0.1-0.7-0.4-1C17.9,36.3,17.6,36.2,17.4,36.1z M14.9,35.8
			v-2.1h1.2c0.5,0,0.8,0.1,1.1,0.3c0.2,0.2,0.3,0.4,0.3,0.8c0,0.3-0.1,0.6-0.3,0.8c-0.2,0.2-0.5,0.3-1,0.3H14.9z M17.8,37.6
			c0,0.4-0.1,0.6-0.4,0.9c-0.2,0.2-0.6,0.3-1,0.3h-1.5v-2.3h1.6c0.4,0,0.7,0.1,0.9,0.3C17.7,36.9,17.8,37.2,17.8,37.6z"/>
		<rect x="20.3" y="33.2" class="st0" width="0.6" height="6.1"/>
		<polygon class="st0" points="23.8,33.2 23.1,33.2 23.1,39.3 26.7,39.3 26.7,38.7 23.8,38.7 		"/>
		<path class="st0" d="M31.7,37.3c0,0.5-0.1,0.9-0.4,1.1c-0.3,0.3-0.7,0.4-1.2,0.4c-0.5,0-0.8-0.1-1.1-0.4c-0.3-0.3-0.4-0.6-0.4-1.1
			v-4.1h-0.6v4.1c0,0.7,0.2,1.2,0.6,1.5c0.4,0.4,0.9,0.5,1.6,0.5c0.7,0,1.2-0.2,1.6-0.5c0.4-0.4,0.6-0.9,0.6-1.5v-4.1h-0.6V37.3z"/>
		<polygon class="st0" points="38.2,38.2 34.9,33.2 34.3,33.2 34.3,39.3 35,39.3 35,34.3 38.3,39.3 38.9,39.3 38.9,33.2 38.2,33.2 
					"/>
		<rect x="41.1" y="33.2" class="st0" width="0.6" height="6.1"/>
		<polygon class="st0" points="43.2,33.7 45.2,33.7 45.2,39.3 45.9,39.3 45.9,33.7 47.9,33.7 47.9,33.2 43.2,33.2 		"/>
		<polygon class="st0" points="53.1,33.2 51.3,36.4 49.5,33.2 48.8,33.2 51,37 51,39.3 51.6,39.3 51.6,37.1 53.9,33.2 		"/>
	</g>
	<path class="st0" d="M43.6,7.5l-4.5-4.9l-2,5.2l0.6,4.4L31,11.8l-6.9-7.3L15.7,0l0,0L4.3,3.7l0,0L0,14.3l6.1,8.8l0.1,0.1l8.2,2.7
		l7.7,0.3l6.5,2.4l5-2l-3.3-3.1L42,14.4h5.4l6.5-6.8H43.6z M52.5,8.1l-5.4,5.6H42l-1.2-1.2l2.7-4.4H52.5z M39.3,3.7l3.8,4.1
		l-2.7,4.4l-2-0.1l-0.6-4.3 M40.4,13l1,1.1l-11.6,9l-2.6-2.5L40.4,13z M27.1,20l0-5.5l3.9-2l8.5,0.4L27.1,20z M26.8,13.9l-8.4-4.8
		l5.5-4l6.5,6.9L26.8,13.9z M10.7,16.7l6.9,4l3.9,4.8l-7-0.3l-8-2.6L1,14.7L10.7,16.7z M17.2,9.2l-6.5,6.9l-10-2.1l3.9-9.7L17.2,9.2
		z M17.7,8.8L5.3,4l10.2-3.3l7.7,4.1L17.7,8.8z M26.5,14.4l0,5.8h-8.6l-6.6-3.8l6.5-6.9L26.5,14.4z M22.3,25.6l-3.9-4.8h8.2l5.9,5.5
		L28.6,28L22.3,25.6z"/>
	<g>
		<path class="st0" d="M73.6,3.4v4.3c0,0.7-0.2,1.2-0.7,1.6c-0.4,0.4-1,0.5-1.7,0.5c-0.7,0-1.3-0.2-1.7-0.5
			c-0.4-0.4-0.6-0.9-0.6-1.6V3.4h0.9v4.3c0,0.5,0.1,0.8,0.4,1.1c0.3,0.2,0.6,0.4,1.1,0.4c0.5,0,0.8-0.1,1.1-0.4
			c0.3-0.2,0.4-0.6,0.4-1.1V3.4H73.6z"/>
		<path class="st0" d="M76.6,7.5h-0.6v2.2h-0.9V3h0.9v3.9h0.5L77.9,5h1l-1.6,2.1l1.8,2.6h-1L76.6,7.5z"/>
		<path class="st0" d="M82.5,5.8l-0.4,0c-0.2,0-0.4,0.1-0.6,0.2c-0.2,0.1-0.3,0.3-0.4,0.4v3.3h-0.9V5H81l0.1,0.7
			c0.1-0.2,0.3-0.4,0.5-0.6C81.8,5,82,4.9,82.3,4.9c0.1,0,0.1,0,0.2,0c0.1,0,0.1,0,0.1,0L82.5,5.8z"/>
		<path class="st0" d="M86.5,9.7c0-0.1-0.1-0.3-0.1-0.4c0-0.1,0-0.2,0-0.3c-0.2,0.2-0.4,0.4-0.6,0.6c-0.3,0.2-0.5,0.2-0.8,0.2
			c-0.5,0-0.9-0.1-1.1-0.4c-0.3-0.2-0.4-0.6-0.4-1c0-0.4,0.2-0.8,0.5-1C84.4,7.1,84.9,7,85.5,7h0.9V6.5c0-0.3-0.1-0.5-0.3-0.7
			s-0.4-0.2-0.7-0.2c-0.3,0-0.5,0.1-0.7,0.2c-0.2,0.1-0.3,0.3-0.3,0.5h-0.8l0,0c0-0.3,0.1-0.7,0.5-0.9c0.3-0.3,0.8-0.4,1.3-0.4
			c0.5,0,1,0.1,1.3,0.4c0.3,0.3,0.5,0.7,0.5,1.2v2.3c0,0.2,0,0.3,0,0.5c0,0.2,0,0.3,0.1,0.5H86.5z M85.1,9.1c0.3,0,0.6-0.1,0.8-0.2
			c0.2-0.2,0.4-0.3,0.5-0.5V7.5h-1c-0.3,0-0.6,0.1-0.8,0.3c-0.2,0.2-0.3,0.4-0.3,0.6c0,0.2,0.1,0.4,0.2,0.5
			C84.7,9,84.9,9.1,85.1,9.1z"/>
		<path class="st0" d="M89.8,3.8H89V3h0.9V3.8z M89.8,9.7H89V5h0.9V9.7z"/>
		<path class="st0" d="M92.3,5l0.1,0.7c0.2-0.2,0.4-0.4,0.6-0.6c0.2-0.1,0.5-0.2,0.8-0.2c0.5,0,0.9,0.1,1.2,0.4s0.4,0.8,0.4,1.4v2.9
			h-0.9V6.8c0-0.4-0.1-0.7-0.2-0.9c-0.2-0.2-0.4-0.3-0.7-0.3c-0.2,0-0.5,0.1-0.6,0.2c-0.2,0.1-0.3,0.3-0.5,0.5v3.4h-0.9V5H92.3z"/>
		<path class="st0" d="M97.8,3.8H97V3h0.9V3.8z M97.8,9.7H97V5h0.9V9.7z"/>
		<path class="st0" d="M102.3,9.7c0-0.1-0.1-0.3-0.1-0.4c0-0.1,0-0.2,0-0.3c-0.2,0.2-0.4,0.4-0.6,0.6c-0.3,0.2-0.5,0.2-0.8,0.2
			c-0.5,0-0.9-0.1-1.1-0.4c-0.3-0.2-0.4-0.6-0.4-1c0-0.4,0.2-0.8,0.5-1c0.4-0.3,0.9-0.4,1.5-0.4h0.9V6.5c0-0.3-0.1-0.5-0.3-0.7
			s-0.4-0.2-0.7-0.2c-0.3,0-0.5,0.1-0.7,0.2c-0.2,0.1-0.3,0.3-0.3,0.5h-0.8l0,0c0-0.3,0.1-0.7,0.5-0.9c0.3-0.3,0.8-0.4,1.3-0.4
			c0.5,0,1,0.1,1.3,0.4c0.3,0.3,0.5,0.7,0.5,1.2v2.3c0,0.2,0,0.3,0,0.5c0,0.2,0,0.3,0.1,0.5H102.3z M100.9,9.1
			c0.3,0,0.6-0.1,0.8-0.2c0.2-0.2,0.4-0.3,0.5-0.5V7.5h-1c-0.3,0-0.6,0.1-0.8,0.3c-0.2,0.2-0.3,0.4-0.3,0.6c0,0.2,0.1,0.4,0.2,0.5
			C100.5,9,100.7,9.1,100.9,9.1z"/>
		<path class="st0" d="M105.5,5l0.1,0.7c0.2-0.2,0.4-0.4,0.6-0.6c0.2-0.1,0.5-0.2,0.8-0.2c0.5,0,0.9,0.1,1.2,0.4s0.4,0.8,0.4,1.4
			v2.9h-0.9V6.8c0-0.4-0.1-0.7-0.2-0.9c-0.2-0.2-0.4-0.3-0.7-0.3c-0.2,0-0.5,0.1-0.6,0.2c-0.2,0.1-0.3,0.3-0.5,0.5v3.4h-0.9V5H105.5
			z"/>
		<path class="st0" d="M112.9,9.7V3.4h1.9c0.8,0,1.5,0.3,2,0.8c0.5,0.5,0.7,1.2,0.7,2V7c0,0.8-0.2,1.5-0.7,2c-0.5,0.5-1.2,0.8-2,0.8
			H112.9z M113.8,4.1v5h1.1c0.6,0,1-0.2,1.4-0.6c0.3-0.4,0.5-0.9,0.5-1.5V6.1c0-0.6-0.2-1.1-0.5-1.5c-0.3-0.4-0.8-0.6-1.4-0.6H113.8
			z"/>
		<path class="st0" d="M121,9.8c-0.7,0-1.2-0.2-1.6-0.7c-0.4-0.4-0.6-1-0.6-1.7V7.3c0-0.7,0.2-1.2,0.6-1.7c0.4-0.4,0.9-0.7,1.4-0.7
			c0.6,0,1.1,0.2,1.4,0.6c0.3,0.4,0.5,0.9,0.5,1.5v0.5h-3l0,0c0,0.4,0.1,0.8,0.3,1.1c0.2,0.3,0.5,0.4,0.9,0.4c0.3,0,0.5,0,0.8-0.1
			c0.2-0.1,0.4-0.2,0.6-0.3l0.3,0.6c-0.2,0.2-0.4,0.3-0.7,0.4C121.7,9.7,121.3,9.8,121,9.8z M120.8,5.6c-0.3,0-0.5,0.1-0.7,0.4
			c-0.2,0.2-0.3,0.5-0.4,0.9l0,0h2.2V6.8c0-0.3-0.1-0.6-0.3-0.8C121.4,5.7,121.2,5.6,120.8,5.6z"/>
		<path class="st0" d="M125.6,8.3l0.1,0.3h0l0.1-0.3l1.1-3.3h0.9L126,9.7h-0.6L123.6,5h0.9L125.6,8.3z"/>
		<path class="st0" d="M130.6,9.8c-0.7,0-1.2-0.2-1.6-0.7c-0.4-0.4-0.6-1-0.6-1.7V7.3c0-0.7,0.2-1.2,0.6-1.7
			c0.4-0.4,0.9-0.7,1.4-0.7c0.6,0,1.1,0.2,1.4,0.6c0.3,0.4,0.5,0.9,0.5,1.5v0.5h-3l0,0c0,0.4,0.1,0.8,0.3,1.1
			c0.2,0.3,0.5,0.4,0.9,0.4c0.3,0,0.5,0,0.8-0.1c0.2-0.1,0.4-0.2,0.6-0.3l0.3,0.6c-0.2,0.2-0.4,0.3-0.7,0.4
			C131.4,9.7,131,9.8,130.6,9.8z M130.5,5.6c-0.3,0-0.5,0.1-0.7,0.4c-0.2,0.2-0.3,0.5-0.4,0.9l0,0h2.2V6.8c0-0.3-0.1-0.6-0.3-0.8
			C131.1,5.7,130.9,5.6,130.5,5.6z"/>
		<path class="st0" d="M134.7,9.7h-0.9V3h0.9V9.7z"/>
		<path class="st0" d="M136.2,7.3c0-0.7,0.2-1.3,0.6-1.7c0.4-0.4,0.9-0.7,1.5-0.7c0.6,0,1.2,0.2,1.5,0.7c0.4,0.4,0.6,1,0.6,1.7v0.1
			c0,0.7-0.2,1.3-0.6,1.7c-0.4,0.4-0.9,0.7-1.5,0.7c-0.6,0-1.2-0.2-1.5-0.7C136.4,8.7,136.2,8.1,136.2,7.3L136.2,7.3z M137.1,7.4
			c0,0.5,0.1,0.9,0.3,1.2c0.2,0.3,0.5,0.5,0.9,0.5c0.4,0,0.7-0.2,0.9-0.5c0.2-0.3,0.3-0.7,0.3-1.2V7.3c0-0.5-0.1-0.9-0.3-1.2
			c-0.2-0.3-0.5-0.5-0.9-0.5c-0.4,0-0.7,0.2-0.9,0.5C137.2,6.4,137.1,6.8,137.1,7.4L137.1,7.4z"/>
		<path class="st0" d="M145.8,7.5c0,0.7-0.2,1.2-0.5,1.6c-0.3,0.4-0.8,0.6-1.3,0.6c-0.3,0-0.5,0-0.8-0.1s-0.4-0.2-0.6-0.4v2.3h-0.9
			V5h0.7l0.1,0.6c0.2-0.2,0.3-0.4,0.6-0.5c0.2-0.1,0.5-0.2,0.8-0.2c0.6,0,1,0.2,1.3,0.7C145.7,6.1,145.8,6.7,145.8,7.5L145.8,7.5z
			 M145,7.4c0-0.5-0.1-1-0.3-1.3c-0.2-0.3-0.5-0.5-0.9-0.5c-0.2,0-0.5,0.1-0.6,0.2c-0.2,0.1-0.3,0.3-0.4,0.5v2.3
			c0.1,0.2,0.2,0.3,0.4,0.5c0.2,0.1,0.4,0.2,0.6,0.2c0.4,0,0.7-0.1,0.9-0.4C144.9,8.4,145,8,145,7.4L145,7.4z"/>
		<path class="st0" d="M148.1,5l0.1,0.6c0.2-0.2,0.3-0.4,0.6-0.5c0.2-0.1,0.5-0.2,0.8-0.2c0.3,0,0.6,0.1,0.8,0.2
			c0.2,0.1,0.4,0.4,0.5,0.6c0.1-0.3,0.3-0.5,0.6-0.6c0.2-0.2,0.5-0.2,0.8-0.2c0.5,0,0.9,0.2,1.1,0.5c0.3,0.3,0.4,0.8,0.4,1.5v2.8
			H153V6.9c0-0.5-0.1-0.8-0.2-1c-0.2-0.2-0.4-0.3-0.7-0.3c-0.3,0-0.5,0.1-0.7,0.3c-0.2,0.2-0.3,0.5-0.3,0.8v0v3h-0.9V6.9
			c0-0.4-0.1-0.8-0.2-1c-0.2-0.2-0.4-0.3-0.7-0.3c-0.3,0-0.5,0.1-0.6,0.2c-0.2,0.1-0.3,0.3-0.4,0.4v3.5h-0.9V5H148.1z"/>
		<path class="st0" d="M157.4,9.8c-0.7,0-1.2-0.2-1.6-0.7c-0.4-0.4-0.6-1-0.6-1.7V7.3c0-0.7,0.2-1.2,0.6-1.7
			c0.4-0.4,0.9-0.7,1.4-0.7c0.6,0,1.1,0.2,1.4,0.6c0.3,0.4,0.5,0.9,0.5,1.5v0.5h-3l0,0c0,0.4,0.1,0.8,0.3,1.1
			c0.2,0.3,0.5,0.4,0.9,0.4c0.3,0,0.5,0,0.8-0.1c0.2-0.1,0.4-0.2,0.6-0.3l0.3,0.6c-0.2,0.2-0.4,0.3-0.7,0.4
			C158.1,9.7,157.8,9.8,157.4,9.8z M157.2,5.6c-0.3,0-0.5,0.1-0.7,0.4c-0.2,0.2-0.3,0.5-0.4,0.9l0,0h2.2V6.8c0-0.3-0.1-0.6-0.3-0.8
			C157.9,5.7,157.6,5.6,157.2,5.6z"/>
		<path class="st0" d="M161.3,5l0.1,0.7c0.2-0.2,0.4-0.4,0.6-0.6c0.2-0.1,0.5-0.2,0.8-0.2c0.5,0,0.9,0.1,1.2,0.4s0.4,0.8,0.4,1.4
			v2.9h-0.9V6.8c0-0.4-0.1-0.7-0.2-0.9c-0.2-0.2-0.4-0.3-0.7-0.3c-0.2,0-0.5,0.1-0.6,0.2c-0.2,0.1-0.3,0.3-0.5,0.5v3.4h-0.9V5H161.3
			z"/>
		<path class="st0" d="M167.1,3.9V5h0.9v0.6h-0.9v2.8c0,0.2,0,0.4,0.1,0.5c0.1,0.1,0.2,0.1,0.4,0.1c0,0,0.1,0,0.2,0
			c0.1,0,0.1,0,0.2,0l0.1,0.6c-0.1,0.1-0.2,0.1-0.3,0.1c-0.1,0-0.2,0-0.4,0c-0.3,0-0.6-0.1-0.8-0.3c-0.2-0.2-0.3-0.5-0.3-1V5.6h-0.7
			V5h0.7V3.9H167.1z"/>
		<path class="st0" d="M70.3,21.8l0.1,0.8l0,0l0.2-0.8l1.2-4.1h0.8l1.2,4.1l0.2,0.8h0l0.1-0.8l0.9-4.1h0.9L74.2,24h-0.8l-1.2-4.4
			l-0.1-0.6h0L72,19.6L70.7,24H70l-1.5-6.3h0.8L70.3,21.8z"/>
		<path class="st0" d="M79,24.1c-0.7,0-1.2-0.2-1.6-0.7c-0.4-0.4-0.6-1-0.6-1.7v-0.2c0-0.7,0.2-1.2,0.6-1.7c0.4-0.4,0.9-0.7,1.4-0.7
			c0.6,0,1.1,0.2,1.4,0.6c0.3,0.4,0.5,0.9,0.5,1.5v0.5h-3l0,0c0,0.4,0.1,0.8,0.3,1.1s0.5,0.4,0.9,0.4c0.3,0,0.5,0,0.8-0.1
			c0.2-0.1,0.4-0.2,0.6-0.3l0.3,0.6c-0.2,0.2-0.4,0.3-0.7,0.4C79.7,24,79.4,24.1,79,24.1z M78.9,19.9c-0.3,0-0.5,0.1-0.7,0.4
			c-0.2,0.2-0.3,0.5-0.4,0.9l0,0h2.2v-0.1c0-0.3-0.1-0.6-0.3-0.8C79.5,20,79.2,19.9,78.9,19.9z"/>
		<path class="st0" d="M85.1,22.7c0-0.2-0.1-0.3-0.2-0.5c-0.1-0.1-0.4-0.2-0.8-0.3c-0.6-0.1-1-0.3-1.3-0.5c-0.3-0.2-0.4-0.5-0.4-0.9
			c0-0.4,0.2-0.7,0.5-1c0.3-0.3,0.7-0.4,1.3-0.4c0.5,0,1,0.1,1.3,0.4c0.3,0.3,0.5,0.6,0.5,1l0,0h-0.8c0-0.2-0.1-0.4-0.3-0.6
			c-0.2-0.2-0.4-0.2-0.7-0.2c-0.3,0-0.5,0.1-0.7,0.2c-0.1,0.1-0.2,0.3-0.2,0.5c0,0.2,0.1,0.3,0.2,0.4c0.1,0.1,0.4,0.2,0.8,0.3
			c0.6,0.1,1,0.3,1.3,0.5s0.4,0.5,0.4,0.9c0,0.4-0.2,0.7-0.5,1c-0.3,0.3-0.8,0.4-1.3,0.4c-0.6,0-1.1-0.2-1.4-0.5
			c-0.3-0.3-0.5-0.7-0.5-1.1l0,0h0.8c0,0.3,0.1,0.5,0.3,0.7c0.2,0.1,0.5,0.2,0.7,0.2c0.3,0,0.5-0.1,0.7-0.2S85.1,22.9,85.1,22.7z"/>
		<path class="st0" d="M88.9,18.2v1.1h0.9v0.6h-0.9v2.8c0,0.2,0,0.4,0.1,0.5c0.1,0.1,0.2,0.1,0.4,0.1c0,0,0.1,0,0.2,0
			c0.1,0,0.1,0,0.2,0l0.1,0.6c-0.1,0.1-0.2,0.1-0.3,0.1c-0.1,0-0.2,0-0.4,0c-0.3,0-0.6-0.1-0.8-0.3c-0.2-0.2-0.3-0.5-0.3-1v-2.8
			h-0.7v-0.6H88v-1.1H88.9z"/>
		<path class="st0" d="M93.2,24.1c-0.7,0-1.2-0.2-1.6-0.7c-0.4-0.4-0.6-1-0.6-1.7v-0.2c0-0.7,0.2-1.2,0.6-1.7
			c0.4-0.4,0.9-0.7,1.4-0.7c0.6,0,1.1,0.2,1.4,0.6c0.3,0.4,0.5,0.9,0.5,1.5v0.5h-3l0,0c0,0.4,0.1,0.8,0.3,1.1s0.5,0.4,0.9,0.4
			c0.3,0,0.5,0,0.8-0.1c0.2-0.1,0.4-0.2,0.6-0.3l0.3,0.6c-0.2,0.2-0.4,0.3-0.7,0.4C94,24,93.6,24.1,93.2,24.1z M93.1,19.9
			c-0.3,0-0.5,0.1-0.7,0.4c-0.2,0.2-0.3,0.5-0.4,0.9l0,0h2.2v-0.1c0-0.3-0.1-0.6-0.3-0.8C93.7,20,93.5,19.9,93.1,19.9z"/>
		<path class="st0" d="M99,20.1l-0.4,0c-0.2,0-0.4,0.1-0.6,0.2c-0.2,0.1-0.3,0.3-0.4,0.4V24h-0.9v-4.7h0.8l0.1,0.7
			c0.1-0.2,0.3-0.4,0.5-0.6c0.2-0.1,0.4-0.2,0.7-0.2c0.1,0,0.1,0,0.2,0c0.1,0,0.1,0,0.1,0L99,20.1z"/>
		<path class="st0" d="M101.3,19.3l0.1,0.7c0.2-0.2,0.4-0.4,0.6-0.6c0.2-0.1,0.5-0.2,0.8-0.2c0.5,0,0.9,0.1,1.2,0.4
			c0.3,0.3,0.4,0.8,0.4,1.4V24h-0.9V21c0-0.4-0.1-0.7-0.2-0.9s-0.4-0.3-0.7-0.3c-0.2,0-0.5,0.1-0.6,0.2c-0.2,0.1-0.3,0.3-0.5,0.5V24
			h-0.9v-4.7H101.3z"/>
		<path class="st0" d="M110.4,17.7l2,5.1h0l2-5.1h1.1V24h-0.9v-2.5l0.1-2.6l0,0l-2,5h-0.6l-2-5l0,0l0.1,2.5V24h-0.9v-6.3H110.4z"/>
		<path class="st0" d="M120.5,24c0-0.1-0.1-0.3-0.1-0.4c0-0.1,0-0.2,0-0.3c-0.2,0.2-0.4,0.4-0.6,0.6c-0.3,0.2-0.5,0.2-0.8,0.2
			c-0.5,0-0.9-0.1-1.1-0.4c-0.3-0.2-0.4-0.6-0.4-1c0-0.4,0.2-0.8,0.5-1c0.4-0.3,0.9-0.4,1.5-0.4h0.9v-0.5c0-0.3-0.1-0.5-0.3-0.7
			c-0.2-0.2-0.4-0.2-0.7-0.2c-0.3,0-0.5,0.1-0.7,0.2c-0.2,0.1-0.3,0.3-0.3,0.5h-0.8l0,0c0-0.3,0.1-0.7,0.5-0.9
			c0.3-0.3,0.8-0.4,1.3-0.4c0.5,0,1,0.1,1.3,0.4c0.3,0.3,0.5,0.7,0.5,1.2V23c0,0.2,0,0.3,0,0.5c0,0.2,0,0.3,0.1,0.5H120.5z
			 M119,23.4c0.3,0,0.6-0.1,0.8-0.2c0.2-0.2,0.4-0.3,0.5-0.5v-0.8h-1c-0.3,0-0.6,0.1-0.8,0.3c-0.2,0.2-0.3,0.4-0.3,0.6
			c0,0.2,0.1,0.4,0.2,0.5C118.6,23.3,118.8,23.4,119,23.4z"/>
		<path class="st0" d="M123.9,19.3L124,20c0.2-0.2,0.4-0.4,0.6-0.6c0.2-0.1,0.5-0.2,0.8-0.2c0.5,0,0.9,0.1,1.2,0.4
			c0.3,0.3,0.4,0.8,0.4,1.4V24h-0.9V21c0-0.4-0.1-0.7-0.2-0.9c-0.2-0.2-0.4-0.3-0.7-0.3c-0.2,0-0.5,0.1-0.6,0.2
			c-0.2,0.1-0.3,0.3-0.5,0.5V24h-0.9v-4.7H123.9z"/>
		<path class="st0" d="M131.7,24c0-0.1-0.1-0.3-0.1-0.4c0-0.1,0-0.2,0-0.3c-0.2,0.2-0.4,0.4-0.6,0.6c-0.3,0.2-0.5,0.2-0.8,0.2
			c-0.5,0-0.9-0.1-1.1-0.4c-0.3-0.2-0.4-0.6-0.4-1c0-0.4,0.2-0.8,0.5-1c0.4-0.3,0.9-0.4,1.5-0.4h0.9v-0.5c0-0.3-0.1-0.5-0.3-0.7
			c-0.2-0.2-0.4-0.2-0.7-0.2c-0.3,0-0.5,0.1-0.7,0.2c-0.2,0.1-0.3,0.3-0.3,0.5h-0.8l0,0c0-0.3,0.1-0.7,0.5-0.9
			c0.3-0.3,0.8-0.4,1.3-0.4c0.5,0,1,0.1,1.3,0.4c0.3,0.3,0.5,0.7,0.5,1.2V23c0,0.2,0,0.3,0,0.5c0,0.2,0,0.3,0.1,0.5H131.7z
			 M130.3,23.4c0.3,0,0.6-0.1,0.8-0.2c0.2-0.2,0.4-0.3,0.5-0.5v-0.8h-1c-0.3,0-0.6,0.1-0.8,0.3c-0.2,0.2-0.3,0.4-0.3,0.6
			c0,0.2,0.1,0.4,0.2,0.5C129.9,23.3,130,23.4,130.3,23.4z"/>
		<path class="st0" d="M134.2,21.7c0-0.8,0.2-1.4,0.5-1.8c0.3-0.5,0.8-0.7,1.4-0.7c0.3,0,0.6,0.1,0.8,0.2c0.2,0.1,0.4,0.3,0.6,0.5
			l0.1-0.6h0.7V24c0,0.6-0.2,1.1-0.5,1.4c-0.3,0.3-0.9,0.5-1.5,0.5c-0.2,0-0.5,0-0.7-0.1c-0.3-0.1-0.5-0.1-0.7-0.3l0.2-0.7
			c0.2,0.1,0.3,0.2,0.6,0.2c0.2,0.1,0.4,0.1,0.6,0.1c0.4,0,0.7-0.1,0.9-0.3c0.2-0.2,0.3-0.5,0.3-0.9v-0.5c-0.2,0.2-0.3,0.3-0.5,0.4
			c-0.2,0.1-0.5,0.1-0.7,0.1c-0.6,0-1-0.2-1.4-0.6C134.4,23,134.2,22.5,134.2,21.7L134.2,21.7z M135.1,21.8c0,0.5,0.1,0.8,0.3,1.1
			c0.2,0.3,0.5,0.4,0.9,0.4c0.3,0,0.5-0.1,0.6-0.2c0.2-0.1,0.3-0.3,0.4-0.5v-2.2c-0.1-0.2-0.3-0.4-0.4-0.5c-0.2-0.1-0.4-0.2-0.6-0.2
			c-0.4,0-0.7,0.2-0.9,0.5C135.2,20.8,135.1,21.2,135.1,21.8L135.1,21.8z"/>
		<path class="st0" d="M142.1,24.1c-0.7,0-1.2-0.2-1.6-0.7c-0.4-0.4-0.6-1-0.6-1.7v-0.2c0-0.7,0.2-1.2,0.6-1.7
			c0.4-0.4,0.9-0.7,1.4-0.7c0.6,0,1.1,0.2,1.4,0.6c0.3,0.4,0.5,0.9,0.5,1.5v0.5h-3l0,0c0,0.4,0.1,0.8,0.3,1.1
			c0.2,0.3,0.5,0.4,0.9,0.4c0.3,0,0.5,0,0.8-0.1c0.2-0.1,0.4-0.2,0.6-0.3l0.3,0.6c-0.2,0.2-0.4,0.3-0.7,0.4
			C142.8,24,142.5,24.1,142.1,24.1z M141.9,19.9c-0.3,0-0.5,0.1-0.7,0.4c-0.2,0.2-0.3,0.5-0.4,0.9l0,0h2.2v-0.1
			c0-0.3-0.1-0.6-0.3-0.8C142.6,20,142.3,19.9,141.9,19.9z"/>
		<path class="st0" d="M146.3,19.3l0.1,0.6c0.2-0.2,0.3-0.4,0.6-0.5c0.2-0.1,0.5-0.2,0.8-0.2c0.3,0,0.6,0.1,0.8,0.2
			c0.2,0.1,0.4,0.4,0.5,0.6c0.1-0.3,0.3-0.5,0.6-0.6c0.2-0.2,0.5-0.2,0.8-0.2c0.5,0,0.9,0.2,1.1,0.5c0.3,0.3,0.4,0.8,0.4,1.5V24
			h-0.9v-2.8c0-0.5-0.1-0.8-0.2-1c-0.2-0.2-0.4-0.3-0.7-0.3c-0.3,0-0.5,0.1-0.7,0.3c-0.2,0.2-0.3,0.5-0.3,0.8v0v3h-0.9v-2.8
			c0-0.4-0.1-0.8-0.2-1c-0.2-0.2-0.4-0.3-0.7-0.3c-0.3,0-0.5,0.1-0.6,0.2c-0.2,0.1-0.3,0.3-0.4,0.4V24h-0.9v-4.7H146.3z"/>
		<path class="st0" d="M155.9,24.1c-0.7,0-1.2-0.2-1.6-0.7c-0.4-0.4-0.6-1-0.6-1.7v-0.2c0-0.7,0.2-1.2,0.6-1.7
			c0.4-0.4,0.9-0.7,1.4-0.7c0.6,0,1.1,0.2,1.4,0.6c0.3,0.4,0.5,0.9,0.5,1.5v0.5h-3l0,0c0,0.4,0.1,0.8,0.3,1.1
			c0.2,0.3,0.5,0.4,0.9,0.4c0.3,0,0.5,0,0.8-0.1c0.2-0.1,0.4-0.2,0.6-0.3l0.3,0.6c-0.2,0.2-0.4,0.3-0.7,0.4
			C156.7,24,156.3,24.1,155.9,24.1z M155.8,19.9c-0.3,0-0.5,0.1-0.7,0.4c-0.2,0.2-0.3,0.5-0.4,0.9l0,0h2.2v-0.1
			c0-0.3-0.1-0.6-0.3-0.8C156.4,20,156.2,19.9,155.8,19.9z"/>
		<path class="st0" d="M160.2,19.3l0.1,0.7c0.2-0.2,0.4-0.4,0.6-0.6c0.2-0.1,0.5-0.2,0.8-0.2c0.5,0,0.9,0.1,1.2,0.4
			c0.3,0.3,0.4,0.8,0.4,1.4V24h-0.9V21c0-0.4-0.1-0.7-0.2-0.9s-0.4-0.3-0.7-0.3c-0.2,0-0.5,0.1-0.6,0.2c-0.2,0.1-0.3,0.3-0.5,0.5V24
			h-0.9v-4.7H160.2z"/>
		<path class="st0" d="M166.3,18.2v1.1h0.9v0.6h-0.9v2.8c0,0.2,0,0.4,0.1,0.5c0.1,0.1,0.2,0.1,0.4,0.1c0,0,0.1,0,0.2,0
			c0.1,0,0.1,0,0.2,0l0.1,0.6c-0.1,0.1-0.2,0.1-0.3,0.1c-0.1,0-0.2,0-0.4,0c-0.3,0-0.6-0.1-0.8-0.3s-0.3-0.5-0.3-1v-2.8h-0.7v-0.6
			h0.7v-1.1H166.3z"/>
		<path class="st0" d="M73.6,37.4c-0.1,0.2-0.4,0.4-0.8,0.6c-0.4,0.2-0.8,0.3-1.4,0.3c-0.8,0-1.4-0.2-1.9-0.7
			c-0.5-0.5-0.7-1.1-0.7-1.9v-1.3c0-0.8,0.2-1.4,0.7-1.9c0.5-0.5,1-0.7,1.8-0.7c0.7,0,1.3,0.2,1.7,0.5c0.4,0.4,0.6,0.8,0.6,1.4l0,0
			h-0.8c0-0.4-0.2-0.7-0.4-0.9c-0.3-0.2-0.6-0.4-1.1-0.4c-0.5,0-0.9,0.2-1.2,0.5c-0.3,0.4-0.4,0.8-0.4,1.4v1.3c0,0.6,0.2,1,0.5,1.4
			c0.3,0.4,0.7,0.5,1.3,0.5c0.4,0,0.6,0,0.9-0.1c0.2-0.1,0.4-0.2,0.5-0.3v-1.4h-1.4v-0.7h2.2V37.4z"/>
		<path class="st0" d="M76.4,38.3h-0.9v-6.7h0.9V38.3z"/>
		<path class="st0" d="M78.2,35.9c0-0.7,0.2-1.3,0.6-1.7c0.4-0.4,0.9-0.7,1.5-0.7c0.6,0,1.2,0.2,1.5,0.7c0.4,0.4,0.6,1,0.6,1.7V36
			c0,0.7-0.2,1.3-0.6,1.7c-0.4,0.4-0.9,0.7-1.5,0.7c-0.6,0-1.2-0.2-1.5-0.7C78.4,37.2,78.2,36.7,78.2,35.9L78.2,35.9z M79.1,36
			c0,0.5,0.1,0.9,0.3,1.2c0.2,0.3,0.5,0.5,0.9,0.5c0.4,0,0.7-0.2,0.9-0.5c0.2-0.3,0.3-0.7,0.3-1.2v-0.1c0-0.5-0.1-0.9-0.3-1.2
			c-0.2-0.3-0.5-0.5-0.9-0.5c-0.4,0-0.7,0.2-0.9,0.5C79.2,35,79.1,35.4,79.1,36L79.1,36z"/>
		<path class="st0" d="M88.2,36.1c0,0.7-0.2,1.2-0.5,1.6c-0.3,0.4-0.8,0.6-1.3,0.6c-0.3,0-0.6-0.1-0.8-0.2c-0.2-0.1-0.4-0.3-0.6-0.5
			l-0.1,0.6h-0.7v-6.7H85v2.6c0.1-0.2,0.3-0.4,0.5-0.5c0.2-0.1,0.5-0.2,0.8-0.2c0.6,0,1,0.2,1.3,0.7S88.2,35.3,88.2,36.1L88.2,36.1z
			 M87.3,36c0-0.5-0.1-1-0.3-1.3c-0.2-0.3-0.5-0.5-0.9-0.5c-0.3,0-0.5,0.1-0.7,0.2c-0.2,0.1-0.3,0.3-0.4,0.5v2
			c0.1,0.2,0.3,0.4,0.4,0.5c0.2,0.1,0.4,0.2,0.7,0.2c0.4,0,0.7-0.1,0.9-0.4C87.2,37,87.3,36.6,87.3,36L87.3,36z"/>
		<path class="st0" d="M92.7,38.3c0-0.1-0.1-0.3-0.1-0.4c0-0.1,0-0.2,0-0.3c-0.2,0.2-0.4,0.4-0.6,0.6c-0.3,0.2-0.5,0.2-0.8,0.2
			c-0.5,0-0.9-0.1-1.1-0.4c-0.3-0.2-0.4-0.6-0.4-1c0-0.4,0.2-0.8,0.5-1c0.4-0.3,0.9-0.4,1.5-0.4h0.9v-0.5c0-0.3-0.1-0.5-0.3-0.7
			c-0.2-0.2-0.4-0.2-0.7-0.2c-0.3,0-0.5,0.1-0.7,0.2c-0.2,0.1-0.3,0.3-0.3,0.5H90l0,0c0-0.3,0.1-0.7,0.5-0.9
			c0.3-0.3,0.8-0.4,1.3-0.4c0.5,0,1,0.1,1.3,0.4c0.3,0.3,0.5,0.7,0.5,1.2v2.3c0,0.2,0,0.3,0,0.5c0,0.2,0,0.3,0.1,0.5H92.7z
			 M91.3,37.6c0.3,0,0.6-0.1,0.8-0.2c0.2-0.2,0.4-0.3,0.5-0.5v-0.8h-1c-0.3,0-0.6,0.1-0.8,0.3c-0.2,0.2-0.3,0.4-0.3,0.6
			c0,0.2,0.1,0.4,0.2,0.5C90.9,37.6,91.1,37.6,91.3,37.6z"/>
		<path class="st0" d="M96.3,38.3h-0.9v-6.7h0.9V38.3z"/>
		<path class="st0" d="M101.4,38.3V32h1.9c0.8,0,1.5,0.3,2,0.8c0.5,0.5,0.7,1.2,0.7,2v0.9c0,0.8-0.2,1.5-0.7,2
			c-0.5,0.5-1.2,0.8-2,0.8H101.4z M102.3,32.6v5h1.1c0.6,0,1-0.2,1.4-0.6c0.3-0.4,0.5-0.9,0.5-1.5v-0.9c0-0.6-0.2-1.1-0.5-1.5
			c-0.3-0.4-0.8-0.6-1.4-0.6H102.3z"/>
		<path class="st0" d="M109.8,38.4c-0.7,0-1.2-0.2-1.6-0.7c-0.4-0.4-0.6-1-0.6-1.7v-0.2c0-0.7,0.2-1.2,0.6-1.7
			c0.4-0.4,0.9-0.7,1.4-0.7c0.6,0,1.1,0.2,1.4,0.6c0.3,0.4,0.5,0.9,0.5,1.5v0.5h-3l0,0c0,0.4,0.1,0.8,0.3,1.1s0.5,0.4,0.9,0.4
			c0.3,0,0.5,0,0.8-0.1c0.2-0.1,0.4-0.2,0.6-0.3l0.3,0.6c-0.2,0.2-0.4,0.3-0.7,0.4C110.5,38.3,110.2,38.4,109.8,38.4z M109.7,34.2
			c-0.3,0-0.5,0.1-0.7,0.4c-0.2,0.2-0.3,0.5-0.4,0.9l0,0h2.2v-0.1c0-0.3-0.1-0.6-0.3-0.8C110.3,34.3,110,34.2,109.7,34.2z"/>
		<path class="st0" d="M114.2,38.3h-0.9v-6.7h0.9V38.3z"/>
		<path class="st0" d="M117.1,32.4h-0.9v-0.9h0.9V32.4z M117.1,38.3h-0.9v-4.7h0.9V38.3z"/>
		<path class="st0" d="M120.6,36.9l0.1,0.3h0l0.1-0.3l1.1-3.3h0.9l-1.7,4.7h-0.6l-1.7-4.7h0.9L120.6,36.9z"/>
		<path class="st0" d="M126,38.4c-0.7,0-1.2-0.2-1.6-0.7c-0.4-0.4-0.6-1-0.6-1.7v-0.2c0-0.7,0.2-1.2,0.6-1.7
			c0.4-0.4,0.9-0.7,1.4-0.7c0.6,0,1.1,0.2,1.4,0.6c0.3,0.4,0.5,0.9,0.5,1.5v0.5h-3l0,0c0,0.4,0.1,0.8,0.3,1.1s0.5,0.4,0.9,0.4
			c0.3,0,0.5,0,0.8-0.1c0.2-0.1,0.4-0.2,0.6-0.3l0.3,0.6c-0.2,0.2-0.4,0.3-0.7,0.4C126.7,38.3,126.4,38.4,126,38.4z M125.9,34.2
			c-0.3,0-0.5,0.1-0.7,0.4c-0.2,0.2-0.3,0.5-0.4,0.9l0,0h2.2v-0.1c0-0.3-0.1-0.6-0.3-0.8C126.5,34.3,126.2,34.2,125.9,34.2z"/>
		<path class="st0" d="M131.7,34.3l-0.4,0c-0.2,0-0.4,0.1-0.6,0.2c-0.2,0.1-0.3,0.3-0.4,0.4v3.3h-0.9v-4.7h0.8l0.1,0.7
			c0.1-0.2,0.3-0.4,0.5-0.6c0.2-0.1,0.4-0.2,0.7-0.2c0.1,0,0.1,0,0.2,0c0.1,0,0.1,0,0.1,0L131.7,34.3z"/>
		<path class="st0" d="M135,36.5l0.2,0.6h0l1.1-3.5h0.9l-2,5.4c-0.1,0.3-0.3,0.6-0.5,0.8c-0.2,0.2-0.5,0.3-0.9,0.3
			c-0.1,0-0.2,0-0.3,0c-0.1,0-0.2,0-0.2,0l0.1-0.7c0,0,0,0,0.2,0c0.1,0,0.2,0,0.2,0c0.2,0,0.3-0.1,0.4-0.2c0.1-0.2,0.2-0.3,0.3-0.5
			l0.2-0.5l-1.7-4.6h1L135,36.5z"/>
	</g>
	<rect x="61.1" y="1.1" class="st0" width="0.6" height="39.8"/>
</g>
</svg>
