<?xml version="1.0" encoding="UTF-8" standalone="no"?>
<!DOCTYPE svg PUBLIC "-//W3C//DTD SVG 1.1//EN" "http://www.w3.org/Graphics/SVG/1.1/DTD/svg11.dtd">
<svg width="100%" height="100%" viewBox="0 0 168 35" version="1.1" xmlns="http://www.w3.org/2000/svg" xmlns:xlink="http://www.w3.org/1999/xlink" xml:space="preserve" xmlns:serif="http://www.serif.com/" style="fill-rule:evenodd;clip-rule:evenodd;stroke-linejoin:round;stroke-miterlimit:1.41421;">
    <g transform="matrix(0.599786,0,0,0.599786,-11.3959,-11.3959)">
        <path d="M19,19L19,76.2L38.1,76.2L38.1,38.1L76.2,38.1L76.2,19L19,19Z" style="fill:rgb(255,168,0);fill-rule:nonzero;"/>
    </g>
    <g transform="matrix(0.599786,0,0,0.599786,-11.3959,-11.3959)">
        <rect x="38.1" y="57.1" width="19" height="19" style="fill:rgb(0,153,153);"/>
    </g>
    <g transform="matrix(0.599786,0,0,0.599786,-11.3959,-11.3959)">
        <rect x="57.1" y="57.1" width="19" height="19" style="fill:rgb(0,38,38);"/>
    </g>
    <g transform="matrix(0.599786,0,0,0.599786,-11.3959,-11.3959)">
        <rect x="57.1" y="38.1" width="19" height="5.1" style="fill:rgb(97,0,43);"/>
    </g>
    <g transform="matrix(1,0,0,1,-19,-19)">
        <g transform="matrix(0.599786,0,0,0.599786,7.60407,7.60407)">
            <path d="M132.1,28.1L132.1,32.6L127.7,32.6L127.7,28.1L132.1,28.1ZM132,37.3L132,63.4L127.9,63.4L127.9,37.3L132,37.3Z" style="fill-rule:nonzero;"/>
        </g>
        <g transform="matrix(0.599786,0,0,0.599786,7.60407,7.60407)">
            <path d="M151.9,60.7L151.9,63.9C150.5,64.1 149.2,64.2 148.2,64.2C143.1,64.2 140.6,61.6 140.6,56.3L140.6,40.5L136,40.5L136,37.3L140.6,37.3L140.8,30.7L144.6,30.3L144.6,37.2L150.4,37.2L150.4,40.4L144.6,40.4L144.6,56.8C144.6,59.5 146,60.8 148.8,60.8C149.7,60.9 150.7,60.8 151.9,60.7Z" style="fill-rule:nonzero;"/>
        </g>
        <g transform="matrix(0.599786,0,0,0.599786,7.60407,7.60407)">
            <path d="M168.2,60.7L168.2,63.9C166.8,64.1 165.5,64.2 164.5,64.2C159.4,64.2 156.9,61.6 156.9,56.3L156.9,40.5L152.3,40.5L152.3,37.3L156.9,37.3L157.1,30.7L160.9,30.3L160.9,37.2L166.7,37.2L166.7,40.4L160.9,40.4L160.9,56.8C160.9,59.5 162.3,60.8 165.1,60.8C166,60.9 167,60.8 168.2,60.7Z" style="fill-rule:nonzero;"/>
        </g>
        <g transform="matrix(0.599786,0,0,0.599786,7.60407,7.60407)">
            <path d="M190.6,37.3L180.1,66.5C178.6,70.7 176.2,72.8 172.8,72.8C171.7,72.8 170.6,72.6 169.3,72.3L169.3,69.1C170.4,69.3 171.3,69.5 172,69.5C173.3,69.5 174.4,69.1 175.2,68.4C176.1,67.7 176.9,65.9 177.8,63L168.8,37.4L172.9,37.4L179.9,57L187,37.4L190.6,37.4L190.6,37.3Z" style="fill-rule:nonzero;"/>
        </g>
        <g transform="matrix(0.599786,0,0,0.599786,7.60407,7.60407)">
            <path d="M215.5,33.2L215.5,36.4C213.6,36.4 212.4,36.6 211.8,37C211.2,37.4 210.8,38.2 210.5,39.3C212.2,41.2 213,43.3 213,45.6C213,48 212.1,50 210.3,51.7C208.5,53.4 206,54.3 203,54.3C202.3,54.3 201.7,54.2 201.2,54.1C200.3,53.9 199.7,53.8 199.4,53.8C198.9,53.8 198.4,54 197.7,54.5C197,55 196.7,55.5 196.7,56.3C196.7,57.3 197.2,58 198.1,58.3C199,58.6 201.3,58.8 204.8,58.9C207.8,59 210,59.2 211.4,59.5C212.8,59.8 214,60.5 215,61.6C216,62.7 216.5,64 216.5,65.6C216.5,70.6 212.1,73.1 203.4,73.1C199.2,73.1 196.2,72.5 194.3,71.2C192.4,69.9 191.4,68.3 191.4,66.2C191.4,63.7 192.7,61.9 195.4,61C193.7,59.9 192.8,58.5 192.8,56.8C192.8,54.8 194,53.2 196.4,52.2C194.1,50.4 193,48.1 193,45.3C193,42.7 194,40.6 195.9,38.9C197.8,37.2 200.2,36.4 203,36.4C205,36.4 206.7,36.8 208.4,37.5C208.7,35.8 209.3,34.6 210.2,34C211.1,33.3 212.6,33 214.5,33C214.7,33.2 215,33.2 215.5,33.2ZM198.2,62.4C196.3,63.2 195.4,64.4 195.4,66C195.4,67.3 196.2,68.4 197.7,69.1C199.3,69.8 201.2,70.2 203.7,70.2C205.9,70.2 208,69.9 209.9,69.3C211.8,68.7 212.7,67.6 212.7,66.1C212.7,65.3 212.4,64.6 211.9,64.1C211.3,63.6 210.6,63.3 209.6,63.1C208.6,63 207,62.9 204.6,62.8C201.7,62.7 199.6,62.5 198.2,62.4ZM203.1,51.3C204.8,51.3 206.2,50.8 207.3,49.7C208.4,48.6 208.9,47.3 208.9,45.6C208.9,43.9 208.3,42.5 207.2,41.4C206.1,40.3 204.7,39.8 203.1,39.8C201.6,39.8 200.2,40.3 199,41.3C197.8,42.3 197.2,43.8 197.2,45.7C197.2,47.4 197.7,48.8 198.8,49.8C199.9,50.8 201.3,51.3 203.1,51.3Z" style="fill-rule:nonzero;"/>
        </g>
        <g transform="matrix(0.599786,0,0,0.599786,7.60407,7.60407)">
            <path d="M223,63.4L219,63.4L219,37.3L222.6,37.3L222.6,43.4C223.9,40.5 225.1,38.7 226.4,37.8C227.7,36.9 229,36.5 230.3,36.5C230.7,36.5 231.2,36.5 231.9,36.6L231.9,40.5L231,40.5C228.8,40.5 226.9,41.3 225.4,43C223.9,44.7 223.1,46.9 223,49.6L223,63.4Z" style="fill-rule:nonzero;"/>
        </g>
        <g transform="matrix(0.599786,0,0,0.599786,7.60407,7.60407)">
            <path d="M240.6,28.1L240.6,32.6L236.2,32.6L236.2,28.1L240.6,28.1ZM240.5,37.3L240.5,63.4L236.4,63.4L236.4,37.3L240.5,37.3Z" style="fill-rule:nonzero;"/>
        </g>
        <g transform="matrix(0.599786,0,0,0.599786,7.60407,7.60407)">
            <path d="M260.4,60.7L260.4,63.9C259,64.1 257.7,64.2 256.7,64.2C251.6,64.2 249.1,61.6 249.1,56.3L249.1,40.5L244.5,40.5L244.5,37.3L249.1,37.3L249.3,30.7L253.1,30.3L253.1,37.2L258.9,37.2L258.9,40.4L253.1,40.4L253.1,56.8C253.1,59.5 254.5,60.8 257.3,60.8C258.2,60.9 259.3,60.8 260.4,60.7Z" style="fill-rule:nonzero;"/>
        </g>
        <g transform="matrix(0.599786,0,0,0.599786,7.60407,7.60407)">
            <path d="M276.7,60.7L276.7,63.9C275.3,64.1 274,64.2 273,64.2C267.9,64.2 265.4,61.6 265.4,56.3L265.4,40.5L260.8,40.5L260.8,37.3L265.4,37.3L265.6,30.7L269.4,30.3L269.4,37.2L275.2,37.2L275.2,40.4L269.4,40.4L269.4,56.8C269.4,59.5 270.8,60.8 273.6,60.8C274.5,60.9 275.6,60.8 276.7,60.7Z" style="fill-rule:nonzero;"/>
        </g>
        <g transform="matrix(0.599786,0,0,0.599786,7.60407,7.60407)">
            <path d="M299.1,37.3L288.6,66.5C287.1,70.7 284.7,72.8 281.3,72.8C280.2,72.8 279.1,72.6 277.8,72.3L277.8,69.1C278.9,69.3 279.8,69.5 280.5,69.5C281.8,69.5 282.9,69.1 283.7,68.4C284.6,67.7 285.4,65.9 286.3,63L277.3,37.4L281.4,37.4L288.4,57L295.5,37.4L299.1,37.4L299.1,37.3Z" style="fill-rule:nonzero;"/>
        </g>
        <g transform="matrix(0.599786,0,0,0.599786,7.60407,7.60407)">
            <path d="M121.2,63.4L117.4,63.4L117.4,46.6C117.4,44.2 116.9,42.5 115.8,41.5C114.7,40.5 113.5,40 112,40C109.9,40 108.2,40.8 106.8,42.5C105.4,44.2 104.7,46.3 104.7,49L104.7,63.3L100.6,63.3L100.6,37.3L104.4,37.3L104.4,42.1C106.5,38.4 109.3,36.6 112.7,36.6C114.6,36.6 116.3,37.1 117.7,38.1C119.1,39.1 120,40.2 120.5,41.5C121,42.8 121.3,45 121.3,48.3L121.3,63.4L121.2,63.4Z" style="fill-rule:nonzero;"/>
        </g>
    </g>
    <g transform="matrix(0.599786,0,0,0.599786,-11.3959,-11.3959)">
        <rect x="57.1" y="43.2" width="19" height="13.9" style="fill:rgb(152,0,67);"/>
    </g>
</svg>
