<?xml version="1.0" encoding="utf-8"?>
<!-- Generator: Adobe Illustrator 18.0.0, SVG Export Plug-In . SVG Version: 6.00 Build 0)  -->
<!DOCTYPE svg PUBLIC "-//W3C//DTD SVG 1.1//EN" "http://www.w3.org/Graphics/SVG/1.1/DTD/svg11.dtd">
<svg version="1.1" id="Layer_1" xmlns="http://www.w3.org/2000/svg" xmlns:xlink="http://www.w3.org/1999/xlink" x="0px" y="0px"
	 viewBox="0 0 320.6 95.2" enable-background="new 0 0 320.6 95.2" xml:space="preserve">
<polygon fill="#FFA800" points="19,19 19,76.2 38.1,76.2 38.1,38.1 57.1,38.1 76.2,38.1 76.2,19 "/>
<rect x="38.1" y="57.1" fill="#009999" width="19" height="19"/>
<rect x="57.1" y="57.1" fill="#002626" width="19" height="19"/>
<rect x="57.1" y="38.1" fill="#61002B" width="19" height="5.1"/>
<g>
	<path d="M132.1,28.1v4.5h-4.4v-4.5H132.1z M132,37.3v26.1h-4.1V37.3H132z"/>
	<path d="M151.9,60.7v3.2c-1.4,0.2-2.7,0.3-3.7,0.3c-5.1,0-7.6-2.6-7.6-7.9V40.5H136v-3.2h4.6l0.2-6.6l3.8-0.4v6.9h5.8v3.2h-5.8
		v16.4c0,2.7,1.4,4,4.2,4C149.7,60.9,150.7,60.8,151.9,60.7z"/>
	<path d="M168.2,60.7v3.2c-1.4,0.2-2.7,0.3-3.7,0.3c-5.1,0-7.6-2.6-7.6-7.9V40.5h-4.6v-3.2h4.6l0.2-6.6l3.8-0.4v6.9h5.8v3.2h-5.8
		v16.4c0,2.7,1.4,4,4.2,4C166,60.9,167,60.8,168.2,60.7z"/>
	<path d="M190.6,37.3l-10.5,29.2c-1.5,4.2-3.9,6.3-7.3,6.3c-1.1,0-2.2-0.2-3.5-0.5v-3.2c1.1,0.2,2,0.4,2.7,0.4
		c1.3,0,2.4-0.4,3.2-1.1c0.9-0.7,1.7-2.5,2.6-5.4l-9-25.6h4.1l7,19.6l7.1-19.6H190.6z"/>
	<path d="M215.5,33.2v3.2c-1.9,0-3.1,0.2-3.7,0.6c-0.6,0.4-1,1.2-1.3,2.3c1.7,1.9,2.5,4,2.5,6.3c0,2.4-0.9,4.4-2.7,6.1
		c-1.8,1.7-4.3,2.6-7.3,2.6c-0.7,0-1.3-0.1-1.8-0.2c-0.9-0.2-1.5-0.3-1.8-0.3c-0.5,0-1,0.2-1.7,0.7c-0.7,0.5-1,1-1,1.8
		c0,1,0.5,1.7,1.4,2c0.9,0.3,3.2,0.5,6.7,0.6c3,0.1,5.2,0.3,6.6,0.6c1.4,0.3,2.6,1,3.6,2.1c1,1.1,1.5,2.4,1.5,4
		c0,5-4.4,7.5-13.1,7.5c-4.2,0-7.2-0.6-9.1-1.9c-1.9-1.3-2.9-2.9-2.9-5c0-2.5,1.3-4.3,4-5.2c-1.7-1.1-2.6-2.5-2.6-4.2
		c0-2,1.2-3.6,3.6-4.6c-2.3-1.8-3.4-4.1-3.4-6.9c0-2.6,1-4.7,2.9-6.4c1.9-1.7,4.3-2.5,7.1-2.5c2,0,3.7,0.4,5.4,1.1
		c0.3-1.7,0.9-2.9,1.8-3.5c0.9-0.7,2.4-1,4.3-1C214.7,33.2,215,33.2,215.5,33.2z M198.2,62.4c-1.9,0.8-2.8,2-2.8,3.6
		c0,1.3,0.8,2.4,2.3,3.1c1.6,0.7,3.5,1.1,6,1.1c2.2,0,4.3-0.3,6.2-0.9c1.9-0.6,2.8-1.7,2.8-3.2c0-0.8-0.3-1.5-0.8-2
		c-0.6-0.5-1.3-0.8-2.3-1c-1-0.1-2.6-0.2-5-0.3C201.7,62.7,199.6,62.5,198.2,62.4z M203.1,51.3c1.7,0,3.1-0.5,4.2-1.6
		c1.1-1.1,1.6-2.4,1.6-4.1c0-1.7-0.6-3.1-1.7-4.2c-1.1-1.1-2.5-1.6-4.1-1.6c-1.5,0-2.9,0.5-4.1,1.5c-1.2,1-1.8,2.5-1.8,4.4
		c0,1.7,0.5,3.1,1.6,4.1C199.9,50.8,201.3,51.3,203.1,51.3z"/>
	<path d="M223,63.4H219V37.3h3.6v6.1c1.3-2.9,2.5-4.7,3.8-5.6c1.3-0.9,2.6-1.3,3.9-1.3c0.4,0,0.9,0,1.6,0.1v3.9H231
		c-2.2,0-4.1,0.8-5.6,2.5c-1.5,1.7-2.3,3.9-2.4,6.6V63.4z"/>
	<path d="M240.6,28.1v4.5h-4.4v-4.5H240.6z M240.5,37.3v26.1h-4.1V37.3H240.5z"/>
	<path d="M260.4,60.7v3.2c-1.4,0.2-2.7,0.3-3.7,0.3c-5.1,0-7.6-2.6-7.6-7.9V40.5h-4.6v-3.2h4.6l0.2-6.6l3.8-0.4v6.9h5.8v3.2h-5.8
		v16.4c0,2.7,1.4,4,4.2,4C258.2,60.9,259.3,60.8,260.4,60.7z"/>
	<path d="M276.7,60.7v3.2c-1.4,0.2-2.7,0.3-3.7,0.3c-5.1,0-7.6-2.6-7.6-7.9V40.5h-4.6v-3.2h4.6l0.2-6.6l3.8-0.4v6.9h5.8v3.2h-5.8
		v16.4c0,2.7,1.4,4,4.2,4C274.5,60.9,275.6,60.8,276.7,60.7z"/>
	<path d="M299.1,37.3l-10.5,29.2c-1.5,4.2-3.9,6.3-7.3,6.3c-1.1,0-2.2-0.2-3.5-0.5v-3.2c1.1,0.2,2,0.4,2.7,0.4
		c1.3,0,2.4-0.4,3.2-1.1c0.9-0.7,1.7-2.5,2.6-5.4l-9-25.6h4.1l7,19.6l7.1-19.6H299.1z"/>
	<g>
		<path d="M121.2,63.4h-3.8V46.6c0-2.4-0.5-4.1-1.6-5.1s-2.3-1.5-3.8-1.5c-2.1,0-3.8,0.8-5.2,2.5s-2.1,3.8-2.1,6.5v14.3h-4.1V37.3
			h3.8v4.8c2.1-3.7,4.9-5.5,8.3-5.5c1.9,0,3.6,0.5,5,1.5s2.3,2.1,2.8,3.4s0.8,3.5,0.8,6.8V63.4z"/>
	</g>
</g>
<rect x="57.1" y="43.2" fill="#980043" width="19" height="13.9"/>
</svg>
