<?xml version="1.0" encoding="UTF-8" standalone="no"?>
<!-- Created with Inkscape (http://www.inkscape.org/) -->

<svg
   xmlns:dc="http://purl.org/dc/elements/1.1/"
   xmlns:cc="http://creativecommons.org/ns#"
   xmlns:rdf="http://www.w3.org/1999/02/22-rdf-syntax-ns#"
   xmlns:svg="http://www.w3.org/2000/svg"
   xmlns="http://www.w3.org/2000/svg"
   xmlns:sodipodi="http://sodipodi.sourceforge.net/DTD/sodipodi-0.dtd"
   xmlns:inkscape="http://www.inkscape.org/namespaces/inkscape"
   width="45"
   height="45"
   viewBox="0 0 45 45"
   version="1.1"
   id="svg8"
   inkscape:version="0.92.2 5c3e80d, 2017-08-06"
   sodipodi:docname="o1labslogobluesmall.svg">
  <defs
     id="defs2" />
  <sodipodi:namedview
     id="base"
     pagecolor="#ffffff"
     bordercolor="#666666"
     borderopacity="1.0"
     inkscape:pageopacity="1"
     inkscape:pageshadow="2"
     inkscape:zoom="6.1571833"
     inkscape:cx="11.689003"
     inkscape:cy="31.973074"
     inkscape:document-units="mm"
     inkscape:current-layer="layer1"
     showgrid="false"
     inkscape:window-width="1440"
     inkscape:window-height="851"
     inkscape:window-x="23"
     inkscape:window-y="0"
     inkscape:window-maximized="0"
     units="in"
     inkscape:snap-text-baseline="true"
     fit-margin-top="0"
     fit-margin-left="0"
     fit-margin-right="0"
     fit-margin-bottom="0" />
  <metadata
     id="metadata5">
    <rdf:RDF>
      <cc:Work
         rdf:about="">
        <dc:format>image/svg+xml</dc:format>
        <dc:type
           rdf:resource="http://purl.org/dc/dcmitype/StillImage" />
        <dc:title />
      </cc:Work>
    </rdf:RDF>
  </metadata>
  <g
     inkscape:groupmode="layer"
     id="layer2"
     inkscape:label="Layer 2" />
  <g
     inkscape:groupmode="layer"
     id="layer3"
     inkscape:label="Layer 3">
    <rect
       style="opacity:1;fill:#00174a;fill-opacity:1"
       id="rect4796"
       width="44.988106"
       height="45.312927"
       x="0.16241193"
       y="0.011896105" />
  </g>
  <g
     inkscape:label="Layer 1"
     inkscape:groupmode="layer"
     id="layer1"
     transform="translate(9.6218597,-9.3799649)">
    <g
       aria-label="O(1)"
       style="font-style:normal;font-weight:normal;font-size:10.58333302px;line-height:1.25;font-family:sans-serif;letter-spacing:0px;word-spacing:0px;fill:#ffffff;fill-opacity:1;stroke:none;stroke-width:0.26458332"
       id="text216">
      <path
         d="m -0.5956552,39.664048 q -3.1053332,0 -4.8279999,-1.564 -1.7226666,-1.564 -1.8133332,-4.646666 -0.022667,-0.657333 -0.022667,-1.926667 0,-1.292 0.022667,-1.949333 0.090667,-3.014667 1.8586666,-4.624 1.7679999,-1.609333 4.7826665,-1.609333 2.9919999,0 4.7599999,1.609333 1.7906666,1.609333 1.8813332,4.624 0.045333,1.314667 0.045333,1.949333 0,0.612 -0.045333,1.926667 -0.090667,3.082666 -1.8359999,4.646666 -1.7226666,1.564 -4.8053332,1.564 z m 0,-2.629333 q 1.51866663,0 2.4026666,-0.906666 0.884,-0.906667 0.952,-2.788 0.045333,-1.36 0.045333,-1.836 0,-0.521334 -0.045333,-1.836 -0.068,-1.858667 -0.9746667,-2.765334 -0.90666661,-0.929333 -2.3799999,-0.929333 -1.496,0 -2.4026666,0.929333 -0.9066666,0.906667 -0.952,2.765334 -0.022667,0.657333 -0.022667,1.836 0,1.156 0.022667,1.836 0.045333,1.858666 0.9293333,2.788 0.9066667,0.906666 2.4253333,0.906666 z"
         style="font-style:normal;font-variant:normal;font-weight:500;font-stretch:normal;font-size:22.66666603px;font-family:rubik;-inkscape-font-specification:'rubik Medium';fill:#ffffff;fill-opacity:1;stroke-width:0.26458332"
         id="path817" />
      <path
         d="m 14.416761,43.041382 q -3.082667,0 -4.556,-2.538667 -1.4733333,-2.516 -1.4733333,-8.069333 0,-5.553333 1.4733333,-8.069333 1.473333,-2.516 4.556,-2.516 0.226667,0 0.385333,0.158667 0.158667,0.158666 0.158667,0.385333 v 1.382667 q 0,0.226666 -0.158667,0.385333 -0.158666,0.158667 -0.362666,0.158667 -1.246667,0.04533 -1.949334,0.906666 -0.702666,0.861333 -1.02,2.606667 -0.294666,1.745333 -0.294666,4.601333 0,2.856 0.294666,4.624 0.317334,1.745333 1.02,2.606666 0.702667,0.861334 1.949334,0.906667 0.204,0 0.362666,0.158667 0.158667,0.158666 0.158667,0.385333 v 1.382667 q 0,0.226666 -0.158667,0.385333 -0.158666,0.158667 -0.385333,0.158667 z"
         style="font-style:normal;font-variant:normal;font-weight:500;font-stretch:normal;font-size:22.66666603px;font-family:rubik;-inkscape-font-specification:'rubik Medium';fill:#ffffff;fill-opacity:1;stroke-width:0.26458332"
         id="path819" />
      <path
         d="m 20.992928,39.437382 q -0.226667,0 -0.385334,-0.158667 -0.158666,-0.158667 -0.158666,-0.385333 v -11.696 l -3.422667,2.629333 q -0.136,0.113334 -0.34,0.113334 -0.272,0 -0.430667,-0.226667 l -0.974666,-1.269333 q -0.113334,-0.158667 -0.113334,-0.317334 0,-0.272 0.249334,-0.453333 l 5.077333,-3.944 q 0.249333,-0.158666 0.566667,-0.158666 h 2.039999 q 0.226667,0 0.385334,0.158666 0.158666,0.158667 0.158666,0.385334 v 14.778666 q 0,0.226666 -0.158666,0.385333 -0.158667,0.158667 -0.385334,0.158667 z"
         style="font-style:normal;font-variant:normal;font-weight:500;font-stretch:normal;font-size:22.66666603px;font-family:rubik;-inkscape-font-specification:'rubik Medium';fill:#ffffff;fill-opacity:1;stroke-width:0.26458332"
         id="path821" />
      <path
         d="m 26.33872,43.041382 q -0.226667,0 -0.385333,-0.158667 -0.158667,-0.158667 -0.158667,-0.385333 v -1.382667 q 0,-0.226667 0.158667,-0.385333 0.158666,-0.158667 0.34,-0.158667 1.246666,-0.04533 1.949333,-0.906667 0.725333,-0.861333 1.02,-2.606666 0.317333,-1.768 0.317333,-4.624 0,-2.856 -0.317333,-4.601333 -0.294667,-1.745334 -1.02,-2.606667 -0.702667,-0.861333 -1.949333,-0.906666 -0.181334,0 -0.34,-0.158667 -0.158667,-0.158667 -0.158667,-0.385333 v -1.382667 q 0,-0.226667 0.158667,-0.385333 0.158666,-0.158667 0.385333,-0.158667 3.06,0 4.533333,2.538666 1.473333,2.516 1.473333,8.046667 0,5.553333 -1.473333,8.069333 -1.473333,2.538667 -4.533333,2.538667 z"
         style="font-style:normal;font-variant:normal;font-weight:500;font-stretch:normal;font-size:22.66666603px;font-family:rubik;-inkscape-font-specification:'rubik Medium';fill:#ffffff;fill-opacity:1;stroke-width:0.26458332"
         id="path823" />
    </g>
  </g>
</svg>
