<svg id="Ebene_1" data-name="Ebene 1" xmlns="http://www.w3.org/2000/svg" viewBox="0 0 579.71 709.45"><defs><style>.cls-1{fill:#282827;}.cls-2{fill:#fff;}</style></defs><rect class="cls-1" width="579.71" height="709.45"/><path class="cls-2" d="M64.06,557.76c-17.38,0-27.41-10.86-27.41-27.82s10-28.14,27.41-28.14,27.2,10.86,27.2,27.83S81.44,557.76,64.06,557.76Zm0-10.34c7.65,0,11.27-5.28,11.27-17.48,0-12-3.72-17.8-11.38-17.8-7.86.11-11.48,5.9-11.48,17.9S56.3,547.42,64.06,547.42Z" transform="translate(0.6)"/><path class="cls-2" d="M122,556.42a1.45,1.45,0,0,1-1.25-.73L111.57,538l-9.31,17.68a1.43,1.43,0,0,1-1.24.73H86.64a.47.47,0,0,1-.41-.73l16-27.51L87,503.87a.47.47,0,0,1,.41-.73h15.73a1.46,1.46,0,0,1,1.24.73l9.1,16.86,8.28-16.86a1.59,1.59,0,0,1,1.24-.73h14a.47.47,0,0,1,.42.73l-14.8,25.34,15.73,26.48a.47.47,0,0,1-.42.73Z" transform="translate(0.6)"/><path class="cls-2" d="M140.56,498a.89.89,0,0,1-.83-.82V484.84a.89.89,0,0,1,.83-.83h14.07a.89.89,0,0,1,.83.83v12.31a.89.89,0,0,1-.83.82Zm0,58.45a.89.89,0,0,1-.83-.83l.21-25.76L139.73,504a.9.9,0,0,1,.83-.83h14.07a.9.9,0,0,1,.83.83l-.21,25.86.21,25.76a.89.89,0,0,1-.83.83Z" transform="translate(0.6)"/><path class="cls-2" d="M197.57,556.42a.88.88,0,0,1-.83-.83l.31-5.38a19.53,19.53,0,0,1-15.73,7.25c-15.1,0-23.06-12-23.06-27.52s8.89-27.83,23.38-27.83c6.51,0,11.58,2.28,15.2,6.52V484.84a.89.89,0,0,1,.83-.83h13.86a.88.88,0,0,1,.83.83l-.1,35.37.1,35.38a.88.88,0,0,1-.83.83Zm-11.9-9.21c7.55,0,11.59-5.69,11.69-17,.1-11.49-3.93-17.79-11.38-17.9-7.86-.21-11.9,5.79-11.9,16.86C174.08,541.21,178.22,547.32,185.67,547.21Z" transform="translate(0.6)"/><path class="cls-2" d="M217.05,498a.89.89,0,0,1-.83-.82V484.84a.89.89,0,0,1,.83-.83h14.07a.89.89,0,0,1,.83.83v12.31a.89.89,0,0,1-.83.82Zm0,58.45a.89.89,0,0,1-.83-.83l.21-25.76L216.22,504a.9.9,0,0,1,.83-.83h14.07a.9.9,0,0,1,.83.83l-.21,25.86.21,25.76a.89.89,0,0,1-.83.83Z" transform="translate(0.6)"/><path class="cls-2" d="M279.85,555.59a.88.88,0,0,1-.83.83H235.68a.88.88,0,0,1-.83-.83v-9.31a2.24,2.24,0,0,1,.52-1.45l24.1-30.72H237.85a.89.89,0,0,1-.83-.83V504a.9.9,0,0,1,.83-.83h39.62a.9.9,0,0,1,.83.83v9.52a2.52,2.52,0,0,1-.52,1.45l-24.21,30.51H279a.89.89,0,0,1,.83.83Z" transform="translate(0.6)"/><path class="cls-2" d="M283.6,498a.89.89,0,0,1-.83-.82V484.84a.89.89,0,0,1,.83-.83h14.07a.89.89,0,0,1,.83.83v12.31a.89.89,0,0,1-.83.82Zm0,58.45a.89.89,0,0,1-.83-.83l.21-25.76L282.77,504a.9.9,0,0,1,.83-.83h14.07a.9.9,0,0,1,.83.83l-.21,25.86.21,25.76a.89.89,0,0,1-.83.83Z" transform="translate(0.6)"/><path class="cls-2" d="M303.16,556.42a.89.89,0,0,1-.83-.83l.21-24.72V504a.89.89,0,0,1,.83-.83h13.34a.9.9,0,0,1,.83.83l-.31,5.9a21.51,21.51,0,0,1,17.17-8c11.27,0,18.62,7.65,18.62,20.68v11.18l.21,21.82a.89.89,0,0,1-.83.83H338.33a.89.89,0,0,1-.83-.83l.21-21.82v-11c0-5.79-3.42-9.52-8.07-9.52-5.58,0-11.58,5.18-11.58,16.55v3.94l.2,21.82a.88.88,0,0,1-.82.83Z" transform="translate(0.6)"/><path class="cls-2" d="M382.74,577.11c-14.07.21-24.62-5.48-25.45-17.28a.88.88,0,0,1,.83-.82h13.65a1,1,0,0,1,.93.82c.62,4.45,4.25,7,10.55,7,6.73,0,11.38-3.72,11.38-12.11v-6.1a18.42,18.42,0,0,1-15.31,7.45c-15.82,0-24.1-11.69-24.1-26.69s8.9-27,23.38-27c6.62,0,11.79,2.28,15.41,6.52l-.31-5a.9.9,0,0,1,.83-.83h13.86a.89.89,0,0,1,.83.83L409,530.56V555C409,568.42,400.32,577.11,382.74,577.11ZM382.63,546c7.56,0,11.59-5.38,11.7-16.14.1-11.07-3.94-17.17-11.38-17.27-7.87-.21-11.9,5.58-11.9,16.24C371.05,540.28,375.18,546.08,382.63,546Z" transform="translate(0.6)"/><path class="cls-2" d="M62.2,652.54c-15.83,0-25.24-6.31-25.66-18.31a.89.89,0,0,1,.83-.83H50.82a.82.82,0,0,1,.83.83c.3,6,4.24,8.69,11.58,8.69,6.1,0,9.42-2.38,9.42-6.52,0-10.14-34.87-.31-34.87-22.65,0-11.07,8.9-17,23.28-17,14.07,0,23.48,5.59,24.31,16.86a.74.74,0,0,1-.73.83H71.82a1,1,0,0,1-.94-.83c-.82-4.55-3.72-7.44-10-7.44-5.07,0-8.27,1.86-8.27,6.41,0,10.14,34.86-.21,34.86,22.45C87.44,646.23,76.89,652.54,62.2,652.54Z" transform="translate(0.6)"/><path class="cls-2" d="M115.4,668.05a1.22,1.22,0,0,1-1.14.83H101.12a.57.57,0,0,1-.52-.83l5.59-16.24L84.77,598.75a.56.56,0,0,1,.52-.73h15.83a1.21,1.21,0,0,1,1.14.83l11.58,33.31,9.63-33.31a1,1,0,0,1,1-.83h14.07a.57.57,0,0,1,.52.83Z" transform="translate(0.6)"/><path class="cls-2" d="M163.11,652.54c-15.83,0-25.24-6.31-25.66-18.31a.89.89,0,0,1,.83-.83h13.45a.81.81,0,0,1,.82.83c.32,6,4.25,8.69,11.59,8.69,6.11,0,9.42-2.38,9.42-6.52,0-10.14-34.87-.31-34.87-22.65,0-11.07,8.9-17,23.28-17,14.07,0,23.48,5.59,24.31,16.86a.74.74,0,0,1-.72.83H172.73a1,1,0,0,1-.93-.83c-.83-4.55-3.73-7.44-10-7.44-5.08,0-8.28,1.86-8.28,6.41,0,10.14,34.86-.21,34.86,22.45C188.35,646.23,177.8,652.54,163.11,652.54Z" transform="translate(0.6)"/><path class="cls-2" d="M222.31,649.44a1.2,1.2,0,0,1-.83,1.13,33.7,33.7,0,0,1-9.72,1.76c-9,0-17.59-4.55-17.59-16.65l.1-26.69h-6.1a.89.89,0,0,1-.83-.83v-9.31a.89.89,0,0,1,.83-.83h6.1l-.1-12.52a.89.89,0,0,1,.83-.82h13.86a.88.88,0,0,1,.83.82L209.58,598h12a.89.89,0,0,1,.83.83v9.31a.89.89,0,0,1-.83.83h-12l.11,26.27c0,4.56,2.27,6,5.69,6a18.84,18.84,0,0,0,6.1-.93.67.67,0,0,1,.83.62Z" transform="translate(0.6)"/><path class="cls-2" d="M274.26,633.3a.73.73,0,0,1,.72.83c-1.24,9.82-10.55,18.51-25.55,18.51-17.8,0-27.41-11.69-27.41-27.83,0-17,10.13-28.13,27.1-28.13,17.58,0,27.2,11.69,27.51,30.31a.88.88,0,0,1-.82.82H237.64c.62,10,4.55,14.49,12,14.49,5.28,0,9-2.38,10.35-8.17a1.08,1.08,0,0,1,1-.83Zm-25-26.38c-6.21,0-9.93,3.72-11.17,11.07h21.83C259.25,612.3,256.05,606.92,249.22,606.92Z" transform="translate(0.6)"/><path class="cls-2" d="M294.87,632.16l.21,18.31a.9.9,0,0,1-.83.83H280a.89.89,0,0,1-.82-.83l.21-18.31V598.85a.89.89,0,0,1,.82-.83h13.35a.89.89,0,0,1,.82.83l-.3,5.9c3.72-5.18,8.48-8,15.3-8,7.45,0,12.83,3.21,15.31,10,4.56-8.06,9.83-10,16.14-10,10.76,0,17,6.52,17,20.69v14.69l.2,18.31a.89.89,0,0,1-.82.83H343.08a.89.89,0,0,1-.83-.83l.21-18.31V617.68c0-6.42-2.59-9.52-6.83-9.52s-9.31,5.69-9.31,16.55v7.45l.2,18.31a.89.89,0,0,1-.82.83H311.63a.9.9,0,0,1-.83-.83l.21-18.31V617.68c0-6.42-2.49-9.52-6.83-9.52s-9.31,5.69-9.31,16.55Z" transform="translate(0.6)"/><path class="cls-2" d="M385.53,652.54c-15.82,0-25.24-6.31-25.65-18.31a.88.88,0,0,1,.83-.83h13.44a.81.81,0,0,1,.83.83c.31,6,4.24,8.69,11.58,8.69,6.11,0,9.42-2.38,9.42-6.52,0-10.14-34.86-.31-34.86-22.65,0-11.07,8.89-17,23.28-17,14.06,0,23.47,5.59,24.3,16.86a.73.73,0,0,1-.72.83H395.15a1,1,0,0,1-.93-.83c-.82-4.55-3.72-7.44-10-7.44-5.07,0-8.28,1.86-8.28,6.41,0,10.14,34.86-.21,34.86,22.45C410.77,646.23,400.22,652.54,385.53,652.54Z" transform="translate(0.6)"/><rect class="cls-2" x="0.25" y="440.61" width="495.58" height="22.68"/></svg>