<?xml version="1.0" encoding="UTF-8"?>
<svg width="24px" height="28px" viewBox="0 0 24 28" version="1.1" xmlns="http://www.w3.org/2000/svg" xmlns:xlink="http://www.w3.org/1999/xlink">
    <!-- Generator: Sketch 63.1 (92452) - https://sketch.com -->
    <title>Group</title>
    <desc>Created with Sketch.</desc>
    <g id="Page-2" stroke="none" stroke-width="1" fill="none" fill-rule="evenodd">
        <g id="Artboard-Copy-11" transform="translate(-1.000000, -2.000000)" fill="#2962FF">
            <g id="Group" transform="translate(1.392006, 2.252892)">
                <path d="M3.32378408,3.32794922 C-1.10792803,7.76570815 -1.10792803,14.9408086 3.32378408,19.3469961 L11.33831,27.3720586 L19.3533286,19.3469961 C23.784548,14.9097305 23.784548,7.73413672 19.3533286,3.32794922 C14.9216165,-1.10931641 7.75549618,-1.10931641 3.32378408,3.32794922 M17.4835846,17.5286791 C14.1047429,20.9147148 8.60291639,20.9147148 5.17628408,17.5286791 C1.79744232,14.1421501 1.79744232,8.62800279 5.17628408,5.19313002 C8.55463314,1.75825725 14.0564596,1.80709431 17.4835846,5.19313002 C20.9102169,8.57916574 20.9102169,14.0942997 17.4835846,17.5286791" id="Fill-13"></path>
                <path d="M13.9593923,9.649502 L15.2526494,9.649502 L15.8496884,11.0204448 L13.9593923,11.0204448 L13.9593923,9.649502 Z M16.7094049,15.1846079 L17.8892442,15.1846079 L17.8892442,12.340556 C17.7399845,11.8327435 16.5463975,11.2237711 16.5463975,11.2237711 L15.6012495,9.09085792 L13.0142442,9.09085792 L13.0643248,9.09085792 L13.0643248,15.1846079 L14.1847549,15.1846079 C14.214705,14.4961168 14.7685372,13.9475384 15.4470799,13.9475384 C16.1261135,13.9475384 16.6799457,14.4961168 16.7094049,15.1846079 L16.7094049,15.1846079 Z" id="Fill-16-Copy"></path>
                <path d="M6.27036593,10.694922 L11.6331226,10.694922 L11.6331226,10.5453836 L6.27036593,10.5453836 L6.27036593,10.694922 Z M6.27036593,9.15117202 L11.6331226,9.15117202 L11.6331226,9.00163358 L6.27036593,9.00163358 L6.27036593,9.15117202 Z M6.27036593,12.1389797 L11.6331226,12.1389797 L11.6331226,11.9894413 L6.27036593,11.9894413 L6.27036593,12.1389797 Z M8.63681161,14.7783579 L12.6079942,14.7783579 L12.6079942,7.05960792 L5.29549425,7.05960792 L5.29549425,14.7783579 L6.1625815,14.7783579 C6.19145233,14.1032141 6.73422393,13.5652705 7.39969656,13.5652705 C8.064688,13.5652705 8.6074596,14.1032141 8.63681161,14.7783579 L8.63681161,14.7783579 Z" id="Fill-18-Copy"></path>
                <path d="M17.8892442,13.6378223 C17.8892442,13.8250721 17.715178,13.9658579 17.4832805,13.9658579 C17.2508105,13.9658579 17.0767442,13.8250721 17.0767442,13.6378223 L17.0767442,13.0751436 C17.0767442,12.8878938 17.2508105,12.7471079 17.4832805,12.7471079 C17.715178,12.7471079 17.8892442,12.8878938 17.8892442,13.0751436 L17.8892442,13.6378223" id="Fill-20-Copy"></path>
                <path d="M5.29549425,14.0437328 C5.29549425,14.2313757 5.121428,14.3721079 4.88953054,14.3721079 C4.65706049,14.3721079 4.48299425,14.2313757 4.48299425,14.0437328 L4.48299425,13.481733 C4.48299425,13.2936256 4.65706049,13.1533579 4.88953054,13.1533579 C5.121428,13.1533579 5.29549425,13.2936256 5.29549425,13.481733 L5.29549425,14.0437328" id="Fill-21-Copy"></path>
                <path d="M16.2642442,14.9814829 C16.2642442,15.5419185 15.809581,15.9971079 15.2486192,15.9971079 C14.6876575,15.9971079 14.2329942,15.5419185 14.2329942,14.9814829 C14.2329942,14.4205211 14.6876575,13.9658579 15.2486192,13.9658579 C15.809581,13.9658579 16.2642442,14.4205211 16.2642442,14.9814829" id="Fill-22-Copy"></path>
                <path d="M8.13924425,14.9814829 C8.13924425,15.5419185 7.68458104,15.9971079 7.12361925,15.9971079 C6.56265746,15.9971079 6.10799425,15.5419185 6.10799425,14.9814829 C6.10799425,14.4205211 6.56265746,13.9658579 7.12361925,13.9658579 C7.68458104,13.9658579 8.13924425,14.4205211 8.13924425,14.9814829" id="Fill-23-Copy"></path>
            </g>
        </g>
    </g>
</svg>