<?xml version="1.0" encoding="UTF-8"?>
<svg width="240px" height="140px" viewBox="0 0 240 140" version="1.1" xmlns="http://www.w3.org/2000/svg" xmlns:xlink="http://www.w3.org/1999/xlink">
    <!-- Generator: Sketch 61 (89581) - https://sketch.com -->
    <title>03.01 - Logo-LP@1x</title>
    <desc>Created with Sketch.</desc>
    <g id="03.01---Logo-LP" stroke="none" stroke-width="1" fill="none" fill-rule="evenodd">
        <rect id="Rectangle" fill="#02072F" x="0" y="0" width="240" height="141"></rect>
        <g id="radity-logo-white" transform="translate(40.000000, 33.000000)" fill="#FFFFFF">
            <path d="M82.415662,29.7602588 L77.7108012,29.7602588 L74.0990384,23.6120915 L72.0195758,23.6120915 L72.0195758,29.7614655 L67.6422764,29.7614655 L67.6422764,11.0478683 L75.3025504,11.0478683 C77.1354219,11.0478683 78.667722,11.6632884 79.9534311,12.9182627 C81.2391401,14.1756504 81.8684996,15.6731725 81.8684996,17.4639243 C81.8684996,19.7361517 80.4453865,21.8213398 78.3401607,22.8904813 L82.415662,29.7614655 L82.415662,29.7602588 Z M75.3025504,15.0577525 L72.0195758,15.0577525 L72.0195758,19.8700961 L75.3025504,19.8700961 C76.5072892,19.8700961 77.4912001,18.8275021 77.4912001,17.4639243 C77.4912001,16.1003465 76.5072892,15.0577525 75.3025504,15.0577525 L75.3025504,15.0577525 Z M93.2853013,17.6521704 L93.2853013,16.3947827 L97.3890195,16.3947827 L97.3890195,29.7602588 L93.2853013,29.7602588 L93.2853013,28.5052845 C92.3283804,29.6009736 90.9592475,30.1343376 89.2085731,30.1343376 C87.4026917,30.1343376 85.8716184,29.4670292 84.5846826,28.1034514 C83.2989735,26.7398736 82.6708409,25.0565186 82.6708409,23.0775207 C82.6708409,21.0985229 83.2989735,19.4417155 84.5846826,18.0793444 C85.8703916,16.7157666 87.4026917,16.0207039 89.2085731,16.0207039 C90.9592475,16.0207039 92.3271536,16.5552746 93.2853013,17.6509637 L93.2853013,17.6521704 Z M87.676273,25.457145 C88.2774155,26.0448109 89.0711691,26.3392472 90.0293168,26.3392472 C90.9862376,26.3392472 91.7799912,26.0448109 92.3823606,25.457145 C92.9835031,24.8694792 93.2853013,24.0670197 93.2853013,23.0775207 C93.2853013,22.0880218 92.9835031,21.286769 92.3823606,20.6991032 C91.781218,20.1102306 90.9862376,19.8170011 90.0293168,19.8170011 C89.0723959,19.8170011 88.2786424,20.1102306 87.676273,20.6978965 C87.0751304,21.286769 86.7733323,22.0892285 86.7733323,23.0775207 C86.7733323,24.0670197 87.0751304,24.8694792 87.676273,25.457145 Z M110.035096,17.6509637 L110.035096,11.0478683 L114.138815,11.0478683 L114.138815,29.7614655 L110.035096,29.7614655 L110.035096,28.5052845 C109.078176,29.6009736 107.710269,30.1343376 105.959595,30.1343376 C104.153714,30.1343376 102.62264,29.4670292 101.335705,28.1034514 C100.049995,26.7398736 99.4218628,25.0565186 99.4218628,23.0775207 C99.4218628,21.0985229 100.049995,19.4417155 101.335705,18.0793444 C102.621414,16.7157666 104.153714,16.0207039 105.959595,16.0207039 C107.710269,16.0207039 109.078176,16.5552746 110.035096,17.6509637 Z M104.427295,25.457145 C105.028437,26.0448109 105.822191,26.3392472 106.780339,26.3392472 C107.73726,26.3392472 108.531013,26.0448109 109.132156,25.457145 C109.734525,24.8694792 110.035096,24.0670197 110.035096,23.0775207 C110.035096,22.0880218 109.734525,21.286769 109.132156,20.6991032 C108.531013,20.1102306 107.73726,19.8170011 106.780339,19.8170011 C105.823418,19.8170011 105.029664,20.1102306 104.427295,20.6978965 C103.826152,21.286769 103.524354,22.0892285 103.524354,23.0775207 C103.524354,24.0670197 103.824926,24.8694792 104.427295,25.457145 Z M120.631154,14.5243884 C119.674234,15.4583789 118.140707,15.4583789 117.156796,14.5243884 C116.199875,13.561437 116.199875,12.0627081 117.156796,11.1287176 C118.140707,10.1657662 119.673007,10.1657662 120.631154,11.1287176 C121.615065,12.0639148 121.615065,13.561437 120.631154,14.5231817 L120.631154,14.5243884 Z M120.958716,29.7614655 L116.854998,29.7614655 L116.854998,16.3947827 L120.958716,16.3947827 L120.958716,29.7602588 L120.958716,29.7614655 Z M131.690951,16.3947827 L131.690951,20.244175 L128.872942,20.244175 L128.872942,24.9756693 C128.872942,26.0448109 129.694912,26.2318503 131.690951,26.1256602 L131.690951,29.7614655 C129.092543,30.0281475 127.286662,29.788013 126.274534,29.0398552 C125.262406,28.2639433 124.769224,26.9281197 124.769224,24.9756693 L124.769224,20.244175 L122.580574,20.244175 L122.580574,16.3947827 L124.769224,16.3947827 L124.769224,13.8546665 L128.872942,12.6515806 L128.872942,16.3947827 L131.690951,16.3947827 L131.690951,16.3947827 Z M140.043152,24.5750429 L142.61457,16.393576 L146.99187,16.393576 L142.313999,29.3596323 C140.781699,33.5577626 138.374675,35.2954193 134.516321,35.1083799 L134.516321,31.3651778 C136.4044,31.3651778 137.30734,30.7775119 137.9367,29.1460454 L132.492066,16.3947827 L137.006769,16.3947827 L140.043152,24.5750429 L140.043152,24.5750429 Z" id="Shape"></path>
            <path d="M4.77658537,68.0325203 C5.76520325,68.0325203 6.63674797,67.8764228 7.39121951,67.5642276 C8.14569106,67.2520325 8.77788618,66.838374 9.28780488,66.323252 C9.79772358,65.8081301 10.1827642,65.2201626 10.4429268,64.5593496 C10.7030894,63.8985366 10.8331707,63.2143089 10.8331707,62.5066667 C10.8331707,62.163252 10.796748,61.7886179 10.7239024,61.3827642 C10.6510569,60.9769106 10.5313821,60.5710569 10.364878,60.1652033 C10.198374,59.7593496 9.97203252,59.3639024 9.68585366,58.9788618 C9.3996748,58.5938211 9.04065041,58.2530081 8.60878049,57.9564228 C8.17691057,57.6598374 7.66699187,57.4230894 7.07902439,57.2461789 C6.49105691,57.0692683 5.80682927,56.980813 5.02634146,56.980813 L5.02634146,56.980813 L1.17073171,56.980813 L1.17073171,68.0325203 L4.77658537,68.0325203 Z M4.55804878,66.6276423 L2.66926829,66.6276423 L2.66926829,58.3856911 L4.91707317,58.3856911 C5.81203252,58.3856911 6.5404878,58.5339837 7.10243902,58.8305691 C7.66439024,59.1271545 8.10406504,59.4887805 8.42146341,59.9154472 C8.73886179,60.3421138 8.95479675,60.7921951 9.06926829,61.2656911 C9.18373984,61.739187 9.24097561,62.1528455 9.24097561,62.5066667 C9.24097561,63.1934959 9.11609756,63.7944715 8.86634146,64.3095935 C8.61658537,64.8247154 8.27837398,65.2539837 7.85170732,65.5973984 C7.42504065,65.940813 6.92813008,66.198374 6.36097561,66.3700813 C5.79382114,66.5417886 5.19284553,66.6276423 4.55804878,66.6276423 L4.55804878,66.6276423 Z M15.0061789,68.0325203 L15.0061789,56.980813 L13.5076423,56.980813 L13.5076423,68.0325203 L15.0061789,68.0325203 Z M23.596748,68.3134959 C23.9297561,68.3134959 24.2861789,68.2926829 24.6660163,68.2510569 C25.0458537,68.2094309 25.4204878,68.1443902 25.7899187,68.055935 C26.1593496,67.9674797 26.5157724,67.860813 26.859187,67.735935 C27.2026016,67.6110569 27.5095935,67.4653659 27.7801626,67.2988618 L27.7801626,67.2988618 L27.7801626,61.8510569 L23.8308943,61.8510569 L23.8308943,63.255935 L26.281626,63.255935 L26.281626,66.3310569 C25.9486179,66.518374 25.5453659,66.6614634 25.0718699,66.7603252 C24.598374,66.859187 24.0962602,66.9086179 23.5655285,66.9086179 C22.9515447,66.9086179 22.3843903,66.796748 21.8640651,66.5730081 C21.3437399,66.3492683 20.8910569,66.0396748 20.5060163,65.6442276 C20.1209756,65.2487805 19.819187,64.7830894 19.6006504,64.2471545 C19.3821138,63.7112195 19.2728455,63.1310569 19.2728455,62.5066667 C19.2728455,61.9030894 19.3717073,61.3333333 19.5694309,60.7973984 C19.7671545,60.2614634 20.0481301,59.7957724 20.4123577,59.4003252 C20.7765854,59.004878 21.2136586,58.6900813 21.7235773,58.455935 C22.233496,58.2217886 22.8058537,58.1047154 23.4406504,58.1047154 C24.0026016,58.1047154 24.5385366,58.1905691 25.0484553,58.3622764 C25.558374,58.5339837 26.0422764,58.838374 26.5001626,59.2754472 L26.5001626,59.2754472 L27.561626,58.135935 C27.1245529,57.6884553 26.5834146,57.3372358 25.9382114,57.0822764 C25.2930081,56.8273171 24.4604878,56.6998374 23.4406504,56.6998374 C22.5977236,56.6998374 21.822439,56.8481301 21.1147968,57.1447154 C20.4071545,57.4413008 19.8009756,57.8497561 19.2962602,58.3700813 C18.7915447,58.8904065 18.3960976,59.5043902 18.1099187,60.2120325 C17.8237399,60.9196748 17.6806504,61.6845528 17.6806504,62.5066667 C17.6806504,63.2871545 17.8133333,64.0286179 18.0786992,64.7310569 C18.3440651,65.4334959 18.7291057,66.0500813 19.2338212,66.580813 C19.7385366,67.1115447 20.3577236,67.5330081 21.0913821,67.8452033 C21.8250407,68.1573984 22.6601626,68.3134959 23.596748,68.3134959 Z M32.5307317,68.0325203 L32.5307317,56.980813 L31.0321951,56.980813 L31.0321951,68.0325203 L32.5307317,68.0325203 Z M39.700813,68.0325203 L39.700813,58.3856911 L43.2598374,58.3856911 L43.2598374,56.980813 L34.6432521,56.980813 L34.6432521,58.3856911 L38.2022765,58.3856911 L38.2022765,68.0325203 L39.700813,68.0325203 Z M44.2796748,68.0325203 L45.3723578,65.300813 L50.6328456,65.300813 L51.7411383,68.0325203 L53.4894309,68.0325203 L48.7596748,56.980813 L47.4016261,56.980813 L42.5313822,68.0325203 L44.2796748,68.0325203 Z M50.0865041,63.9895935 L45.9030895,63.9895935 L47.9947968,58.9164228 L48.0260163,58.9164228 L50.0865041,63.9895935 Z M62.017561,68.0325203 L62.017561,66.6276423 L56.9443903,66.6276423 L56.9443903,56.980813 L55.4458537,56.980813 L55.4458537,68.0325203 L62.017561,68.0325203 Z M71.5499188,68.3134959 C72.0806505,68.3134959 72.5801627,68.2354472 73.0484553,68.0793496 C73.516748,67.923252 73.9226017,67.6995122 74.2660163,67.4081301 C74.609431,67.116748 74.8826017,66.7577236 75.0855285,66.3310569 C75.2884553,65.9043902 75.3899188,65.4256911 75.3899188,64.8949593 C75.3899188,64.2289431 75.2546342,63.7060163 74.9840651,63.3261789 C74.713496,62.9463415 74.3778862,62.6445528 73.9772358,62.420813 C73.5765854,62.1970732 73.1395123,62.0227642 72.6660163,61.8978862 C72.1925204,61.7730081 71.7554472,61.6325203 71.3547968,61.4764228 C70.9541464,61.3203252 70.6185366,61.1173984 70.3479675,60.8676423 C70.0773984,60.6178862 69.9421139,60.2588618 69.9421139,59.7905691 C69.9421139,59.624065 69.975935,59.4419512 70.0435773,59.2442276 C70.1112196,59.0465041 70.2282927,58.8617886 70.3947968,58.6900813 C70.5613009,58.518374 70.7824391,58.3778862 71.0582114,58.2686179 C71.3339838,58.1593496 71.6800001,58.1047154 72.0962602,58.1047154 C72.5333334,58.1047154 72.9235773,58.1931707 73.2669919,58.3700813 C73.6104066,58.5469919 73.8757724,58.7811382 74.0630895,59.0725203 L74.0630895,59.0725203 L75.2806505,57.9642276 C74.8643903,57.4543089 74.3804879,57.1160976 73.8289432,56.9495935 C73.2773984,56.7830894 72.6998375,56.6998374 72.0962602,56.6998374 C71.430244,56.6998374 70.8604879,56.8013008 70.3869919,57.0042276 C69.913496,57.2071545 69.5258537,57.4595122 69.2240651,57.7613008 C68.9222765,58.0630894 68.7011383,58.3960976 68.5606505,58.7603252 C68.4201627,59.1245528 68.3499188,59.4679675 68.3499188,59.7905691 C68.3499188,60.5086179 68.4852033,61.078374 68.7557724,61.4998374 C69.0263415,61.9213008 69.3619513,62.2569106 69.7626017,62.5066667 C70.1632521,62.7564228 70.6003253,62.9515447 71.0738212,63.0920325 C71.5473171,63.2325203 71.9843903,63.3782114 72.3850407,63.5291057 C72.7856911,63.68 73.1213009,63.8673171 73.39187,64.0910569 C73.6624391,64.3147967 73.7977236,64.64 73.7977236,65.0666667 C73.7977236,65.3684553 73.7300814,65.6338211 73.5947968,65.8627642 C73.4595123,66.0917073 73.2852033,66.2842276 73.07187,66.4403252 C72.8585366,66.5964228 72.6217887,66.7134959 72.3616261,66.7915447 C72.1014635,66.8695935 71.8465041,66.9086179 71.596748,66.9086179 C71.1492684,66.9086179 70.7147968,66.8123577 70.2933334,66.6198374 C69.87187,66.4273171 69.5258537,66.1281301 69.2552846,65.7222764 L69.2552846,65.7222764 L68.0221139,66.7837398 C68.396748,67.304065 68.9014635,67.6891057 69.5362602,67.9388618 C70.171057,68.1886179 70.8422765,68.3134959 71.5499188,68.3134959 Z M83.2000001,68.3134959 C84.0429269,68.3134959 84.8182115,68.1652033 85.5258537,67.8686179 C86.233496,67.5720325 86.8396749,67.1635772 87.3443903,66.643252 C87.8491058,66.1229268 88.2445529,65.5089431 88.5307318,64.8013008 C88.8169106,64.0936585 88.9600001,63.3287805 88.9600001,62.5066667 C88.9600001,61.6845528 88.8169106,60.9196748 88.5307318,60.2120325 C88.2445529,59.5043902 87.8491058,58.8904065 87.3443903,58.3700813 C86.8396749,57.8497561 86.233496,57.4413008 85.5258537,57.1447154 C84.8182115,56.8481301 84.0429269,56.6998374 83.2000001,56.6998374 C82.3570732,56.6998374 81.5817887,56.8481301 80.8741464,57.1447154 C80.1665041,57.4413008 79.5603253,57.8497561 79.0556098,58.3700813 C78.5508944,58.8904065 78.1554472,59.5043902 77.8692684,60.2120325 C77.5830895,60.9196748 77.4400001,61.6845528 77.4400001,62.5066667 C77.4400001,63.3287805 77.5830895,64.0936585 77.8692684,64.8013008 C78.1554472,65.5089431 78.5508944,66.1229268 79.0556098,66.643252 C79.5603253,67.1635772 80.1665041,67.5720325 80.8741464,67.8686179 C81.5817887,68.1652033 82.3570732,68.3134959 83.2000001,68.3134959 Z M83.2000001,66.9086179 C82.5652033,66.9086179 81.9928456,66.7915447 81.4829269,66.5573984 C80.9730082,66.323252 80.535935,66.0084553 80.1717074,65.6130081 C79.8074797,65.217561 79.5265041,64.7518699 79.3287806,64.215935 C79.131057,63.68 79.0321952,63.1102439 79.0321952,62.5066667 C79.0321952,61.9030894 79.131057,61.3333333 79.3287806,60.7973984 C79.5265041,60.2614634 79.8074797,59.7957724 80.1717074,59.4003252 C80.535935,59.004878 80.9730082,58.6900813 81.4829269,58.455935 C81.9928456,58.2217886 82.5652033,58.1047154 83.2000001,58.1047154 C83.8347968,58.1047154 84.4071545,58.2217886 84.9170732,58.455935 C85.4269919,58.6900813 85.8640651,59.004878 86.2282928,59.4003252 C86.5925204,59.7957724 86.873496,60.2614634 87.0712196,60.7973984 C87.2689432,61.3333333 87.3678049,61.9030894 87.3678049,62.5066667 C87.3678049,63.1102439 87.2689432,63.68 87.0712196,64.215935 C86.873496,64.7518699 86.5925204,65.217561 86.2282928,65.6130081 C85.8640651,66.0084553 85.4269919,66.323252 84.9170732,66.5573984 C84.4071545,66.7915447 83.8347968,66.9086179 83.2000001,66.9086179 Z M98.2061789,68.0325203 L98.2061789,66.6276423 L93.1330082,66.6276423 L93.1330082,56.980813 L91.6344716,56.980813 L91.6344716,68.0325203 L98.2061789,68.0325203 Z M104.330407,68.3134959 C104.933984,68.3134959 105.495935,68.2094309 106.01626,68.0013008 C106.536585,67.7931707 106.989268,67.4965854 107.374309,67.1115447 C107.75935,66.7265041 108.061138,66.2712195 108.279675,65.7456911 C108.498211,65.2201626 108.60748,64.6347967 108.60748,63.9895935 L108.60748,63.9895935 L108.60748,56.980813 L107.108943,56.980813 L107.108943,63.7554472 C107.108943,64.0988618 107.062114,64.4552846 106.968455,64.8247154 C106.874797,65.1941463 106.718699,65.5349593 106.500163,65.8471545 C106.281626,66.1593496 105.995447,66.4143089 105.641626,66.6120325 C105.287805,66.8097561 104.850732,66.9086179 104.330407,66.9086179 C103.810081,66.9086179 103.373008,66.8097561 103.019187,66.6120325 C102.665366,66.4143089 102.379187,66.1593496 102.16065,65.8471545 C101.942114,65.5349593 101.786016,65.1941463 101.692358,64.8247154 C101.598699,64.4552846 101.55187,64.0988618 101.55187,63.7554472 L101.55187,63.7554472 L101.55187,56.980813 L100.053333,56.980813 L100.053333,63.9895935 C100.053333,64.6347967 100.162602,65.2201626 100.381138,65.7456911 C100.599675,66.2712195 100.901463,66.7265041 101.286504,67.1115447 C101.671545,67.4965854 102.124228,67.7931707 102.644553,68.0013008 C103.164878,68.2094309 103.726829,68.3134959 104.330407,68.3134959 Z M115.574634,68.0325203 L115.574634,58.3856911 L119.133659,58.3856911 L119.133659,56.980813 L110.517073,56.980813 L110.517073,58.3856911 L114.076098,58.3856911 L114.076098,68.0325203 L115.574634,68.0325203 Z M122.744716,68.0325203 L122.744716,56.980813 L121.246179,56.980813 L121.246179,68.0325203 L122.744716,68.0325203 Z M131.179187,68.3134959 C132.022114,68.3134959 132.797398,68.1652033 133.505041,67.8686179 C134.212683,67.5720325 134.818862,67.1635772 135.323577,66.643252 C135.828293,66.1229268 136.22374,65.5089431 136.509919,64.8013008 C136.796098,64.0936585 136.939187,63.3287805 136.939187,62.5066667 C136.939187,61.6845528 136.796098,60.9196748 136.509919,60.2120325 C136.22374,59.5043902 135.828293,58.8904065 135.323577,58.3700813 C134.818862,57.8497561 134.212683,57.4413008 133.505041,57.1447154 C132.797398,56.8481301 132.022114,56.6998374 131.179187,56.6998374 C130.33626,56.6998374 129.560976,56.8481301 128.853333,57.1447154 C128.145691,57.4413008 127.539512,57.8497561 127.034797,58.3700813 C126.530081,58.8904065 126.134634,59.5043902 125.848455,60.2120325 C125.562277,60.9196748 125.419187,61.6845528 125.419187,62.5066667 C125.419187,63.3287805 125.562277,64.0936585 125.848455,64.8013008 C126.134634,65.5089431 126.530081,66.1229268 127.034797,66.643252 C127.539512,67.1635772 128.145691,67.5720325 128.853333,67.8686179 C129.560976,68.1652033 130.33626,68.3134959 131.179187,68.3134959 Z M131.179187,66.9086179 C130.54439,66.9086179 129.972033,66.7915447 129.462114,66.5573984 C128.952195,66.323252 128.515122,66.0084553 128.150894,65.6130081 C127.786667,65.217561 127.505691,64.7518699 127.307968,64.215935 C127.110244,63.68 127.011382,63.1102439 127.011382,62.5066667 C127.011382,61.9030894 127.110244,61.3333333 127.307968,60.7973984 C127.505691,60.2614634 127.786667,59.7957724 128.150894,59.4003252 C128.515122,59.004878 128.952195,58.6900813 129.462114,58.455935 C129.972033,58.2217886 130.54439,58.1047154 131.179187,58.1047154 C131.813984,58.1047154 132.386342,58.2217886 132.89626,58.455935 C133.406179,58.6900813 133.843252,59.004878 134.20748,59.4003252 C134.571707,59.7957724 134.852683,60.2614634 135.050407,60.7973984 C135.24813,61.3333333 135.346992,61.9030894 135.346992,62.5066667 C135.346992,63.1102439 135.24813,63.68 135.050407,64.215935 C134.852683,64.7518699 134.571707,65.217561 134.20748,65.6130081 C133.843252,66.0084553 133.406179,66.323252 132.89626,66.5573984 C132.386342,66.7915447 131.813984,66.9086179 131.179187,66.9086179 Z M141.112195,68.0325203 L141.112195,58.9476423 L141.143415,58.9476423 L147.293659,68.0325203 L149.198049,68.0325203 L149.198049,56.980813 L147.699512,56.980813 L147.699512,66.0656911 L147.668293,66.0656911 L141.580488,56.980813 L139.613659,56.980813 L139.613659,68.0325203 L141.112195,68.0325203 Z M155.181789,68.3134959 C155.71252,68.3134959 156.212033,68.2354472 156.680325,68.0793496 C157.148618,67.923252 157.554472,67.6995122 157.897886,67.4081301 C158.241301,67.116748 158.514472,66.7577236 158.717398,66.3310569 C158.920325,65.9043902 159.021789,65.4256911 159.021789,64.8949593 C159.021789,64.2289431 158.886504,63.7060163 158.615935,63.3261789 C158.345366,62.9463415 158.009756,62.6445528 157.609106,62.420813 C157.208455,62.1970732 156.771382,62.0227642 156.297886,61.8978862 C155.82439,61.7730081 155.387317,61.6325203 154.986667,61.4764228 C154.586016,61.3203252 154.250407,61.1173984 153.979838,60.8676423 C153.709268,60.6178862 153.573984,60.2588618 153.573984,59.7905691 C153.573984,59.624065 153.607805,59.4419512 153.675447,59.2442276 C153.74309,59.0465041 153.860163,58.8617886 154.026667,58.6900813 C154.193171,58.518374 154.414309,58.3778862 154.690081,58.2686179 C154.965854,58.1593496 155.31187,58.1047154 155.72813,58.1047154 C156.165203,58.1047154 156.555447,58.1931707 156.898862,58.3700813 C157.242277,58.5469919 157.507642,58.7811382 157.694959,59.0725203 L157.694959,59.0725203 L158.91252,57.9642276 C158.49626,57.4543089 158.012358,57.1160976 157.460813,56.9495935 C156.909268,56.7830894 156.331707,56.6998374 155.72813,56.6998374 C155.062114,56.6998374 154.492358,56.8013008 154.018862,57.0042276 C153.545366,57.2071545 153.157724,57.4595122 152.855935,57.7613008 C152.554146,58.0630894 152.333008,58.3960976 152.19252,58.7603252 C152.052033,59.1245528 151.981789,59.4679675 151.981789,59.7905691 C151.981789,60.5086179 152.117073,61.078374 152.387642,61.4998374 C152.658212,61.9213008 152.993821,62.2569106 153.394472,62.5066667 C153.795122,62.7564228 154.232195,62.9515447 154.705691,63.0920325 C155.179187,63.2325203 155.61626,63.3782114 156.016911,63.5291057 C156.417561,63.68 156.753171,63.8673171 157.02374,64.0910569 C157.294309,64.3147967 157.429594,64.64 157.429594,65.0666667 C157.429594,65.3684553 157.361951,65.6338211 157.226667,65.8627642 C157.091382,66.0917073 156.917073,66.2842276 156.70374,66.4403252 C156.490407,66.5964228 156.253659,66.7134959 155.993496,66.7915447 C155.733333,66.8695935 155.478374,66.9086179 155.228618,66.9086179 C154.781138,66.9086179 154.346667,66.8123577 153.925203,66.6198374 C153.50374,66.4273171 153.157724,66.1281301 152.887155,65.7222764 L152.887155,65.7222764 L151.653984,66.7837398 C152.028618,67.304065 152.533333,67.6891057 153.16813,67.9388618 C153.802927,68.1886179 154.474146,68.3134959 155.181789,68.3134959 Z" id="DIGITALSOLUTIONS" fill-rule="nonzero" opacity="0.900000036"></path>
            <path d="M38.4436855,39.1242638 C39.7368401,39.1242638 40.785149,40.1725727 40.785149,41.4657273 L40.785149,41.8861788 C40.785149,43.1793334 39.7368401,44.2276423 38.4436855,44.2276423 L2.34146351,44.2276423 C1.04830892,44.2276423 -7.29812657e-16,43.1793334 0,41.8861788 L0,41.4657273 C-1.58365763e-16,40.1725727 1.04830892,39.1242638 2.34146351,39.1242638 L38.4436855,39.1242638 Z M33.2811803,31.2996567 C34.5743349,31.2996567 35.6226438,32.3479657 35.6226438,33.6411202 L35.6226438,34.0615717 C35.6226438,35.3547263 34.5743349,36.4030352 33.2811803,36.4030352 L2.34146351,36.4030352 C1.04830892,36.4030352 6.02454972e-16,35.3547263 0,34.0615717 L0,33.6411202 C-1.58365763e-16,32.3479657 1.04830892,31.2996567 2.34146351,31.2996567 L33.2811803,31.2996567 Z M28.1186752,23.4750497 C29.4118298,23.4750497 30.4601387,24.5233586 30.4601387,25.8165132 L30.4601387,26.2369647 C30.4601387,27.5301193 29.4118298,28.5784282 28.1186752,28.5784282 L2.34146351,28.5784282 C1.04830892,28.5784282 6.02454972e-16,27.5301193 0,26.2369647 L0,25.8165132 C-1.58365763e-16,24.5233586 1.04830892,23.4750497 2.34146351,23.4750497 L28.1186752,23.4750497 Z M41.8861788,15.6492141 C43.1793334,15.6492141 44.2276423,16.697523 44.2276423,17.9906776 L44.2276423,18.4111291 C44.2276423,19.7042837 43.1793334,20.7525926 41.8861788,20.7525926 L2.34146351,20.7525926 C1.04830892,20.7525926 2.37881181e-15,19.7042837 0,18.4111291 L0,17.9906776 C-1.58365763e-16,16.697523 1.04830892,15.6492141 2.34146351,15.6492141 L41.8861788,15.6492141 Z M41.8861788,7.82460705 C43.1793334,7.82460705 44.2276423,8.87291597 44.2276423,10.1660706 L44.2276423,10.586522 C44.2276423,11.8796766 43.1793334,12.9279855 41.8861788,12.9279855 L2.34146351,12.9279855 C1.04830892,12.9279855 2.37881181e-15,11.8796766 0,10.586522 L0,10.1660706 C2.85723447e-16,8.87291597 1.04830892,7.82460705 2.34146351,7.82460705 L41.8861788,7.82460705 Z M31.5599337,0 C32.8530883,2.06540566e-16 33.9013972,1.04830892 33.9013972,2.34146351 L33.9013972,2.76191499 C33.9013972,4.05506958 32.8530883,5.1033785 31.5599337,5.1033785 L2.34146351,5.1033785 C1.04830892,5.1033785 6.02454972e-16,4.05506958 0,2.76191499 L0,2.34146351 C-1.58365763e-16,1.04830892 1.04830892,6.81637854e-16 2.34146351,0 L31.5599337,0 Z" id="Combined-Shape"></path>
        </g>
    </g>
</svg>