<?xml version="1.0" encoding="UTF-8"?>
<svg width="300px" height="94px" viewBox="0 0 300 94" version="1.1" xmlns="http://www.w3.org/2000/svg" xmlns:xlink="http://www.w3.org/1999/xlink">
    <!-- Generator: Sketch 47.1 (45422) - http://www.bohemiancoding.com/sketch -->
    <title>full-300x94</title>
    <desc>Created with Sketch.</desc>
    <defs/>
    <g id="Logos" stroke="none" stroke-width="1" fill="none" fill-rule="evenodd">
        <g id="full-300x94">
            <g id="Logo">
                <g id="Type" transform="translate(136.000000, 21.000000)" fill="#202B40">
                    <path d="M25.903094,13.0180064 C24.7215051,12.2569131 23.5713952,11.7679615 22.4752495,11.5579269 C18.2919076,10.736985 14.9281454,11.5003367 12.3221291,13.1772262 C11.3777574,13.7836166 10.5233258,14.5063164 9.77457397,15.3453258 L9.77457397,13.4696938 C9.77457397,12.7707076 9.21919345,12.199323 8.54576647,12.199323 L1.52256386,12.199323 C0.84239136,12.199323 0.291507852,12.7707076 0.291507852,13.4696938 L0.291507852,51.623729 C0.291507852,52.3272321 0.84239136,52.8986167 1.52256386,52.8986167 L8.87629657,52.8986167 C9.55534482,52.8986167 10.1062283,52.3272321 10.1062283,51.623729 L10.1062283,31.6862469 C10.1062283,30.1245377 10.2782389,28.6271939 10.613266,27.2190585 C10.9381748,25.862867 11.4463368,24.6387942 12.1152668,23.5953962 C12.7673329,22.581358 13.5644277,21.8044557 14.5458997,21.2206497 C16.5290803,20.0451332 19.2722554,20.0451332 22.4100429,21.5097296 C22.7192122,21.650882 23.0699788,21.6587865 23.3847694,21.5334432 C23.6961872,21.3945494 23.9423984,21.1336999 24.0626934,20.8073557 L26.4056347,14.5593897 C26.6237396,13.982359 26.4056347,13.3375753 25.903094,13.0180064" id="r"/>
                    <path d="M53.840308,19.744874 C57.1973246,19.744874 59.8280744,20.8368283 61.8922012,23.0659057 C63.9405885,25.2870785 64.9793974,28.4793792 64.9793974,32.550212 C64.9793974,34.5286028 64.6938373,36.3218018 64.1339598,37.8925448 C63.5808278,39.4497371 62.8039696,40.7923779 61.8348644,41.8888491 C60.8601378,42.9830618 59.6965369,43.8356218 58.363174,44.4431414 C55.6717146,45.6514052 52.0021558,45.6468883 49.2646021,44.4386245 C47.9053813,43.8322342 46.7237924,42.978545 45.7603084,41.893366 C44.7912031,40.8014117 44.0357058,39.4587709 43.5095558,37.9072246 C42.9755361,36.3421278 42.7012186,34.5353781 42.7012186,32.550212 C42.7012186,30.6102146 42.9755361,28.819274 43.5129285,27.2169129 C44.0357058,25.6472992 44.7934516,24.2944954 45.7603084,23.207058 C46.7237924,22.121879 47.9053813,21.2648022 49.2646021,20.6617995 C50.6384381,20.0554091 52.1775392,19.744874 53.840308,19.744874 M69.3583591,17.0494294 C67.4876037,15.1862189 65.205372,13.7419484 62.5757465,12.7493653 C59.9686059,11.7567823 57.0331838,11.2599261 53.840308,11.2599261 C50.7576088,11.2599261 47.8806478,11.7567823 45.3027378,12.7493653 C42.7034671,13.7419484 40.4369749,15.1862189 38.5707165,17.0494294 C36.6999611,18.9137692 35.2092028,21.1868861 34.1479089,23.8078022 C33.0877392,26.4321061 32.5537195,29.3680742 32.5537195,32.550212 C32.5537195,35.7775185 33.0461419,38.7123574 34.0096259,41.2937509 C34.9866009,43.9045041 36.4368861,46.1742334 38.3155113,48.0509945 C40.1851425,49.9051713 42.4505104,51.3550879 45.0576509,52.3499294 C47.6265668,53.3391248 50.584474,53.835981 53.840308,53.835981 C56.8679188,53.835981 59.7223947,53.3391248 62.3272868,52.3510586 C64.9602851,51.3550879 67.2368955,49.9051713 69.1054024,48.0509945 C70.9716608,46.1911716 72.4601706,43.9327346 73.523713,41.3310152 C74.5861312,38.7394587 75.1268964,35.7865522 75.1268964,32.550212 C75.1268964,29.3906586 74.6367225,26.4558197 73.6687415,23.8450665 C72.689518,21.2026951 71.2403571,18.9205445 69.3583591,17.0494294" id="o1"/>
                    <path d="M106.324441,19.744874 C109.681458,19.744874 112.314456,20.8368283 114.374086,23.0659057 C116.424722,25.2870785 117.463531,28.4748624 117.463531,32.550212 C117.463531,34.5218275 117.180219,36.3218018 116.620342,37.8925448 C116.06721,39.4497371 115.288103,40.7923779 114.314501,41.893366 C113.351017,42.9830618 112.182919,43.8356218 110.845059,44.4431414 C108.158096,45.6514052 104.488538,45.6468883 101.750984,44.4386245 C100.391763,43.8356218 99.2101743,42.9830618 98.2455661,41.893366 C97.2798336,40.8014117 96.5243362,39.4621585 95.9948135,37.9117415 C95.4596695,36.3353524 95.1876005,34.5331197 95.1876005,32.550212 C95.1876005,30.6181191 95.4596695,28.819274 95.9948135,27.2169129 C96.5243362,25.6472992 97.2798336,24.2899786 98.2421933,23.207058 C99.2101743,22.121879 100.391763,21.2648022 101.750984,20.6617995 C103.127069,20.0554091 104.661673,19.744874 106.324441,19.744874 M121.84699,17.0494294 C119.969489,15.1862189 117.687257,13.7419484 115.061004,12.7493653 C112.454988,11.7567823 109.517317,11.2599261 106.324441,11.2599261 C103.237245,11.2599261 100.36703,11.7567823 97.7868712,12.7493653 C95.189849,13.7419484 92.9233568,15.1862189 91.0526014,17.0494294 C89.1840945,18.9092523 87.6978333,21.1801108 86.6342908,23.8078022 C85.5696241,26.4321061 85.0356044,29.3680742 85.0356044,32.550212 C85.0356044,35.7684848 85.5280268,38.7078405 86.4960078,41.2937509 C87.4729828,43.9045041 88.9210195,46.1742334 90.8018932,48.0509945 C92.6692759,49.9051713 94.9368923,51.3550879 97.5395358,52.3499294 C100.117446,53.3391248 103.069732,53.835981 106.324441,53.835981 C109.356549,53.835981 112.211025,53.3391248 114.809172,52.3510586 C117.44217,51.3550879 119.723277,49.9051713 121.594033,48.0464777 C123.458043,46.187784 124.946552,43.9327346 126.010095,41.3310152 C127.072513,38.7349418 127.613278,35.7820354 127.613278,32.550212 C127.613278,29.3906586 127.118607,26.4558197 126.150626,23.8450665 C125.1759,21.2026951 123.719993,18.9205445 121.84699,17.0494294" id="o2"/>
                    <path d="M162.519394,20.3733971 C163.198442,20.3733971 163.749325,19.8065294 163.749325,19.0985094 L163.749325,13.4704843 C163.749325,12.771498 163.198442,12.2001135 162.519394,12.2001135 L153.050943,12.2001135 L153.050943,1.90051138 C153.050943,1.19474981 152.502308,0.62562368 151.821011,0.62562368 L144.462781,0.62562368 C143.784857,0.62562368 143.233974,1.19474981 143.233974,1.90051138 L143.233974,12.2001135 L136.778518,12.2001135 C136.09947,12.2001135 135.546338,12.771498 135.546338,13.4704843 L135.546338,19.0985094 C135.546338,19.8065294 136.09947,20.3733971 136.778518,20.3733971 L143.233974,20.3733971 L143.233974,40.6801336 C143.233974,44.8040396 144.393078,47.9161658 146.674185,49.9340793 C148.89908,51.9034364 152.207754,52.8982779 156.504645,52.8982779 L162.519394,52.8982779 C163.198442,52.8982779 163.749325,52.3268934 163.749325,51.6233902 L163.749325,45.6825716 C163.749325,44.9790685 163.198442,44.4099424 162.519394,44.4099424 L157.501857,44.4099424 C155.848082,44.4099424 154.638387,44.0858566 153.997563,43.4659157 C153.366858,42.8572669 153.050943,41.7077225 153.050943,40.0534173 L153.050943,20.3733971 L162.519394,20.3733971 Z" id="t"/>
                </g>
                <g id="Icon" fill="#5E97FC">
                    <path d="M45.6519881,67.161802 L45.6519881,47.3904686 L51.4632238,47.3904686 C52.772409,49.3607824 54.9774009,50.5569784 57.3711292,50.5569784 C61.2848749,50.5569784 64.4694541,47.3692725 64.4694541,43.4489196 C64.4694541,39.5285667 61.2848749,36.3390176 57.3711292,36.3390176 C54.9774009,36.3390176 52.772409,37.5361353 51.4632238,39.5055275 L38.9210084,39.5055275 C38.2866705,39.5055275 37.7701776,40.0216059 37.7701776,40.6574882 L37.7701776,69.9495471 C37.7701776,70.2555078 37.892626,70.5494882 38.1089822,70.7651353 L61.2655409,93.0219392 C61.4809764,93.2375863 61.7746685,93.3583118 62.0784878,93.3583118 L69.9667431,93.3583118 C70.4325994,93.3583118 70.8515018,93.0772333 71.0291901,92.6468608 C71.2077991,92.2164882 71.1083673,91.7216059 70.77969,91.3926059 L45.6519881,67.161802 Z" id="Fill-10"/>
                    <path d="M100.697702,92.074751 L100.688496,2.07343725 C100.688496,1.43847647 100.172924,0.921476471 99.5376649,0.921476471 L1.15083088,0.921476471 C0.516492901,0.921476471 0,1.43847647 0,2.07343725 L0,92.2618294 C0,92.8995549 0.516492901,93.4137902 1.15083088,93.4137902 L2.62389442,93.4137902 C2.74081883,93.4137902 2.85590192,93.3944373 2.96177836,93.3584961 L6.72913835,93.3584961 C7.36347633,93.3584961 7.87996923,92.8433392 7.87996923,92.2065353 L7.87996923,8.80918235 L92.8076059,8.80918235 L92.8076059,86.4485745 L71.9517882,67.5435157 L80.5774959,67.5435157 C81.2145959,67.5435157 81.7283268,67.0283588 81.7283268,66.3915549 L81.7283268,20.6080255 C81.7283268,19.9721431 81.2145959,19.4560647 80.5774959,19.4560647 L19.9664555,19.4560647 C19.3302762,19.4560647 18.8156246,19.9721431 18.8156246,20.6080255 L18.8156246,92.2065353 C18.8156246,92.8433392 19.3302762,93.3584961 19.9664555,93.3584961 L25.544763,93.3584961 C26.1809423,93.3584961 26.6955939,92.8433392 26.6955939,92.2065353 L26.6955939,27.3446922 L73.8511195,27.3446922 L73.8511195,59.6558098 L59.4316689,59.6558098 C58.7945689,59.6558098 58.280838,60.1728098 58.280838,60.8077706 L58.280838,64.9695745 C58.280838,65.2865941 58.409731,65.5907118 58.6398972,65.8063588 L87.4447339,93.0433196 C87.6592488,93.2460647 87.9418929,93.3584961 88.2346642,93.3584961 L99.5542368,93.3584961 C99.8810728,93.3584961 100.194099,93.2174961 100.413217,92.9732804 C100.631415,92.7281431 100.733608,92.4009863 100.697702,92.074751" id="Fill-12"/>
                </g>
            </g>
        </g>
    </g>
</svg>