<?xml version="1.0" standalone="no"?>
<!DOCTYPE svg PUBLIC "-//W3C//DTD SVG 20010904//EN"
 "http://www.w3.org/TR/2001/REC-SVG-20010904/DTD/svg10.dtd">
<svg version="1.0" xmlns="http://www.w3.org/2000/svg"
 width="200.000000pt" height="200.000000pt" viewBox="0 0 200.000000 200.000000"
 preserveAspectRatio="xMidYMid meet">
<metadata>
Created by potrace 1.15, written by Peter Selinger 2001-2017
</metadata>
<g transform="translate(0.000000,200.000000) scale(0.100000,-0.100000)"
fill="#3F51B5" stroke="none">
<path d="M300 1537 c3 -3 41 -12 85 -21 87 -18 178 -56 212 -88 14 -13 23 -33
23 -50 l0 -28 -182 -1 -183 -1 76 -14 c149 -27 259 -86 259 -140 l0 -24 -187
-2 -188 -3 85 -17 c160 -31 260 -86 260 -144 l0 -24 -172 -1 -173 -1 91 -23
c144 -36 224 -86 224 -140 l0 -25 -172 -1 -173 -1 68 -14 c145 -31 247 -89
247 -139 l0 -25 -177 -2 c-124 -2 -166 -5 -138 -11 167 -34 285 -97 285 -153
l0 -24 193 0 193 0 33 208 c18 114 35 215 37 225 8 27 170 25 225 -3 53 -28
116 -115 169 -237 23 -54 53 -119 67 -145 l23 -48 210 0 c116 0 210 4 210 9 0
19 -166 351 -202 402 -21 30 -59 68 -84 84 l-46 29 34 12 c207 71 321 233 263
372 -21 50 -89 118 -147 148 -113 58 -113 58 -758 62 -327 2 -592 1 -590 -1z
m1046 -226 c53 -24 72 -65 55 -121 -25 -83 -105 -112 -303 -108 l-134 3 19
123 19 122 152 0 c125 0 158 -4 192 -19z"/>
</g>
</svg>
