<?xml version="1.0" standalone="no"?>
<!DOCTYPE svg PUBLIC "-//W3C//DTD SVG 20010904//EN"
 "http://www.w3.org/TR/2001/REC-SVG-20010904/DTD/svg10.dtd">
<svg version="1.0" xmlns="http://www.w3.org/2000/svg"
 width="333.000000pt" height="333.000000pt" viewBox="0 0 333.000000 333.000000"
 preserveAspectRatio="xMidYMid meet">

<g transform="translate(0.000000,333.000000) scale(0.100000,-0.100000)"
fill="#000000" stroke="none">
<path d="M2762 2965 l-12 -25 -353 0 c-285 0 -363 3 -403 15 -27 8 -52 15 -56
15 -11 0 -10 -358 0 -364 5 -3 24 8 43 24 l34 29 168 1 168 0 -3 -42 -3 -43
-192 3 c-106 2 -193 0 -193 -5 0 -28 29 -33 207 -33 l183 0 0 -51 0 -51 -254
4 c-242 3 -254 2 -239 -14 15 -17 54 -18 552 -18 l536 0 -42 42 -42 41 -35
-26 c-35 -27 -35 -27 -210 -27 l-176 0 0 28 c0 15 3 37 6 50 6 22 8 22 202 22
l196 0 -39 40 c-21 22 -43 40 -48 40 -5 0 -18 -11 -29 -25 -20 -25 -21 -26
-151 -23 l-132 3 -3 43 -3 42 205 0 205 0 3 128 c2 70 7 134 11 142 5 11 -4
21 -35 38 -53 27 -52 27 -66 -3z m-414 -162 l-3 -108 -155 0 -155 0 -3 108 -3
107 161 0 161 0 -3 -107z m400 0 l-3 -108 -105 -2 c-85 -2 -101 0 -86 10 84
54 112 77 120 99 8 22 4 30 -25 57 -19 17 -37 31 -40 31 -3 0 -11 -21 -17 -48
-7 -26 -26 -71 -43 -100 -29 -51 -32 -53 -67 -50 l-37 3 -3 108 -3 107 156 0
156 0 -3 -107z"/>
<path d="M2128 2875 c11 -14 28 -55 38 -91 9 -36 24 -68 31 -71 20 -8 73 46
73 73 0 25 -38 58 -107 93 -54 27 -59 26 -35 -4z"/>
<path d="M1360 2945 l-34 -35 -488 0 c-268 0 -488 -3 -488 -7 0 -5 9 -19 19
-33 l20 -25 185 4 c102 1 186 1 186 -2 0 -11 -70 -167 -113 -252 -78 -156
-162 -271 -289 -397 -65 -65 -118 -120 -118 -123 0 -4 33 16 72 44 91 63 220
177 290 257 l53 61 3 -320 c1 -177 6 -325 11 -330 13 -13 70 69 84 120 l11 42
195 3 c110 2 202 -1 209 -6 7 -5 19 -23 25 -39 l12 -30 33 28 c62 52 66 68 70
310 3 169 8 227 19 249 13 24 13 30 2 37 -8 5 -33 20 -56 34 l-43 26 -17 -35
-17 -36 -206 0 c-124 0 -220 4 -238 11 l-32 11 44 61 c23 34 60 91 81 126 37
62 38 64 19 78 -10 7 -32 26 -48 40 l-29 28 24 6 c13 4 171 7 352 8 254 1 327
4 327 14 0 13 -77 107 -89 107 -4 0 -22 -16 -41 -35z m-160 -699 c0 -189 -2
-216 -17 -235 -17 -20 -29 -21 -216 -23 l-197 -3 0 231 c0 127 3 234 7 237 3
4 100 7 215 7 l208 0 0 -214z"/>
<path d="M2020 2364 c-12 -19 -47 -53 -76 -76 -30 -22 -54 -46 -54 -53 0 -17
22 -34 60 -45 48 -14 67 1 79 62 13 69 22 148 17 148 -3 0 -14 -16 -26 -36z"/>
<path d="M2154 2371 c20 -22 56 -112 56 -140 0 -54 66 -48 95 9 14 28 15 34 2
54 -13 20 -142 96 -163 96 -4 0 1 -8 10 -19z"/>
<path d="M2459 2362 c11 -16 30 -59 42 -95 12 -36 27 -68 35 -71 17 -7 63 31
75 62 7 19 6 29 -8 45 -16 17 -143 87 -158 87 -4 0 3 -13 14 -28z"/>
<path d="M2690 2382 c0 -4 13 -19 29 -35 15 -15 40 -52 55 -82 40 -78 49 -83
86 -46 25 24 31 38 28 63 -3 28 -10 36 -48 55 -53 26 -150 55 -150 45z"/>
<path d="M2348 2183 l-3 -88 -222 -3 c-132 -1 -223 -6 -223 -12 0 -27 46 -32
246 -25 l204 8 0 -62 0 -61 -272 0 c-270 0 -271 0 -253 -20 18 -20 31 -20 582
-20 309 0 563 3 563 6 0 3 -21 30 -47 60 l-46 55 -42 -41 -41 -40 -172 0 -172
0 0 60 0 60 220 0 c244 0 246 1 186 60 l-35 33 -36 -32 -36 -31 -150 0 -151 0
4 80 3 80 -35 10 c-69 19 -69 19 -72 -77z"/>
<path d="M825 1481 c18 -27 45 -81 60 -120 15 -39 31 -74 36 -77 23 -14 59 8
79 46 28 55 25 75 -14 105 -39 29 -165 95 -183 95 -6 0 3 -22 22 -49z"/>
<path d="M2020 1377 l0 -156 -112 6 -113 6 19 -22 c17 -18 30 -21 107 -21 l87
0 -14 -62 c-36 -155 -107 -325 -190 -454 -20 -30 -33 -58 -30 -62 17 -16 148
149 206 262 l40 77 0 -305 c0 -339 3 -351 57 -258 l28 47 5 290 5 290 24 -45
c13 -25 31 -67 41 -95 19 -56 40 -67 72 -38 56 50 38 104 -54 164 -34 21 -67
39 -75 39 -10 0 -13 19 -13 75 l0 75 95 0 c52 0 95 4 95 8 0 4 -17 25 -38 45
l-38 37 -29 -30 c-19 -19 -39 -30 -57 -30 l-28 0 0 121 c0 66 4 128 10 138 8
15 3 20 -31 30 -23 7 -47 15 -55 18 -12 4 -14 -21 -14 -150z"/>
<path d="M2515 1522 c-3 -3 -5 -110 -5 -239 l0 -233 -125 0 c-123 0 -125 0
-113 -20 12 -19 24 -20 255 -20 l243 0 0 -125 0 -125 -251 0 c-222 0 -250 -2
-239 -15 10 -13 51 -15 251 -15 l239 0 0 -85 c0 -50 -6 -99 -14 -119 l-14 -33
-122 -6 c-68 -4 -181 -7 -253 -7 -114 0 -128 -2 -117 -15 10 -13 51 -15 246
-15 229 0 233 0 248 -22 9 -12 16 -30 16 -40 0 -49 82 17 100 80 5 21 10 143
10 276 0 223 1 241 21 272 l20 33 -41 26 c-63 40 -68 40 -87 6 -18 -30 -19
-31 -95 -31 l-78 0 0 213 c0 132 4 217 10 223 7 7 -7 15 -44 26 -31 8 -58 13
-61 10z"/>
<path d="M2805 1427 c-32 -91 -65 -169 -106 -246 -27 -51 -48 -96 -45 -99 11
-10 100 74 191 178 54 63 85 105 77 108 -7 2 -35 19 -63 38 -33 22 -51 29 -54
21z"/>
<path d="M2281 1373 c15 -32 37 -103 48 -157 25 -125 38 -136 93 -87 28 25 33
36 32 73 0 25 -9 56 -20 72 -18 29 -161 156 -174 156 -3 0 6 -26 21 -57z"/>
<path d="M1362 1312 l-30 -39 -468 -7 c-258 -4 -470 -9 -473 -11 -2 -3 4 -14
14 -25 15 -17 33 -20 132 -22 l115 -3 28 -110 c38 -151 74 -242 126 -321 l44
-68 -27 -29 c-57 -61 -192 -151 -320 -214 -126 -62 -166 -91 -105 -77 66 16
260 88 321 118 36 19 94 55 129 80 l62 46 53 -39 c65 -48 190 -120 291 -166
74 -35 78 -36 92 -18 7 10 14 21 14 25 0 12 59 39 102 46 22 4 40 11 39 17 0
5 -62 26 -138 46 -166 44 -208 59 -288 104 -91 51 -94 55 -52 112 47 65 121
215 153 310 14 43 32 85 40 94 21 23 18 27 -28 41 l-43 13 40 7 c22 4 97 7
168 7 72 1 127 5 127 10 0 6 -19 31 -41 58 -23 26 -42 49 -44 50 -1 2 -16 -14
-33 -35z m-279 -124 c-21 -113 -107 -326 -159 -393 -15 -20 -16 -19 -45 15
-17 19 -48 65 -70 102 -40 69 -119 255 -119 282 0 17 41 21 257 24 l143 2 -7
-32z"/>
</g>
</svg>
