<?xml version="1.0" encoding="UTF-8"?>
<svg width="573px" height="120px" viewBox="0 0 573 120" version="1.1" xmlns="http://www.w3.org/2000/svg" xmlns:xlink="http://www.w3.org/1999/xlink">
    <!-- Generator: Sketch 51.3 (57544) - http://www.bohemiancoding.com/sketch -->
    <title>Logo/Sotheby's</title>
    <desc>Created with Sketch.</desc>
    <defs>
        <path d="M566.69589,37.1835616 L570.493151,37.1835616 L571.726027,33.8958904 L572.843836,33.8958904 L572.843836,44.3835616 L571.726027,44.3835616 L570.493151,41.0958904 L566.69589,41.0958904 L566.69589,49.7260274 L565.824658,50.2849315 L551.457534,38.4 L551.80274,37.2986301 L564.263014,37.2986301 L564.263014,34.0109589 L566.69589,34.0109589 L566.69589,37.1835616 Z M557.424658,40.9808219 L564.263014,46.5863014 L564.263014,40.9808219 L557.424658,40.9808219 Z M566.69589,56.2191781 L570.493151,56.2191781 L571.726027,52.9315068 L572.843836,52.9315068 L572.843836,63.3534247 L571.726027,63.3534247 L570.493151,60.0657534 L566.69589,60.0657534 L566.69589,68.6958904 L565.824658,69.2547945 L551.457534,57.369863 L551.80274,56.2849315 L564.263014,56.2849315 L564.263014,53.1123288 L566.69589,53.1123288 L566.69589,56.2191781 Z M557.424658,60 L564.263014,65.7534247 L564.263014,60 L557.424658,60 Z M555.747945,79.2 L557.70411,80.8438356 L557.523288,81.7808219 L551.769863,80.9260274 L551.638356,79.9890411 L552.558904,79.2986301 L552.558904,68.1205479 L553.00274,67.7753425 L572.860274,76.8328767 L572.860274,80.7123288 L555.747945,71.2109589 L555.747945,79.2 Z M571.726027,84.7561644 L572.843836,84.7561644 L572.843836,95.1945205 L571.726027,95.1945205 L570.493151,91.9068493 L554.876712,91.9068493 L553.693151,95.1945205 L552.690411,95.1945205 L551.654795,88.4547945 L551.753425,88.1424658 L570.493151,88.1424658 L571.726027,84.7561644 Z M543.156164,34.339726 C543.147372,35.4917482 542.220411,36.4260078 541.068493,36.4438356 C540.51628,36.4395227 539.988653,36.2148687 539.602824,35.8197804 C539.216996,35.4246921 539.004916,34.8918866 539.013699,34.339726 C539.009321,33.7947554 539.221621,33.2703684 539.603891,32.8819331 C539.986161,32.4934978 540.507084,32.2728355 541.052055,32.2684932 C541.602694,32.2596818 542.133825,32.4722723 542.526314,32.8585802 C542.918803,33.2448881 543.139797,33.7725779 543.139726,34.3232877 L543.156164,34.339726 Z M529.117808,36.5424658 L526.339726,38.630137 C524.580822,40.0109589 523.939726,40.5863014 523.890411,41.9178082 L523.890411,43.1671233 L540.821918,43.1671233 L541.49589,40.060274 L542.646575,40.060274 L542.646575,50.2520548 L541.49589,50.2520548 L540.821918,47.2109589 L523.890411,47.2109589 L523.890411,48.6246575 C523.890411,50.0054795 524.120548,50.2684932 525.879452,51.6493151 L529.167123,54.0493151 L528.936986,55.1835616 L522.542466,54.1972603 L522.542466,36.3945205 L528.936986,35.3753425 L529.117808,36.5424658 Z M543.123288,65.4739726 C543.169696,66.9607156 542.811771,68.4321847 542.087671,69.7315068 L543.123288,70.8986301 L543.123288,72.0821918 L536.10411,72.460274 L535.890411,71.1780822 C540.443836,69.1890411 541.364384,67.4630137 541.364384,65.2767123 C541.364384,63.090411 540.493151,61.6767123 538.50411,61.6767123 C536.515068,61.6767123 535.693151,62.4 534.460274,65.3753425 C534.049315,66.3780822 533.638356,67.5616438 533.161644,68.5315068 C532.291351,70.60618 530.249645,71.945643 528,71.9178082 C526.379735,71.9092407 524.830244,71.2527865 523.696946,70.0947843 C522.563648,68.9367822 521.940754,67.3734982 521.967123,65.7534247 L521.967123,65.5561644 C521.949281,64.3773455 522.312501,63.2242667 523.00274,62.2684932 L521.934247,61.0356164 L521.934247,59.8849315 L528.131507,59.3424658 L528.29589,60.5917808 C524.893151,62.4 523.726027,63.6328767 523.726027,65.6876712 C523.640006,67.2263637 524.788502,68.5565832 526.323288,68.6958904 C527.819178,68.6958904 528.789041,68.0547945 529.775342,65.8191781 C530.284932,64.7013699 530.728767,63.4191781 531.287671,62.2356164 C532.520548,59.6712329 534.131507,58.4712329 536.482192,58.4712329 C540.169652,58.552108 543.103511,61.5886522 543.057534,65.2767123 L543.123288,65.4739726 Z M528.608219,78.1150685 L528.871233,79.1671233 L525.731507,81.0246575 C524.30137,82.1589041 524.284932,82.7671233 524.252055,84.8547945 L524.252055,88.3232877 L531.747945,88.3232877 L531.747945,86.9424658 C531.747945,85.5123288 531.386301,84.9863014 529.29863,84.3287671 L528.263014,84.0164384 L528.263014,82.8164384 L536.926027,82.8164384 L536.926027,84.0164384 L535.939726,84.3287671 C533.884932,84.9863014 533.473973,85.5123288 533.473973,86.9424658 L533.473973,88.3232877 L540.986301,88.3232877 L540.821918,83.6219178 C540.821918,81.8136986 540.821918,81.090411 539.589041,80.1041096 L536.087671,78.0657534 L536.284932,76.9643836 L542.646575,77.7041096 L542.646575,95.2273973 L541.49589,95.2273973 L540.821918,92.2849315 L524.383562,92.2849315 L523.726027,95.2273973 L522.558904,95.2273973 L522.558904,78.7890411 L528.608219,78.1150685 Z M473.243836,95.1780822 C466.880708,95.2604984 460.561773,94.1105861 454.635616,91.7917808 L454.50411,75.2054795 L457.019178,74.9424658 C463.808219,86.8931507 468.969863,91.3808219 475.627397,91.3808219 C477.986561,91.5620277 480.320913,90.7973779 482.115657,89.2555017 C483.910401,87.7136254 485.018118,85.5211714 485.194521,83.1616438 C485.227402,82.7129303 485.227402,82.2624121 485.194521,81.8136986 C485.194521,75.2383562 478.520548,72.7726027 471.369863,69.8630137 C463.446575,66.4767123 455.013699,62.6958904 455.013699,52.2739726 C455.013699,42.4109589 463.808219,34.4054795 476.646575,34.4054795 C481.797164,34.434606 486.91725,35.1984676 491.852055,36.6739726 L492.230137,51.6328767 L489.846575,52.2739726 C483.682192,42.0821918 479.654795,38.1863014 473.868493,38.1863014 C468.591781,38.1863014 465.320548,41.7041096 465.320548,46.2246575 C465.320548,52.8 472.126027,55.4136986 479.276712,58.3068493 C487.2,61.5945205 495.715068,65.3424658 495.715068,76.0273973 C495.715068,87.7315068 485.391781,95.1287671 473.194521,95.1287671 L473.243836,95.1780822 Z M458.153425,25.890411 L435.747945,54.4438356 L432.986301,54.4438356 L444.772603,25.890411 L458.153425,25.890411 Z M401.556164,97.0684932 C395.260274,112.536986 389.358904,119.326027 381.550685,119.326027 C374.893151,119.326027 371.687671,115.430137 371.687671,111.419178 C371.856079,107.385247 375.19562,104.213047 379.232877,104.252055 C383.506849,104.252055 386.021918,106.50411 389.09589,110.268493 C391.860904,107.02807 394.192785,103.441836 396.032877,99.6 L398.153425,94.8164384 L375.912329,41.0958904 L368.219178,38.1041096 L368.219178,36.460274 L398.909589,36.460274 L398.909589,38.1041096 L390.871233,41.0958904 L404.383562,77.9671233 L405.008219,77.9671233 L417.336986,42 L410.038356,38.1041096 L410.038356,36.460274 L431.671233,36.460274 L431.671233,38.1041096 L423.452055,42.2630137 L401.556164,97.0684932 Z M333.452055,95.1780822 C326.262243,94.982692 319.126077,93.8780222 312.213699,91.890411 L312.213699,12.8219178 L303.40274,7.16712329 L303.40274,5.90136986 L325.084932,0 L325.594521,0.378082192 L325.594521,42.509589 L326.10411,42.7561644 C330.820438,37.6654748 337.396516,34.7006064 344.334247,34.5369863 C356.284932,34.5369863 367.10137,45.4849315 367.10137,63.4684932 C367.10137,81.4520548 353.506849,95.1945205 333.386301,95.1945205 L333.452055,95.1780822 Z M335.523288,43.2657534 C332.134028,43.2624133 328.779102,43.9445815 325.660274,45.2712329 L325.660274,85.1342466 C329.253536,88.8464979 334.203422,90.9356584 339.369863,90.9205479 C346.783562,90.9205479 352.947945,84.2630137 352.947945,66.5260274 C352.947945,50.9260274 346.372603,43.2657534 335.589041,43.2657534 L335.523288,43.2657534 Z M260.827397,60.4931507 C260.827397,76.4547945 265.364384,86.8931507 279.567123,86.8931507 C285.863014,86.8931507 291.073973,85.6438356 298.553425,82.8821918 L299.309589,84.3780822 C291.649315,91.0356164 283.084932,95.1780822 275.046575,95.1780822 C257.819178,95.1780822 246.575342,83.3753425 246.575342,65.9013699 C246.575342,47.9178082 260.071233,34.5205479 275.424658,34.5205479 C292.027397,34.5205479 300.082192,45.7150685 299.934247,60.5589041 L260.827397,60.4931507 Z M285.863014,56.2191781 C285.353425,44.3835616 281.950685,37.9726027 274.536986,37.9726027 C267.123288,37.9726027 261.583562,45.6493151 260.958904,57.3369863 L285.863014,56.2191781 Z M209.769863,44.0219178 C205.192713,43.9522824 200.671201,45.0317936 196.619178,47.1616438 L196.619178,88.7671233 L203.654795,91.3972603 L203.654795,93.1561644 L175.315068,93.1561644 L175.315068,91.4136986 L183.221918,88.7835616 L183.221918,12.8219178 L174.558904,7.16712329 L174.558904,5.91780822 L196.175342,0 L196.684932,0.378082192 L196.684932,44.3835616 L197.194521,44.6465753 C204.608219,37.6109589 211.39726,34.4547945 218.186301,34.4547945 C229.512329,34.4547945 234.29589,43.0027397 234.29589,51.9287671 L234.29589,88.7671233 L242.219178,91.3972603 L242.219178,93.1561644 L213.780822,93.1561644 L213.780822,91.4136986 L220.832877,88.7835616 L220.832877,57.090411 C220.832877,48.8712329 217.545205,44.0219178 209.769863,44.0219178 Z M151.035616,94.6849315 C141.172603,94.6849315 137.967123,89.7534247 137.967123,80.7452055 L137.967123,43.1342466 L128.646575,43.1342466 L128.646575,41.3753425 L140.153425,32.2027397 L149.342466,20.2520548 L151.232877,20.2520548 L151.232877,36.690411 L170.350685,36.690411 L170.350685,43.2657534 L151.232877,43.2657534 L151.232877,75.6986301 C151.232877,80.7452055 151.989041,83.7534247 154.520548,85.5616438 C156.673973,87.0739726 159.550685,87.5671233 163.709589,87.5671233 C165.715068,87.5671233 168.230137,87.4356164 170.630137,87.3205479 L170.745205,89.0794521 C164.743472,92.5779144 157.962871,94.5216866 151.019178,94.7342466 L151.035616,94.6849315 Z M93.8136986,95.1780822 C74.6958904,95.1780822 65.2767123,81.4849315 65.2767123,64.7671233 C65.2767123,49.3150685 76.0767123,34.5205479 95.4410959,34.5205479 C114.558904,34.5205479 123.747945,48.0986301 123.747945,64.7013699 C123.747945,80.3013699 113.178082,95.2438356 93.8136986,95.2438356 L93.8136986,95.1780822 Z M94.3232877,37.9726027 C85.5123288,37.9726027 80.1041096,47.8356164 80.1041096,65.0136986 C80.1041096,82.1917808 85.890411,91.6767123 94.8986301,91.6767123 C103.906849,91.6767123 109.117808,81.8136986 109.117808,64.6356164 C109.117808,47.4575342 103.561644,37.9726027 94.3232877,37.9726027 Z M27.7972603,95.0630137 C21.1677205,95.1107468 14.6195224,93.6017897 8.67945205,90.6575342 L3.74794521,95.0630137 L1.51232877,95.0630137 L0,67.1671233 L2.64657534,66.9041096 C10.569863,84.9863014 19.8739726,90.7890411 28.5369863,90.7890411 C37.5945205,90.7890411 42.8876712,84.8876712 42.8876712,76.9643836 C42.8876712,69.4191781 39.9945205,65.769863 28.1753425,60.8712329 C24.1479452,59.2273973 19.4958904,57.5835616 15.6,55.709589 C6.7890411,51.3041096 2.1369863,44.3835616 2.1369863,35.2109589 C2.1369863,20.2520548 15.090411,11.1945205 27.7972603,11.1945205 C33.0221573,11.141851 38.1539375,12.5787495 42.5917808,15.3369863 L47.5232877,11.0630137 L49.660274,11.0630137 L51.7972603,35.7205479 L49.1671233,36.1643836 C42.2465753,22.2575342 34.8328767,15.4684932 26.6630137,15.4684932 C19.4958904,15.4684932 14.7945205,20.2520548 14.7945205,27.6657534 C14.7945205,33.5835616 17.309589,38.1041096 26.3013699,42 C30.7068493,44.0219178 35.8684932,45.7808219 40.5205479,48.0328767 C50.6958904,52.9643836 55.4794521,59.3589041 55.4794521,68.6630137 C55.4794521,85.2493151 41.5232877,95.0630137 27.9452055,95.0630137 L27.7972603,95.0630137 Z" id="path-1"></path>
    </defs>
    <g id="Page-1" stroke="none" stroke-width="1" fill="none" fill-rule="evenodd">
        <g id="Artboard" transform="translate(-51.000000, -57.000000)">
            <g id="Logo/Sotheby's" transform="translate(51.000000, 57.000000)">
                <mask id="mask-2" fill="white">
                    <use xlink:href="#path-1"></use>
                </mask>
                <use id="Sotheby's" fill="#000000" fill-rule="nonzero" xlink:href="#path-1"></use>
                <g id="Colors/Black" mask="url(#mask-2)" fill="#000000" fill-rule="evenodd">
                    <rect id="#000000" x="0" y="0" width="573" height="120"></rect>
                </g>
            </g>
        </g>
    </g>
</svg>