<svg xmlns="http://www.w3.org/2000/svg" version="1.0" width="1627.000000" height="1627.000000" preserveAspectRatio="xMidYMid meet" style=""><rect id="backgroundrect" width="100%" height="100%" x="0" y="0" fill="none" stroke="none"/>
<metadata>
Created by potrace 1.15, written by Peter Selinger 2001-2017
</metadata>

<g class="currentLayer" style=""><title>Layer 1</title><g transform="translate(0,1627) scale(0.10000000149011612,-0.10000000149011612) " fill="#1975d2" stroke="none" id="svg_1" class="" fill-opacity="1">
<path d="M1792 16254 c-542 -59 -939 -229 -1243 -533 -289 -289 -452 -653 -526 -1171 -17 -119 -18 -431 -18 -6415 0 -5984 1 -6296 18 -6415 74 -518 237 -882 526 -1171 289 -289 653 -452 1171 -526 119 -17 431 -18 6415 -18 5984 0 6296 1 6415 18 518 74 882 237 1171 526 289 289 452 653 526 1171 17 119 18 431 18 6415 0 5984 -1 6296 -18 6415 -74 518 -237 882 -526 1171 -287 286 -639 446 -1161 526 -109 17 -454 18 -6380 19 -5200 2 -6286 0 -6388 -12z m1923 -4999 c237 -31 461 -83 643 -151 52 -19 82 -37 110 -68 122 -132 41 -360 -135 -383 -28 -3 -77 8 -178 40 -293 94 -472 122 -790 122 -181 0 -249 -4 -319 -18 -228 -46 -373 -113 -487 -226 -112 -112 -149 -200 -149 -357 0 -156 51 -258 176 -353 141 -106 278 -158 734 -276 629 -163 805 -229 1000 -377 161 -120 274 -284 321 -463 30 -115 38 -342 14 -456 -61 -303 -281 -568 -590 -709 -242 -111 -477 -156 -809 -153 -428 4 -760 67 -1136 214 -138 54 -186 87 -228 157 -70 121 -5 291 127 331 66 19 108 13 239 -38 313 -121 519 -167 862 -192 178 -13 375 -1 527 32 351 76 525 263 526 566 1 83 -2 97 -32 157 -66 134 -224 235 -508 325 -87 27 -276 82 -421 121 -628 169 -846 266 -1059 471 -170 163 -243 349 -243 614 0 446 266 808 725 988 104 41 285 83 412 97 125 13 525 4 668 -15z m3154 -45 c278 -17 459 -55 666 -139 304 -125 618 -390 799 -675 138 -217 241 -507 281 -791 20 -141 21 -407 1 -545 -34 -239 -123 -501 -237 -700 -250 -437 -675 -749 -1155 -849 -191 -39 -263 -42 -969 -39 -753 3 -704 -1 -774 70 -72 73 -66 -95 -63 1778 2 1012 7 1700 13 1722 15 58 67 120 128 151 l55 27 545 0 c300 0 620 -5 710 -10z m3849 -962 c49 -27 1285 -1256 1310 -1302 21 -41 21 -132 -1 -172 -9 -18 -296 -313 -637 -657 -437 -441 -634 -632 -664 -646 -101 -49 -237 1 -275 102 -16 42 -13 123 5 160 9 18 262 278 562 580 l547 547 -557 558 c-420 420 -558 564 -563 587 -3 17 -8 38 -10 47 -6 35 17 106 47 143 61 73 159 95 236 53z m-956 -58 c57 -21 134 -90 161 -146 24 -47 36 -141 27 -207 -21 -151 -133 -255 -285 -265 -143 -9 -246 35 -316 136 -64 91 -73 237 -20 340 26 52 111 127 164 145 64 23 204 21 269 -3z m12 -2140 c70 -36 142 -119 162 -187 22 -75 15 -184 -15 -247 -56 -115 -160 -176 -301 -176 -225 0 -364 161 -329 379 17 110 89 199 197 242 70 28 219 23 286 -11z m4611 -235 c61 -38 95 -98 95 -168 0 -111 -76 -190 -193 -202 -34 -3 -449 -5 -922 -3 -957 3 -888 -2 -953 72 -96 110 -44 284 98 324 22 7 355 10 931 9 l896 -2 48 -30z m-11533 -3362 c10 -9 18 -26 18 -39 0 -36 -36 -54 -107 -54 l-63 0 0 -485 0 -485 68 0 c57 0 72 -4 87 -20 15 -16 17 -26 9 -48 l-9 -27 -121 -3 c-107 -2 -122 -1 -137 16 -16 18 -17 63 -15 571 l3 553 24 19 c32 26 214 28 243 2z m4130 -10 c17 -15 18 -44 18 -490 0 -460 -1 -474 -20 -493 -11 -11 -28 -20 -39 -20 -30 0 -71 39 -71 67 l0 26 -22 -21 c-46 -42 -128 -72 -200 -72 -134 0 -240 66 -300 188 -31 63 -33 73 -33 177 0 100 3 115 28 167 92 187 317 254 475 142 l47 -34 5 169 c4 148 7 172 24 190 23 25 63 27 88 4z m-2157 -18 c33 -32 33 -78 -1 -112 -20 -20 -31 -24 -57 -19 -65 13 -89 85 -42 131 13 14 36 25 50 25 14 0 37 -11 50 -25z m5151 11 c17 -13 19 -31 24 -190 l5 -175 50 33 c166 112 382 42 473 -152 24 -50 27 -69 27 -162 0 -93 -3 -112 -27 -162 -37 -80 -109 -150 -184 -178 -48 -18 -73 -21 -139 -18 -85 5 -130 21 -177 66 -28 26 -28 26 -28 3 0 -28 -42 -71 -70 -71 -11 0 -32 11 -45 25 l-25 24 0 224 c0 123 3 333 7 467 6 217 8 245 25 262 22 22 57 23 84 4z m2593 -22 c19 -25 21 -40 21 -199 l0 -173 65 43 c98 66 165 79 260 51 63 -20 119 -75 146 -146 19 -51 21 -73 20 -289 -1 -128 -6 -242 -11 -251 -15 -28 -59 -34 -89 -12 l-26 19 -5 240 c-4 206 -7 243 -23 266 -28 43 -72 60 -137 54 -69 -6 -109 -25 -160 -78 l-39 -40 -3 -219 c-3 -191 -5 -222 -20 -236 -26 -26 -77 -22 -101 7 -19 23 -20 35 -14 483 5 392 8 462 22 482 22 33 67 32 94 -2z m864 15 c12 -7 25 -17 29 -23 4 -6 8 -260 8 -563 0 -658 16 -593 -147 -593 -114 0 -143 11 -143 53 0 41 28 57 100 57 l67 0 6 476 c4 261 5 480 2 485 -4 5 -37 9 -74 9 -73 0 -91 10 -91 49 0 49 24 61 127 61 52 0 104 -5 116 -11z m-4610 -16 c63 -71 -31 -174 -104 -114 -29 23 -31 81 -4 111 23 26 85 27 108 3z m-5483 -249 c85 -20 110 -37 110 -74 0 -54 -38 -71 -110 -50 -57 17 -182 14 -218 -4 -52 -27 -68 -78 -33 -110 10 -9 75 -34 144 -55 73 -22 144 -50 168 -67 133 -92 87 -292 -78 -340 -115 -34 -329 4 -375 67 -15 20 -17 30 -9 52 13 35 50 43 101 23 101 -40 247 -39 283 2 22 26 26 59 10 81 -13 19 -46 32 -203 75 -116 32 -189 106 -190 191 -1 170 175 262 400 209z m334 -16 c8 -13 48 -132 88 -265 40 -134 75 -243 78 -243 3 0 39 109 80 243 50 163 82 249 97 265 30 30 76 29 101 -2 10 -13 52 -133 92 -265 40 -133 77 -238 81 -234 4 5 41 118 83 253 46 148 83 250 93 258 40 29 103 -2 103 -51 0 -21 -127 -402 -186 -560 -36 -93 -90 -122 -147 -76 -22 16 -39 60 -92 227 -36 114 -69 216 -74 226 -5 15 -24 -32 -69 -175 -78 -244 -91 -272 -133 -289 -28 -12 -36 -11 -68 6 -36 19 -37 22 -138 319 -56 165 -102 309 -102 321 -2 55 84 87 113 42z m1140 1 l26 -20 0 -317 c0 -310 0 -316 -22 -339 -26 -28 -58 -29 -89 -4 -23 18 -24 27 -27 148 -2 70 -1 215 3 322 6 170 10 196 26 212 25 25 50 24 83 -2z m610 3 c71 -20 105 -56 87 -91 -19 -35 -43 -41 -102 -26 -69 19 -170 19 -214 1 -68 -29 -82 -101 -26 -130 14 -8 76 -28 136 -45 169 -48 226 -97 233 -198 10 -152 -127 -239 -336 -213 -90 12 -181 47 -194 76 -16 34 -2 73 27 80 15 4 53 -2 93 -15 70 -23 154 -29 209 -17 38 9 73 48 73 82 0 34 -35 53 -156 86 -163 44 -217 80 -244 163 -23 69 19 178 86 221 69 46 216 57 328 26z m673 -6 c57 -18 78 -43 69 -82 -10 -40 -44 -49 -118 -30 -144 36 -258 3 -258 -73 0 -41 21 -58 103 -82 164 -47 201 -63 237 -95 50 -45 63 -81 58 -154 -5 -74 -40 -123 -114 -160 -43 -22 -61 -25 -149 -24 -82 0 -114 5 -175 27 -41 15 -81 35 -88 44 -19 27 -11 65 19 82 24 13 33 12 98 -9 121 -39 255 -26 275 25 12 33 6 65 -16 79 -13 8 -76 30 -140 49 -183 53 -238 101 -238 206 0 99 51 169 150 205 56 20 210 16 287 -8z m1548 -15 c104 -51 172 -161 177 -287 2 -48 -1 -59 -21 -75 -21 -17 -43 -19 -261 -19 l-238 0 10 -37 c14 -53 52 -99 101 -125 59 -30 190 -30 265 0 65 27 77 27 102 2 49 -49 12 -97 -102 -131 -57 -18 -88 -20 -176 -17 -122 5 -178 26 -244 95 -116 119 -123 368 -15 511 90 119 258 154 402 83z m357 10 c17 -14 52 -91 124 -275 54 -140 102 -252 105 -248 3 4 50 117 103 252 54 135 105 253 113 263 23 25 78 22 97 -5 9 -12 16 -29 16 -38 0 -8 -57 -151 -127 -318 -117 -281 -130 -305 -159 -319 -38 -18 -94 -11 -117 15 -18 20 -257 602 -257 626 0 21 44 66 63 66 8 0 25 -9 39 -19z m1511 -19 c75 -37 119 -83 156 -162 23 -49 26 -67 26 -165 0 -100 -3 -116 -28 -170 -55 -117 -156 -184 -293 -193 -154 -10 -282 59 -341 185 -97 207 -5 459 191 523 93 31 204 24 289 -18z m1599 7 c55 -16 69 -24 74 -43 16 -65 -21 -91 -99 -70 -67 18 -169 18 -212 0 -43 -18 -69 -58 -61 -91 8 -31 18 -36 151 -75 126 -37 169 -57 207 -97 95 -100 39 -270 -104 -313 -128 -38 -381 14 -389 80 -4 35 2 50 26 66 24 16 29 15 82 -5 126 -48 270 -36 293 25 23 59 -2 78 -152 118 -119 31 -165 54 -206 100 -52 60 -54 140 -6 223 60 103 214 135 396 82z m-2300 4 c17 -15 18 -42 18 -447 0 -397 -2 -434 -19 -471 -33 -73 -93 -101 -193 -92 -89 8 -124 51 -78 97 15 15 33 20 74 20 38 0 58 5 67 17 11 13 15 101 19 440 5 406 6 425 24 439 26 19 65 18 88 -3z m3357 1 c81 -22 136 -63 136 -98 0 -19 -9 -35 -26 -49 l-27 -19 -63 28 c-79 36 -169 38 -241 6 -123 -54 -165 -243 -82 -363 57 -83 208 -116 313 -69 55 25 93 25 116 0 41 -46 -5 -94 -129 -132 -133 -41 -280 -5 -377 91 -79 80 -102 144 -97 271 3 69 10 108 25 142 39 87 149 175 247 199 54 12 148 10 205 -7z m-668 -547 c85 -65 1 -196 -94 -145 -53 28 -64 92 -22 133 27 28 88 34 116 12z" id="svg_2" fill="#1975d2"/>
<path d="M5917 10239 c-4 -282 -7 -917 -7 -1411 l0 -898 443 0 c470 0 593 8 755 49 288 74 516 210 702 418 85 95 132 167 190 289 97 201 142 413 141 669 -1 555 -262 995 -731 1230 -127 63 -226 97 -385 132 -118 26 -127 26 -611 30 l-491 5 -6 -513z" id="svg_3" fill="#1975d2"/>
<path d="M6577 4025 c-99 -35 -152 -151 -128 -281 22 -116 93 -174 212 -174 71 0 124 20 177 64 l32 28 0 142 0 143 -45 32 c-82 59 -168 75 -248 46z" id="svg_4" fill="#1975d2"/>
<path d="M10134 4016 c-23 -7 -63 -28 -88 -46 l-46 -33 0 -142 c0 -141 0 -141 28 -167 59 -55 149 -82 229 -67 104 20 163 100 163 222 0 91 -16 142 -60 188 -53 56 -137 73 -226 45z" id="svg_5" fill="#1975d2"/>
<path d="M7410 4028 c-49 -26 -75 -56 -95 -114 l-13 -39 186 -5 c103 -3 191 -2 196 2 4 3 3 22 -4 42 -37 113 -165 167 -270 114z" id="svg_6" fill="#1975d2"/>
<path d="M9303 4029 c-86 -16 -134 -62 -163 -153 -19 -59 -7 -168 24 -221 85 -144 318 -128 381 27 22 56 23 170 1 223 -39 93 -139 144 -243 124z" id="svg_7" fill="#1975d2"/>
</g></g></svg>