<?xml version="1.0" encoding="utf-8"?>
<!-- Generator: Adobe Illustrator 16.0.0, SVG Export Plug-In . SVG Version: 6.00 Build 0)  -->
<!DOCTYPE svg PUBLIC "-//W3C//DTD SVG 1.1//EN" "http://www.w3.org/Graphics/SVG/1.1/DTD/svg11.dtd">
<svg version="1.1" xmlns="http://www.w3.org/2000/svg" xmlns:xlink="http://www.w3.org/1999/xlink" x="0px" y="0px"
	 width="566.929px" height="280.666px" viewBox="0 0 566.929 280.666" enable-background="new 0 0 566.929 280.666"
	 xml:space="preserve">
<g id="Background">
	<path fill="#7040AA" d="M111.622,85.795H167.5c1.576,0,2.929-1.126,3.203-2.68l5.159-29.41c0.352-1.992-1.183-3.815-3.202-3.815
		h-55.154c-1.585,0-2.801-1.404-2.572-2.971l6.219-43.204C121.436,1.754,119.916,0,117.938,0H84.457
		c-1.612,0-2.982,1.181-3.214,2.778L60.15,146.693c-0.185,1.276-1.283,2.221-2.576,2.221H8.473c-1.572,0-2.922,1.132-3.199,2.686
		L0.05,181c-0.352,1.99,1.179,3.819,3.203,3.819h160.742c1.576,0,2.923-1.132,3.199-2.685l5.223-29.397
		c0.355-1.994-1.177-3.823-3.203-3.823H103.21c-1.585,0-2.802-1.408-2.572-2.98l8.41-57.908
		C109.235,86.748,110.333,85.795,111.622,85.795z"/>
	<path fill="#7040AA" d="M349.422,100.501l28.655-6.943c1.028-0.25,1.803-1.094,1.959-2.139l4.303-28.452
		c0.274-1.828-1.391-3.353-3.188-2.916l-42.028,10.184c-1.321,0.317-2.667-0.431-3.086-1.722l-2.313-7.085
		c-0.469-1.44,0.389-2.976,1.863-3.332l41.038-9.944c1.028-0.25,1.801-1.094,1.96-2.137l4.301-28.451
		c0.276-1.831-1.387-3.356-3.182-2.921l-12.467,3.023c-1.321,0.317-2.665-0.431-3.086-1.724l-4.604-14.146
		C359.196,0.726,358.2,0,357.074,0h-26.937c-1.753,0-3.006,1.705-2.481,3.381l6.115,19.539c0.45,1.436-0.406,2.954-1.869,3.307
		l-6.618,1.601c-1.319,0.321-2.663-0.427-3.082-1.72l-7.92-24.31C313.933,0.726,312.937,0,311.809,0h-31.525
		c-1.754,0-3.009,1.705-2.481,3.381l9.846,31.427c0.336,1.075-0.306,2.213-1.404,2.479l-8.817,2.137
		c-1.026,0.248-1.801,1.092-1.958,2.139l-4.303,28.451c-0.276,1.829,1.387,3.353,3.184,2.917l21.696-5.255
		c1.001-0.242,2.017,0.331,2.323,1.312l2.409,7.682c0.45,1.434-0.406,2.954-1.871,3.305l-22.171,5.375
		c-1.026,0.248-1.801,1.092-1.958,2.137l-4.303,28.45c-0.278,1.832,1.389,3.354,3.184,2.92l35.726-8.655
		c1-0.246,2.013,0.331,2.323,1.31l2.667,8.502c0.45,1.433-0.408,2.95-1.869,3.306l-40.32,9.821
		c-1.022,0.253-1.793,1.096-1.956,2.141l-4.299,28.451c-0.276,1.827,1.389,3.352,3.186,2.914l53.265-12.98
		c1.332-0.321,2.687,0.444,3.097,1.752l9.06,27.579c0.338,1.084,1.344,1.823,2.481,1.823h33.8c1.769,0,3.023-1.729,2.476-3.409
		l-11.658-34.426c-0.469-1.441,0.386-2.974,1.859-3.333l14.126-3.443c1.022-0.25,1.795-1.094,1.956-2.139l4.297-28.447
		c0.28-1.829-1.387-3.356-3.184-2.916l-27.483,6.696c-1.323,0.321-2.665-0.429-3.088-1.72l-2.561-7.845
		C347.09,102.395,347.946,100.857,349.422,100.501z"/>
	<path fill="#7040AA" d="M261.053,43.276h-12.21c-0.888,0-1.515-0.783-1.236-1.625l12.338-37.379C260.643,2.166,259.077,0,256.86,0
		h-28.462c-1.398,0-2.64,0.89-3.084,2.215L200.725,75.46c-0.707,2.109,0.861,4.288,3.084,4.288h15.341
		c0.89,0,1.514,0.866,1.236,1.708l-17.261,52.029c-0.697,2.107,0.871,4.279,3.088,4.279h49.742c1.583,0,2.935-1.14,3.203-2.697
		l4.564-26.187c0.346-1.99-1.187-3.81-3.203-3.81h-13.352c-0.882,0-1.51-0.863-1.234-1.704l18.212-55.745
		C264.831,45.519,263.266,43.276,261.053,43.276z"/>
	<path fill="#7040AA" d="M198.491,182.865l51.307-1.412c1.559-0.043,2.867-1.187,3.12-2.725l4.444-27.105
		c0.329-2.013-1.254-3.831-3.295-3.776l-50.899,1.387c-1.54,0.04-2.84,1.158-3.113,2.676l-4.851,27.131
		C194.84,181.072,196.431,182.922,198.491,182.865z"/>
	<path fill="#7040AA" d="M469.791,148.158h-31.767c-1.568,0-2.916,1.105-3.197,2.653l-5.479,30.163
		c-0.365,2.001,1.168,3.845,3.195,3.845h45.751c3.995,0,7.776-1.823,10.272-4.953l16.589-20.805
		c3.116-3.908,5.134-8.576,5.851-13.525l6.028-45.005c0.643-4.437,2.27-8.667,4.762-12.384l35.123-46.972
		c2.869-4.275,4.827-9.097,5.747-14.164l4.208-23.167C567.238,1.843,565.704,0,563.676,0H412.402c-1.572,0-2.919,1.128-3.199,2.678
		l-5.119,28.626c-0.361,2.001,1.171,3.846,3.201,3.846h107.276c1.572,0,2.498,1.765,1.606,3.063l-29.675,37.584
		c-3.097,4.516-5.125,9.683-5.922,15.104l-7.565,54.452C472.771,146.95,471.403,148.158,469.791,148.158z"/>
	<path fill="#7040AA" d="M156.043,272.009l5.216-6.14c0.51-0.603,1.46-0.663,2.169-0.123c4.503,3.439,8.98,5.184,13.574,5.184
		c2.994,0,4.981-1.296,4.729-3.372c-0.214-1.753-1.563-2.663-8.239-5.129c-7.556-2.727-12.554-5.843-13.37-12.527
		c-1.102-9.02,6.312-15.443,17.437-15.443c7.266,0,13.402,2.141,18.112,5.645c0.776,0.579,0.98,1.625,0.453,2.302l-4.93,6.359
		c-0.48,0.622-1.417,0.716-2.141,0.202c-3.475-2.46-7.272-4.059-11.388-4.059c-3.06,0-4.77,1.428-4.549,3.245
		c0.221,1.816,1.665,2.466,8.213,4.932c7.352,2.659,12.556,5.841,13.389,12.656c1.142,9.345-6.151,15.706-17.471,15.706
		c-8.239,0-15.462-2.608-20.869-7.153C155.65,273.68,155.499,272.651,156.043,272.009z"/>
	<path fill="#7040AA" d="M215.55,255.952l-10.297-18.476c-0.59-1.057,0.042-2.238,1.196-2.238h10.32c0.66,0,1.302,0.405,1.618,1.019
		l4.789,9.319c0.575,1.115,2.073,1.374,2.759,0.474l7.78-10.265c0.263-0.348,0.679-0.546,1.14-0.546h10.813
		c1.402,0,2.332,1.667,1.502,2.689l-15.515,19.126c-0.378,0.465-0.412,1.147-0.083,1.729l11.012,19.64
		c0.592,1.058-0.04,2.241-1.194,2.241h-10.375c-0.662,0-1.306-0.404-1.62-1.021l-5.401-10.543c-0.573-1.119-2.069-1.379-2.755-0.476
		l-8.734,11.499c-0.265,0.344-0.679,0.541-1.138,0.541h-10.879c-1.402,0-2.33-1.667-1.502-2.691l16.479-20.294
		C215.841,257.214,215.873,256.534,215.55,255.952z"/>
	<path fill="#7040AA" d="M258.493,235.238h9.366c1.054,0,1.946,1,1.795,2.017l-4.446,30.367c-0.149,1.015,0.739,2.011,1.792,2.011
		h17.546c1.056,0,1.946,1.001,1.795,2.02l-1.168,7.833c-0.102,0.695-0.678,1.181-1.404,1.181H252.67
		c-1.053,0-1.943-0.996-1.793-2.015l6.211-42.227C257.192,235.724,257.767,235.238,258.493,235.238z"/>
	<path fill="#7040AA" d="M296.188,268.01h9.553c1.059,0,1.947,1.005,1.795,2.021l-1.423,9.458c-0.106,0.691-0.68,1.177-1.404,1.177
		h-9.503c-1.053,0-1.943-0.996-1.793-2.011l1.372-9.457C294.886,268.498,295.46,268.01,296.188,268.01z"/>
	<path fill="#7040AA" d="M313.626,261.715c-1.64-13.432,7.585-27.384,25.09-27.384c8.659,0,15.313,3.881,19.087,10.072
		c0.47,0.773,0.281,1.707-0.429,2.111l-7.71,4.407c-0.695,0.398-1.64,0.138-2.181-0.577c-2.181-2.886-5.064-4.528-8.991-4.528
		c-7.55,0-12.735,7.073-11.77,14.992c0.707,5.777,4.979,9.345,10.25,9.345c3.503,0,5.983-1.315,8.287-3.632
		c0.539-0.54,1.455-0.542,2.128-0.005l6.856,5.467c0.767,0.61,0.93,1.676,0.359,2.328c-3.768,4.329-9.095,7.264-17.015,7.264
		C324.965,281.575,315.11,273.85,313.626,261.715z"/>
	<path fill="#7040AA" d="M369.781,235.238h9.526c0.624,0,1.234,0.363,1.565,0.926l11.973,20.339
		c0.796,1.355,2.757,1.187,2.971-0.259l2.944-19.824c0.102-0.697,0.68-1.183,1.404-1.183h9.235c1.056,0,1.944,1,1.795,2.017
		l-6.214,42.227c-0.102,0.699-0.676,1.185-1.402,1.185h-8.812c-0.622,0-1.23-0.359-1.564-0.92l-12.595-21.267
		c-0.799-1.35-2.757-1.176-2.971,0.266l-3.039,20.736c-0.102,0.699-0.676,1.185-1.404,1.185h-9.233
		c-1.055,0-1.947-0.996-1.795-2.015l6.213-42.227C368.48,235.724,369.057,235.238,369.781,235.238z"/>
</g>
<g id="Layer_1">
</g>
</svg>
