<?xml version="1.0" encoding="UTF-8"?>
<svg width="196px" height="196px" viewBox="0 0 196 196" version="1.1" xmlns="http://www.w3.org/2000/svg" xmlns:xlink="http://www.w3.org/1999/xlink">
    <!-- Generator: Sketch 51.2 (57519) - http://www.bohemiancoding.com/sketch -->
    <title>TailRecursive</title>
    
    <defs></defs>
    <g id="Page-1" stroke="none" stroke-width="1" fill="none" fill-rule="evenodd">
        <g id="Stacked-Group">
            <g id="tr-logo-copy">
                <circle id="Oval" fill="#FF8585" cx="98" cy="98" r="98"></circle>
                <path d="M145.891547,72.5931533 L145.891547,91.6021126 L113.450771,91.6021126 L113.450771,154.424242 L79.9559277,154.424242 L79.9559277,91.6021126 L47.5151515,91.6021126 L47.5151515,59.1704381 L111.863283,59.1704381 L104.056477,51.6836206 L107.804337,47.5151515 L122.829429,61.9243904 L107.804337,76.3336293 L104.056477,72.1651602 L111.863283,64.6783426 L53.2036151,64.6783426 L53.2036151,86.0942081 L85.6443913,86.0942081 L85.6443913,148.916338 L107.762307,148.916338 L107.762307,86.0942081 L140.203084,86.0942081 L140.203084,72.5931533 C135.296138,71.3702806 131.670388,67.0573152 131.670388,61.9243904 C131.670388,55.8405271 136.764012,50.9085814 143.047315,50.9085814 C149.330619,50.9085814 154.424242,55.8405271 154.424242,61.9243904 C154.424242,67.0573152 150.798493,71.3702806 145.891547,72.5931533 Z M143.047315,67.4322949 C146.188967,67.4322949 148.735779,64.9663221 148.735779,61.9243904 C148.735779,58.8824587 146.188967,56.4164859 143.047315,56.4164859 C139.905664,56.4164859 137.358852,58.8824587 137.358852,61.9243904 C137.358852,64.9663221 139.905664,67.4322949 143.047315,67.4322949 Z" id="Combined-Shape" fill="#FFFFFF" fill-rule="nonzero"></path>
            </g>
        </g>
    </g>
</svg>