<svg height="130" viewBox="0 0 592 130" width="592" xmlns="http://www.w3.org/2000/svg"><g fill="none"><g fill="#222218" transform="translate(0 49)"><path d="m47.5354405 80.2466797h-27.5567771v-57.0741138h-19.9786634v-22.66178053h67.6863338v22.66178053h-20.1508933z"/><path d="m75.9533669.51078537h56.3191631v22.32605043h-30.312455v6.8824667h28.590157v20.815265h-28.590157v7.3860618h32.379213v22.3260504h-58.3859211z"/><path d="m146.739838.51078537h27.384547l23.423261 40.45547483h.51669l-1.205609-40.45547483h26.178938v79.73589433h-28.073467l-22.734341-38.1053642h-.51669l1.205609 38.1053642h-26.178938z"/><path d="m234.232605 57.9206293 30.656915-35.0837935h-29.279076v-22.32605043h65.275116v19.30447973l-32.551443 37.433904h33.584822v22.8296456h-67.686334z"/><path d="m314.319489.51078537h27.729007v79.73589433h-27.729007z"/><path d="m356.688034.51078537h35.30712c3.961287 0 7.922574.33573008 11.883861 1.17505528 3.961286.83932521 7.578113 2.18224553 10.678251 4.19662602 3.100137 2.01438049 5.683585 4.70022113 7.578113 8.05752193 1.894529 3.3573008 2.927908 7.5539269 2.927908 12.5898781 0 4.8680862-1.205609 9.2325772-3.616827 12.9256081s-6.028045 6.5467366-10.506021 8.5611171l20.839812 32.3979529h-31.518063l-15.672917-28.537057h-.86115v28.537057h-26.695628zm26.523398 33.74087323h5.339125c.86115 0 1.894529 0 3.100138-.1678651 1.205609-.167865 2.066758-.5035951 3.100137-1.0071902s1.722299-1.1750553 2.411218-2.0143805c.68892-.8393252 1.033379-2.0143805 1.033379-3.3573008 0-1.3429204-.344459-2.5179756-.861149-3.3573008-.51669-.8393253-1.205609-1.5107854-2.066758-1.8465155-.86115-.3357301-1.722299-.6714602-2.755678-.8393252s-1.894528-.167865-2.755678-.167865h-6.544734z"/></g><g transform="translate(437)"><path d="m50.8047141 63.9171763 25.8573786-61.1381199c.430261-1.01732457-.0456481-2.19082451-1.0629727-2.62108548-.2464998-.10425311-.5114169-.15797092-.7790564-.15797092h-63.1784869c-.8070276 0-1.53498.48503138-1.84575815 1.22982023l-10.12703083 24.26972297c-.42535854 1.0193841.0561943 2.1905794 1.07557838 2.6159379.2440075.1018171.50578163.1542419.77017977.1542419h30.58314003c1.1045695 0 2 .8954305 2 2 0 .2640996-.0523065.5255842-.1539005.7693612l-25.55791583 61.32679c-.42490648 1.0195726.05716566 2.1905543 1.07673825 2.6154607.24377707.101594.50526162.1539006.76936128.1539006h66.9536628c.8085686 0 1.5375937-.4868614 1.8473847-1.23373l10.1369658-24.4390028c.4231993-1.0202824-.0608322-2.1904555-1.0811146-2.6136547-.242906-.1007541-.5032973-.1526153-.7662701-.1526153h-34.6758545c-1.1045695 0-2-.8954305-2-2 0-.2676395.0537178-.5325566.1579709-.7790564z" fill="#00a4f1"/><path d="m65.7903884 58.4015235h26.6167472c.805429 0 1.5322666-.4831365 1.8440616-1.2257667l11.6216208-27.6802671c.311794-.7426302 1.038632-1.2257667 1.844061-1.2257667h34.264946c.807028 0 1.53498-.4850314 1.845758-1.2298202l10.127031-24.26972303c.425358-1.01938408-.056194-2.19057937-1.075578-2.61593791-.244008-.10181705-.505782-.15424186-.77018-.15424186h-63.7051124c-.8080169 0-1.5366582.48620579-1.8468034 1.23232994l-22.6133552 54.40152356c-.4239725 1.0199613.059172 2.190501 1.0791333 2.6144734.2433007.101134.504187.1531966.7676701.1531966z" fill="#93ed00"/></g></g></svg>