<?xml version="1.0" encoding="UTF-8"?>
<svg width="220px" height="189px" viewBox="0 0 220 189" version="1.1" xmlns="http://www.w3.org/2000/svg" xmlns:xlink="http://www.w3.org/1999/xlink">
    <!-- Generator: Sketch 50.2 (55047) - http://www.bohemiancoding.com/sketch -->
    <title>Shape</title>
    <desc>Created with Sketch.</desc>
    <defs></defs>
    <g id="Page-1" stroke="none" stroke-width="1" fill="none" fill-rule="evenodd">
        <path d="M87.8,61.19 L131.7,61.19 L131.7,71 L87.8,71 L87.8,61.19 Z M87.8,119.81 L131.7,119.81 L131.7,129.58 L87.8,129.58 L87.8,119.81 Z M73.17,100.27 L146.33,100.27 L146.33,110 L73.17,110 L73.17,100.27 Z M73.17,80.73 L146.33,80.73 L146.33,90.5 L73.17,90.5 L73.17,80.73 Z M29.27,93 L109.78,171.15 L190.23,92.99 L109.78,14.84 L29.27,93 Z M109.42,0.18 L197.55,85 L210.32,73.09 L219.5,81.4 L109.75,188.2 L20.45,101.51 L8.63,112.92 L0,104.55 L109.42,0.18 Z" id="Shape" fill="#1975D1"></path>
    </g>
</svg>