<svg width="93" height="93" viewBox="0 0 93 93" xmlns="http://www.w3.org/2000/svg"><path d="M46.2 0C20.684 0 0 20.684 0 46.2c0 25.516 20.684 46.2 46.2 46.2 25.516 0 46.2-20.684 46.2-46.2C92.4 20.684 71.716 0 46.2 0zm19 65.496L45.896 76.66v.004h-.008L26.572 65.496V26.864l.02.012 19.288-11.14 12.38 6.908h.004v17.44l-6.024-3.46V26.12l-6.352-3.62-13.296 7.688v32.024L45.888 69.9l13.296-7.664.064-13.16-18.892-10.96 6.068-3.192L65.248 45.9 65.2 65.5v-.004zM49.528 44.944l4.652 2.676-13.824 7.872V39.62l4.856 2.864v4.764l4.32-2.304h-.004z" fill="#5269FF"/></svg>