<svg version="1.0" xmlns="http://www.w3.org/2000/svg" width="192" height="192" viewBox="0 0 144 144" style="background-color:#fff"><path d="M0 72v72h144V0H0v72zm104.8-61.4c2.6.7 2.9 3 .5 4.3-1 .5-5.3 1.2-9.6 1.6-5.9.6-8.3 1.2-9.7 2.7-1 1.1-3.2 7-4.9 13.1-4.3 15.9-21.8 87.7-22.6 93-.6 4-.5 4.5 1.7 5 7.2 2 26.7-.2 34.9-3.9 8.1-3.6 13.3-9.7 19.8-23 5.6-11.5 7.6-14.4 9.8-14.4 2.4 0 1.4 4.6-4.8 22.2-7.4 21-8.6 24-10.2 25-.7.4-20.2.8-43.5.8-36.8 0-42.3-.2-42.8-1.5-1.1-2.6 1.4-4.2 7.7-4.9 8.3-1 8.6-1.2 10.3-6.4C43.9 116.6 67 23.1 67 20.6c0-3.3-1.9-4.6-6.6-4.6-2.3 0-4.9-.3-5.8-.6-2.2-.8-2-4.1.2-4.7 2.6-.7 47.4-.8 50-.1z" fill="#4d394b"/></svg>