<svg xmlns="http://www.w3.org/2000/svg" viewBox="0 0 168 40.9"><path d="M2.9 38.3L.8 33.2H0v6.1h.6v-5l2.1 4.9v.1h.4l2.2-5-.1 2.3v2.7h.7v-6.1h-.8zm7.2-5.2c-.7 0-1.3.3-1.7.7-.4.5-.6 1.1-.6 1.9v1c0 .8.2 1.4.6 1.9.4.5 1 .7 1.7.7s1.3-.2 1.8-.7c.4-.5.7-1.1.7-1.9v-1c0-.8-.2-1.4-.7-1.9-.5-.5-1.1-.7-1.8-.7zm1.7 2.6v1c0 .6-.2 1.1-.5 1.5-.3.4-.7.6-1.3.6-.5 0-1-.2-1.3-.6-.3-.4-.5-.9-.5-1.5v-1c0-.6.2-1.1.5-1.5.3-.4.7-.6 1.3-.6.6 0 1 .2 1.3.6.4.4.5.9.5 1.5zm5.6.4c.2-.1.4-.2.5-.4.2-.2.3-.5.3-.8 0-.5-.2-1-.5-1.2-.4-.3-.9-.4-1.5-.4h-1.8v6.1h2.1c.6 0 1.1-.2 1.4-.4.4-.3.5-.7.5-1.3 0-.4-.1-.7-.4-1-.1-.4-.4-.5-.6-.6zm-2.5-.3v-2.1h1.2c.5 0 .8.1 1.1.3.2.2.3.4.3.8 0 .3-.1.6-.3.8-.2.2-.5.3-1 .3h-1.3zm2.9 1.8c0 .4-.1.6-.4.9-.2.2-.6.3-1 .3h-1.5v-2.3h1.6c.4 0 .7.1.9.3.3.1.4.4.4.8zm2.5-4.4h.6v6.1h-.6zm3.5 0h-.7v6.1h3.6v-.6h-2.9zm7.9 4.1c0 .5-.1.9-.4 1.1-.3.3-.7.4-1.2.4s-.8-.1-1.1-.4c-.3-.3-.4-.6-.4-1.1v-4.1H28v4.1c0 .7.2 1.2.6 1.5.4.4.9.5 1.6.5.7 0 1.2-.2 1.6-.5.4-.4.6-.9.6-1.5v-4.1h-.6v4.1zm6.5.9l-3.3-5h-.6v6.1h.7v-5l3.3 5h.6v-6.1h-.7zm2.9-5h.6v6.1h-.6zm2.1.5h2v5.6h.7v-5.6h2v-.5h-4.7zm9.9-.5l-1.8 3.2-1.8-3.2h-.7L51 37v2.3h.6v-2.2l2.3-3.9zM43.6 7.5l-4.5-4.9-2 5.2.6 4.4-6.7-.4-6.9-7.3L15.7 0 4.3 3.7 0 14.3l6.1 8.8.1.1 8.2 2.7 7.7.3 6.5 2.4 5-2-3.3-3.1L42 14.4h5.4l6.5-6.8H43.6zm8.9.6l-5.4 5.6H42l-1.2-1.2 2.7-4.4h9zM39.3 3.7l3.8 4.1-2.7 4.4-2-.1-.6-4.3m2.6 5.2l1 1.1-11.6 9-2.6-2.5L40.4 13zm-13.3 7v-5.5l3.9-2 8.5.4L27.1 20zm-.3-6.1l-8.4-4.8 5.5-4 6.5 6.9-3.6 1.9zm-16.1 2.8l6.9 4 3.9 4.8-7-.3-8-2.6L1 14.7l9.7 2zm6.5-7.5l-6.5 6.9L.7 14l3.9-9.7 12.6 4.9zm.5-.4L5.3 4 15.5.7l7.7 4.1-5.5 4zm8.8 5.6v5.8h-8.6l-6.6-3.8 6.5-6.9 8.7 4.9zm-4.2 11.2l-3.9-4.8h8.2l5.9 5.5-3.9 1.7-6.3-2.4zM73.6 3.4v4.3c0 .7-.2 1.2-.7 1.6-.4.4-1 .5-1.7.5s-1.3-.2-1.7-.5c-.4-.4-.6-.9-.6-1.6V3.4h.9v4.3c0 .5.1.8.4 1.1.3.2.6.4 1.1.4.5 0 .8-.1 1.1-.4.3-.2.4-.6.4-1.1V3.4h.8zm3 4.1H76v2.2h-.9V3h.9v3.9h.5L77.9 5h1l-1.6 2.1 1.8 2.6h-1l-1.5-2.2zm5.9-1.7h-.4c-.2 0-.4.1-.6.2-.2.1-.3.3-.4.4v3.3h-.9V5h.8l.1.7c.1-.2.3-.4.5-.6.2-.1.4-.2.7-.2h.3l-.1.9zm4 3.9c0-.1-.1-.3-.1-.4V9l-.6.6c-.3.2-.5.2-.8.2-.5 0-.9-.1-1.1-.4-.3-.2-.4-.6-.4-1s.2-.8.5-1c.4-.3.9-.4 1.5-.4h.9v-.5c0-.3-.1-.5-.3-.7s-.4-.2-.7-.2c-.3 0-.5.1-.7.2-.2.1-.3.3-.3.5h-.8c0-.3.1-.7.5-.9.3-.3.8-.4 1.3-.4s1 .1 1.3.4c.3.3.5.7.5 1.2v2.8c0 .2 0 .3.1.5h-.8zm-1.4-.6c.3 0 .6-.1.8-.2.2-.2.4-.3.5-.5v-.9h-1c-.3 0-.6.1-.8.3-.2.2-.3.4-.3.6 0 .2.1.4.2.5.2.1.4.2.6.2zm4.7-5.3H89V3h.9v.8zm0 5.9H89V5h.9v4.7zM92.3 5l.1.7.6-.6c.2-.1.5-.2.8-.2.5 0 .9.1 1.2.4s.4.8.4 1.4v2.9h-.9V6.8c0-.4-.1-.7-.2-.9-.2-.2-.4-.3-.7-.3-.2 0-.5.1-.6.2-.2.1-.3.3-.5.5v3.4h-.9V5h.7zm5.5-1.2H97V3h.9v.8zm0 5.9H97V5h.9v4.7zm4.5 0c0-.1-.1-.3-.1-.4V9l-.6.6c-.3.2-.5.2-.8.2-.5 0-.9-.1-1.1-.4-.3-.2-.4-.6-.4-1s.2-.8.5-1c.4-.3.9-.4 1.5-.4h.9v-.5c0-.3-.1-.5-.3-.7s-.4-.2-.7-.2c-.3 0-.5.1-.7.2-.2.1-.3.3-.3.5h-.8c0-.3.1-.7.5-.9.3-.3.8-.4 1.3-.4s1 .1 1.3.4c.3.3.5.7.5 1.2v2.8c0 .2 0 .3.1.5h-.8zm-1.4-.6c.3 0 .6-.1.8-.2.2-.2.4-.3.5-.5v-.9h-1c-.3 0-.6.1-.8.3-.2.2-.3.4-.3.6 0 .2.1.4.2.5.2.1.4.2.6.2zm4.6-4.1l.1.7.6-.6c.2-.1.5-.2.8-.2.5 0 .9.1 1.2.4s.4.8.4 1.4v2.9h-.9V6.8c0-.4-.1-.7-.2-.9-.2-.2-.4-.3-.7-.3-.2 0-.5.1-.6.2-.2.1-.3.3-.5.5v3.4h-.9V5h.7zm7.4 4.7V3.4h1.9c.8 0 1.5.3 2 .8s.7 1.2.7 2V7c0 .8-.2 1.5-.7 2-.5.5-1.2.8-2 .8h-1.9zm.9-5.6v5h1.1c.6 0 1-.2 1.4-.6.3-.4.5-.9.5-1.5v-.9c0-.6-.2-1.1-.5-1.5-.3-.4-.8-.6-1.4-.6h-1.1zm7.2 5.7c-.7 0-1.2-.2-1.6-.7-.4-.4-.6-1-.6-1.7v-.1c0-.7.2-1.2.6-1.7.4-.4.9-.7 1.4-.7.6 0 1.1.2 1.4.6.3.4.5.9.5 1.5v.5h-3c0 .4.1.8.3 1.1.2.3.5.4.9.4.3 0 .5 0 .8-.1l.6-.3.3.6c-.2.2-.4.3-.7.4-.2.1-.6.2-.9.2zm-.2-4.2c-.3 0-.5.1-.7.4-.2.2-.3.5-.4.9h2.2v-.1c0-.3-.1-.6-.3-.8-.2-.3-.4-.4-.8-.4zm4.8 2.7l.1.3.1-.3 1.1-3.3h.9L126 9.7h-.6L123.6 5h.9l1.1 3.3zm5 1.5c-.7 0-1.2-.2-1.6-.7-.4-.4-.6-1-.6-1.7v-.1c0-.7.2-1.2.6-1.7.4-.4.9-.7 1.4-.7.6 0 1.1.2 1.4.6.3.4.5.9.5 1.5v.5h-3c0 .4.1.8.3 1.1.2.3.5.4.9.4.3 0 .5 0 .8-.1l.6-.3.3.6c-.2.2-.4.3-.7.4-.1.1-.5.2-.9.2zm-.1-4.2c-.3 0-.5.1-.7.4-.2.2-.3.5-.4.9h2.2v-.1c0-.3-.1-.6-.3-.8-.2-.3-.4-.4-.8-.4zm4.2 4.1h-.9V3h.9v6.7zm1.5-2.4c0-.7.2-1.3.6-1.7.4-.4.9-.7 1.5-.7s1.2.2 1.5.7c.4.4.6 1 .6 1.7v.1c0 .7-.2 1.3-.6 1.7-.4.4-.9.7-1.5.7s-1.2-.2-1.5-.7c-.4-.4-.6-1-.6-1.8zm.9.1c0 .5.1.9.3 1.2.2.3.5.5.9.5s.7-.2.9-.5c.2-.3.3-.7.3-1.2v-.1c0-.5-.1-.9-.3-1.2-.2-.3-.5-.5-.9-.5s-.7.2-.9.5c-.2.3-.3.7-.3 1.3zm8.7.1c0 .7-.2 1.2-.5 1.6-.3.4-.8.6-1.3.6-.3 0-.5 0-.8-.1s-.4-.2-.6-.4v2.3h-.9V5h.7l.1.6c.2-.2.3-.4.6-.5.2-.1.5-.2.8-.2.6 0 1 .2 1.3.7.5.5.6 1.1.6 1.9zm-.8-.1c0-.5-.1-1-.3-1.3-.2-.3-.5-.5-.9-.5-.2 0-.5.1-.6.2-.2.1-.3.3-.4.5v2.3c.1.2.2.3.4.5.2.1.4.2.6.2.4 0 .7-.1.9-.4.2-.5.3-.9.3-1.5zm3.1-2.4l.1.6c.2-.2.3-.4.6-.5.2-.1.5-.2.8-.2.3 0 .6.1.8.2.2.1.4.4.5.6.1-.3.3-.5.6-.6.2-.2.5-.2.8-.2.5 0 .9.2 1.1.5.3.3.4.8.4 1.5v2.8h-.8V6.9c0-.5-.1-.8-.2-1-.2-.2-.4-.3-.7-.3-.3 0-.5.1-.7.3-.2.2-.3.5-.3.8v3h-.9V6.9c0-.4-.1-.8-.2-1-.2-.2-.4-.3-.7-.3-.3 0-.5.1-.6.2-.2.1-.3.3-.4.4v3.5h-.9V5h.7zm9.3 4.8c-.7 0-1.2-.2-1.6-.7-.4-.4-.6-1-.6-1.7v-.1c0-.7.2-1.2.6-1.7.4-.4.9-.7 1.4-.7.6 0 1.1.2 1.4.6.3.4.5.9.5 1.5v.5h-3c0 .4.1.8.3 1.1.2.3.5.4.9.4.3 0 .5 0 .8-.1l.6-.3.3.6c-.2.2-.4.3-.7.4-.2.1-.5.2-.9.2zm-.2-4.2c-.3 0-.5.1-.7.4-.2.2-.3.5-.4.9h2.2v-.1c0-.3-.1-.6-.3-.8-.1-.3-.4-.4-.8-.4zm4.1-.6l.1.7.6-.6c.2-.1.5-.2.8-.2.5 0 .9.1 1.2.4s.4.8.4 1.4v2.9h-.9V6.8c0-.4-.1-.7-.2-.9-.2-.2-.4-.3-.7-.3-.2 0-.5.1-.6.2-.2.1-.3.3-.5.5v3.4h-.9V5h.7zm5.8-1.1V5h.9v.6h-.9v2.8c0 .2 0 .4.1.5.1.1.2.1.4.1h.4l.1.6c-.1.1-.2.1-.3.1h-.4c-.3 0-.6-.1-.8-.3-.2-.2-.3-.5-.3-1V5.6h-.7V5h.7V3.9h.8zM70.3 21.8l.1.8.2-.8 1.2-4.1h.8l1.2 4.1.2.8.1-.8.9-4.1h.9L74.2 24h-.8l-1.2-4.4-.1-.6-.1.6-1.3 4.4H70l-1.5-6.3h.8l1 4.1zm8.7 2.3c-.7 0-1.2-.2-1.6-.7-.4-.4-.6-1-.6-1.7v-.2c0-.7.2-1.2.6-1.7.4-.4.9-.7 1.4-.7.6 0 1.1.2 1.4.6.3.4.5.9.5 1.5v.5h-3c0 .4.1.8.3 1.1s.5.4.9.4c.3 0 .5 0 .8-.1l.6-.3.3.6c-.2.2-.4.3-.7.4-.2.2-.5.3-.9.3zm-.1-4.2c-.3 0-.5.1-.7.4-.2.2-.3.5-.4.9H80v-.1c0-.3-.1-.6-.3-.8-.2-.3-.5-.4-.8-.4zm6.2 2.8c0-.2-.1-.3-.2-.5-.1-.1-.4-.2-.8-.3-.6-.1-1-.3-1.3-.5-.3-.2-.4-.5-.4-.9s.2-.7.5-1c.3-.3.7-.4 1.3-.4.5 0 1 .1 1.3.4.3.3.5.6.5 1h-.8c0-.2-.1-.4-.3-.6-.2-.2-.4-.2-.7-.2-.3 0-.5.1-.7.2-.1.1-.2.3-.2.5s.1.3.2.4c.1.1.4.2.8.3.6.1 1 .3 1.3.5s.4.5.4.9-.2.7-.5 1c-.3.3-.8.4-1.3.4-.6 0-1.1-.2-1.4-.5-.3-.3-.5-.7-.5-1.1h.8c0 .3.1.5.3.7.2.1.5.2.7.2.3 0 .5-.1.7-.2s.3-.1.3-.3zm3.8-4.5v1.1h.9v.6h-.9v2.8c0 .2 0 .4.1.5.1.1.2.1.4.1h.4l.1.6c-.1.1-.2.1-.3.1h-.4c-.3 0-.6-.1-.8-.3-.2-.2-.3-.5-.3-1v-2.8h-.7v-.6h.6v-1.1h.9zm4.3 5.9c-.7 0-1.2-.2-1.6-.7-.4-.4-.6-1-.6-1.7v-.2c0-.7.2-1.2.6-1.7.4-.4.9-.7 1.4-.7.6 0 1.1.2 1.4.6.3.4.5.9.5 1.5v.5h-3c0 .4.1.8.3 1.1s.5.4.9.4c.3 0 .5 0 .8-.1l.6-.3.3.6c-.2.2-.4.3-.7.4-.1.2-.5.3-.9.3zm-.1-4.2c-.3 0-.5.1-.7.4-.2.2-.3.5-.4.9h2.2v-.1c0-.3-.1-.6-.3-.8-.2-.3-.4-.4-.8-.4zm5.9.2h-.4c-.2 0-.4.1-.6.2-.2.1-.3.3-.4.4V24h-.9v-4.7h.8l.1.7c.1-.2.3-.4.5-.6.2-.1.4-.2.7-.2h.3l-.1.9zm2.3-.8l.1.7.6-.6c.2-.1.5-.2.8-.2.5 0 .9.1 1.2.4.3.3.4.8.4 1.4v3h-.9v-3c0-.4-.1-.7-.2-.9s-.4-.3-.7-.3c-.2 0-.5.1-.6.2-.2.1-.3.3-.5.5V24h-.9v-4.7h.7zm9.1-1.6l2 5.1 2-5.1h1.1V24h-.9v-2.5l.1-2.6-2 5h-.6l-2-5 .1 2.5V24h-.9v-6.3h1.1zm10.1 6.3c0-.1-.1-.3-.1-.4v-.3l-.6.6c-.3.2-.5.2-.8.2-.5 0-.9-.1-1.1-.4-.3-.2-.4-.6-.4-1s.2-.8.5-1c.4-.3.9-.4 1.5-.4h.9v-.5c0-.3-.1-.5-.3-.7-.2-.2-.4-.2-.7-.2-.3 0-.5.1-.7.2-.2.1-.3.3-.3.5h-.8c0-.3.1-.7.5-.9.3-.3.8-.4 1.3-.4s1 .1 1.3.4c.3.3.5.7.5 1.2v2.6c0 .2 0 .3.1.5h-.8zm-1.5-.6c.3 0 .6-.1.8-.2.2-.2.4-.3.5-.5v-.8h-1c-.3 0-.6.1-.8.3-.2.2-.3.4-.3.6 0 .2.1.4.2.5.2 0 .4.1.6.1zm4.9-4.1l.1.7.6-.6c.2-.1.5-.2.8-.2.5 0 .9.1 1.2.4.3.3.4.8.4 1.4v3h-.9v-3c0-.4-.1-.7-.2-.9-.2-.2-.4-.3-.7-.3-.2 0-.5.1-.6.2-.2.1-.3.3-.5.5V24h-.9v-4.7h.7zm7.8 4.7c0-.1-.1-.3-.1-.4v-.3l-.6.6c-.3.2-.5.2-.8.2-.5 0-.9-.1-1.1-.4-.3-.2-.4-.6-.4-1s.2-.8.5-1c.4-.3.9-.4 1.5-.4h.9v-.5c0-.3-.1-.5-.3-.7-.2-.2-.4-.2-.7-.2-.3 0-.5.1-.7.2-.2.1-.3.3-.3.5h-.8c0-.3.1-.7.5-.9.3-.3.8-.4 1.3-.4s1 .1 1.3.4c.3.3.5.7.5 1.2v2.6c0 .2 0 .3.1.5h-.8zm-1.4-.6c.3 0 .6-.1.8-.2.2-.2.4-.3.5-.5v-.8h-1c-.3 0-.6.1-.8.3-.2.2-.3.4-.3.6 0 .2.1.4.2.5.2 0 .3.1.6.1zm3.9-1.7c0-.8.2-1.4.5-1.8.3-.5.8-.7 1.4-.7.3 0 .6.1.8.2.2.1.4.3.6.5l.1-.6h.7V24c0 .6-.2 1.1-.5 1.4-.3.3-.9.5-1.5.5-.2 0-.5 0-.7-.1-.3-.1-.5-.1-.7-.3l.2-.7c.2.1.3.2.6.2.2.1.4.1.6.1.4 0 .7-.1.9-.3.2-.2.3-.5.3-.9v-.5c-.2.2-.3.3-.5.4-.2.1-.5.1-.7.1-.6 0-1-.2-1.4-.6-.5-.3-.7-.8-.7-1.6zm.9.1c0 .5.1.8.3 1.1.2.3.5.4.9.4.3 0 .5-.1.6-.2.2-.1.3-.3.4-.5v-2.2c-.1-.2-.3-.4-.4-.5-.2-.1-.4-.2-.6-.2-.4 0-.7.2-.9.5-.2.6-.3 1-.3 1.6zm7 2.3c-.7 0-1.2-.2-1.6-.7-.4-.4-.6-1-.6-1.7v-.2c0-.7.2-1.2.6-1.7.4-.4.9-.7 1.4-.7.6 0 1.1.2 1.4.6.3.4.5.9.5 1.5v.5h-3c0 .4.1.8.3 1.1.2.3.5.4.9.4.3 0 .5 0 .8-.1l.6-.3.3.6c-.2.2-.4.3-.7.4-.2.2-.5.3-.9.3zm-.2-4.2c-.3 0-.5.1-.7.4-.2.2-.3.5-.4.9h2.2v-.1c0-.3-.1-.6-.3-.8-.1-.3-.4-.4-.8-.4zm4.4-.6l.1.6c.2-.2.3-.4.6-.5.2-.1.5-.2.8-.2.3 0 .6.1.8.2.2.1.4.4.5.6.1-.3.3-.5.6-.6.2-.2.5-.2.8-.2.5 0 .9.2 1.1.5.3.3.4.8.4 1.5V24h-.9v-2.8c0-.5-.1-.8-.2-1-.2-.2-.4-.3-.7-.3-.3 0-.5.1-.7.3-.2.2-.3.5-.3.8v3h-.9v-2.8c0-.4-.1-.8-.2-1-.2-.2-.4-.3-.7-.3-.3 0-.5.1-.6.2-.2.1-.3.3-.4.4V24h-.9v-4.7h.8zm9.6 4.8c-.7 0-1.2-.2-1.6-.7-.4-.4-.6-1-.6-1.7v-.2c0-.7.2-1.2.6-1.7.4-.4.9-.7 1.4-.7.6 0 1.1.2 1.4.6.3.4.5.9.5 1.5v.5h-3c0 .4.1.8.3 1.1.2.3.5.4.9.4.3 0 .5 0 .8-.1l.6-.3.3.6c-.2.2-.4.3-.7.4-.1.2-.5.3-.9.3zm-.1-4.2c-.3 0-.5.1-.7.4-.2.2-.3.5-.4.9h2.2v-.1c0-.3-.1-.6-.3-.8-.2-.3-.4-.4-.8-.4zm4.4-.6l.1.7.6-.6c.2-.1.5-.2.8-.2.5 0 .9.1 1.2.4.3.3.4.8.4 1.4v3h-.9v-3c0-.4-.1-.7-.2-.9s-.4-.3-.7-.3c-.2 0-.5.1-.6.2-.2.1-.3.3-.5.5V24h-.9v-4.7h.7zm6.1-1.1v1.1h.9v.6h-.9v2.8c0 .2 0 .4.1.5.1.1.2.1.4.1h.4l.1.6c-.1.1-.2.1-.3.1h-.4c-.3 0-.6-.1-.8-.3s-.3-.5-.3-1v-2.8h-.7v-.6h.7v-1.1h.8zM73.6 37.4c-.1.2-.4.4-.8.6-.4.2-.8.3-1.4.3-.8 0-1.4-.2-1.9-.7-.5-.5-.7-1.1-.7-1.9v-1.3c0-.8.2-1.4.7-1.9.5-.5 1-.7 1.8-.7.7 0 1.3.2 1.7.5.4.4.6.8.6 1.4h-.8c0-.4-.2-.7-.4-.9-.3-.2-.6-.4-1.1-.4-.5 0-.9.2-1.2.5-.3.4-.4.8-.4 1.4v1.3c0 .6.2 1 .5 1.4.3.4.7.5 1.3.5.4 0 .6 0 .9-.1.2-.1.4-.2.5-.3v-1.4h-1.4V35h2.2v2.4zm2.8.9h-.9v-6.7h.9v6.7zm1.8-2.4c0-.7.2-1.3.6-1.7.4-.4.9-.7 1.5-.7s1.2.2 1.5.7c.4.4.6 1 .6 1.7v.1c0 .7-.2 1.3-.6 1.7-.4.4-.9.7-1.5.7s-1.2-.2-1.5-.7c-.4-.5-.6-1-.6-1.8zm.9.1c0 .5.1.9.3 1.2.2.3.5.5.9.5s.7-.2.9-.5c.2-.3.3-.7.3-1.2v-.1c0-.5-.1-.9-.3-1.2-.2-.3-.5-.5-.9-.5s-.7.2-.9.5c-.2.3-.3.7-.3 1.3zm9.1.1c0 .7-.2 1.2-.5 1.6-.3.4-.8.6-1.3.6-.3 0-.6-.1-.8-.2-.2-.1-.4-.3-.6-.5l-.1.6h-.7v-6.7h.8v2.6c.1-.2.3-.4.5-.5.2-.1.5-.2.8-.2.6 0 1 .2 1.3.7s.6 1.2.6 2zm-.9-.1c0-.5-.1-1-.3-1.3-.2-.3-.5-.5-.9-.5-.3 0-.5.1-.7.2-.2.1-.3.3-.4.5v2c.1.2.3.4.4.5.2.1.4.2.7.2.4 0 .7-.1.9-.4.2-.2.3-.6.3-1.2zm5.4 2.3c0-.1-.1-.3-.1-.4v-.3l-.6.6c-.3.2-.5.2-.8.2-.5 0-.9-.1-1.1-.4-.3-.2-.4-.6-.4-1s.2-.8.5-1c.4-.3.9-.4 1.5-.4h.9v-.5c0-.3-.1-.5-.3-.7-.2-.2-.4-.2-.7-.2-.3 0-.5.1-.7.2-.2.1-.3.3-.3.5H90c0-.3.1-.7.5-.9.3-.3.8-.4 1.3-.4s1 .1 1.3.4c.3.3.5.7.5 1.2V38c0 .2 0 .3.1.5h-1zm-1.4-.7c.3 0 .6-.1.8-.2.2-.2.4-.3.5-.5v-.8h-1c-.3 0-.6.1-.8.3-.2.2-.3.4-.3.6 0 .2.1.4.2.5.2.1.4.1.6.1zm5 .7h-.9v-6.7h.9v6.7zm5.1 0V32h1.9c.8 0 1.5.3 2 .8s.7 1.2.7 2v.9c0 .8-.2 1.5-.7 2-.5.5-1.2.8-2 .8h-1.9zm.9-5.7v5h1.1c.6 0 1-.2 1.4-.6.3-.4.5-.9.5-1.5v-.9c0-.6-.2-1.1-.5-1.5-.3-.4-.8-.6-1.4-.6h-1.1zm7.5 5.8c-.7 0-1.2-.2-1.6-.7-.4-.4-.6-1-.6-1.7v-.2c0-.7.2-1.2.6-1.7.4-.4.9-.7 1.4-.7.6 0 1.1.2 1.4.6.3.4.5.9.5 1.5v.5h-3c0 .4.1.8.3 1.1s.5.4.9.4c.3 0 .5 0 .8-.1l.6-.3.3.6c-.2.2-.4.3-.7.4-.2.2-.5.3-.9.3zm-.1-4.2c-.3 0-.5.1-.7.4-.2.2-.3.5-.4.9h2.2v-.1c0-.3-.1-.6-.3-.8-.2-.3-.5-.4-.8-.4zm4.5 4.1h-.9v-6.7h.9v6.7zm2.9-5.9h-.9v-.9h.9v.9zm0 5.9h-.9v-4.7h.9v4.7zm3.5-1.4l.1.3.1-.3 1.1-3.3h.9l-1.7 4.7h-.6l-1.7-4.7h.9l.9 3.3zm5.4 1.5c-.7 0-1.2-.2-1.6-.7-.4-.4-.6-1-.6-1.7v-.2c0-.7.2-1.2.6-1.7.4-.4.9-.7 1.4-.7.6 0 1.1.2 1.4.6.3.4.5.9.5 1.5v.5h-3c0 .4.1.8.3 1.1s.5.4.9.4c.3 0 .5 0 .8-.1l.6-.3.3.6c-.2.2-.4.3-.7.4-.2.2-.5.3-.9.3zm-.1-4.2c-.3 0-.5.1-.7.4-.2.2-.3.5-.4.9h2.2v-.1c0-.3-.1-.6-.3-.8-.2-.3-.5-.4-.8-.4zm5.8.1h-.4c-.2 0-.4.1-.6.2-.2.1-.3.3-.4.4v3.3h-.9v-4.7h.8l.1.7c.1-.2.3-.4.5-.6.2-.1.4-.2.7-.2h.3l-.1.9zm3.3 2.2l.2.6 1.1-3.5h.9l-2 5.4c-.1.3-.3.6-.5.8-.2.2-.5.3-.9.3h-.5l.1-.7h.4c.2 0 .3-.1.4-.2.1-.2.2-.3.3-.5l.2-.5-1.7-4.6h1l1 2.9zM61.1 1.1h.6v39.8h-.6z" fill="#253746"/></svg>