<svg xmlns="http://www.w3.org/2000/svg" viewBox="0 0 320 320"><path d="M0 0h320v320H0z" fill="#00ab57"/><path d="M267.75 143.34c.58-.44.98-1.04 1.55-1.51.75-.61 1.36-1.38 1.99-2.12.47-.55.86-1.15 1.3-1.72l1.63-2.08 2.42-3.83c1.45-2.42 2.75-4.91 3.62-7.58l-.04-.26-.7-.42-.06.11c-.13 0-.27-.02-.4-.03-.19-.02-.38-.06-.57-.09l-.61-.1c-.18-.27-.45-.3-.9.08l.12-.53-.12-.07-.41.65c-.04-.01-.09-.03-.13-.04l.13-.94c-.04 0-.08-.02-.12-.03l-.31.52-.4-.39c-.06-.05-.16-.13-.21-.12-.23.08-.45.18-.59.25l-.98-.24-.41-.71-.46.31-.31-.14.15-.69c-.06-.01-.11-.02-.17-.04l-.53 1.01h-.08l.09-.91c-.04 0-.07 0-.11-.01l-.28.46c-.21-.48-.43-.62-.79-.57a1.44 1.44 0 00-.47-.22c-.25-.08-.55-.1-.73-.25-.52-.42-.98-.34-1.27.26l-2.75 5.6c-.79 1.45-1.76 2.81-2.65 4.2l-.7.98-2.56 3.07c-.42.49-.89.93-1.34 1.4l-.67.7-1.66 1.51c-.46.38-1.01.67-1.45 1.06-.69.62-1.47 1.12-2.24 1.63-.09.06-.2.08-.33.14-.03-.11-.06-.16-.05-.21l.57-5.01.68-5.8.69-6.36.59-4.75.49-4.57.51-4.54.5-4.24c.03-.26-.49-.83-.7-.72-.41.24-.7.05-1.04-.13-.13-.07-.33-.02-.55-.02-.23-.29-.54-.27-.87.04l-.01-.52c-.04 0-.08-.02-.13-.02l-.31.67c-.07-.21-.05-.38-.05-.55v-.53c-.04 0-.08-.02-.12-.02l-.36.8c-.16-.24-.23-.39-.34-.51-.07-.08-.25-.2-.29-.18-.21.15-.4.34-.6.52l-.21-.35c-.35.13-.53-.1-.77-.29-.17-.14-.28-.47-.64-.32-.07.03-.25-.12-.34-.22-.06-.07-.06-.2-.08-.31-.04 0-.07-.02-.11-.02l-.44.8-.13-.8-.28.36-.52-.65-.3.31c-.16-.13-.08-.62-.51-.29 0 0-.17-.1-.16-.15.06-.46-.25-.35-.51-.32v-.4c-.51 0-1.15.37-1.33.85-.15.41-.28.84-.33 1.27l-.98 8.67-.74 6.76-.8 6.88-.59 5.38-.55 4.32-.58 5.15-.81 7.24-.77 7.03-.7 5.81-1.07 9.66c-.03.29-.05.64.29.76l2.48.76c.41.12.85.17 1.27.29l2.13.66 1.43.38 3.06 1.11c.63.22.84.15.96-.48l.6-3.86.77-7.08.42-3.72.25-1.98.39-3.51.29-2.82.35-2.71 2.96 2.79 4.98 4.95c2.13 2.1 5.58 6.1 7.72 8.19l4.94 4.8c.52.51 1.03 1.03 1.57 1.51.32.28.79.23 1.11-.05l1.48-1.34 2-1.9a43.56 43.56 0 011.94-1.66l2.4-1.89c.59-.49.6-.58.07-1.12-.63-.65-1.3-1.25-1.94-1.88-2.22-2.18-5.74-6.28-7.96-8.46l-3.17-3.09-4.48-4.39c.4-.35.77-.7 1.17-1.02.53-.42 1.07-.83 1.6-1.23h.01zm-99.16-1.54c.16-.55.27-1.11.33-1.67.03-.31-.05-.64-.17-.93-.07-.18-.24-.39-.55-.13-.16.14-.46.13-.76.21l-.12-.14-.21-.12c-.04.17-.09.34-.13.51-.02 0-.04-.01-.05-.02-.01-.14-.03-.28-.05-.49l-1.24.36c0-.15 0-.3-.01-.46-.62.25-1.25-.05-1.83.22-.22-.28-.32.05-.44.09l-.5-.82-.28.47a.77.77 0 00-.15.02l-.25-.81-.36.95-.09-.02v-.65h-.09a19.23 19.23 0 01-.23.41c-.07-.12-.11-.3-.18-.32-.3-.06-.61-.09-.91-.17-.27-.07-.64-.13-.9-.31-.06-.04-.18-.04-.26-.02-.32.09-.58.23-.68.58l-1.23 4.24-1.31 4.62-1.55 5.25-2.22 7.77-2.39 8.08-1.12 3.89-1.61 5.6c-.12.4-.26.78-.39 1.17-.2-.93-.29-1.86-.39-2.78l-.37-3.02-.25-2.33-.4-3.55-.27-3.17-.42-4.15c-.13-1.13-.32-2.25-.42-3.38-.11-1.27-.12-2.55-.22-3.82-.11-1.44-.26-2.88-.43-4.32-.04-.32-.19-.66-.39-.92-.11-.15-.4-.18-.62-.27-.3-.19-.59-.41-.92-.57-.57-.29-1.16-.57-1.75-.83-.44-.19-.89-.34-1.34-.5-.26-.09-.56-.04-.8-.09-.73-.16-1.52-.19-2.14-.69-.21-.17-.49-.29-.58-.01-1.27.16-2.2-.48-3.21-.89-.26.06-.54.14-.77.08-.63-.17-1.26-.35-1.86-.61-.7-.3-1.11-.15-1.29.59-.05.19-.09.37-.15.55l-1.51 4.6c-.39 1.29-.72 2.6-1.07 3.91l-1.49 5.59-1.76 6.45-1.64 6.27-1.68 5.98-1.79 6.74c-.1.37-.23.73-.35 1.1-.07-.35-.04-.68-.08-1.01l-.41-3.74-.49-3.65c-.14-1.21-.23-2.43-.35-3.64l-.26-2.34-.71-6.94-.46-4.01-.4-2.89c-.08-.71-.1-1.42-.17-2.13a66.16 66.16 0 00-.32-2.79c-.24-1.66-.12-3.36-.72-4.96-.07-.19-.25-.34-.44-.59l-.17.46c-.29-.35-.48-.14-.68.16-.32-.59-.36.02-.54.09-.06-.15-.1-.28-.17-.46l-.51.44c-.07-.1-.14-.19-.21-.28-.11.1-.19.18-.3.29-.05-.21-.1-.37-.11-.44-.37.02-.7.01-1.03.06-.15.02-.3.13-.45.2-.09-.25-.23-.13-.33 0-.53.06-.74-.36-1.09-.63-.07.18-.11.3-.15.41-.04 0-.07.02-.11.03-.04-.11-.08-.21-.13-.32-.06-.12-.13-.23-.2-.35-.05.02-.09.03-.14.04l-.08.87h-.14l-.12-.74h-.11c-.05.12-.1.23-.1.23l-1.22-.28c-.27-.06-.56-.05-.81-.14-.5-.2-.88-.07-.96.45-.06.37-.04.75 0 1.12l.44 4.4.62 5.81.78 6.87.49 4.4.8 7.41c.06.5.16 1 .21 1.5.05.49.03.99.09 1.48l.7 6.27.6 5.3a1.33 1.33 0 001 1.08l3.7.74 1.85.35c.61.11 1.21.26 1.82.31 1.08.09 2.18.03 3.25.18 1.83.24 3.65.63 5.48.89 1.13.15 1.23.31 1.56-.92l1.26-4.69 1.86-6.99 2.54-9.37 1.49-5.57 1.43-5.23.25-.89c.19 1.02.27 2.03.37 3.03l.59 5.7.55 5.18.55 5.23.76 7.06c.03.26.1.41.36.47.81.2 1.64.35 2.41.64.78.29 1.63.06 2.4.51.45.27 1.1.26 1.66.34.88.11 1.77.31 2.64.26 1.32-.08 2.59.17 3.87.34 1.09.15 2.16.39 3.25.57.94.15 1.1.05 1.37-.85l1.26-4.32 2.02-6.96 1.59-5.57 1.83-6.16 2.33-8.1 2.23-7.68 2.59-8.87h.01zm64.92 3.67c.01-.62.17-1.84.14-2.46-.1-1.64-.15-3.87-.55-5.47-.36-1.47-.82-2.9-1.53-4.23-.49-.92-.94-1.88-1.77-2.59-.37-.32-.66-.74-1.02-1.08-.2-.19-.46-.31-.69-.46-.15-.1-.3-.21-.47-.27-.47-.18-1.03-.25-1.42-.54-.7-.54-1.59-.3-2.33-.64-.21-.1-.48-.07-.68-.17-.4-.2-.75-.25-1.1.07-.54-.29-1.12-.29-1.7-.23-.37.04-.73.12-1.1.19l-2.36.51c-.03 0-.1.06-.09.07.09.35-.27.32-.4.34-.7.1-1.35.25-1.96.66-.43.29-.98.4-1.47.62-.23.1-.42.28-.65.36-.52.16-1.04.29-1.48.64-.12.09-.25.17-.39.22l-1.81.69-1.05.43-1.13.49a1.22 1.22 0 01-.26.06c-.78.05-1.38.55-2.07.8-.17.06-.41.09-.5.21-.4.54-1.14.56-1.57 1.03-.22.24-.46.47-.72.68-.48.4-1 .76-1.44 1.19-.53.52-1 1.1-1.49 1.67-.29.34-.6.67-.84 1.05-.38.62-.67 1.3-1.08 1.91-.49.73-.95 2.1-1.24 2.91-.09.25-.16.51-.21.69-.17.23-.35.38-.4.56-.27.87-.51 1.74-.75 2.61-.19.68-.41 1.36-.56 2.04-.12.53-.11 1.66-.36 2.22-.3.66-.31 1.45-.4 2.19-.1.81-.1 1.63-.24 2.43-.11.63.2 1.22 0 1.87-.17.53-.15 1.13-.16 1.69-.02.77 0 1.54.03 2.31.01.4.2 1.55.23 1.95.07.91.16 2.59.34 3.48.28 1.32.61 2.65 1.09 3.91.46 1.19 1.09 2.32 1.74 3.41.77 1.28 1.78 2.58 3.08 3.41.64.41 1.28.84 1.94 1.22.35.21.8.28 1.1.53.59.49 1.26.81 2 .99.6.15 1.22.27 1.83.27.6 0 1.22.38 1.82-.05.07-.05.23.02.35.04.16.02.33.07.49.06.65-.08 1.22-.56 1.93-.37.03 0 .06 0 .09-.02l2.4-.83c.37-.13.72-.3 1.09-.43.65-.23 1.32-.4 1.94-.68l6.53-3.03c.86-.4 1.73-.8 2.57-1.25.52-.28.96-.84 1.44-1.18.4-.28.79-.59 1.19-.87.23-.16.47-.3.23-.69 1.09-.04 1.13-1.17 1.86-1.6.04-.02.05-.1.08-.15.12-.16.25-.31.37-.47.09-.11.17-.23.26-.33.27-.3.23-.78.66-.99.1-.05.12-.23.18-.35.18-.38.42-.74.54-1.13.14-.43.27-.85.53-1.22.5-.71.15-1.69.81-2.35.02-.02 0-.09 0-.13.06-.41.01-.87.2-1.21.42-.79.18-1.45-.18-2.13-.24-.44-1.05-.48-1.38-.11-.17.19-.4.33-.62.47a15.53 15.53 0 01-.99.53c-.11.06-.24.08-.36.12-.05-.03-.09-.06-.14-.09l-.04.71-.45-.75-.11.02c-.02.16-.01.34-.08.49-.04.08-.2.13-.31.16-.11.04-.28 0-.35.06-.3.3-.38.86-1.01.78-.05.1-.11.2-.17.3-.01 0-.02-.02-.04-.02-.21-.12-.41-.26-.64-.34-.03-.01-.16.25-.26.36-.08.09-.2.14-.3.21l-.34-.58-.1.03c-.04.18-.07.37-.11.58l-.33-.13c-.04.17-.07.32-.1.47-.31-.2-.62-.1-.76.15-.21 0-.47-.05-.5.01-.22.4-.6.35-.96.42-.27.05-.58.23-.75.44-.14.18-.07.49-.14.73-.27 1.01-.52 2.02-.83 3.02-.19.6-.45 1.18-.7 1.76-.08.2-.2.38-.31.58l-.82 1.43c-.24.43-.52.84-.82 1.24-.42.56-.86 1.1-1.56 1.05-.09 0-.18-.02-.27 0-.84.1-1.68-.24-2.47-.49-.34-.11-.69-.16-1.03-.27-.53-.17-1.12-.27-1.56-.57-1-.67-1.99-1.38-2.88-2.18-1-.9-1.62-2.07-2.11-3.3-.56-1.44-.97-3.7-1.2-5.22-.11-.73-.22-2.23-.23-2.98-.02-.94 0-1.88 0-2.82 0-.58-.06-1.15-.03-1.73.04-.79.14-1.58.22-2.37.03-.28.08-.56.12-.85l.25-2.32c.04-.28.27-1.14.33-1.42.12-.57.21-1.15.33-1.72.12-.55.45-1.69.5-2.25.03-.35-.03-.68.29-.94.1-.08.17-.21.21-.33l.61-1.93c.1-.28.25-.55.35-.83.1-.31.16-.64.23-.96.03.02.05.04.08.06l.45-.69 1.01-1.57c.19-.28.49-.51.6-.81.25-.68.79-1.17 1.27-1.62.54-.51 1.4-.39 2.14-.24.12.02.23.06.35.06.44.03.9-.02 1.33.08.45.1.86.36 1.31.49.53.16.98.39 1.37.78.32.33.74.57 1.06.9.84.88 1.48 1.9 1.83 3.06.27.9.43 2.41.6 3.33.15.82.19 1.67.25 2.5.05.71 0 2.02 0 2.73 0 .87-.04 1.73-.09 2.6-.03.72-.09 1.43-.15 2.14-.03.38-.09.75-.18 1.12-.15.6-.3 1.19.03 1.77.11.19.26.36.34.56.15.36.43.36.71.23.75-.35 1.48-.72 2.22-1.09l3.96-1.98c1.12-.52 2.3-.92 3.44-1.39.55-.23 1-.55.92-1.24-.03-.24.01-.5.05-.75.09-.66.24-1.32.29-1.98.06-.91.05-1.83.07-2.74zm-46.47-7.91l-.18.3c-.11-.06-.2-.15-.28-.15-.5-.02-.97-.11-1.45-.26-.14-.04-.32.04-.51.07 0-.08-.02-.26-.03-.43l-.1-.03-.33.66c-.02-.01-.05-.02-.07-.03l.04-1.06c-.32.27-.29.78-.8.56 0-.13-.02-.27-.03-.55l-.87.58c-.11-.16-.19-.47-.43-.23l-.49-.27c-.2-.11-.39-.24-.6-.35-.16-.09-.33-.16-.48-.26-.08-.05-.12-.13-.21-.24l-.27.68c-.31-.03.06-.86-.48-.41l-.65-.54-.22.43c-.1-.21-.2-.39-.29-.58-.11.09-.2.16-.19.15-.28-.19-.48-.32-.73-.48 0 0 0-.1.02-.27-.25.07-.49.09-.65.2-.61.46-.81 1.11-.88 1.83l-.74 7.24-.51 4.68-.77 7.45-.81 7.85-.74 6.81-1.37 11.86c-.04.39.11.57.48.64l2.82.52c1.09.23 2.18.47 3.26.74l3.94 1c1.04.26 1.13.23 1.26-.83l.84-7.2.86-7.5.55-5.36.61-5.35.66-6.66.71-6.65.79-7.26c.08-.65-.16-.99-.67-1.28zm-8.33-8.88c.76.16 1.52.26 2.27.45.58.15 1.12.48 1.71.57 1.28.21 2.37.85 3.56 1.24.53.17 1.04.39 1.57.55a.52.52 0 00.47-.18c.14-.23.22-.52.26-.78.26-1.69.55-3.38.72-5.08.26-2.51.34-5.59.57-8.1.05-.61.13-1.19-.73-1.34-.04.02-.11.11-.2.12-.49.08-.87-.29-1.37-.3-.3 0-.56-.15-.81.17l-.1-.62h-.09c-.09.24-.17.49-.26.73l-.1-.03c0-.37-.02-.74-.03-1.2-.32.25-.15.88-.65.64-.12-.2-.21-.34-.3-.48l-.7.49c-.03-.03-.13-.22-.23-.23-.48 0-.83-.15-.98-.63-.03-.11-.16-.18-.28-.31l-.21.39c-.64-.05-.17-.61-.5-.88l-.34 1.09c-.04 0-.08-.02-.12-.03l-.05-.88h-.11l-.26.61-.09-.55c-.18-.05-.35-.08-.51-.14-.15-.06-.28-.16-.43-.23-.03-.02-.09-.03-.13-.02-.39.15-.64-.08-.92-.27-.61-.4-1.02-.25-1.18.44a9.33 9.33 0 00-.21 1.39l-.34 4.77-.71 7.22c-.02.18 0 .42.11.56.4.56 1.05.71 1.69.84zm-65.23 70.99c-.3-.06-.5-.21-1.28-.53-5.78-2.73-13.07-1.4-19.04.15-6.07 1.57-11.83 4-17.78 5.9l.68-.72 6.8-7.03a2.39 2.39 0 00.36-.49 21.06 21.06 0 00.93-.96c1.19-1.28 2.29-2.7 3.37-4.19 1.01-1.4 1.91-2.92 2.81-4.49.76-1.33 1.45-2.76 2.09-4.16.65-1.39 1.22-2.83 1.76-4.27.54-1.43 1.19-2.85 1.62-4.32s.72-2.96 1.03-4.44c.32-1.49.66-2.98.86-4.47.2-1.51.2-3.02.28-4.51.08-1.52.22-3.03.17-4.51 0-.02-.03-.02-.03-.03 0-.02.02-.02.02-.03-.04-1.03-.1-2.04-.22-3.02-.16-1.53-.38-2.99-.65-4.38-.3-1.51-.82-2.9-1.25-4.25-.48-1.47-1.05-2.83-1.69-4.1-.7-1.39-1.34-2.73-2.24-3.88-.96-1.23-2.03-2.27-3.24-3.25s-2.53-1.84-3.97-2.52c-1.25-.64-2.63-1.11-4.1-1.43-1.38-.3-2.87-.44-4.41-.45-1.43 0-2.93.05-4.46.3-1.36.21-2.73.68-4.05 1.07-1.31.39-2.61.87-3.9 1.43-1.67.7-3.35 1.41-4.83 2.27-1.66.97-3.16 2.01-4.31 3.04-.01 0 .12.09.11.1-.2.19-.24.14-.46.32-1.24 1.01-2.33 2.16-3.44 3.28s-2.31 2.2-3.28 3.41-1.77 2.54-2.62 3.84c-.84 1.29-1.7 2.59-2.4 3.94-.71 1.35-1.35 2.73-1.92 4.14-.57 1.39-.99 2.83-1.43 4.28a49.38 49.38 0 00-1.09 4.35c-.3 1.45-.7 2.91-.86 4.39a50.64 50.64 0 00-.29 4.44c-.03 1.47-.01 2.97.09 4.43s.35 2.91.58 4.38c.27 1.73.57 3.35 1.1 5.03s1.19 3.2 1.99 4.78 1.82 3.01 2.85 4.38c1.08 1.43 2.19 2.81 3.5 3.97 1.24 1.1 2.53 2.08 3.91 2.86 1.46.82 3.03 1.42 4.61 1.88 1.61.47 3.33.78 5 .87 1.66.09 3.37-.09 5.11-.37 1.22-.19 2.45-.43 3.64-.75-.12.23-.23.46-.33.7-.87 1.94-1.55 3.98-2.13 6.01-.39 1.38-1.06 3.09-.9 4.55.1.93.67 1.14 1.56 1.08 1.4-.1 2.8-.61 4.12-1.04 2.06-.68 4.1-1.44 6.15-2.18 5.03-1.8 10.12-3.54 15.38-4.56 4.76-.92 10.1-1.4 14.64.5.49.21.97.44 1.44.71.72.56 1.29.89 1.35.6-.02-.03-.11-.11-.12-.19-.07-.47.7-2.26.72-2.75.02-.29.18-.54-.15-.78.25-.04.45-.06.65-.09v-.08l-.64-.21c.02-.05.03-.09.05-.14.34 0 .7-.01 1.13-.02-.25-.31-.92-.14-.65-.63l.51-.28-.44-.6c.02-.05.03-.09.05-.13.07-.04.15-.1.15-.16.02-.47.18-.8.69-.94.11-.03.2-.15.33-.26l-.4-.2c.07-.62.65-.16.94-.48l-.99-.29c.02-.06.03-.11.05-.17l.78-.03v-.11l-.64-.26.58-.08c.05-.17.09-.34.16-.49.07-.14.17-.27.26-.41.02-.03.04-.09.02-.12-.15-.37-.06-.33.14-.6.44-.58.23-1.36-.48-1.51zm-52.23-8.72c-1.34-1-2.6-2.14-3.66-3.5-.98-1.26-1.86-2.67-2.6-4.22-.67-1.41-1.09-2.99-1.56-4.64-.43-1.49-.79-3.07-1.05-4.76a48.41 48.41 0 01-.49-4.66c-.09-1.6-.19-3.16-.13-4.69.06-1.61.29-3.17.51-4.69.23-1.62.49-3.17.87-4.66.41-1.61.78-3.16 1.32-4.59.61-1.59 1.41-3.03 2.14-4.36.86-1.56 1.84-2.89 2.81-4.04.06-.07-.02-.12.05-.17.08-.05.09 0 .18-.04 1.05-.35 2.08-.7 3.11-.86 1.77-.28 3.47-.19 5.11.07 1.66.26 3.3.68 4.79 1.48 1.37.74 2.69 1.73 3.89 2.92 1.18 1.19 2.12 2.66 3.08 4.23.85 1.4 1.65 2.92 2.31 4.62.6 1.51 1.09 3.15 1.54 4.9.4 1.58.75 3.25 1.03 5.02.22 1.28.39 2.63.46 4.01.07 1.33.02 2.68-.04 4.05-.06 1.35-.01 2.7-.2 4.06-.18 1.36-.42 2.71-.73 4.03-.4 1.7-1.02 3.29-1.61 4.8-.65 1.67-1.42 3.2-2.26 4.58-.97 1.59-1.96 3.03-3.14 4.15-.07.07-.08.06-.17.1-.09.05-.07.13-.17.14-.3.06-.62-.05-.92 0-1.76.28-3.49.47-5.17.31-1.73-.16-3.38-.62-4.95-1.22-1.55-.59-3-1.39-4.34-2.39z" fill="#fff9f3"/></svg>