<svg xmlns="http://www.w3.org/2000/svg" xmlns:xlink="http://www.w3.org/1999/xlink" width="506" height="99" viewBox="0 0 506 99"><defs><path id="a" d="M.06.042h83.556v76.8H.06z"/></defs><g fill="none" fill-rule="evenodd"><g transform="translate(0 22)"><mask id="b" fill="#fff"><use xlink:href="#a"/></mask><path fill="#343534" d="M75.725.042l-33.898 68.9L8.364.34 8.225.042H0l37.644 76.8h8.232l37.74-76.8h-7.891" mask="url(#b)"/></g><path fill="#343534" d="M279.554 22.042l-33.897 68.9-33.463-68.602-.139-.298h-8.225l37.644 76.8h8.232l37.74-76.8h-7.892m-95.578 76.8h7.15V.926h-7.15zm146.598-12.684c4.014 0 7.501-.749 10.46-2.255 2.957-1.501 5.387-3.474 7.29-5.918 1.9-2.442 3.3-5.19 4.198-8.243a33.071 33.071 0 001.347-9.371c0-3.1-.45-6.2-1.347-9.3-.898-3.101-2.298-5.849-4.198-8.244-1.903-2.395-4.333-4.344-7.29-5.848-2.959-1.501-6.446-2.254-10.46-2.254-4.016 0-7.502.753-10.459 2.254-2.958 1.504-5.387 3.453-7.289 5.848-1.902 2.395-3.303 5.143-4.199 8.244-.9 3.1-1.348 6.2-1.348 9.3 0 3.195.448 6.318 1.348 9.371.896 3.053 2.297 5.801 4.199 8.243 1.902 2.444 4.331 4.417 7.289 5.918 2.957 1.506 6.443 2.255 10.459 2.255zm0 12.684c-6.551 0-12.387-.965-17.51-2.89-5.126-1.923-9.456-4.579-12.995-7.963-3.541-3.381-6.234-7.419-8.081-12.117-1.85-4.696-2.775-9.864-2.775-15.501 0-5.543.925-10.661 2.775-15.359 1.847-4.699 4.54-8.739 8.081-12.12 3.539-3.381 7.869-6.034 12.995-7.96 5.123-1.927 10.959-2.89 17.51-2.89 6.551 0 12.386.963 17.511 2.89 5.123 1.926 9.454 4.579 12.995 7.96 3.538 3.381 6.232 7.421 8.082 12.12 1.847 4.698 2.772 9.816 2.772 15.359 0 5.637-.925 10.805-2.772 15.501-1.85 4.698-4.544 8.736-8.082 12.117-3.541 3.384-7.872 6.04-12.995 7.963-5.125 1.925-10.96 2.89-17.511 2.89zM93.434 55.981c.39-3.49 1.321-6.944 2.769-10.279a27.488 27.488 0 016.498-9.193c2.791-2.614 6.281-4.755 10.372-6.365 4.082-1.606 8.882-2.421 14.264-2.421 5.022 0 9.549.79 13.457 2.349 3.911 1.566 7.28 3.682 10.015 6.292 2.734 2.61 4.83 5.677 6.229 9.117 1.338 3.292 2.155 6.821 2.432 10.5H93.434zm71.554-11.841a33.272 33.272 0 00-7.702-11.441c-3.368-3.275-7.607-5.9-12.599-7.802-4.986-1.896-10.794-2.857-17.263-2.857-7.064 0-13.296 1.082-18.525 3.216-5.227 2.134-9.644 5.02-13.129 8.577a35.019 35.019 0 00-7.876 12.432c-1.737 4.674-2.618 9.634-2.618 14.739 0 5.299.85 10.306 2.527 14.881 1.68 4.601 4.273 8.644 7.706 12.017 3.431 3.374 7.761 6.071 12.868 8.013 5.103 1.942 11.151 2.927 17.977 2.927 11.134 0 20.224-2.308 27.017-6.861 6.803-4.563 11.289-11.205 13.334-19.741l.15-.626h-7.928l-.114.382c-1.986 6.617-5.652 11.856-10.895 15.571-5.237 3.711-12.462 5.593-21.475 5.593-5.503 0-10.393-.838-14.531-2.49-4.138-1.65-7.622-3.927-10.354-6.767-2.742-2.844-4.842-6.198-6.241-9.966-1.404-3.773-2.117-7.793-2.117-11.947v-.327h74.232s.177-3.136.177-3.616c0-4.917-.882-9.595-2.621-13.907zm296.098-4.619c-1.796-3.848-4.38-7.124-7.682-9.733-3.292-2.605-7.29-4.573-11.882-5.847-4.524-1.256-12.796-1.893-18.286-1.893-5.488 0-10.567.637-15.091 1.893-4.592 1.274-8.589 3.241-11.883 5.847a26.687 26.687 0 00-7.682 9.733c-1.78 3.817-2.682 8.343-2.682 13.452L386.025 99h18.801l-.126-41.641c0-2.496.139-5.072.416-7.656.259-2.407 1-4.586 2.2-6.481 1.162-1.835 2.968-3.373 5.367-4.573 2.418-1.21 5.968-1.824 10.553-1.824 4.588 0 11.331.614 13.748 1.825 2.397 1.198 4.202 2.736 5.366 4.572 1.203 1.899 1.944 4.078 2.2 6.481.275 2.567.415 5.143.415 7.656L445.092 99h18.802l-.126-46.027c0-5.11-.903-9.636-2.682-13.452"/><path fill="#3F8978" d="M487.283 99h18.511V81.021h-18.511z"/></g></svg>