<svg width="649" height="72" viewBox="0 0 649 72" xmlns="http://www.w3.org/2000/svg"><g fill="none" fill-rule="evenodd"><path d="M112.47 68.43c-.38-.38-.57-.823-.57-1.33l.19-1.045L135.65 4.59c.507-1.393 1.52-2.09 3.04-2.09h6.08c1.52 0 2.533.697 3.04 2.09l23.56 61.465.19 1.045c0 .507-.206.95-.618 1.33-.411.38-.87.57-1.377.57H165.1c-.633 0-1.156-.174-1.567-.522-.412-.349-.681-.713-.808-1.093l-5.32-13.68H125.96l-5.225 13.68c-.507 1.077-1.298 1.615-2.375 1.615h-4.56c-.507 0-.95-.19-1.33-.57zm16.245-22.61h26.03L141.73 11.715 128.715 45.82zm60.346 21.66c-3.832-1.647-6.745-3.816-8.74-6.508-1.995-2.691-3.056-5.589-3.183-8.692 0-.507.19-.95.57-1.33.38-.38.855-.57 1.425-.57h4.655c1.14 0 1.932.633 2.375 1.9.57 2.66 2.201 4.956 4.893 6.887 2.692 1.932 6.539 2.898 11.542 2.898 5.384 0 9.405-.95 12.065-2.85 2.66-1.9 3.99-4.528 3.99-7.885 0-2.153-.649-3.927-1.947-5.32-1.298-1.393-3.23-2.612-5.795-3.657-2.565-1.046-6.413-2.328-11.543-3.848-4.876-1.393-8.755-2.882-11.637-4.465-2.882-1.583-5.05-3.53-6.508-5.842-1.456-2.312-2.185-5.241-2.185-8.788 0-3.42.919-6.476 2.755-9.168 1.837-2.691 4.497-4.813 7.98-6.365 3.484-1.551 7.6-2.327 12.35-2.327 4.94 0 9.168.87 12.683 2.612 3.515 1.742 6.19 3.927 8.027 6.555 1.837 2.629 2.819 5.273 2.945 7.933 0 .57-.19 1.045-.57 1.425-.38.38-.855.57-1.425.57h-4.75c-.506 0-.981-.158-1.425-.475-.443-.317-.76-.792-.95-1.425-.38-2.723-1.9-4.972-4.56-6.745-2.66-1.773-5.985-2.66-9.975-2.66-4.306 0-7.726.84-10.26 2.518-2.533 1.678-3.8 4.164-3.8 7.457 0 2.217.586 4.022 1.758 5.415 1.172 1.393 2.977 2.628 5.415 3.705s6 2.312 10.687 3.705c5.384 1.52 9.611 3.04 12.683 4.56 3.072 1.52 5.367 3.404 6.887 5.652 1.52 2.249 2.28 5.146 2.28 8.693 0 5.953-2.264 10.592-6.792 13.917-4.528 3.326-10.656 4.988-18.383 4.988-5.193 0-9.705-.823-13.537-2.47zm66.188.902c-.411-.411-.617-.934-.617-1.567V10.67h-18.335c-.634 0-1.156-.206-1.568-.617-.411-.412-.617-.935-.617-1.568V4.78c0-.697.206-1.25.617-1.663.412-.411.934-.617 1.568-.617h45.6c.696 0 1.235.206 1.615.617.38.412.57.966.57 1.663v3.705c0 .633-.206 1.156-.618 1.567-.411.412-.934.618-1.567.618h-18.24v56.145c0 .633-.222 1.156-.665 1.567-.444.412-.982.618-1.615.618h-4.56c-.634 0-1.156-.206-1.568-.618zm40.776 0c-.38-.411-.57-.934-.57-1.567V4.78c0-.697.19-1.25.57-1.663.38-.411.887-.617 1.52-.617h23.18c7.22 0 12.873 1.694 16.958 5.082 4.085 3.389 6.127 8.313 6.127 14.773 0 4.813-1.203 8.772-3.61 11.875-2.406 3.103-5.763 5.257-10.07 6.46l14.63 25.365c.19.38.285.728.285 1.045 0 .507-.19.95-.57 1.33-.38.38-.823.57-1.33.57h-4.18c-.95 0-1.694-.222-2.232-.665-.539-.443-1.03-1.077-1.473-1.9l-13.965-24.32h-16.91v24.7c0 .633-.221 1.156-.665 1.567-.443.412-.981.618-1.615.618h-4.56c-.633 0-1.14-.206-1.52-.618zm24.32-34.057c9.564 0 14.345-4.022 14.345-12.065s-4.781-12.065-14.345-12.065h-15.96v24.13h15.96zm42.344 29.117c-4.497-4.338-6.872-10.877-7.125-19.617-.064-1.9-.095-4.592-.095-8.075 0-3.483.031-6.143.095-7.98.253-8.613 2.707-15.137 7.362-19.57s10.94-6.65 18.858-6.65c7.916 0 14.186 2.217 18.81 6.65 4.623 4.433 7.061 10.957 7.315 19.57.126 3.673.19 6.333.19 7.98 0 1.583-.064 4.275-.19 8.075-.254 8.74-2.613 15.28-7.078 19.617-4.465 4.339-10.814 6.508-19.047 6.508-8.234 0-14.599-2.17-19.095-6.508zm31.255-5.984c3.04-3.072 4.686-7.775 4.94-14.108.126-3.8.19-6.333.19-7.6 0-1.393-.064-3.927-.19-7.6-.254-6.333-1.9-11.052-4.94-14.155-3.04-3.103-7.094-4.655-12.16-4.655-5.067 0-9.136 1.552-12.208 4.655-3.072 3.103-4.702 7.822-4.892 14.155-.064 1.837-.095 4.37-.095 7.6 0 3.167.031 5.7.095 7.6.19 6.333 1.805 11.036 4.845 14.108 3.04 3.071 7.125 4.607 12.255 4.607 5.066 0 9.12-1.536 12.16-4.607zm29.328 10.924c-.38-.411-.57-.934-.57-1.567V4.685c0-.633.19-1.156.57-1.567.38-.412.887-.618 1.52-.618h4.75c.633 0 1.14.206 1.52.618.38.411.57.934.57 1.567V61.02h31.73c.697 0 1.25.206 1.662.617.412.412.618.935.618 1.568v3.61c0 .633-.222 1.156-.665 1.567-.443.412-.982.618-1.615.618h-38.57c-.633 0-1.14-.206-1.52-.618zm47.378.048c-.38-.38-.57-.823-.57-1.33l.19-1.045L493.83 4.59c.507-1.393 1.52-2.09 3.04-2.09h6.08c1.52 0 2.534.697 3.04 2.09l23.56 61.465.19 1.045c0 .507-.205.95-.617 1.33-.412.38-.87.57-1.378.57h-4.465c-.633 0-1.155-.174-1.567-.522-.412-.349-.68-.713-.808-1.093l-5.32-13.68H484.14l-5.225 13.68C478.41 68.462 477.617 69 476.54 69h-4.56c-.506 0-.95-.19-1.33-.57zm16.245-22.61h26.03L499.91 11.715 486.895 45.82zm54.219 22.562c-.38-.411-.57-.934-.57-1.567V4.78c0-.697.19-1.25.57-1.663.38-.411.886-.617 1.52-.617h25.935c6.713 0 11.78 1.615 15.2 4.845 3.42 3.23 5.13 7.442 5.13 12.635 0 3.547-.824 6.507-2.47 8.883-1.647 2.375-3.579 4.1-5.795 5.177 2.723 1.33 5.003 3.388 6.84 6.175 1.836 2.787 2.755 5.985 2.755 9.595 0 3.547-.808 6.777-2.423 9.69-1.615 2.913-4.006 5.225-7.172 6.935-3.167 1.71-6.935 2.565-11.305 2.565h-26.695c-.634 0-1.14-.206-1.52-.618zm26.03-37.667c4.116 0 7.251-.934 9.405-2.802 2.153-1.869 3.23-4.481 3.23-7.838 0-3.293-1.061-5.795-3.183-7.505-2.121-1.71-5.272-2.565-9.452-2.565h-17.67v20.71h17.67zm.95 30.78c4.053 0 7.236-1.092 9.547-3.277 2.312-2.186 3.468-4.988 3.468-8.408 0-3.483-1.156-6.302-3.468-8.455-2.311-2.153-5.494-3.23-9.547-3.23h-18.62v23.37h18.62zm36.928 6.887c-.38-.411-.57-.934-.57-1.567V4.78c0-.697.19-1.25.57-1.663.38-.411.887-.617 1.52-.617h39.045c.697 0 1.251.206 1.663.618.411.411.617.965.617 1.662V8.2c0 .633-.206 1.14-.617 1.52-.412.38-.966.57-1.663.57h-32.395v21.185h30.305c.697 0 1.251.206 1.663.617.411.412.617.966.617 1.663v3.23c0 .633-.206 1.156-.617 1.568-.412.411-.966.617-1.663.617h-30.305v21.945h33.155c.697 0 1.251.206 1.663.617.411.412.617.966.617 1.663v3.42c0 .633-.221 1.156-.665 1.567-.443.412-.981.618-1.615.618h-39.805c-.633 0-1.14-.206-1.52-.618z" fill="#1A3C44"/><g transform="translate(4 4)"><path d="M63.586 0H0v63.045c34.937 0 63.294-28.176 63.586-63.045z" stroke="#1A3C44" stroke-width="8" stroke-linejoin="round"/><circle fill="#193C44" cx="27.224" cy="27.224" r="7.164"/></g></g></svg>