<svg xmlns="http://www.w3.org/2000/svg" viewBox="0 0 26.9 27.2"><path d="M19 1.4S17.9-.8 15.7.3c0 0-2.2 1.1-4.4 0 0 0-2.2-1.1-3.3 1.1l-.2.2S6.7 3.8 4.3 4.3c0 0-2.4.5-2.1 2.9v.2s.3 2.4-1.3 4.3l-.1.1s-1.6 1.8 0 3.7l.1.1s1.6 1.8 1.3 4.3v.2s-.3 2.4 2.1 2.9c0 0 2.4.5 3.5 2.7l.1.2S9 28.1 11.2 27c0 0 2.2-1.1 4.4 0 0 0 2.2 1.1 3.3-1.1l.1-.2s1.1-2.2 3.5-2.7c0 0 2.4-.5 2.1-2.9v-.2s-.3-2.4 1.3-4.3l.1-.1s1.6-1.8 0-3.7l-.1-.1s-1.6-1.8-1.3-4.3v-.2s.3-2.4-2.1-2.9c0 0-2.4-.5-3.5-2.7v-.2z" fill="#231f20"/><path d="M10.4 25.2c-.9 0-1.4-.9-1.4-.9l-.1-.2c-1.2-2.2-3.5-2.7-3.6-2.7-1.5-.3-1.4-1.8-1.4-1.9v-.2c.3-2.4-1.3-4.3-1.4-4.3-1.1-1.3-.1-2.5-.1-2.5C4.2 10.4 3.9 8 3.9 7.9v-.2c-.2-1.6 1.3-1.9 1.4-1.9 2.4-.5 3.6-2.6 3.6-2.7l.1-.2c.3-.6.8-.9 1.3-.9.4 0 .8.2.8.2.7.3 1.4.5 2.2.5 1.3 0 2.3-.5 2.3-.5.4-.1.7-.2.9-.2.9 0 1.4.9 1.4.9l.1.2c1.2 2.2 3.5 2.7 3.6 2.7 1.5.3 1.4 1.7 1.4 1.9v.2c-.3 2.4 1.3 4.3 1.4 4.3 1.1 1.3.2 2.4.1 2.5-1.7 1.9-1.5 4.3-1.4 4.4v.2c.2 1.5-1.2 1.9-1.4 1.9-2.5.7-3.7 2.8-3.7 2.9l-.1.2c-.3.6-.7.9-1.3.9-.4 0-.8-.2-.8-.2-.7-.3-1.4-.5-2.2-.5-1.3 0-2.3.5-2.3.5-.4.1-.7.2-.9.2z" fill="none" stroke="#fff"/></svg>