<svg xmlns="http://www.w3.org/2000/svg" height="188.973" width="188.973"><path d="M151.181 188.973H37.795C17.008 188.973 0 171.965 0 151.18V37.78C0 17 17.002-.003 37.783-.003H151.18c20.787 0 37.795 17.008 37.795 37.795v113.387c0 20.786-17.008 37.794-37.795 37.794" fill="#f68712"/><path d="M110.127 75.396c0-3.342 1.123-6.135 3.44-8.546 2.296-2.4 5.043-3.565 8.376-3.565 3.289 0 6.106 1.205 8.377 3.565 2.314 2.41 3.445 5.204 3.445 8.546V87.4h-11.822c-3.333 0-6.08-1.148-8.382-3.519-2.311-2.365-3.434-5.15-3.434-8.484m27.649-15.682c-4.396-4.313-9.722-6.495-15.798-6.495-6.091 0-11.408 2.182-15.787 6.495-4.392 4.31-6.62 9.584-6.62 15.682 0 6.091 2.228 11.361 6.625 15.636 4.38 4.276 9.69 6.44 15.782 6.44h22.438V75.397c0-6.098-2.237-11.372-6.64-15.682" fill="#4696c7"/><path d="M72.536 120.293c-2.346 0-4.828-.898-6.988-2.522C52.21 107.804 44.56 92.34 44.56 75.342c0-16.995 7.65-32.465 20.988-42.437 2.16-1.621 4.642-2.514 6.993-2.514 2.242 0 3.936.838 4.514 2.242 1.356 3.164-1.38 7.142-4.49 9.51-10.43 7.805-16.419 19.904-16.419 33.2 0 13.293 5.99 25.393 16.427 33.198 3.097 2.36 5.833 6.345 4.499 9.495-.595 1.419-2.29 2.257-4.536 2.257" fill="#fff"/><path d="M93.015 107.854c-2.083 0-4.24-.765-6.083-2.15-9.642-7.205-15.17-18.372-15.17-30.642 0-12.264 5.53-23.44 15.17-30.651 1.845-1.383 4.005-2.139 6.083-2.139 2.41 0 4.37 1.101 5.109 2.87 1.369 3.246-.898 6.891-3.76 9.074-6.551 4.892-10.318 12.496-10.318 20.846 0 8.352 3.759 15.946 10.303 20.84 2.867 2.183 5.139 5.841 3.77 9.085-.744 1.773-2.694 2.867-5.104 2.867m-39.206 50.602c-6.166 0-9.249-3.384-9.249-10.152 0-3.367.839-5.939 2.517-7.716 1.676-1.777 4.08-2.667 7.21-2.667 2.292 0 4.347.45 6.166 1.347l-1.595 4.181a27.105 27.105 0 0 0-2.374-.84 7.643 7.643 0 0 0-2.197-.329c-2.811 0-4.217 1.996-4.217 5.988 0 3.875 1.406 5.812 4.217 5.812 1.04 0 2.002-.138 2.888-.417.886-.278 1.772-.711 2.658-1.302v4.624c-.875.555-1.758.939-2.649 1.152-.892.212-2.017.32-3.375.32m18.657-.001c-6.167 0-9.25-3.384-9.25-10.152 0-3.367.84-5.939 2.517-7.716 1.677-1.777 4.08-2.667 7.21-2.667 2.292 0 4.348.45 6.166 1.347l-1.594 4.181a27.11 27.11 0 0 0-2.374-.84 7.64 7.64 0 0 0-2.197-.329c-2.812 0-4.217 1.996-4.217 5.988 0 3.875 1.405 5.812 4.217 5.812 1.039 0 2.002-.138 2.888-.417.886-.278 1.772-.711 2.658-1.302v4.624c-.875.555-1.758.939-2.65 1.152-.892.212-2.017.32-3.374.32m21.597-9.533l-2.09.07c-1.572.048-2.741.331-3.509.851-.768.52-1.15 1.311-1.15 2.374 0 1.524.872 2.285 2.62 2.285 1.253 0 2.253-.359 3.004-1.08.75-.72 1.125-1.677 1.125-2.87zm1.594 9.177l-1.044-2.693h-.143c-.91 1.147-1.845 1.94-2.807 2.384-.964.443-2.218.664-3.766.664-1.902 0-3.399-.544-4.49-1.63-1.094-1.088-1.64-2.634-1.64-4.642 0-2.103.735-3.653 2.206-4.65 1.47-1 3.688-1.551 6.652-1.658l3.438-.105v-.87c0-2.008-1.028-3.012-3.083-3.012-1.583 0-3.443.48-5.581 1.436l-1.79-3.65c2.28-1.192 4.808-1.79 7.584-1.79 2.658 0 4.695.579 6.112 1.736 1.418 1.16 2.126 2.919 2.126 5.28v13.2h-3.774m8.576-2.533c0-.992.265-1.743.797-2.25.532-.509 1.305-.762 2.321-.762.98 0 1.74.26 2.277.779.537.52.806 1.265.806 2.233 0 .933-.271 1.668-.815 2.205-.544.538-1.3.807-2.268.807-.992 0-1.76-.263-2.303-.788-.543-.527-.815-1.268-.815-2.224m16.513 2.533h-5.404v-19.808h5.404zm-5.635-24.928c0-1.76.98-2.64 2.942-2.64 1.96 0 2.94.88 2.94 2.64 0 .839-.245 1.491-.735 1.958-.49.466-1.225.7-2.205.7-1.961 0-2.942-.887-2.942-2.658m15.609 14.988c0 1.962.322 3.444.966 4.448.644 1.004 1.693 1.506 3.145 1.506 1.441 0 2.477-.499 3.109-1.498.632-.997.948-2.482.948-4.456 0-1.96-.319-3.43-.956-4.41-.639-.982-1.684-1.47-3.136-1.47-1.441 0-2.48.486-3.119 1.46-.637.975-.957 2.448-.957 4.42m13.696 0c0 3.226-.85 5.747-2.552 7.565-1.7 1.82-4.068 2.73-7.104 2.73-1.902 0-3.579-.416-5.032-1.25-1.453-.833-2.569-2.027-3.348-3.587-.78-1.56-1.17-3.377-1.17-5.458 0-3.236.845-5.752 2.534-7.546 1.689-1.796 4.063-2.694 7.123-2.694 1.901 0 3.578.414 5.032 1.24 1.452.827 2.568 2.014 3.348 3.562.78 1.548 1.169 3.36 1.169 5.438" fill="#fff"/></svg>