<svg xmlns="http://www.w3.org/2000/svg" width="400" height="160" viewBox="0 0 400 160"><path d="M87 12.34c-1.697.128-2.507.21-4.25.428-.458.057-1.01.095-1.225.085-.215-.01-.478.037-.583.106-.106.068-1.205.284-2.442.479-1.238.195-2.4.4-2.583.455-.184.055-1.229.288-2.323.518-1.094.23-2.066.494-2.158.587-.093.093-.347.169-.564.169-.216 0-.526.07-.687.157a2.507 2.507 0 0 1-.698.212c-.222.031-.502.118-.623.193-.121.076-.264.093-.318.039-.054-.054-.181-.031-.281.05-.146.121-.885.369-1.807.608a.591.591 0 0 0-.166.066c-.023.018-.221.066-.44.106-.219.041-.735.223-1.146.405-.412.181-.884.33-1.051.33-.166 0-.348.075-.405.167-.057.092-.249.167-.427.167-.177 0-.323.058-.323.13 0 .072-.356.233-.792.358-.435.125-.885.3-1 .39-.114.089-.208.108-.208.042s-.244.021-.542.194c-.298.173-.86.417-1.25.543-.389.126-.708.3-.708.387 0 .087-.113.115-.25.062-.138-.053-.25-.023-.25.066 0 .088-.087.161-.193.161-.261 0-3.698 1.685-3.826 1.876-.056.084-.131.131-.166.106-.111-.08-1.725.757-1.858.963-.069.108-.35.245-.625.305-.274.06-.499.179-.499.263 0 .085-.112.154-.25.154-.137 0-.25.059-.25.132 0 .073-.337.272-.75.442-.412.17-.75.361-.75.425 0 .063-.337.289-.75.501-.412.212-.75.453-.75.536 0 .082-.075.104-.166.047-.092-.057-.167-.029-.167.062s-.15.213-.332.271a1.61 1.61 0 0 0-.542.311c-.115.113-.682.496-1.259.851-.577.355-1.102.726-1.166.825-.065.099-.321.285-.57.414-.249.128-.406.308-.35.4.057.092.031.123-.057.068-.089-.055-.375.084-.635.307-.261.224-.519.408-.573.408-.055 0-.436.307-.847.683-.411.376-.962.836-1.224 1.022-.262.187-.668.517-.902.734-.234.217-.484.394-.556.394-.072 0-.179.15-.237.333-.058.184-.173.334-.256.334-.301 0-5.827 5.42-5.827 5.714 0 .052-.207.308-.459.571-.252.263-.702.775-.999 1.138-.298.363-.68.81-.849.993-.169.184-.486.596-.705.917-.22.321-.563.771-.763 1-.502.574-1.559 2.167-1.559 2.35 0 .083-.062.15-.138.15-.076 0-.242.206-.368.458a4.516 4.516 0 0 1-.518.792c-.159.183-.293.39-.297.459-.005.07-.186.407-.404.75-.626.991-1.24 2.111-1.243 2.272a.371.371 0 0 1-.142.25c-.192.141-1.081 1.852-.962 1.852.053 0-.022.118-.166.262-.144.144-.263.388-.265.542-.002.154-.151.467-.33.696-.179.23-.328.512-.33.628-.002.115-.075.34-.162.5-.177.323-.744 1.675-.924 2.206-.016.045-.116.294-.223.552-.107.258-.194.497-.194.531 0 .034-.088.273-.195.531-.107.258-.21.525-.229.594a1.358 1.358 0 0 1-.076.208c-.023.046-.055.14-.071.209a197.18 197.18 0 0 1-1.016 3.291A12.346 12.346 0 0 0 17.25 65c-.066.412-.186.831-.265.929-.079.098-.112.342-.074.542.038.199.008.362-.068.362-.076 0-.191.429-.257.953a28.356 28.356 0 0 1-.185 1.291c-.036.187-.113.79-.17 1.34-.057.55-.144 1.067-.193 1.15-.255.43-.369 12-.129 13.016.065.275.223 1.25.351 2.167.127.917.284 1.892.348 2.167.063.275.14.65.17.833.091.546.157.819.262 1.083.184.457.528 2.08.486 2.292-.022.115.038.208.133.208.096 0 .174.189.174.419 0 .231.068.549.151.709.128.245.486 1.391.611 1.956.02.091.182.541.361 1 .411 1.055.498 1.302.516 1.462.008.071.126.334.262.583.136.25.372.755.523 1.121.152.367.456 1.056.676 1.532.22.475.4.937.4 1.027 0 .09.079.19.176.222.097.032.192.17.212.306.02.136.241.612.491 1.059.25.447.455.864.455.926 0 .063.187.368.416.678.23.311.417.696.417.857 0 .16.131.389.292.509.16.12.313.32.339.444.059.282 1.494 2.492 1.902 2.93.165.178.3.414.3.524 0 .11.114.244.252.297.138.053.232.165.208.247-.024.083.164.385.417.672.252.286.414.52.359.52-.113 0 .968 1.343 2.5 3.104.329.378.598.766.598.864 0 .097.15.224.333.282.183.059.333.184.333.279 0 .186 5.274 5.471 5.46 5.471.062 0 .284.199.493.443.21.243.381.391.381.328 0-.064.216.093.48.349.866.836 2.216 1.959 2.662 2.214.24.137.514.347.608.465.095.118.329.306.52.417.8.462 1.73 1.132 2.052 1.478.189.203.345.299.347.213.001-.089.056-.084.125.01.067.092.24.242.385.333.849.54 1.949 1.278 2.23 1.497.179.139.391.253.471.253.08 0 .564.3 1.076.667.512.367 1.052.667 1.2.667.148 0 .401.153.561.34.16.187.365.295.454.24.089-.055.162-.026.162.065 0 .139.516.401.845.43.053.004.227.139.387.3.161.16.361.301.447.312.315.043.42.086 1.154.479.413.221.807.386.875.367.069-.018.125.03.125.107s.3.239.667.36c.367.121.667.283.667.36 0 .077.113.14.252.14s.382.07.542.156c.914.495 2.411 1.177 2.586 1.179.111 0 .576.182 1.032.403.457.221.888.365.959.322.071-.044.129-.001.129.096 0 .098.153.177.341.177.188 0 .648.148 1.023.329.374.181.746.289.825.24.079-.049.144-.009.144.088 0 .097.056.163.125.147.204-.047 2.118.562 2.21.704.046.072.346.168.666.213.32.045.582.094.582.11 0 .015.113.056.25.09.138.034.663.182 1.167.329 1.27.37 1.222.356 1.5.462.289.11 1.654.409 2.486.544.313.05.651.144.75.208.099.065.331.132.514.15.183.017.821.143 1.417.279 1.571.357 3.01.624 3.583.665.275.02.586.09.692.155.105.066.368.119.583.118.215-.001 1.329.107 2.475.241 1.146.134 2.546.264 3.112.29.565.025.997.097.959.159-.039.062.536.099 1.276.083s1.374.015 1.408.07c.119.193 12.59-.008 13.078-.211.138-.057.977-.151 1.866-.209.889-.059 1.789-.135 2-.17a40.97 40.97 0 0 1 1.301-.172c.504-.06 1.104-.147 1.333-.193.23-.046.605-.083.834-.083.229.001.491-.06.583-.135.092-.075.579-.187 1.083-.25.504-.062 1.292-.19 1.75-.284.459-.093.965-.166 1.125-.162.161.004.292-.071.292-.167 0-.095.122-.127.271-.07.149.058.355.04.458-.039.103-.079.825-.273 1.604-.431.779-.158 1.642-.386 1.917-.507.492-.217 2.467-.765 2.875-.797.115-.009.208-.083.208-.165s.079-.1.174-.041c.096.059.265.035.375-.055.111-.089.67-.299 1.243-.467.573-.169 1.042-.369 1.042-.446 0-.077.067-.098.149-.047.082.05.363-.02.625-.156.262-.137.565-.249.673-.249.109-.001.409-.088.667-.195.258-.106.525-.181.594-.167.069.015.125-.037.125-.115 0-.078.637-.349 1.417-.603.779-.253 1.416-.527 1.416-.608 0-.081.07-.147.156-.147s.367-.086.625-.192c.258-.106.574-.213.703-.239a.62.62 0 0 0 .352-.238c.065-.106.185-.191.266-.189.082.002.486-.153.898-.344.413-.191.855-.368.984-.395.128-.026.278-.11.333-.187.091-.127 1.1-.627 1.1-.545 0 .093 2.349-1.258 2.456-1.411.067-.097.123-.108.125-.026.001.083.134.04.294-.097.16-.137.537-.346.837-.464.3-.119.6-.304.667-.412.067-.107.408-.329.76-.492.62-.289 1.654-.923 2.062-1.266.111-.093.241-.169.289-.169.485 0 3.478-2.477 3.387-2.803-.017-.063.075-.301.205-.531 1.874-3.299-3.819-8.03-7.522-6.25-1.041.5-1.31.662-1.31.79 0 .07-.077.127-.17.127-.203 0-1.556.862-1.636 1.042-.03.068-.123.125-.205.125-.083 0-.546.243-1.028.541-1.428.882-1.852 1.12-2.336 1.311-.252.099-.458.242-.458.317 0 .076-.226.187-.502.248-.276.06-.595.198-.708.305-.114.108-.62.379-1.124.604-.504.224-1.018.483-1.141.575a1.26 1.26 0 0 1-.473.204c-.137.02-.4.173-.584.34-.185.168-.367.284-.404.26-.037-.025-.292.071-.566.212-.274.142-.498.21-.498.151s-.185.014-.411.162c-.226.149-.479.27-.563.27-.084 0-.424.113-.755.252-.332.138-.642.249-.689.246-.047-.003-.301.106-.564.242-.455.236-1.65.695-2.185.841a35.13 35.13 0 0 0-1.534.557c-.706.269-1.315.457-1.354.418-.039-.039-.324.042-.633.179-.702.312-2.511.836-2.712.785-.083-.02-.27.016-.417.08-.493.216-1.682.526-2.517.658-.32.05-.695.134-.833.186-.138.052-.4.117-.583.144-.184.026-.559.1-.834.163-.464.107-2.737.479-4.083.669-1.153.162-2.265.272-3.083.305-.459.019-.944.103-1.079.187-.342.214-11.593.259-13.421.054a36.776 36.776 0 0 0-2.292-.192c-.435-.014-.791-.08-.792-.147 0-.068-.168-.116-.375-.106-.206.01-.712-.025-1.125-.076-.412-.051-1.162-.142-1.666-.201a19.718 19.718 0 0 1-2.667-.494c-.411-.109-.601-.146-1.583-.316a32.832 32.832 0 0 1-1.584-.347c-1.365-.329-1.863-.443-2.12-.487a.683.683 0 0 1-.319-.151c-.064-.064-.267-.116-.452-.116-.291 0-.873-.153-1.775-.467a10.62 10.62 0 0 0-.375-.123 1.409 1.409 0 0 1-.209-.077 1.304 1.304 0 0 0-.208-.074c-.727-.191-2.195-.644-2.458-.758a28.3 28.3 0 0 0-1.417-.513 35.013 35.013 0 0 1-1.5-.539 20.027 20.027 0 0 0-.5-.2c-.187-.065-1.472-.635-2.281-1.013-.476-.221-.946-.403-1.044-.403-.217 0-.885-.362-1.027-.556a.41.41 0 0 0-.25-.152c-.225-.021-1.475-.591-1.626-.742-.073-.073-.183-.134-.244-.135-.061-.001-.689-.319-1.395-.708-.706-.389-1.351-.707-1.433-.707-.081 0-.275-.139-.429-.31-.155-.171-.597-.45-.984-.62-.387-.171-.741-.358-.787-.415-.046-.058-.747-.548-1.558-1.088l-2.155-1.44a10.164 10.164 0 0 1-1.119-.875c-.24-.23-.499-.418-.575-.418-.076 0-.312-.188-.524-.417-.213-.229-.456-.417-.541-.417-.085 0-.37-.21-.633-.466a38.001 38.001 0 0 0-1.518-1.348c-.572-.485-1.847-1.713-2.833-2.728a448.545 448.545 0 0 0-2.325-2.378c-.463-.464-1.001-1.113-2.597-3.134a39.287 39.287 0 0 0-.664-.817c-.16-.191-.293-.391-.294-.446-.001-.055-.226-.353-.5-.664-.274-.31-.497-.666-.497-.791s-.066-.228-.147-.228c-.08 0-.237-.219-.348-.488-.112-.268-.313-.53-.448-.582-.135-.052-.205-.158-.157-.237.048-.078-.043-.285-.204-.459-.161-.174-.392-.561-.514-.859-.123-.298-.287-.541-.366-.541-.079 0-.19-.185-.246-.41-.057-.226-.208-.497-.337-.604a.75.75 0 0 1-.233-.507c0-.172-.066-.313-.147-.313-.08 0-.314-.45-.52-1-.206-.55-.425-1-.487-1-.063 0-.251-.393-.418-.875-.167-.481-.4-1.03-.517-1.22-.118-.19-.311-.678-.429-1.083-.119-.406-.274-.779-.345-.829-.071-.05-.152-.237-.18-.417a1.673 1.673 0 0 0-.149-.492c-.054-.092-.27-.842-.481-1.667-.21-.825-.439-1.575-.507-1.667-.068-.091-.211-.654-.318-1.25a24.717 24.717 0 0 0-.416-1.874c-.122-.435-.183-.942-.135-1.126.049-.184.011-.428-.083-.542-.47-.569-.662-9.208-.271-12.208.131-1.008.266-2.133.301-2.5.034-.366.135-.854.223-1.083.089-.229.263-.998.387-1.708.123-.711.293-1.292.378-1.292.084 0 .114-.146.067-.325-.046-.179-.022-.348.054-.375.076-.028.168-.237.203-.467.126-.824.67-2.5.812-2.5.079 0 .147-.206.15-.458.003-.252.115-.604.25-.782.134-.178.244-.455.244-.616 0-.161.178-.627.395-1.035.378-.711.806-1.788.764-1.923-.011-.036.063-.116.164-.179.102-.063.217-.279.256-.481.038-.201.222-.579.407-.84.186-.26.29-.521.232-.579-.059-.059-.03-.107.063-.107s.31-.318.483-.708c.172-.39.427-.808.566-.929.22-.191.22-.204.004-.093-.237.121-.027-.256.337-.603.173-.165.616-.92.625-1.065a.392.392 0 0 1 .152-.25c.166-.118.792-1.056.798-1.197.002-.052.136-.226.296-.387.16-.16.292-.369.292-.464 0-.095.191-.323.425-.507.234-.184.39-.37.347-.413-.073-.073.202-.463.686-.974.115-.12.208-.293.208-.384 0-.09.067-.19.149-.22.081-.031.423-.393.76-.806 1.763-2.16 5.105-5.665 6.158-6.458.274-.206.427-.378.341-.381-.087-.003.002-.097.198-.208.377-.215 1.423-1.083 2.7-2.241.428-.387.909-.748 1.069-.802.161-.055.292-.173.292-.264 0-.091.069-.123.153-.071.085.053.3-.09.478-.317.179-.227.36-.378.403-.334.044.043.215-.072.382-.256.166-.184.387-.334.489-.334.103 0 .316-.15.473-.334.157-.183.394-.333.527-.333.132 0 .487-.225.789-.5.301-.275.61-.5.688-.5.078 0 .468-.225.868-.5.4-.275.807-.5.905-.5a.178.178 0 0 0 .178-.177c0-.097.07-.133.155-.08.086.053.204.018.262-.077.059-.095.495-.367.97-.605s.976-.524 1.113-.636c.138-.112.513-.305.834-.43.32-.124.621-.274.666-.332.046-.058.515-.282 1.042-.498.527-.216.958-.454.958-.529 0-.075.057-.122.125-.105.069.017.425-.1.792-.261.367-.16.948-.38 1.292-.488.343-.108.625-.247.625-.309s.243-.166.541-.231c.298-.065.906-.293 1.35-.506.722-.347 2.281-.88 2.935-1.004a3.05 3.05 0 0 0 .583-.205c.719-.335 1.868-.694 2.221-.694.203 0 .37-.062.37-.139 0-.076.093-.146.208-.156.115-.01.508-.1.875-.2.6-.164.977-.255 1.75-.424.137-.031.287-.07.333-.088a.518.518 0 0 1 .226-.007c.079.015.249-.062.379-.17.13-.108.282-.151.338-.095.056.055.223.036.372-.044.256-.137 2.755-.625 4.019-.785.948-.12 1.075-.146 1.25-.254.091-.057.729-.153 1.416-.214.688-.061 1.363-.14 1.5-.175.27-.068 2.183-.25 3.667-.349 1.34-.09 11.245-.095 12.417-.008 1.487.112 3.256.275 3.916.36.917.12 2.563.296 2.792.3.115.002.208.071.208.153s.225.113.5.07c.274-.043.544-.005.6.085.055.09.215.119.355.065.14-.053.338-.031.441.05.103.081.563.197 1.021.257 1.561.206 2 .3 2.212.474.117.097.258.13.314.074.056-.056.223-.036.371.043.148.079.495.182.77.227.901.149 2.162.495 2.357.647.105.082.255.134.333.116.079-.018.346.051.595.154.248.103.623.218.833.255.991.177 1.465.334 1.465.484 0 .09.11.121.245.069.134-.051.282-.032.328.043.047.075.555.268 1.131.428.575.161 1.083.348 1.129.416.046.067.571.29 1.167.495.596.204 1.158.434 1.25.51a.776.776 0 0 0 .29.157c.067.011.467.167.888.348.422.181.862.328.98.328s.428.169.69.375c.263.207.498.356.524.332.025-.023.739.31 1.587.741.848.432 1.597.77 1.666.752.069-.018.125.042.125.134 0 .091.056.152.125.135.069-.017.425.151.792.375.366.223.723.387.791.364.069-.022.125.038.125.135s.328.321.728.498c.401.177.822.435.937.574.115.139.287.252.382.252.094 0 .418.188.718.417.301.229.592.416.648.416.056 0 .192.074.303.164 1.87 1.526 2.641 1.83 4.701 1.857.55.007 1.188-.074 1.417-.18.866-.4 1.456-.772 1.927-1.216.267-.252.531-.458.586-.458.056 0 .242-.263.415-.583.173-.321.377-.584.453-.584.076 0 .096-.068.044-.152-.052-.084-.023-.178.064-.208.152-.054.273-.496.427-1.562.085-.591-.279-2.093-.606-2.503-.466-.584-1.57-1.58-1.852-1.671-.16-.051-.292-.167-.292-.258s-.075-.119-.166-.062c-.092.056-.167.023-.167-.074a.18.18 0 0 0-.184-.176c-.102 0-.461-.219-.798-.486a7.94 7.94 0 0 0-1.232-.781c-.341-.162-.619-.343-.619-.402s-.394-.288-.875-.509c-.482-.221-.913-.44-.959-.487-.046-.047-.346-.225-.666-.396-2.066-1.102-3.126-1.674-3.417-1.846-.183-.108-.69-.329-1.125-.492-.435-.163-.792-.364-.792-.448 0-.085-.056-.142-.125-.128-.068.015-.425-.107-.791-.27-.367-.163-.767-.311-.889-.329a.58.58 0 0 1-.352-.244c-.071-.116-.159-.199-.195-.185-.102.041-1.006-.317-1.694-.672-.347-.179-.742-.325-.878-.325a1.44 1.44 0 0 1-.536-.148c-1.119-.572-2.238-1.032-2.915-1.198-.435-.107-.791-.268-.791-.359 0-.09-.122-.118-.271-.06a.535.535 0 0 1-.483-.072 1.374 1.374 0 0 0-.521-.236c-.501-.097-2.128-.635-2.309-.763-.091-.065-.729-.248-1.416-.405-.688-.158-1.363-.33-1.5-.384a3.243 3.243 0 0 0-.334-.113 1.383 1.383 0 0 1-.291-.15c-.115-.072-.284-.086-.375-.029-.092.057-.261.044-.375-.027-.22-.137-.249-.146-1.042-.307-.275-.056-.8-.175-1.167-.264-.662-.162-.953-.23-1.75-.41-.229-.053-1.354-.246-2.5-.431a257.42 257.42 0 0 1-2.5-.412 14.188 14.188 0 0 0-1.083-.133 66.179 66.179 0 0 1-3.25-.38c-.973-.15-14.626-.189-16.5-.046m241.417 13.107c-.853.069-1.989.378-3.334.907a6.65 6.65 0 0 1-.684.237c-.25.053-1.619.948-1.771 1.157-.068.093-.124.11-.125.038-.002-.072-.244.116-.538.417-.294.301-.562.524-.594.497-.033-.028-.222.16-.42.416-.198.257-.463.573-.587.702-1.116 1.157-2.002 3.298-2.269 5.484-.049.395-.132.79-.186.877-.054.088-.021.552.073 1.032s.208 1.097.252 1.372c.172 1.055.292 1.497.463 1.703.097.118.128.214.068.214-.131 0 .586 1.307 1.234 2.248.661.961 2.407 2.544 3.268 2.962.403.196.733.41.733.476 0 .067.394.249.875.406.481.157.968.359 1.081.449a.502.502 0 0 0 .438.074c.128-.049.297-.025.377.052.443.431 5.338.554 6.086.154.163-.088.355-.149.428-.137a.655.655 0 0 0 .257-.018c.068-.023.181-.057.25-.076.279-.079.823-.296 1.375-.547.32-.147.688-.286.816-.31.129-.025.279-.105.334-.18.055-.075.381-.279.724-.454.717-.364 3.292-2.835 3.292-3.158 0-.063.204-.432.453-.819.249-.388.459-.743.465-.789.007-.046.134-.458.283-.916.148-.459.324-1.059.391-1.334.173-.719.212-3.916.047-3.916-.076 0-.139-.174-.139-.387 0-.709-.501-2.087-1.085-2.98-.317-.486-.672-1.033-.788-1.217-.349-.553-2.331-2.416-2.57-2.416-.123 0-.223-.074-.223-.164 0-.09-.188-.21-.417-.268-.229-.057-.417-.16-.417-.228 0-.117-.54-.372-1.833-.864a8.155 8.155 0 0 0-.708-.245.494.494 0 0 1-.167-.057c-.313-.252-3.748-.512-5.208-.394M367 25.384c-.046.046-.458.125-.917.178-.756.086-1.363.192-1.583.278a.48.48 0 0 1-.208.013c-.069-.011-.125.055-.125.147s-.151.167-.335.167c-1.222 0-5.832 3.332-5.832 4.215 0 .116-.148.337-.329.492-.181.155-.38.49-.444.745a3.127 3.127 0 0 1-.409.881c-1.29 1.829-.754 7.85.853 9.583.17.184.304.398.299.476-.014.205 1.708 2.108 1.907 2.108.092 0 .326.176.52.392.194.216.69.572 1.103.792.412.219.787.444.833.5.046.055.384.193.75.306.367.113.894.307 1.172.431 1.105.495 4.72.622 6.521.23.535-.117 1.068-.195 1.182-.174.115.02.209-.027.209-.105 0-.079.378-.24.841-.358.463-.119 1.044-.385 1.292-.592.247-.207.615-.428.817-.492.993-.31 4.257-4.152 4.083-4.805-.018-.069.054-.125.161-.125.107 0 .147-.048.089-.106-.058-.057-.031-.244.06-.414.435-.812.82-5.814.448-5.814-.068 0-.128-.131-.132-.291-.004-.161-.12-.592-.258-.959a14.125 14.125 0 0 1-.294-.833c-.312-1.209-2.81-4.154-4.024-4.742a4.957 4.957 0 0 1-.833-.521c-.573-.478-2.738-1.211-4.167-1.411-1.036-.145-3.17-.271-3.25-.192m-92.67 2.175c-.048.048-.31.128-.583.177-.272.05-.52.167-.551.26-.032.094-.177.171-.325.171-.626 0-1.983 1.401-2.139 2.208a.517.517 0 0 1-.057.167c-.043.053-.163.592-.251 1.125-.037.229-.073 5.234-.079 11.121l-.012 10.705-7.375.054c-7.739.055-8.023.072-8.699.515-.232.152-.456.257-.498.232-.166-.097-1.251 1.115-1.433 1.603-.107.286-.281.7-.386.92-.597 1.247-.001 3.971 1.114 5.094 1.243 1.25 1.414 1.273 10.103 1.363 3.892.04 7.095.091 7.118.114.023.023.072 12.789.11 28.368.038 15.58.11 28.552.16 28.827.051.275.135 1.039.189 1.697.053.658.167 1.382.253 1.608.086.226.204.738.262 1.137.226 1.553 1.412 5.514 1.74 5.808.051.046.242.377.426.736.813 1.593.962 1.851 1.102 1.903.081.031.148.13.148.221 0 .241 1.498 2.15 1.768 2.254.126.048.188.155.138.237-.051.082-.032.149.043.149s.473.307.885.682c.412.374.899.811 1.082.969.452.39 2.173 1.516 2.318 1.516.064 0 .388.184.719.409.331.225.665.371.741.324.077-.047.139-.016.139.069s.337.249.75.365c.412.115.75.283.75.372 0 .09.11.121.245.069.134-.051.289-.02.345.069a.19.19 0 0 0 .262.061c.089-.055.253-.026.364.066.11.091.632.245 1.16.342.527.097 1.095.249 1.261.338.166.089.447.139.624.11.177-.028.399.009.493.083.584.46 9.982.774 13.079.437 2.152-.234 4.079-1.495 4.185-2.737.005-.07.083-.214.171-.321.915-1.103-.815-5.389-2.175-5.389-.176 0-.346-.079-.378-.176-.032-.097-.17-.193-.306-.213a1.364 1.364 0 0 1-.413-.138c-.344-.208-1.249-.296-4.084-.396-1.604-.056-3.047-.139-3.208-.184a6.9 6.9 0 0 0-.916-.14c-1.226-.112-4.796-.794-4.993-.953-.111-.089-.28-.114-.375-.055-.096.059-.174.028-.174-.069s-.057-.164-.125-.149c-.069.015-.488-.135-.931-.333-.443-.199-.874-.361-.958-.361-.084 0-.153-.077-.153-.171 0-.094-.171-.236-.38-.315-.775-.295-3.287-2.967-3.287-3.496 0-.102-.075-.185-.166-.185-.092 0-.167-.066-.167-.146 0-.08-.126-.437-.28-.792-.154-.355-.309-.831-.344-1.059-.035-.227-.116-.452-.179-.5-.117-.088-.144-.174-.372-1.169-.272-1.191-.551-3.649-.548-4.834l.029-27.788.027-27.204 10.209-.067c11.078-.073 10.619-.054 11.979-.499.903-.296 2.503-1.614 2.612-2.151.014-.07.145-.54.292-1.045.815-2.802-1.117-5.469-4.342-5.997-.183-.03-4.925-.06-10.538-.068L281.34 53.5l-.06-10.792c-.034-5.935-.099-11.016-.146-11.291-.199-1.176-1.399-3.084-1.94-3.084-.138 0-.378-.114-.533-.255-.437-.396-4.025-.825-4.331-.519m55.461 25.372c-.054.054-.573.164-1.153.244-1.022.141-1.721.273-1.721.325 0 .013-.177.057-.394.097-.216.04-.603.222-.859.405-.256.182-.556.331-.666.331-.333 0-2.498 2.083-2.498 2.402 0 .058-.189.392-.421.742-.232.35-.452.798-.491.997-.038.198-.109.426-.158.505-.08.129-.196.916-.329 2.23-.025.252-.096.508-.157.569-.194.194-.131 71.887.065 72.986.433 2.433.547 2.903.708 2.903.095 0 .128.044.073.098-.162.162.675 1.589 1.297 2.211.319.319.58.642.58.718 0 .077.085.139.19.139.104 0 .273.103.375.228.101.126.597.434 1.101.686.504.251 1.043.521 1.198.6 1.287.653 6.337.61 7.552-.065.183-.102.427-.166.542-.143.115.023.208-.027.208-.111 0-.085.225-.247.5-.361.275-.114.5-.273.5-.354 0-.08.077-.146.171-.146.398 0 2.496-2.401 2.496-2.856 0-.132.148-.53.328-.884.18-.354.292-.702.247-.773-.044-.072-.005-.177.087-.234.235-.146.238-76.693.003-76.838a.196.196 0 0 1-.069-.269c.055-.09-.01-.403-.145-.696-.134-.294-.376-.818-.537-1.166a4.14 4.14 0 0 0-.76-1.073c-.257-.243-.43-.502-.384-.577.046-.074-.023-.134-.153-.134-.131 0-.379-.193-.552-.429-.326-.444-2.05-1.545-2.538-1.621a1.514 1.514 0 0 1-.444-.143c-.287-.173-3.055-.511-3.24-.397-.097.06-.176.03-.176-.067 0-.191-.218-.237-.376-.079m38.01-.01c-.048.048-.758.196-1.578.329-1.443.233-3.539 1.101-3.973 1.645-.092.115-.3.259-.462.32a.792.792 0 0 0-.406.406c-.06.163-.238.388-.395.501-.454.327-1.349 2.043-1.589 3.044-.412 1.72-.244 77.361.174 78.334.458 1.064 1.178 2.194 1.313 2.059.063-.063.115-.014.115.109 0 .346 1.608 1.789 2.255 2.023.318.115.578.274.578.352 0 .079.075.097.167.04.092-.056.167-.033.167.053 0 .622 6.11.916 7.416.356.275-.118.538-.22.584-.228.438-.076 2.125-1.112 2.496-1.535.26-.296.51-.5.556-.454.046.046.133-.072.194-.262.06-.191.179-.346.265-.346.085 0 .155-.113.155-.25 0-.138.069-.25.152-.25.168 0 1.005-1.694 1.111-2.25.018-.092.047-.205.064-.25.018-.046.08-.234.138-.417.058-.183.13-17.133.158-37.667.051-36.339.02-39.231-.438-39.824-.075-.097-.224-.435-.33-.752-.889-2.636-3.918-4.661-7.32-4.894-.577-.04-1.096-.119-1.153-.176-.127-.127-.296-.133-.414-.016m-210.393.826c-.853.269-2.075.887-2.075 1.05 0 .068-.19.329-.423.58-.233.251-.364.457-.292.459.073.001.048.058-.054.125-.103.067-.31.549-.46 1.07-.348 1.204-.307 52.66.044 55.052.38 2.592.45 3 .519 3 .023 0 .059.188.079.417.031.354.563 2.179.876 3 .052.138.123.4.158.583.035.184.136.359.225.389.089.031.162.181.162.334.001.152.15.522.333.822.182.299.317.599.298.666-.058.216.916 2.039 1.09 2.039.092 0 .12.048.061.107-.058.058.042.313.223.567.18.254.328.543.328.644 0 .1.088.182.194.182.107 0 .15.045.095.101-.092.091.939 1.704 1.214 1.899.064.046.236.309.381.584.145.275.527.781.848 1.125.321.343.557.625.525.625-.119 0 .858 1.071 2.388 2.619.858.868 1.503 1.478 1.432 1.355-.072-.123.17.085.536.462.366.378.884.827 1.151.999.267.172.623.482.79.689.167.207.376.376.465.376.089 0 .36.183.602.407.242.225.501.37.576.324.075-.046.136-.005.136.092s.115.177.256.177c.14 0 .298.112.35.249.053.137.163.207.245.157.082-.051.149-.013.149.084s.113.176.25.176c.138 0 .251.057.251.125.001.131.807.633 1.064.663a.416.416 0 0 1 .25.164c.162.233 1.347.882 1.612.882.132 0 .24.058.24.13 0 .071.375.275.833.453.459.178.834.386.834.463 0 .077.075.094.166.037.092-.057.167-.024.167.073 0 .098.056.165.125.151.069-.014.404.099.745.25.34.152.697.276.791.276.095 0 .172.087.172.194 0 .107.05.146.11.085.06-.06.192-.045.292.034.1.079.482.238.848.354.367.115.744.27.838.344.093.073.761.292 1.483.486.722.193 1.433.413 1.579.488.147.075.361.103.475.062.115-.041.209-.01.209.07s.131.158.291.175c.534.055 2.956.628 3.134.741.096.062.584.155 1.083.207 1.517.159 2.388.272 2.825.369 1.648.364 12.694.204 14.527-.211.214-.048.595-.088.845-.087.251 0 .497-.067.547-.148.05-.082.207-.104.348-.05.14.054.419.019.619-.077.424-.204 1.696-.511 2.678-.647.377-.052.734-.171.792-.263.059-.093.193-.115.299-.05.106.066.283.051.394-.032.111-.083.539-.248.951-.367a26.92 26.92 0 0 0 1-.305c.378-.135.727-.223.958-.243.115-.01.209-.068.209-.13s.318-.213.708-.336c.39-.123.79-.284.89-.358.1-.075.232-.086.292-.026.06.061.11.038.11-.05s.412-.3.916-.472c.505-.171.917-.374.917-.451 0-.077.083-.139.185-.139.269 0 2.285-.983 2.401-1.172.055-.088.47-.32.923-.515.454-.195.824-.411.824-.48 0-.07.227-.22.504-.335.277-.115.559-.293.625-.395.122-.187.56-.465 1.413-.896.252-.128.458-.299.458-.382 0-.083.21-.259.467-.391.256-.133.781-.547 1.166-.921.386-.374.701-.643.701-.597 0 .045.382-.293.85-.75 1.171-1.147 1.149-1.189 1.156 2.125.007 3.314.088 4.173.427 4.555.128.145.236.37.239.5.009.382 1.354 1.67 1.828 1.751.046.008.308.11.583.228 1.168.501 4.805.185 5.633-.49.11-.09.444-.359.742-.598.298-.238.542-.534.542-.657s.093-.324.208-.447c.221-.238.242-.297.513-1.467.229-.984.361-79.826.136-80.666a52.937 52.937 0 0 1-.349-1.417c-.195-.85-.847-1.83-1.433-2.153-.179-.099-.363-.225-.409-.28-.418-.503-1.519-.726-3.416-.692-2.289.04-2.272.038-2.145.244.064.103.037.135-.061.075-.179-.111-1.711.662-1.711.864 0 .061-.169.299-.376.527-.929 1.024-.866-.831-.969 28.498-.053 14.896-.149 27.309-.215 27.584a10.26 10.26 0 0 0-.182 1.083c-.034.321-.074.583-.089.583s-.051.113-.079.25c-.156.759-.472 1.815-.681 2.271-.131.286-.265.661-.298.833a5.298 5.298 0 0 1-.252.782c-.106.258-.192.53-.192.605 0 .074-.115.23-.254.346-.14.116-.217.249-.17.295.111.112-.599 1.368-.774 1.368-.074 0-.136.15-.136.334 0 .183-.063.333-.14.333-.077 0-.222.181-.322.401-.579 1.271-3.306 4.37-5.371 6.106-.596.5-1.121.951-1.167 1.002-.046.05-.364.263-.708.472-.344.209-.625.448-.625.533 0 .084-.113.153-.25.153-.138 0-.25.079-.25.176 0 .097-.072.132-.161.077-.088-.054-.296.035-.462.199-.166.164-.731.513-1.256.776s-.954.544-.954.625c0 .081-.134.147-.297.147-.163 0-.463.116-.666.259-.204.143-.372.199-.373.125-.002-.074-.069-.03-.15.098-.143.226-.827.524-2.014.879a6.323 6.323 0 0 0-1 .4c-.76.414-5.606 1.63-7.25 1.82-.367.042-.892.118-1.167.168-2.098.381-9.427.462-10 .111-.092-.056-.392-.119-.667-.139a22.958 22.958 0 0 1-2.333-.301l-1.417-.277c-.504-.099-1.029-.22-1.166-.27a6.477 6.477 0 0 0-.938-.267c-1.101-.247-3.571-1.149-5.229-1.909-.321-.147-.64-.252-.708-.232-.069.019-.125-.04-.125-.132s-.057-.159-.125-.149c-.26.038-.875-.23-.875-.38 0-.087-.075-.111-.167-.054-.092.056-.167.023-.167-.074a.173.173 0 0 0-.17-.176c-.093 0-.487-.204-.875-.453-.387-.249-.761-.436-.83-.416-.068.019-.125-.023-.125-.093 0-.071-.281-.275-.625-.453-.642-.334-1.135-.711-2.688-2.058-.493-.427-1.009-.843-1.146-.922-.396-.231-1.457-1.271-1.457-1.429 0-.079-.188-.327-.417-.549a10.213 10.213 0 0 1-.833-.957 12.819 12.819 0 0 0-.709-.861c-.16-.17-.291-.355-.291-.41 0-.056-.232-.393-.514-.75-.283-.357-.452-.652-.375-.655.076-.003.025-.096-.115-.208-.139-.112-.394-.522-.566-.911-.173-.39-.382-.709-.465-.709-.084 0-.105-.075-.049-.166.057-.092.036-.167-.047-.167-.082 0-.242-.319-.356-.708a11.635 11.635 0 0 0-.514-1.375 11.156 11.156 0 0 1-.516-1.417c-.228-.831-.248-.925-.406-2-.06-.413-.196-.804-.302-.869-.143-.088-.213-7.117-.275-27.583-.067-22.033-.127-27.562-.3-27.956-1.142-2.588-4.032-3.77-6.959-2.845" fill="#fc8404" fill-rule="evenodd"/></svg>