<svg id="Calque_1" data-name="Calque 1" xmlns="http://www.w3.org/2000/svg" viewBox="0 0 391.19 89.72"><defs><style>.cls-1{fill:#002c5c}.cls-2{fill:#fbdd06}</style></defs><path class="cls-1" d="M94.92 20.06h11v4.36c1.13-2.11 3.16-5.69 9.91-5.69v11.73h-.42c-6 0-8.78 2.18-8.78 7.66v20.94H94.92zm26.84-.06h10.89v4.15c1.33-1.9 3.79-5.48 10.75-5.48 13.13 0 14.47 10.68 14.47 15.95V59h-11.66V37.71c0-4.29-.91-8.08-6.11-8.08-5.76 0-6.67 4.14-6.67 8.15V59h-11.67zm42.24-.15h11.66V59H164zm64.51.15h11v4.36c1.13-2.11 3.16-5.69 9.9-5.69v11.74H249c-6 0-8.78 2.18-8.78 7.66V59h-11.71z"/><path class="cls-2" d="M310 44.18a20.94 20.94 0 0 1-41.31-4.78 20.47 20.47 0 0 1 20.58-20.72C299.62 18.68 308 25.49 310 35h-11.8a8.74 8.74 0 0 0-8.43-5.47A8.35 8.35 0 0 0 283 32.3a10.74 10.74 0 0 0-2.53 7.17c0 5.69 3.72 9.91 9.28 9.91a9 9 0 0 0 8.43-5.2zM316.33 20h11v4.36c1.12-2.11 3.16-5.69 9.9-5.69v11.74h-.42c-6 0-8.78 2.18-8.78 7.66V59h-11.7z"/><path class="cls-1" d="M42.43 6.07a5.82 5.82 0 1 0-11.64 0v16.66a15 15 0 0 0-11.47-4.63C9.42 18.1 0 25.62 0 38.82c0 11.74 7.73 20.87 19.53 20.87 7.87 0 10.68-3.86 11.8-5.48v-.05a5.53 5.53 0 1 0 11.05 0V6.07zM28.66 45.85a10.25 10.25 0 0 1-7.24 3 9.54 9.54 0 0 1-9.76-10v-.07A9.57 9.57 0 0 1 21.57 29a9.71 9.71 0 0 1 7 2.74 9.43 9.43 0 0 1 2.88 6.89 9.43 9.43 0 0 1-2.79 7.22z"/><circle class="cls-1" cx="169.84" cy="7.56" r="7.31"/><path class="cls-1" d="M88.69 42.9c.92-7.16-.57-13.35-5.49-18.62a19.94 19.94 0 0 0-14.75-6.18C56.58 18.1 48 28.14 48 39a20.69 20.69 0 0 0 20.66 20.69 19 19 0 0 0 11.1-3.51 22.89 22.89 0 0 0 7.94-10H76a10.23 10.23 0 0 1-1.49 1.51 7.24 7.24 0 0 1-3.62 1.91 9.7 9.7 0 0 1-2.69.4 10.35 10.35 0 0 1-10.11-10.56v-.95A10.35 10.35 0 0 1 68.2 27.93h.32c5.29 0 7.78 3.34 8.51 5.4.13.25.25.52.37.79h-7.66a4.39 4.39 0 1 0 0 8.78h18.95zm133.6 0c.91-7.16-.57-13.35-5.49-18.62A19.94 19.94 0 0 0 202 18.1c-11.87 0-20.45 10-20.45 20.94a20.69 20.69 0 0 0 20.66 20.65 19 19 0 0 0 11.1-3.51 22.87 22.87 0 0 0 7.94-10h-11.68a10.22 10.22 0 0 1-1.49 1.51 7.23 7.23 0 0 1-3.62 1.91 9.71 9.71 0 0 1-2.67.38 10.34 10.34 0 0 1-10.11-10.56v-.95a10.35 10.35 0 0 1 10.12-10.54h.31c5.29 0 7.78 3.34 8.51 5.4.13.25.25.52.36.79h-7.65a4.39 4.39 0 1 0 0 8.78h18.96z"/><path class="cls-2" d="M361 .31a7.23 7.23 0 0 0-7.19 7.27 7.18 7.18 0 1 0 14.37 0A7.23 7.23 0 0 0 361 .31zm5.76 36.49a5.74 5.74 0 0 0-1.93-4.29l-11.38-13.83-8.93 7.27 10.7 13V59h11.53V36.87s.01-.04.01-.07z"/><path d="M105 80.2v-.06c0-.64.38-1 1.09-1h7c.72 0 1.09.34 1.09 1v.06c0 .67-.37 1-1.09 1h-2.32v7.28a1 1 0 0 1-1 1.07h-.34c-.66 0-1-.37-1-1.07v-7.25h-2.35A1 1 0 0 1 105 80.2zm12.76 8.31v-8.34c0-.72.35-1.07 1-1.07h.35c.67 0 1 .35 1 1.07v3.15h4.48v-3.15c0-.72.35-1.07 1-1.07h.34a.93.93 0 0 1 1 1.07v8.34a.94.94 0 0 1-1 1.07h-.34c-.64 0-1-.37-1-1.07v-3.19h-4.48v3.18a.94.94 0 0 1-1 1.07h-.35c-.65.01-1-.36-1-1.06zm13.6 0v-8.34c0-.72.35-1.07 1-1.07h.32a.93.93 0 0 1 1 1.07v8.34a.94.94 0 0 1-1 1.07h-.32c-.65 0-1-.37-1-1.07zm6.75 0v-8.25c0-.75.38-1.17 1-1.17h.29a1.29 1.29 0 0 1 1.2.67l4.48 6.16v-5.75c0-.7.34-1.07 1-1.07h.22c.66 0 1 .37 1 1.07v8.24c0 .77-.38 1.17-1 1.17h-.19A1.17 1.17 0 0 1 145 89l-4.66-6.4v5.91c0 .71-.34 1.07-1 1.07h-.22c-.67 0-1.01-.37-1.01-1.07zm13.47 0v-8.34c0-.72.35-1.07 1-1.07h.34a.93.93 0 0 1 1 1.07v3.7l3.39-4a1.59 1.59 0 0 1 1.3-.77 1.34 1.34 0 0 1 1.39.9l-3.51 4.19 3.63 4.42c.08.13-.46.93-1.39.93a1.55 1.55 0 0 1-1.3-.74L154 84.72v3.79a.94.94 0 0 1-1 1.07h-.34c-.73 0-1.08-.37-1.08-1.07zm17.35-.24v-7.8a1.17 1.17 0 0 1 1.23-1.31h5.35c.74 0 1.09.34 1.09.94v.1c0 .66-.35 1-1.09 1h-4.24v2.58h3.06c.75 0 1.09.32 1.09.91 0 .62-.34 1-1.09 1h-3v2.82c0 .72-.35 1.09-1 1.09h-.37c-.68-.02-1.03-.5-1.03-1.33zm10.78-3.92a5.34 5.34 0 1 1 5.29 5.37 5.12 5.12 0 0 1-5.29-5.37zm8.34 0A3 3 0 0 0 185 81a3.31 3.31 0 1 0 3 3.31zm11.68 4.27l-2.21-2.79h-.9v2.67a1 1 0 0 1-1 1.07h-.34c-.64 0-1-.46-1-1.3v-7.8a1.17 1.17 0 0 1 1.23-1.31h3.06c2.69 0 4.08 1.12 4.08 3.23a2.92 2.92 0 0 1-2.65 3.08l2.69 3.25c.1.11-.35.87-1.36.87a1.79 1.79 0 0 1-1.6-.97zm-3.14-4.51h1.81c1.26 0 1.87-.59 1.87-1.55s-.64-1.56-1.92-1.56h-1.76zm11.98 4.59l-2.43-8.85c0-.11.46-.74 1.44-.74.53 0 1.12.29 1.31 1.3l1.31 6.18 1.57-5.39a1.29 1.29 0 0 1 1.41-.94 1.27 1.27 0 0 1 1.36.94l1.55 5.38 1.33-6.19c.18-.93.7-1.28 1.3-1.28a1.39 1.39 0 0 1 1.36.75l-2.38 8.84c-.16.69-.62.91-1.46.91s-1.25-.22-1.46-.91l-1.63-5.6-1.7 5.6c-.18.67-.64.91-1.44.91s-1.26-.21-1.44-.91zm20.71-1.82h-3.79l-.62 1.66c-.29.82-.78 1.09-1.3 1.09s-1.31-.51-1.23-.72l3.54-9.14c.13-.43.46-.7 1.54-.7s1.38.27 1.52.7l3.62 9.12c.08.19-.58.74-1.28.74a1.45 1.45 0 0 1-1.36-1.12zM226 85.12h2.85l-1.42-3.76zm15.46 3.5l-2.21-2.79h-.9v2.67a1 1 0 0 1-1 1.07H237c-.64 0-1-.46-1-1.3v-7.8a1.17 1.17 0 0 1 1.23-1.31h3.06c2.69 0 4.08 1.12 4.08 3.23a2.92 2.92 0 0 1-2.69 3.07l2.69 3.25c.1.11-.35.87-1.36.87a1.79 1.79 0 0 1-1.55-.96zm-3.14-4.51h1.81c1.26 0 1.87-.59 1.87-1.55s-.64-1.56-1.92-1.56h-1.76zm9.95 4.11v-7.75a1.2 1.2 0 0 1 1.25-1.31h2.63c3.47 0 5.57 1.94 5.57 5.14s-2.16 5.22-5.65 5.22h-2.48a1.29 1.29 0 0 1-1.32-1.3zm3.73-.72a3.16 3.16 0 1 0 0-6.32h-1.47v6.32zm8.78 1.07v-.22a.93.93 0 0 1 1.06-1.06h.29c.74 0 1.09.35 1.09 1.06v.22c0 .7-.35 1.06-1.09 1.06h-.29a.94.94 0 0 1-1.06-1.06z" fill="#a8bbd5"/><path class="cls-2" d="M385.63 0A5.63 5.63 0 1 1 380 5.63 5.63 5.63 0 0 1 385.63 0zm0 1.13a4.43 4.43 0 0 0-4.4 4.5 4.39 4.39 0 1 0 8.78 0 4.44 4.44 0 0 0-4.37-4.5zm.24 1.32c1.2 0 2.29.5 2.29 1.76a1.55 1.55 0 0 1-1 1.51c.46.19.84.5.89 1.45a5 5 0 0 0 .19 1.52h-1.51a9 9 0 0 1-.21-1.5c0-.35-.13-.91-1.11-.91h-.62V8.7h-1.56V2.45zm-1.09 1.07v1.76h.75c.32 0 1.07 0 1.07-1 0-.79-.66-.81-1-.81z"/></svg>