<svg xmlns="http://www.w3.org/2000/svg" width="400" height="400" viewBox="0 0 400 400"><g fill-rule="evenodd"><path d="M42.23.186c.26.068.686.068.946 0 .26-.068.047-.123-.473-.123-.521 0-.733.055-.473.123m314.594 0c.26.068.686.068.946 0 .26-.068.048-.123-.473-.123-.52 0-.733.055-.473.123M23.446 6.101c-1.01.548-.949.776.068.25.445-.23.81-.477.81-.547 0-.174-.029-.164-.878.297m352.23-.304c0 .074.365.324.81.554.446.231.811.359.811.285 0-.075-.365-.324-.811-.555-.445-.231-.81-.358-.81-.284M20.468 7.983c-.555.377-1.009.743-1.009.814 0 .071.487-.192 1.082-.586.944-.625 1.263-.914 1.008-.914-.04 0-.526.309-1.081.686m357.91-.602c0 .063.517.456 1.149.872.632.417 1.006.585.832.374-.336-.406-1.981-1.441-1.981-1.246M15.26 12.23l-1.341 1.419 1.419-1.342c.78-.737 1.419-1.376 1.419-1.418 0-.202-.251.022-1.497 1.341m369.053-.271c1.12 1.194 1.363 1.408 1.363 1.205 0-.043-.578-.621-1.284-1.283l-1.284-1.205 1.205 1.283M11.892 15.541c-.657.668-1.133 1.216-1.059 1.216.075 0 .673-.548 1.329-1.216.657-.669 1.133-1.217 1.059-1.217-.075 0-.673.548-1.329 1.217m375.935-.068c1.12 1.193 1.362 1.408 1.362 1.205 0-.043-.578-.621-1.284-1.284l-1.283-1.205 1.205 1.284M7.897 20.608c-.987 1.457-1.2 1.824-1.059 1.824.062 0 .557-.668 1.099-1.486.543-.818.931-1.487.863-1.487-.069 0-.475.517-.903 1.149m384.155.27c.549.855 1.048 1.554 1.11 1.554.181 0-.797-1.566-1.479-2.369-.346-.406-.18-.039.369.815M.068 42.838c.003.594.059.806.123.47.065-.337.062-.823-.005-1.081-.068-.259-.121.016-.118.611m399.73 0c.003.594.058.806.123.47.065-.337.062-.823-.006-1.081-.067-.259-.12.016-.117.611M65.037 142.001c-3.247 1.208-3.415 1.853-3.415 13.081v9.461l-2.191-1.317c-17.926-10.774-38.572 6.021-33.488 27.24 3.605 15.048 21.197 22.341 33.847 14.033l1.804-1.185.247.712c1.536 4.405 8.152 4.697 10.083.445.472-1.038.497-2.536.502-29.901l.006-28.809-.628-1.191c-1.256-2.378-4.237-3.51-6.767-2.569m117.368 3.076c-1.169.61-1.583 1.026-2.198 2.202l-.757 1.45.072 27.595.073 27.595.641 1.032c2.45 3.94 8.783 3.086 10.015-1.351.42-1.514.399-53.466-.023-55.141-.859-3.411-4.639-5.046-7.823-3.382m17.46.238c-3.767 1.99-3.812 7.133-.078 9.038.924.472 1.703.512 9.932.512h8.93l.006 24.257c.005 22.949.032 24.315.502 25.349 1.68 3.699 6.655 4.148 9.328.842l.839-1.039.072-24.704.072-24.705h8.925c8.326 0 8.996-.036 9.962-.529 3.666-1.87 3.676-7.067.018-8.933-1.469-.75-47.099-.833-48.508-.088m67.838 2.219c-7.689 2.022-6.258 12.977 1.698 13.001 4.23.012 6.803-2.439 6.803-6.481 0-4.477-4.154-7.663-8.501-6.52m20.74.573c-1.697 1.035-2.391 3.13-1.672 5.051.157.419 5.659 6.143 12.228 12.722l11.942 11.961-11.945 11.958c-6.569 6.577-12.071 12.3-12.227 12.719-1.131 3.043 1.68 6.177 4.785 5.337 1.575-.427 28.549-27.512 28.96-29.08.624-2.378.898-2.042-13.442-16.439-16.11-16.172-15.814-15.946-18.629-14.229m-189.524 12.08c-11.211 1.885-18.179 10.961-18.217 23.732-.031 10.452 3.89 17.589 11.802 21.477 12.82 6.3 36.163-.018 30.68-8.303-1.551-2.343-3.817-2.725-7.539-1.27-11.251 4.396-21.691 1.321-23.635-6.963l-.172-.734 15.114-.077 15.115-.076 1.096-.725c5.038-3.335 1.333-17.104-6.125-22.764-4.801-3.644-11.937-5.336-18.119-4.297m31.615.691c-1.863.942-2.836 2.543-2.81 4.618.02 1.584 14.351 35.754 16.361 39.013 2.298 3.724 8.951 3.883 11.699.28.38-.498 4.248-9.108 8.595-19.131l7.904-18.226.007-1.939c.016-4.225-4.537-6.672-8.119-4.365-1.549.998-1.292.454-7.974 16.894-3.334 8.202-6.133 14.831-6.22 14.73-.086-.102-2.747-6.57-5.911-14.374-3.165-7.804-5.971-14.614-6.235-15.135-1.364-2.682-4.597-3.73-7.297-2.365m-24.618 8.868c4.047.933 7.73 4.555 8.318 8.182l.161.991H91.832l.179-1.014c1.011-5.708 7.646-9.602 13.905-8.159m-54.657.547c3.368.469 6.604 2.015 9.214 4.401l1.149 1.051v16.573l-1.165.974c-9.537 7.971-21.97 5.095-23.989-5.55-1.692-8.922 2.597-16.384 10.018-17.428 2.463-.347 2.43-.347 4.773-.021m215.724 22.713c-3.198.904-5.42 5.066-4.348 8.145 2.583 7.422 13.343 5.953 13.387-1.827.027-4.658-4.274-7.664-9.039-6.318m74.098 6.978c-10.211.148-10.421.162-11.25.754-2.243 1.6-2.197 5.173.086 6.721 1.207.818 39.208.942 41.035.134 3.117-1.379 3.114-5.56-.006-7.281-.922-.509-10.272-.611-29.865-.328M83.749 289.636c-.53.638-.681 27.993-.16 29.013.455.892 5.28 1.184 6.176.373 1.208-1.093.268-1.995-2.082-1.995h-1.737v-25.405h1.737c1.761 0 2.587-.389 2.587-1.217 0-1.237-5.585-1.896-6.521-.769m23.703-.022c-.353.353-.425 1.201-.425 4.999v4.575l-1.284-.907c-5.743-4.057-12.094.039-12.094 7.8s6.351 11.857 12.094 7.8l1.284-.907v.801c0 1.348 1.771 1.875 2.552.759.365-.521.421-2.155.421-12.372s-.056-11.851-.421-12.372c-.49-.701-1.518-.786-2.127-.176m111.856-.041c-.668.488-.962 23.485-.316 24.751.732 1.436 2.9.747 2.9-.921 0-.484.065-.469.743.179 3.667 3.505 9.987 1.678 11.954-3.455 3.357-8.758-5.709-17.515-11.954-11.547l-.743.71v-4.45c0-5.458-.613-6.708-2.584-5.267m71.352 0c-.504.368-.528.857-.593 12.229-.075 13.05-.066 13.131 1.467 13.281 1.336.13 1.709-.657 1.709-3.599v-2.45l1.345-1.325c.74-.729 1.389-1.272 1.442-1.206.053.065 1.227 1.761 2.61 3.767 3.59 5.212 4.098 5.629 5.27 4.334.749-.827.458-1.455-2.773-5.996l-3.01-4.23 2.558-2.509c2.638-2.588 3.143-3.608 2.234-4.518-.859-.859-1.61-.376-5.669 3.651l-4.007 3.975v-7.354c0-8.489-.377-9.663-2.583-8.05m17.43.191c-.671 1.254.035 1.858 2.174 1.858h1.898v25.405h-1.882c-1.879 0-2.442.303-2.442 1.314 0 1.106 5.061 1.69 6.367.735.821-.6.821-28.903 0-29.503-.933-.683-5.728-.533-6.115.191M187.838 290c-1.153 1.153-.309 3.243 1.309 3.243 1.011 0 1.664-.761 1.664-1.939 0-1.688-1.8-2.478-2.973-1.304m-31.467.965c-.373.373-.425 1.826-.425 11.873 0 12.442-.018 12.297 1.49 12.297 1.453 0 1.483-.245 1.483-12.297 0-9.605-.057-11.177-.421-11.697-.491-.7-1.518-.785-2.127-.176m8.223-.018c-.186.223-.337.709-.337 1.08 0 1.356.376 1.487 4.29 1.487h3.615v10.21c0 11.087.042 11.411 1.483 11.411 1.496 0 1.49.047 1.49-11.235v-10.386h3.607c4.27 0 5.719-.906 4.077-2.549-.626-.625-17.707-.642-18.225-.018m-43.87 6.21c-6.565 2.512-6.879 14.576-.457 17.549 4.079 1.888 12.284-.558 9.894-2.948l-.645-.645-1.852.654c-4.605 1.625-9.015-.453-9.015-4.248 0-.122 2.66-.222 5.913-.222 6.876 0 6.697.068 6.585-2.468-.252-5.717-5.478-9.563-10.423-7.672m81.708-.148c-7.25 2.214-8.273 14.075-1.51 17.508 4.27 2.167 9.391.355 11.39-4.03 3.343-7.335-2.754-15.653-9.88-13.478m41.503.133c-2.353.878-3.665 2.704-3.665 5.104 0 2.876 1.23 4.023 5.872 5.478 3.16.99 3.858 1.409 3.858 2.313 0 2.16-2.918 2.991-6.53 1.858-3.869-1.213-5.034.955-1.405 2.617 5.12 2.343 10.908.036 10.908-4.349 0-2.724-1.446-4.067-5.872-5.454-3.478-1.09-3.92-1.411-3.805-2.756.165-1.914 2.671-2.677 6.141-1.868 2.404.56 3.631-.292 2.627-1.824-.796-1.214-5.965-1.926-8.129-1.119m-108.623.379c-.686.758-.645.904 2.532 9.04 3.068 7.856 3.474 8.574 4.859 8.574 1.381 0 1.792-.722 4.858-8.549 3.163-8.073 3.256-8.414 2.485-9.112-1.502-1.359-2.003-.629-4.782 6.97-1.335 3.648-2.487 6.631-2.561 6.63-.075-.002-1.226-2.986-2.56-6.632-2.773-7.583-3.408-8.493-4.831-6.921m52.703 0c-.401.443-.447 1.627-.447 11.336v10.842l-.601.421c-.33.231-1.118.421-1.751.421-2.042 0-2.578 2.01-.723 2.715 2.119.806 4.644-.06 5.574-1.91.684-1.361.728-23.215.049-23.894-.57-.57-1.552-.537-2.101.069m80.797.016c-.846.934-.526 12.985.392 14.766 1.899 3.687 6.508 4.184 9.951 1.074l1.115-1.007v.935c0 1.594 1.55 2.414 2.526 1.336.717-.793.674-16.514-.047-17.167-1.929-1.746-2.479-.388-2.479 6.128v5.586l-.963 1.066c-2.693 2.981-6.826 2.855-7.684-.234-.148-.531-.269-3.471-.27-6.532-.002-5.048-.048-5.608-.496-6.014-.654-.591-1.476-.566-2.045.063m-143.746 2.338c1.715.716 3.042 2.477 3.042 4.033v.687h-4.73c-5.175 0-4.999.065-4.418-1.649.957-2.822 3.564-4.133 6.106-3.071m-21.5.173c.583.174 1.601.793 2.261 1.374l1.2 1.056v7.188l-.849.83c-3.285 3.211-8.261 2.161-9.393-1.982-1.496-5.478 2.036-9.888 6.781-8.466m103.326.193c4.513 2.082 4.302 10.054-.313 11.817-4.381 1.673-8.288-2.964-6.88-8.166.913-3.375 4.189-5.038 7.193-3.651m21.798-.234c5.832 1.62 4.146 12.446-1.933 12.418-3.559-.017-4.865-1.72-4.865-6.344 0-3.812.001-3.819.743-4.528 1.619-1.547 3.928-2.137 6.055-1.546m29.978 11.786c-1.111 1.413-.253 3.342 1.487 3.342 1.222 0 2.007-.793 2.007-2.027 0-1.937-2.318-2.809-3.494-1.315M.063 357.297c0 .521.055.733.123.473s.068-.686 0-.946c-.068-.26-.123-.047-.123.473m399.729 0c0 .521.056.733.124.473s.068-.686 0-.946c-.068-.26-.124-.047-.124.473M4.324 373.076c0 .291.804 1.789.96 1.789.074 0-.066-.395-.311-.879-.502-.986-.649-1.192-.649-.91m2.884 5.307c.264.448.764 1.147 1.109 1.554.346.406.18.039-.369-.815-1.04-1.62-1.578-2.157-.74-.739m384.844.739c-.549.854-.715 1.221-.369.815.682-.803 1.66-2.369 1.479-2.369-.062 0-.561.699-1.11 1.554m-380.171 5.27c.662.706 1.24 1.284 1.283 1.284.203 0-.011-.243-1.205-1.363l-1.283-1.205 1.205 1.284m375.957.067c-.657.669-1.133 1.217-1.059 1.217.075 0 .673-.548 1.329-1.217.657-.668 1.133-1.216 1.059-1.216-.075 0-.673.548-1.329 1.216m-372.444 3.446c.663.706 1.241 1.284 1.284 1.284.203 0-.012-.242-1.205-1.362l-1.284-1.205 1.205 1.283m368.93.068c-.656.669-1.132 1.216-1.058 1.216.074 0 .672-.547 1.329-1.216.656-.669 1.132-1.216 1.058-1.216-.074 0-.672.547-1.329 1.216m-364.683 3.4c.336.406 1.981 1.441 1.981 1.246 0-.063-.517-.456-1.149-.872-.632-.417-1.006-.585-.832-.374m359.873.365c-1.255.887-1.432 1.141-.372.534.495-.283 1.027-.667 1.182-.853.4-.478.212-.404-.81.319m-356.811 1.626c0 .075.365.324.811.555.445.231.81.358.81.284 0-.074-.365-.324-.81-.554-.446-.231-.811-.359-.811-.285m353.716.304c-1.01.548-.949.777.067.251.446-.231.811-.477.811-.548 0-.173-.029-.164-.878.297m-351.284 1.059c0 .185 1.655 1.006 1.779.882.058-.059-.318-.309-.836-.556-.519-.247-.943-.394-.943-.326m348.649.408c-.52.285-.849.523-.73.529.286.015 1.811-.777 1.811-.941 0-.177-.016-.171-1.081.412M42.23 399.916c.26.068.686.068.946 0 .26-.068.047-.124-.473-.124-.521 0-.733.056-.473.124m314.594 0c.26.068.686.068.946 0 .26-.068.048-.124-.473-.124-.52 0-.733.056-.473.124" fill="#fafafb"/><path d="M42.838.174C20.478 2.797 4.451 17.873.497 40c-.539 3.018-.539 316.982 0 320C4.26 381.06 18.94 395.74 40 399.503c1.679.3 29.153.362 160 .362s158.321-.062 160-.362c21.06-3.763 35.74-18.443 39.503-39.503.539-3.018.539-316.982 0-320-3.719-20.817-17.519-34.87-38.692-39.402C358.955.201 46.165-.217 42.838.174M70.1 142.621c.591.417 1.358 1.293 1.704 1.949l.628 1.191-.006 28.809c-.005 27.365-.03 28.863-.502 29.901-1.931 4.252-8.547 3.96-10.083-.445l-.247-.712-1.804 1.185c-12.65 8.308-30.242 1.015-33.847-14.033-5.084-21.219 15.562-38.014 33.488-27.24l2.191 1.317v-9.461c0-10.33.014-10.434 1.603-11.957 1.761-1.687 4.871-1.915 6.875-.504m116.522 2.003c1.488.409 3.203 2.232 3.606 3.835.422 1.675.443 53.627.023 55.141-1.232 4.437-7.565 5.291-10.015 1.351l-.641-1.032-.073-27.595-.072-27.595.757-1.45c1.239-2.371 3.716-3.396 6.415-2.655m61.751.779c3.658 1.866 3.648 7.063-.018 8.933-.966.493-1.636.529-9.962.529h-8.925l-.072 24.705-.072 24.704-.839 1.039c-2.673 3.306-7.648 2.857-9.328-.842-.47-1.034-.497-2.4-.502-25.349l-.006-24.257h-8.93c-8.229 0-9.008-.04-9.932-.512-3.734-1.905-3.689-7.048.078-9.038 1.409-.745 47.039-.662 48.508.088m24.269 2.674c4.032 2.057 4.894 7.681 1.648 10.761-3.426 3.25-10.107 1.751-11.298-2.535-1.672-6.022 4.184-11.014 9.65-8.226m20.223.273c.58.43 6.973 6.724 14.207 13.986 14.34 14.397 14.066 14.061 13.442 16.439-.411 1.568-27.385 28.653-28.96 29.08-3.105.84-5.916-2.294-4.785-5.337.156-.419 5.658-6.142 12.227-12.719l11.945-11.958-11.942-11.961c-6.569-6.579-12.071-12.303-12.228-12.722-1.443-3.854 2.833-7.228 6.094-4.808m-184.983 12.032c10.032 1.93 16.88 10.072 17.445 20.74.184 3.475-.321 4.906-2.164 6.126l-1.096.725-15.115.076-15.114.077.172.734c1.944 8.284 12.384 11.359 23.635 6.963 3.722-1.455 5.988-1.073 7.539 1.27 5.483 8.285-17.86 14.603-30.68 8.303-7.912-3.888-11.833-11.025-11.802-21.477.049-16.271 11.847-26.488 27.18-23.537m27.191.307c2.3.961 1.85.075 8.993 17.689 3.164 7.804 5.825 14.272 5.911 14.374.087.101 2.886-6.528 6.22-14.73 6.682-16.44 6.425-15.896 7.974-16.894 3.582-2.307 8.135.14 8.119 4.365l-.007 1.939-7.904 18.226c-4.347 10.023-8.215 18.633-8.595 19.131-2.748 3.603-9.401 3.444-11.699-.28-2.01-3.259-16.341-37.429-16.361-39.013-.048-3.752 3.819-6.282 7.349-4.807m-34.884 9.067c-3.996.94-7.524 4.456-8.178 8.149l-.179 1.014h22.563l-.161-.991c-.915-5.641-7.794-9.644-14.045-8.172m-53.703.558c-7.421 1.044-11.71 8.506-10.018 17.428 2.019 10.645 14.452 13.521 23.989 5.55l1.165-.974v-16.573l-1.149-1.051c-2.61-2.386-5.846-3.932-9.214-4.401-2.343-.326-2.31-.326-4.773.021m226.082 23.134c4.964 2.555 4.575 10.307-.605 12.073-3.981 1.356-7.989-.522-9.328-4.37-1.858-5.34 4.676-10.407 9.933-7.703m98.378 6.864c3.12 1.721 3.123 5.902.006 7.281-1.827.808-39.828.684-41.035-.134-2.283-1.548-2.329-5.121-.086-6.721 1.364-.974 39.408-1.368 41.115-.426m-281.1 89.302c1.109 1.109.142 2.008-2.163 2.008h-1.737v25.405h1.737c2.35 0 3.29.902 2.082 1.995-.896.811-5.721.519-6.176-.373-.521-1.02-.37-28.375.16-29.013.528-.635 5.465-.653 6.097-.022m19.733.176c.365.521.421 2.155.421 12.372s-.056 11.851-.421 12.372c-.781 1.116-2.552.589-2.552-.759v-.801l-1.284.907c-5.743 4.057-12.094-.039-12.094-7.8s6.351-11.857 12.094-7.8l1.284.907v-4.575c0-3.798.072-4.646.425-4.999.609-.61 1.637-.525 2.127.176m111.892 0c.34.484.421 1.46.421 5.05v4.45l.743-.71c3.667-3.505 9.987-1.678 11.954 3.455 3.357 8.758-5.709 17.515-11.954 11.547-.678-.648-.743-.663-.743-.179 0 1.668-2.168 2.357-2.9.921-.646-1.266-.352-24.263.316-24.751.768-.561 1.683-.469 2.163.217m71.232-.06c.514.514.54.901.54 7.893v7.354l4.007-3.975c4.059-4.027 4.81-4.51 5.669-3.651.909.91.404 1.93-2.234 4.518l-2.558 2.509 3.01 4.23c3.231 4.541 3.522 5.169 2.773 5.996-1.172 1.295-1.68.878-5.27-4.334a488.846 488.846 0 00-2.61-3.767c-.053-.066-.702.477-1.442 1.206l-1.345 1.325v2.45c0 2.942-.373 3.729-1.709 3.599-1.533-.15-1.542-.231-1.467-13.281.065-11.372.089-11.861.593-12.229.727-.532 1.406-.48 2.043.157m21.502-.157c.821.6.821 28.903 0 29.503-1.306.955-6.367.371-6.367-.735 0-1.011.563-1.314 2.442-1.314h1.882v-25.405h-1.898c-2.139 0-2.845-.604-2.174-1.858.387-.724 5.182-.874 6.115-.191m-123.888.334c.624.565.651 2.174.047 2.842-1.026 1.133-3.067.203-3.067-1.398 0-1.578 1.879-2.477 3.02-1.444m-31.819 1.234c.364.52.421 2.092.421 11.697 0 12.052-.03 12.297-1.483 12.297-1.508 0-1.49.145-1.49-12.297 0-10.047.052-11.5.425-11.873.609-.609 1.636-.524 2.127.176m24.321-.176c1.642 1.643.193 2.549-4.077 2.549h-3.607V303.9c0 11.282.006 11.235-1.49 11.235-1.441 0-1.483-.324-1.483-11.411v-10.21h-3.615c-3.914 0-4.29-.131-4.29-1.487 0-1.497-.067-1.486 9.405-1.486 7.578 0 8.788.056 9.157.424m-55.713 6.691c2.388 1.399 3.905 4.092 4.041 7.173.112 2.536.291 2.468-6.585 2.468-3.253 0-5.913.1-5.913.222 0 3.795 4.41 5.873 9.015 4.248l1.852-.654.645.645c2.39 2.39-5.815 4.836-9.894 2.948-6.422-2.973-6.108-15.037.457-17.549 1.674-.64 4.864-.391 6.382.499m80.386-.491c7.611 2.26 7.507 15.647-.138 17.869-6.148 1.788-10.72-2.03-10.72-8.953 0-7.013 4.586-10.779 10.858-8.916m43.146.169c3.095 1.016 2.011 3.499-1.201 2.751-3.47-.809-5.976-.046-6.141 1.868-.115 1.345.327 1.666 3.805 2.756 4.426 1.387 5.872 2.73 5.872 5.454 0 4.385-5.788 6.692-10.908 4.349-3.629-1.662-2.464-3.83 1.405-2.617 3.612 1.133 6.53.302 6.53-1.858 0-.904-.698-1.323-3.858-2.313-4.642-1.455-5.872-2.602-5.872-5.478 0-4.384 4.9-6.706 10.368-4.912m-113.354.087c.239.216 1.526 3.376 2.859 7.021 1.334 3.646 2.485 6.63 2.56 6.632.074.001 1.226-2.982 2.561-6.63 2.779-7.599 3.28-8.329 4.782-6.97.771.698.678 1.039-2.485 9.112-3.066 7.827-3.477 8.549-4.858 8.549-.413 0-1.005-.213-1.316-.473-.563-.472-6.522-15.262-6.522-16.188 0-1.174 1.543-1.846 2.419-1.053m52.832.031c.679.679.635 22.533-.049 23.894-.93 1.85-3.455 2.716-5.574 1.91-1.855-.705-1.319-2.715.723-2.715.633 0 1.421-.19 1.751-.421l.601-.421v-10.842c0-9.709.046-10.893.447-11.336.549-.606 1.531-.639 2.101-.069m80.741.022c.448.406.494.966.496 6.014.001 3.061.122 6.001.27 6.532.858 3.089 4.991 3.215 7.684.234l.963-1.066v-5.586c0-6.516.55-7.874 2.479-6.128.721.653.764 16.374.047 17.167-.976 1.078-2.526.258-2.526-1.336v-.935l-1.115 1.007c-3.443 3.11-8.052 2.613-9.951-1.074-.918-1.781-1.238-13.832-.392-14.766.569-.629 1.391-.654 2.045-.063m-149.397 2.5c-1.191.541-2.002 1.506-2.5 2.972-.581 1.714-.757 1.649 4.418 1.649h4.73v-.687c0-3.067-3.715-5.266-6.648-3.934m-22.009.364c-2.476 1.251-3.609 4.724-2.666 8.176 1.132 4.143 6.108 5.193 9.393 1.982l.849-.83v-7.188l-1.2-1.056c-1.996-1.757-4.276-2.145-6.376-1.084m102.973 0c-2.12 1.071-3.121 3.304-2.897 6.466.565 7.982 10.533 7.297 10.533-.723 0-4.876-3.758-7.702-7.636-5.743m22.171-.046c-2.575 1.166-2.703 1.44-2.703 5.789 0 3.813.001 3.819.743 4.528 3.152 3.012 8.163 1.996 9.237-1.874 1.648-5.934-2.412-10.645-7.277-8.443m37.027 11.33c1.273 1.273.338 3.513-1.467 3.513-1.048 0-2.047-.99-2.047-2.027 0-1.715 2.308-2.692 3.514-1.486" fill="#1c74d4"/></g></svg>