<svg height="168" viewBox="0 0 708 168" width="708" xmlns="http://www.w3.org/2000/svg"><g fill="none" fill-rule="evenodd"><path d="M89.805 3.083l54 30.303C151.34 37.615 156 45.546 156 54.142v59.716c0 8.597-4.66 16.527-12.195 20.756l-54 30.303a24.141 24.141 0 0 1-23.61 0l-54-30.303C4.66 130.385 0 122.454 0 113.858V54.142c0-8.597 4.66-16.527 12.195-20.756l54-30.303a24.141 24.141 0 0 1 23.61 0zM9 54.383v59.475c0 5.337 2.898 10.27 7.6 12.907l53.233 29.873A6 6 0 0 0 78 151.043v-48.071A21 21 0 0 0 66.688 84.34l-3.962-2.06a39.053 39.053 0 0 1-2.766-1.308zm55.829 21.269c9.565 4.99 16.803 4.99 26.368 0l51.698-29.023a14.89 14.89 0 0 0-6.37-7.023L85.401 10.932a15.141 15.141 0 0 0-14.802 0L19.572 39.606a14.89 14.89 0 0 0-6.37 7.023zM78 21c11.25 0 20.434 5.529 20.975 12.476L99 45.375C99 52.624 89.598 58.5 78 58.5s-21-5.876-21-13.125V33.476C57.566 26.53 66.75 21 78 21zm.002 21c9.743 0 17.64-3.949 17.64-8.82s-7.897-8.82-17.64-8.82-17.64 3.949-17.64 8.82S68.26 42 78.002 42z" fill="#5a45ff" fill-rule="nonzero"/><path d="M238.726 88.51c0 6.729 1.73 12.136 5.191 16.222s8.027 6.128 13.698 6.128c5.48 0 9.95-2.067 13.41-6.2 3.461-4.134 5.191-9.565 5.191-16.294 0-6.633-1.682-11.92-5.046-15.861-3.365-3.942-7.835-5.912-13.41-5.912-5.576 0-10.142 1.994-13.699 5.984-3.556 3.99-5.335 9.3-5.335 15.933zm53.64-69.068v104.395h-9.45a6.655 6.655 0 0 1-5.93-3.633c-.61-1.196-.914-2.358-.914-3.488-1.941 2.219-3.485 4.082-7.137 6.1-3.653 2.02-8.484 2.751-13.194 2.751-9.997 0-18.12-3.508-24.369-10.526-6.248-7.017-9.372-15.86-9.372-26.531 0-10.286 3.148-18.985 9.445-26.099 6.296-7.113 14.299-10.67 24.008-10.67 5.575 0 10.069 1.01 13.482 3.028 3.412 2.019 5.791 4.374 7.137 7.065V19.442zM352.05 52.75v17.015h-2.15c-12.593 0-18.89 6.873-18.89 20.62v33.452h-16.726V53.615h10.847a4.437 4.437 0 0 1 4.222 3.072l1.657 5.125c.799-1.663 3.017-5.357 6.9-7.21 3.881-1.852 8.385-1.852 12.999-1.852zm9.373 52.054c0-5.96 1.946-10.743 5.84-14.347 3.893-3.605 9.012-5.888 15.356-6.85l18.024-2.74c3.46-.48 5.191-2.162 5.191-5.046 0-3.172-1.105-5.744-3.316-7.714-2.211-1.97-5.528-2.956-9.95-2.956-4.23 0-7.594 1.177-10.093 3.533s-3.941 5.407-4.326 9.156l-15.074-.144c.673-6.345 3.49-15.068 8.874-19.538 5.383-4.47 12.208-6.705 20.475-6.705 10.19 0 17.712 2.45 22.566 7.353 4.855 4.903 7.282 11.2 7.282 18.89v34.894c0 4.614.288 8.363.865 11.247h-8.994a7.754 7.754 0 0 1-2.781-.515c-2.983-1.144-4.474-3.006-4.474-5.585-3.328 5.546-11.868 8.263-21.673 8.263-7.114 0-12.858-2.09-17.231-6.272-4.374-4.182-6.561-9.157-6.561-14.924zm26.964 8.075c5.19 0 9.396-1.418 12.617-4.254 3.22-2.836 4.83-7.474 4.83-13.915v-3.172l-18.312 2.74c-6.249 1.057-9.373 4.23-9.373 9.516 0 2.5.913 4.639 2.74 6.417 1.826 1.778 4.326 2.668 7.498 2.668zm85.217-76.944c-2.787 0-5.215.793-7.281 2.38-2.067 1.586-3.1 4.35-3.1 8.29v7.01h16.293V68.18h-16.293v55.658h-16.87V68.18h-12.257V53.615h4.814a7.443 7.443 0 0 0 7.442-7.442c0-7.786 2.259-13.939 6.777-18.457 4.518-4.518 10.43-6.777 17.736-6.777h8.651v14.996zm45.266-3.516v21.485h14.563v14.852H518.87v32.587c0 3.076.72 5.311 2.163 6.705 1.441 1.394 3.7 2.09 6.777 2.09h2.296v14.853h-6.766c-6.537 0-11.68-1.85-15.429-5.552-3.749-3.7-5.623-8.82-5.623-15.356V68.756H489.31V53.904h3.605c3.557 0 6.248-1.01 8.075-3.028 1.826-2.019 2.74-4.662 2.74-7.93V32.418zm28.117-13.31h16.294v42.97c1.346-2.692 4.14-4.903 7.553-6.922s8.844-3.327 14.42-3.327c9.709 0 17.467 3.135 23.764 10.248s8.402 16.069 8.402 26.354c0 10.67-2.082 19.26-8.33 26.277-6.249 7.017-14.948 10.88-24.946 10.88-4.71 0-8.964-1.086-12.616-3.105-3.653-2.019-6.306-3.882-8.247-6.1 0 1.129-.305 2.291-.914 3.487a6.655 6.655 0 0 1-5.93 3.633h-9.45zm48.415 85.695c3.557-4.038 5.336-9.469 5.336-16.294 0-6.825-1.73-12.184-5.191-16.077-3.461-3.894-8.027-5.84-13.699-5.84-5.479 0-9.997 1.946-13.554 5.84s-5.335 9.252-5.335 16.077c0 6.729 1.779 12.112 5.335 16.15s8.075 6.056 13.554 6.056c5.576 0 10.094-1.971 13.554-5.912zm38.356-34.673h-6.91V53.493h16.637v.122h6.855v70.222h-16.582zm.576-33.53c-2.114-2.115-3.172-4.662-3.172-7.642s1.058-5.552 3.172-7.715c2.115-2.163 4.663-3.244 7.643-3.244 3.076 0 5.671 1.057 7.786 3.172 2.115 2.115 3.172 4.71 3.172 7.787 0 2.98-1.057 5.527-3.172 7.642s-4.71 3.172-7.786 3.172c-2.98 0-5.528-1.057-7.643-3.172zm58.83-4.47v21.484h14.564v14.852h-14.563v32.588c0 3.076.72 5.31 2.163 6.705 1.442 1.394 3.7 2.09 6.777 2.09h2.296v14.852h-6.766c-6.537 0-11.68-1.85-15.429-5.551-3.749-3.701-5.623-8.82-5.623-15.357V68.467h-12.978V53.615h3.605c3.557 0 6.249-1.009 8.075-3.028 1.826-2.018 2.74-4.662 2.74-7.93V32.13z" fill="#05081d"/></g></svg>