<svg width="63" height="63" viewBox="0 0 63 63" xmlns="http://www.w3.org/2000/svg"><g fill="none" fill-rule="evenodd"><path d="M31.75 47.1c0 8.56-6.94 15.5-15.5 15.5-8.56 0-15.5-6.94-15.5-15.5 0-8.56 6.94-15.5 15.5-15.5h15.5v15.5z" fill="#FDBD00"/><path d="M47.25 31.6c8.56 0 15.5-6.94 15.5-15.5 0-8.56-6.94-15.5-15.5-15.5-8.56 0-15.5 6.94-15.5 15.5v15.5h15.5z" fill="#7AC91D"/><path d="M61.75 49.6c0 6.627-5.373 12-12 12s-12-5.373-12-12v-12h12c6.627 0 12 5.373 12 12z" fill="#1BA1DB"/><path d="M24.75 13.1v11.5h-11.5c-6.351 0-11.5-5.149-11.5-11.5S6.899 1.6 13.25 1.6s11.5 5.149 11.5 11.5z" fill="#FD4B87"/></g></svg>