<svg width="800" height="800" viewBox="0 0 800 800" xmlns="http://www.w3.org/2000/svg"><g fill="#333" fill-rule="evenodd"><path d="M568.708 475.336c-28.77 63.65-92.737 108.024-167.184 108.024-101.36 0-183.53-82.077-183.53-183.32 0-101.262 82.17-183.345 183.53-183.345 68.085 0 127.393 37.14 159.062 92.166h71.433c-36.473-92.896-126.904-158.735-232.865-158.735C261.011 150.126 149 262.011 149 400.039c0 138.005 112.012 249.879 250.155 249.879 111.915 0 206.608-73.384 238.577-174.582h-69.023z"/><path d="M648.527 363.453h-160.42c-22.444 0-40.614 14.025-40.614 31.32 0 17.294 18.17 31.307 40.614 31.307H649.58c2.283-20.667 1.995-41.685-1.053-62.627"/></g></svg>