<svg id="imandra_logo" data-name="Imandra Inc" xmlns="http://www.w3.org/2000/svg" width="212" height="226" viewBox="0 0 212 226"><defs><style>.cls-3{fill:#fff}</style><radialGradient id="radial-gradient" cx="109.03" cy="119.05" fx="221.948" fy="201.822" r="181.74" gradientTransform="translate(-3.79 -6.04)" gradientUnits="userSpaceOnUse"><stop offset=".45" stop-color="#0052ce"/><stop offset=".94" stop-color="#1c1d33"/></radialGradient><radialGradient id="radial-gradient-2" cx="-716.62" cy="239" fx="-944.643" r="796.32" gradientTransform="matrix(.68 0 0 .73 613.51 199.15)" gradientUnits="userSpaceOnUse"><stop offset=".18" stop-color="#02a299"/><stop offset=".43" stop-color="#3867b0"/><stop offset=".65" stop-color="#004c94"/><stop offset=".9" stop-color="#111b3c"/></radialGradient></defs><g id="imandra"><path fill="url(#radial-gradient)" d="M-6.02 226V-.32h226.04v226.01L-6.02 226z"/><path opacity=".37" fill="url(#radial-gradient-2)" d="M-6.24-.48h226.48v226.32H-6.24z"/><path id="Fill-6" class="cls-3" d="M51.8 83.36a17.07 17.07 0 1 0 .32 0z"/><path id="Fill-12" class="cls-3" d="M98.94 91.44v18c0 4.69 2.9 8.64 8 8.64s8-3.75 8-8.64v-18a8 8 0 0 0-16.06 0"/><path id="Fill-9" class="cls-3" d="M161.7 83.36a17.11 17.11 0 0 0 .24 34.22 17.11 17.11 0 0 0 .11-34.22z"/><path id="Fill-15" class="cls-3" d="M38.85 141.98h1.26v-10.34h-1.26v10.34z"/><path id="Fill-17" class="cls-3" d="M63.05 131.64l-3.63 5.27-3.63-5.27h-1.56v10.34h1.26v-8.52l3.75 5.27h.27l3.83-5.19v8.44h1.27v-10.34h-1.56z"/><path id="Fill-20" class="cls-3" d="M82.27 131.64L77.64 142h1.44l.94-2.31H86l1 2.31h1.4l-4.6-10.34zM83 133l2.41 5.57h-4.9z"/><path id="Fill-23" class="cls-3" d="M109.7 131.64v7.85l-6.33-7.85h-.85v10.34h1.23v-7.85l6.36 7.85h1.05v-10.34h-1.46z"/><path id="Fill-26" class="cls-3" d="M124.81 131.64V142h3.75c3.64 0 5.19-2.6 5.19-5.27a4.89 4.89 0 0 0-4.6-5.1h-.59zm1.21 1.23h2.51a3.7 3.7 0 0 1 4 3.43v.44a3.74 3.74 0 0 1-3.49 4h-3z"/><path id="Fill-29" class="cls-3" d="M146.61 131.64v1.17h4.69a2.16 2.16 0 0 1 2.11 2.17v.02a2.11 2.11 0 0 1-2 2.14 1 1 0 0 1-.3 0h-3.36v-2.46l-1.15-.94V142h1.23v-3.78h2.49l3.29 3.64h1.61l-3.48-3.86a3 3 0 0 0 3-2.93v-.24a3.24 3.24 0 0 0-3.17-3.28h-.29z"/><path id="Fill-32" class="cls-3" d="M171.11 131.64l-4.6 10.36h1.43l.94-2.31h6l1 2.31h1.35l-4.69-10.34zm.76 1.32l2.4 5.57h-4.86z"/></g></svg>