<svg xmlns="http://www.w3.org/2000/svg" data-name="Ebene 1" viewBox="0 0 140.11 48.91"><path fill="#c6c6c5" d="M0 48.91V4.95h124.04v3.04h-121v37.88h129.08v-29.8h3.04v32.84H0z"/><path d="M11.11 16.07h3.71v21.72h-3.71zm22.42 21.72v-17H30.2l.07 7.21c0 1.63.28 4.58.31 4.71-.13-.29-1.13-2.73-1.94-4.24l-4.21-7.69h-3.92v17h3.41l-.12-7.44c0-1.72-.19-5.08-.19-5.08s1.32 3 2.2 4.68l4.08 7.84zm20.84-21.72H50.6l-4.05 12.31c-.47 1.41-.88 2.79-1.29 4.36a29.36 29.36 0 0 0-1.13-4.36l-3.95-12.31h-4l7.31 21.81h3.36zm2.69 4.74h3.64v16.98h-3.64zm21.66 11.68c0-2.92-2.17-4.27-4.74-4.9L71.72 27c-1.73-.44-2.29-1-2.29-1.92 0-1.19 1.13-1.76 2.82-1.76a9.18 9.18 0 0 1 4.52 1.32l1.66-2.48a11.9 11.9 0 0 0-6.27-1.72c-3.9 0-6.62 2-6.62 5.05 0 2.63 1.84 4.14 4.26 4.77l2.26.6c1.88.5 2.7 1.15 2.7 2.26 0 1.75-2.1 2.13-3.45 2.13A11 11 0 0 1 66.13 34l-1.29 2.7a14 14 0 0 0 6.28 1.51c3.51-.05 7.6-1.55 7.6-5.72zm4.64-11.68H87v16.98h-3.64zM107 29.25c0-5.08-2.67-8.69-8-8.69-5 0-8 3.29-8 8.79 0 5.15 3 8.69 8.19 8.69 5.46-.04 7.81-3.64 7.81-8.79zm-4 .13c0 2.79-.4 6.12-4 6.12-3.77 0-4.17-3.14-4.17-6.22 0-2.76.5-6.08 4-6.08 3.81 0 4.25 3.23 4.25 6.18zm21 8.41v-17h-3.33l.07 7.22c0 1.63.28 4.58.31 4.71-.05-.27-1.05-2.72-1.9-4.22l-4.21-7.69H111v17h3.42l-.13-7.44c0-1.72-.19-5.08-.19-5.08s1.32 3 2.2 4.67l4.08 7.85z"/><path fill="#c41a1b" d="M133.6 0a6.52 6.52 0 1 0 6.51 6.51A6.52 6.52 0 0 0 133.6 0z"/></svg>