<svg xmlns="http://www.w3.org/2000/svg" width="50.5mm" height="74.5mm" viewBox="0 0 50.5 74.5"><path d="M6.491 31.609s5.073.473 5.375-8.185c.297-9-3.865-9.33-6.216-9.33C3.3 14.062.57 16.144.14 23.56c.473 8.351 6.351 8.05 6.351 8.05zm27.047-12.584s5.475.467 5.475-7.588C38.203.604 33.795.412 31.953.412c-1.19 0-6.013 1.5-4.53 13.38 1.105 4.932 6.115 5.233 6.115 5.233zM7.359 35.546C5.044 40.57 8.54 48.49 12.174 48.596c3.64.106 6.714-2.955 7.694-2.963.84.104 2.502 3.024 5.901 3.087v.003c.012 0 .02-.003.028-.003.017 0 .025.003.032.003v-.003c3.4-.063 5.067-2.983 5.903-3.087.982.008 4.06 3.069 7.697 2.964 3.633-.106 7.13-8.026 4.816-13.051-2.664-3.164-3.195-1.355-5.098-3.518-1.895-2.163-1.261-4.414-3.798-6.67-1.427-1.563-2.695-2.702-5.84-2.775-1.699-.054-2.221.433-3.712.59-1.485-.157-2.008-.644-3.701-.59-3.147.073-4.416 1.212-5.843 2.775-2.537 2.257-1.903 4.507-3.798 6.67-1.902 2.163-2.433.354-5.096 3.518zm10.956-15.65c7.495-1.172 6.083-8.853 6.083-8.853s.171-8.86-5.577-8.895c-3.528.034-6.523 3.558-6.65 8.553-.138 5.24 2.247 9.164 6.144 9.195zm31.042.541c-1.356-2.276-2.9-2.756-4.564-2.756-1.667 0-5.315 2.823-5.51 8.36.132 1.178.803 6.206 5.238 6.444 4.433.23 5.708-5.77 5.708-5.77s.673-4.37-.872-6.278zM14.005 64.845h-6.11V53.221h-2.83v13.71h8.94zm5.615-8.248c-1.406-.007-2.504.481-3.34 1.463-.835.985-1.232 2.236-1.232 3.753v.38c0 1.456.422 2.656 1.303 3.601.884.944 2.05 1.417 3.526 1.417.827 0 1.57-.112 2.244-.336.673-.225 1.218-.508 1.633-.85l-.748-1.706c-.478.265-.92.46-1.325.58-.403.124-.911.187-1.52.187-.689 0-1.232-.218-1.633-.651-.4-.432-.625-.965-.675-1.638l.017-.038h6.121v-1.54c0-1.418-.388-2.545-1.15-3.375-.763-.831-1.84-1.247-3.22-1.247zm1.688 4.226h-3.417l-.029-.01c.07-.635.253-1.132.548-1.522.297-.391.7-.577 1.21-.577.555 0 .986.18 1.26.53.275.35.428.821.428 1.408v.17zm8.678-4.226c-1.505 0-2.68.487-3.53 1.46-.853.973-1.273 2.222-1.273 3.747v.198c0 1.538.417 2.792 1.27 3.759.853.967 2.025 1.45 3.538 1.45 1.505 0 2.714-.483 3.569-1.45.854-.967 1.31-2.22 1.31-3.759v-.198c0-1.53-.458-2.782-1.314-3.752-.859-.971-2.058-1.455-3.57-1.455zm2.054 5.4c0 .926-.16 1.673-.492 2.238-.33.566-.848.851-1.56.851-.731 0-1.281-.282-1.61-.846-.327-.563-.512-1.311-.512-2.243v-.196c0-.902.188-1.64.518-2.214.332-.576.864-.864 1.577-.864.718 0 1.244.287 1.578.86.334.573.5 1.311.5 2.218zm10.068-5.4a3.3 3.3 0 0 0-1.682.434 3.778 3.778 0 0 0-1.262 1.226l-.128-1.458h-2.527v10.133h2.683v-7.356c.299-.273.455-.481.746-.629.29-.15.625-.224.99-.224.562 0 .989.143 1.266.43.278.288.426.777.426 1.464v6.315h2.832v-6.309c0-1.386-.327-2.404-.905-3.053-.581-.648-1.405-.973-2.439-.973zM6.881 71.834c-.38-.097-.656-.208-.826-.335a.572.572 0 0 1-.254-.475.65.65 0 0 1 .236-.52c.157-.132.381-.198.674-.198.316 0 .558.05.727.21.17.156.253.29.253.589h.563l.005.01c.011-.344-.126-.634-.409-.895-.281-.26-.661-.384-1.14-.384-.442 0-.803.116-1.081.344a1.06 1.06 0 0 0-.417.854c0 .325.13.595.387.81.258.215.618.377 1.08.486.38.09.646.203.796.338a.641.641 0 0 1 .225.499.594.594 0 0 1-.26.51c-.175.124-.41.187-.708.187-.302 0-.556-.056-.762-.2-.207-.147-.309-.472-.309-.62h-.568c-.011.395.15.702.485.939.334.236.719.35 1.154.35.464 0 .84-.11 1.127-.324.287-.213.43-.496.43-.849 0-.326-.12-.602-.358-.823-.24-.221-.59-.39-1.05-.503zm5.013-1.992c-.51 0-.945.177-1.263.53-.32.353-.5.795-.5 1.328v.774c0 .533.181.976.5 1.327.318.352.743.526 1.251.526.528 0 .978-.174 1.309-.526.33-.35.517-.794.517-1.327V71.7c0-.535-.182-.976-.51-1.33-.332-.352-.777-.528-1.304-.528zm1.218 2.632c0 .405-.121.735-.335.99-.214.254-.512.381-.877.381-.342 0-.639-.127-.844-.383a1.541 1.541 0 0 1-.329-.988v-.782c0-.399.121-.727.326-.982.204-.255.489-.383.831-.383.364 0 .67.128.888.383.215.255.34.583.34.982v.782zm3.279-2.114h2.235v-.446h-2.832v4.323h.597v-1.94h1.937v-.445h-1.937zm5.813 0h1.34v-.446h-3.28v.447h1.343v3.876h.597zm5.716-.446h-.522l-.8 2.846-.117.547-.017-.004-.082-.543-.664-2.846h-.588l1.048 4.323h.528l.874-3.032.075-.4h.017l.078.4.86 3.032h.528l1.05-4.323h-.59l-.649 2.859-.086.568h-.02l-.118-.568zm5.31 0l-1.686 4.323h.602l.413-1.193h1.827l.407 1.193h.603l-1.66-4.323zm-.488 2.681l.731-1.937h.017l.72 1.937zm7.494.97v-.411c0-.258-.042-.473-.146-.649-.105-.174-.271-.3-.51-.38.222-.096.394-.229.512-.394a.993.993 0 0 0 .175-.584c0-.403-.125-.708-.376-.92-.252-.21-.614-.314-1.093-.314h-1.543v4.323h.596v-1.939h1.055c.232 0 .404.11.54.254.139.144.193.373.193.608v.399c0 .139.025.26.048.393.023.131.086.285.162.285h.534v-.043c0-.068-.1-.156-.13-.264-.027-.109-.017-.23-.017-.364zm-1.497-1.713h-.888V70.36h.948c.302 0 .523.072.667.206.142.136.214.313.214.558 0 .26-.074.439-.22.566-.148.126-.387.16-.72.16zm4.328-1.492h2.236v-.446h-2.831v4.323h2.98v-.45h-2.385V72.15h2.086v-.447h-2.086z" fill="#2f4d83"/></svg>