<svg xmlns="http://www.w3.org/2000/svg" width="571.893" height="268.124" viewBox="0 0 571.893 268.124"><path d="M195.78 113.451c-4.979 0-15.901 8.453-16.497 25.031.404 3.522 2.408 18.584 15.691 19.294 13.269.69 17.088-17.275 17.088-17.275s2.019-13.08-2.611-18.801c-4.057-6.81-8.685-8.249-13.671-8.249zm-33.692 4.025s16.391 1.398 16.391-22.724c-2.421-32.437-15.619-33.012-21.137-33.012-3.562 0-18.005 4.495-13.57 40.067 3.311 14.765 18.316 15.669 18.316 15.669zm-45.585 2.61c22.438-3.514 18.217-26.511 18.217-26.511s.51-26.531-16.698-26.635c-10.561.104-19.536 10.651-19.911 25.611-.42 15.688 6.726 27.439 18.392 27.535zm-19.315 10.562c.892-26.955-11.57-27.937-18.605-27.937-7.035-.095-15.212 6.132-16.497 28.343 1.416 25.002 19.011 24.102 19.011 24.102s15.194 1.412 16.091-24.508zm81.695 25.765c-5.675-6.477-3.78-13.218-11.371-19.974-4.275-4.686-8.068-8.091-17.494-8.31-5.08-.161-6.647 1.296-11.11 1.76-4.449-.464-6.021-1.921-11.087-1.76-9.419.219-13.219 3.624-17.492 8.31-7.595 6.756-5.692 13.497-11.368 19.974-5.696 6.468-7.289 1.059-15.266 10.528-6.931 15.047 3.537 38.764 14.426 39.081 10.889.313 20.103-8.852 23.034-8.873 2.515.308 7.488 9.049 17.669 9.24v.013c.036 0 .063-.013.083-.013.05 0 .075.013.097.013v-.013c10.181-.191 15.165-8.933 17.672-9.24 2.939.021 12.161 9.187 23.044 8.873 10.881-.317 21.353-24.034 14.421-39.081-7.977-9.469-9.561-4.06-15.258-10.528zm72.946-94.854h-19.456v94.179h61.43v-14.331h-41.974zm80.537 23.175c-9.655-.039-17.207 3.312-22.937 10.065-5.736 6.755-8.462 15.347-8.462 25.779v2.598c0 10.002 2.889 18.247 8.942 24.74 6.063 6.491 14.085 9.738 24.22 9.738 5.665 0 10.782-.771 15.417-2.313 4.628-1.543 8.354-3.491 11.215-5.842l-5.14-11.711c-3.293 1.817-6.326 3.149-9.093 3.99-2.772.845-6.261 1.268-10.459 1.268-4.722 0-8.452-1.49-11.202-4.464-2.751-2.977-4.296-6.636-4.644-11.251l.128-.256h42.036v-10.59c0-9.739-2.659-17.465-7.899-23.181-5.243-5.71-12.64-8.57-22.122-8.57zm11.598 29.037h-23.479l-.194-.069c.471-4.371 1.73-7.772 3.762-10.459 2.034-2.681 4.81-3.957 8.314-3.957 3.812 0 6.769 1.235 8.653 3.636 1.884 2.4 2.944 5.646 2.944 9.675v1.174zm59.638 43.884c10.343 0 18.65-3.317 24.519-9.966 5.865-6.644 8.999-15.248 8.999-25.811v-1.364c0-10.517-3.149-19.112-9.033-25.776-5.887-6.664-14.126-10.004-24.516-10.004-10.349 0-18.412 3.348-24.258 10.035-5.847 6.689-8.735 15.271-8.735 25.745v1.364c0 10.563 2.851 19.167 8.716 25.811 5.864 6.649 13.912 9.966 24.308 9.966zm-14.594-37.169c0-6.186 1.284-11.25 3.561-15.203 2.271-3.959 5.932-5.935 10.82-5.935 4.938 0 8.546 1.966 10.845 5.898 2.295 3.935 3.435 9.017 3.435 15.239v1.358c0 6.356-1.093 11.479-3.366 15.37-2.272 3.888-5.833 5.833-10.726 5.833-5.023 0-8.804-1.937-11.049-5.806-2.251-3.864-3.52-9.001-3.52-15.397v-1.357zm114.571-29.063c-3.975-4.456-9.642-6.688-16.744-6.688-4.242 0-8.139 1.002-11.552 2.989-3.422 1.992-6.333 4.829-8.666 8.421l-.879-10.019h-17.356v69.612h18.424v-50.535c2.054-1.863 3.121-3.31 5.118-4.326 1.991-1.018 4.299-1.528 6.808-1.528 3.849 0 6.801.984 8.7 2.955 1.902 1.978 2.92 5.331 2.92 10.06v43.375h19.454v-43.342c0-9.519-2.239-16.512-6.227-20.974zm-258.708 97.982c-2.62-.663-4.515-1.426-5.68-2.299-1.167-.87-1.746-1.956-1.746-3.258 0-1.471.537-2.656 1.612-3.568 1.077-.912 2.626-1.372 4.639-1.372 2.164 0 3.831.349 4.986 1.436 1.162 1.081 1.739 2.011 1.739 4.06h3.87l.041.072c.072-2.372-.87-4.36-2.809-6.156-1.937-1.792-4.549-2.644-7.828-2.644-3.047 0-5.523.804-7.433 2.372-1.917 1.567-2.873 3.532-2.873 5.867 0 2.232.89 4.085 2.666 5.554 1.774 1.472 4.248 2.591 7.412 3.345 2.619.628 4.443 1.403 5.476 2.323 1.027.923 1.542 2.063 1.542 3.426 0 1.473-.597 2.644-1.79 3.5-1.193.857-2.813 1.288-4.86 1.288-2.082 0-3.831-.377-5.242-1.379-1.408-1.001-2.12-3.233-2.12-4.261h-3.905c-.069 2.713 1.044 4.826 3.341 6.449 2.298 1.627 4.94 2.405 7.926 2.405 3.187 0 5.765-.747 7.737-2.21 1.979-1.47 2.965-3.42 2.965-5.834 0-2.248-.823-4.132-2.469-5.661-1.646-1.519-4.045-2.674-7.197-3.455zm34.426-13.682c-3.495 0-6.493 1.216-8.679 3.645-2.191 2.424-3.438 5.463-3.438 9.113v5.325c0 3.661 1.247 6.7 3.438 9.114 2.186 2.415 5.105 3.617 8.604 3.617 3.617 0 6.706-1.202 8.979-3.617 2.267-2.414 3.548-5.453 3.548-9.114v-5.325c0-3.664-1.24-6.705-3.51-9.126-2.273-2.421-5.319-3.632-8.942-3.632zm8.365 18.083c0 2.784-.829 5.052-2.305 6.797-1.47 1.753-3.504 2.625-6.016 2.625-2.355 0-4.396-.876-5.803-2.634-1.406-1.759-2.26-4.016-2.26-6.788v-5.373c0-2.737.835-4.988 2.242-6.745 1.407-1.754 3.354-2.635 5.715-2.635 2.492 0 4.603.881 6.085 2.635 1.481 1.757 2.342 4.008 2.342 6.745v5.373zm18.424 12.093h4.094v-13.302h13.303v-3.075H310.18v-10.237h15.353v-3.072h-19.447zm30.713-26.614h9.206v26.614h4.095v-26.614h9.218v-3.072h-22.519zm59.647 16.568l-.599 3.906h-.119l-.827-3.906-5.535-19.64h-3.573l-5.495 19.555-.804 3.752-.119-.032-.559-3.72-4.565-19.555h-4.035l7.2 29.686h3.623l6.007-20.813.512-2.732h.125l.534 2.732 5.902 20.813h3.624l7.222-29.686h-4.057zm29.41-19.64L414.273 205.9h4.136l2.832-8.188h12.55l2.804 8.188h4.132l-11.395-29.687h-3.476zm-3.356 18.428l5.021-13.309h.123l4.933 13.309H422.5zm51.471 6.65v-2.816c0-1.771-.282-3.25-.998-4.456-.726-1.196-1.868-2.063-3.517-2.603 1.542-.669 2.729-1.573 3.526-2.713.804-1.142 1.215-2.476 1.215-4.015 0-2.766-.86-4.856-2.591-6.313-1.727-1.456-4.217-2.162-7.494-2.162h-10.609V205.9h4.091v-13.303h7.25c1.598 0 2.766.757 3.714 1.742.948.989 1.319 2.563 1.319 4.18v2.731c0 .961.176 1.793.326 2.697.151.904.591 1.952 1.124 1.952h3.668v-.285c0-.471-.685-1.074-.889-1.815-.204-.735-.135-1.572-.135-2.508zm-10.274-11.769h-6.104v-10.237h6.519c2.065 0 3.589.501 4.571 1.421.982.93 1.476 2.149 1.476 3.835 0 1.774-.512 3.015-1.52 3.888-1.004.868-2.656 1.093-4.942 1.093zm29.725 2.047h14.334v-3.07h-14.334v-9.214h15.357v-3.072h-19.448v29.686h20.475v-3.067h-16.384z" fill="#2f4d83"/></svg>