<svg xmlns="http://www.w3.org/2000/svg" width="512" height="512" viewBox="0 0 512 512"><g fill="none" fill-rule="evenodd"><path fill="#42AFE3" d="M100 0h312c55.228 0 100 44.772 100 100v312c0 55.228-44.772 100-100 100H100C44.772 512 0 467.228 0 412V100C0 44.772 44.772 0 100 0z"/><path fill="#FFF" d="M118.154 167.778c8.402-2.1 19.495-4.332 33.28-6.695 13.785-2.363 29.735-3.545 47.852-3.545 13.128 0 24.156 1.773 33.083 5.317 8.927 3.545 16.41 8.73 22.45 15.557 1.837-1.313 4.726-3.15 8.664-5.514 3.939-2.363 8.796-4.66 14.572-6.892 5.777-2.232 12.21-4.2 19.299-5.908 7.09-1.706 14.703-2.56 22.843-2.56 15.754 0 28.62 2.298 38.597 6.893s17.789 11.093 23.434 19.495c5.645 8.402 9.452 18.38 11.421 29.932 1.97 11.553 2.954 24.156 2.954 37.81V366.67h-36.628V259.545c0-12.078-.59-22.45-1.772-31.114-1.181-8.665-3.413-15.885-6.695-21.662-3.282-5.776-7.746-10.043-13.391-12.8-5.645-2.757-12.931-4.135-21.859-4.135-12.34 0-22.514 1.64-30.523 4.923-8.008 3.282-13.456 6.236-16.344 8.861 2.1 6.827 3.676 14.31 4.726 22.45 1.05 8.14 1.575 16.672 1.575 25.6V366.67h-36.627V259.545c0-12.078-.657-22.45-1.97-31.114-1.312-8.665-3.61-15.885-6.892-21.662-3.282-5.776-7.746-10.043-13.39-12.8-5.646-2.757-12.8-4.135-21.465-4.135-3.676 0-7.615.131-11.816.394-4.2.262-8.205.59-12.012.984-3.807.394-7.286.854-10.437 1.379-3.15.525-5.251.919-6.301 1.181v172.899h-36.628V167.778z"/></g></svg>