<svg viewBox="0 0 168 35" xmlns="http://www.w3.org/2000/svg" fill-rule="evenodd" clip-rule="evenodd" stroke-linejoin="round" stroke-miterlimit="1.414"><path d="M0 0v34.308h11.456V11.456h22.852V0H0z" fill="#ffa800" fill-rule="nonzero"/><path fill="#099" d="M11.456 22.852h11.396v11.396H11.456z"/><path fill="#002626" d="M22.852 22.852h11.396v11.396H22.852z"/><path fill="#61002b" d="M22.852 11.456h11.396v3.059H22.852z"/><path d="M67.836 5.458v2.7h-2.64v-2.7h2.64zm-.06 5.518v15.655h-2.46V10.976h2.46zm11.936 14.035v1.92c-.84.12-1.62.18-2.22.18-3.059 0-4.558-1.56-4.558-4.739v-9.477h-2.759v-1.919h2.759l.12-3.958 2.28-.24v4.138h3.478v1.92h-3.479v9.836c0 1.62.84 2.4 2.52 2.4.539.059 1.139 0 1.859-.06zm9.776 0v1.92c-.84.12-1.62.18-2.22.18-3.058 0-4.558-1.56-4.558-4.739v-9.477h-2.759v-1.919h2.76l.12-3.958 2.279-.24v4.138h3.478v1.92H85.11v9.836c0 1.62.84 2.4 2.519 2.4.54.059 1.14 0 1.86-.06zm13.435-14.035L96.626 28.49c-.9 2.519-2.34 3.778-4.379 3.778-.66 0-1.32-.12-2.1-.3V30.05c.66.12 1.2.24 1.62.24.78 0 1.44-.24 1.92-.66.54-.42 1.02-1.499 1.559-3.238l-5.398-15.355h2.46l4.198 11.756 4.258-11.756h2.16v-.06zm14.935-2.459v1.92c-1.14 0-1.86.12-2.22.36-.36.24-.599.719-.779 1.379 1.02 1.14 1.5 2.399 1.5 3.778 0 1.44-.54 2.64-1.62 3.659-1.08 1.02-2.579 1.56-4.378 1.56-.42 0-.78-.06-1.08-.12-.54-.12-.9-.18-1.08-.18-.3 0-.6.12-1.02.42-.42.3-.599.6-.599 1.079 0 .6.3 1.02.84 1.2.54.18 1.919.3 4.018.36 1.8.06 3.12.18 3.959.36.84.18 1.56.6 2.16 1.259.599.66.899 1.44.899 2.399 0 2.999-2.64 4.498-7.857 4.498-2.52 0-4.319-.36-5.459-1.14-1.14-.779-1.739-1.739-1.739-2.998 0-1.5.78-2.58 2.4-3.119-1.02-.66-1.56-1.5-1.56-2.52 0-1.199.72-2.158 2.159-2.758-1.38-1.08-2.04-2.46-2.04-4.139 0-1.56.6-2.819 1.74-3.838 1.14-1.02 2.58-1.5 4.259-1.5 1.2 0 2.219.24 3.238.66.18-1.02.54-1.74 1.08-2.1.54-.42 1.44-.599 2.58-.599.12.12.3.12.599.12zm-10.376 17.514c-1.14.48-1.68 1.2-1.68 2.159 0 .78.48 1.44 1.38 1.86.96.42 2.099.659 3.598.659 1.32 0 2.58-.18 3.72-.54 1.139-.36 1.679-1.02 1.679-1.92 0-.479-.18-.899-.48-1.199-.36-.3-.78-.48-1.38-.6-.6-.06-1.56-.12-2.999-.18-1.74-.06-2.999-.18-3.838-.24zm2.939-6.658c1.02 0 1.859-.3 2.519-.96.66-.66.96-1.44.96-2.459 0-1.02-.36-1.859-1.02-2.519-.66-.66-1.5-.96-2.46-.96-.9 0-1.739.3-2.459.9-.72.6-1.08 1.5-1.08 2.64 0 1.019.3 1.859.96 2.458.66.6 1.5.9 2.58.9zm11.935 7.257h-2.399V10.977h2.16v3.659c.78-1.74 1.499-2.82 2.279-3.359.78-.54 1.56-.78 2.339-.78.24 0 .54 0 .96.06v2.34h-.54c-1.32 0-2.46.48-3.36 1.499-.899 1.02-1.379 2.339-1.439 3.958v8.278zm10.557-21.172v2.7h-2.64v-2.7h2.64zm-.06 5.518v15.655h-2.46V10.976h2.46zm11.935 14.035v1.92c-.84.12-1.62.18-2.219.18-3.059 0-4.558-1.56-4.558-4.739v-9.477h-2.76v-1.919h2.76l.12-3.958 2.279-.24v4.138h3.479v1.92h-3.48v9.836c0 1.62.84 2.4 2.52 2.4.54.059 1.2 0 1.86-.06zm9.777 0v1.92c-.84.12-1.62.18-2.22.18-3.058 0-4.558-1.56-4.558-4.739v-9.477h-2.759v-1.919h2.76l.12-3.958 2.278-.24v4.138h3.48v1.92h-3.48v9.836c0 1.62.84 2.4 2.52 2.4.54.059 1.2 0 1.859-.06zM168 10.976l-6.298 17.514c-.9 2.519-2.339 3.778-4.378 3.778-.66 0-1.32-.12-2.1-.3V30.05c.66.12 1.2.24 1.62.24.78 0 1.44-.24 1.92-.66.54-.42 1.019-1.499 1.559-3.238l-5.398-15.355h2.459l4.198 11.756 4.259-11.756H168v-.06zM61.298 26.63h-2.28V16.555c0-1.44-.299-2.459-.959-3.059-.66-.6-1.38-.9-2.279-.9-1.26 0-2.28.48-3.119 1.5-.84 1.02-1.26 2.28-1.26 3.899v8.577h-2.458V10.976h2.279v2.88c1.26-2.22 2.939-3.3 4.978-3.3 1.14 0 2.16.3 2.999.9.84.6 1.38 1.26 1.68 2.04.3.779.48 2.098.48 4.078v9.057h-.06z" fill-rule="nonzero"/><path fill="#980043" d="M22.852 14.515h11.396v8.337H22.852z"/></svg>