<svg xmlns="http://www.w3.org/2000/svg" width="45" height="45" viewBox="0 0 45 45"><path fill="#00174a" d="M.162.012H45.15v45.313H.162z"/><g style="line-height:1.25"><path d="M9.026 30.284q-3.105 0-4.828-1.564-1.722-1.564-1.813-4.647-.023-.657-.023-1.926 0-1.292.023-1.95.09-3.014 1.859-4.624 1.768-1.609 4.782-1.609 2.992 0 4.76 1.61 1.79 1.609 1.882 4.623.045 1.315.045 1.95 0 .612-.045 1.926-.091 3.083-1.836 4.647-1.723 1.564-4.806 1.564zm0-2.63q1.519 0 2.403-.906.884-.907.952-2.788.045-1.36.045-1.836 0-.521-.045-1.836-.068-1.859-.975-2.765-.906-.93-2.38-.93-1.496 0-2.402.93-.907.906-.952 2.765-.023.657-.023 1.836 0 1.156.023 1.836.045 1.859.929 2.788.907.907 2.425.907zm15.013 6.007q-3.083 0-4.556-2.538-1.474-2.516-1.474-8.07 0-5.553 1.474-8.069 1.473-2.516 4.556-2.516.226 0 .385.159.159.158.159.385v1.383q0 .226-.159.385t-.363.159q-1.246.045-1.949.906-.703.862-1.02 2.607-.295 1.745-.295 4.601t.295 4.624q.317 1.746 1.02 2.607.703.861 1.95.907.203 0 .362.158.159.16.159.386v1.382q0 .227-.159.386-.159.158-.385.158zm6.576-3.604q-.227 0-.386-.158-.158-.159-.158-.386V17.817l-3.423 2.63q-.136.113-.34.113-.272 0-.43-.227l-.975-1.269q-.114-.159-.114-.317 0-.272.25-.454l5.077-3.944q.25-.158.567-.158h2.04q.226 0 .385.158.159.16.159.386v14.778q0 .227-.159.386-.159.158-.385.158zm5.345 3.604q-.226 0-.385-.158-.158-.159-.158-.386v-1.382q0-.227.158-.386.159-.158.34-.158 1.247-.046 1.95-.907.725-.861 1.02-2.607.317-1.768.317-4.624t-.317-4.6q-.295-1.746-1.02-2.608-.703-.86-1.95-.906-.181 0-.34-.159-.158-.159-.158-.385v-1.383q0-.227.158-.385.159-.159.386-.159 3.06 0 4.533 2.539 1.473 2.516 1.473 8.046 0 5.554-1.473 8.07-1.473 2.538-4.533 2.538z" style="-inkscape-font-specification:'rubik Medium'" aria-label="O(1)" font-weight="500" font-size="22.667" font-family="rubik" letter-spacing="0" word-spacing="0" fill="#fff" stroke-width=".265"/></g></svg>