<svg xmlns="http://www.w3.org/2000/svg" id="svg4731" width="1155.4" height="1155.4"><defs id="defs4504"><style id="style4485">.cls-2{fill:#60b2e6}.cls-3{fill:#fff}.cls-6{fill:none}</style><linearGradient id="linear-gradient" y1="540" x2="1920" y2="540" gradientUnits="userSpaceOnUse"><stop offset="0" stop-color="#31496f" id="stop4487"/><stop offset=".2" stop-color="#335e85" id="stop4489"/><stop offset=".4" stop-color="#346c95" id="stop4491"/><stop offset=".5" stop-color="#34719a" id="stop4493"/><stop offset=".7" stop-color="#346d96" id="stop4495"/><stop offset=".8" stop-color="#33628a" id="stop4497"/><stop offset="1" stop-color="#314f76" id="stop4499"/><stop offset="1" stop-color="#31496f" id="stop4501"/></linearGradient></defs><g id="background" transform="scale(.60176 1.0698)"><path id="rect4508" fill="url(#linear-gradient)" d="M0 0h1920v1080H0z"/></g><g id="g4960" transform="translate(-326.1 115)"><g id="ohne-makler.net"><path id="path4570" transform="translate(-2 -1)" d="M349.7 607.3c0-30 22.9-52 53.3-52 36.6 0 53.4 24.2 53.4 52 0 22.7-14.7 52-53.4 52-33.1 0-53.3-19.4-53.3-52zm82.7 0c0-23.8-11.6-40.1-29.4-40.1-21.8 0-29.3 18.4-29.3 40 0 22.8 10.2 40.3 29.3 40.3 16.5 0 29.4-13 29.4-40.2z" class="cls-3" fill="#fff"/><path id="path4572" transform="translate(-2 -1)" d="M459.8 650.6l10.4-2c1.8-10.2 1.8-23.6 1.8-39.7v-41.2c0-16.1 0-29.6-1.8-39.8l-12-2.3V519a186 186 0 0 0 28.5-4.8h9.3c-1.8 10.2-1.8 23.6-1.8 39.7v18.8c8.4-9.1 18.3-17.4 33.3-17.4 21 0 29.6 13.3 29.6 32v21.6c0 16.1 0 29.5 1.8 39.7l10.3 2v6.7a446 446 0 0 0-19.1-.6c-6.1 0-11.7.2-16.1.6.3-7.9.9-16.7.9-28.1v-22c0-26.4-4.2-35.7-17.8-35.7-18.4 0-22.9 17.6-22.9 37.4 0 16.2 0 29.6 1.8 39.8l10.4 2v6.6c-7.7-.1-15.6-.5-23.3-.5-7.7 0-15.6.4-23.3.5z" class="cls-3" fill="#fff"/><path id="path4574" transform="translate(-2 -1)" d="M571.2 650.6l10.4-2c1.8-10.2 1.8-23.6 1.8-39.8v-11.6a230.2 230.2 0 0 0-1.8-28l-12-2.4v-6.6a186 186 0 0 0 28.4-4.9h8.5l-1.3 17.2.4.2c8.4-9.1 18.2-17.4 33.3-17.4 21 0 29.5 13.3 29.5 32v21.6c0 16 0 29.5 1.8 39.7l10.4 2v6.6a446 446 0 0 0-19.2-.5c-6 0-11.6.2-16 .5.3-7.8.8-16.6.8-28v-22c0-26.4-4.1-35.7-17.7-35.7-18.5 0-23 17.6-23 37.4 0 16.1 0 29.6 1.8 39.8l10.4 2v6.6c-7.7-.2-15.5-.5-23.2-.5-7.7 0-15.6.3-23.3.5z" class="cls-3" fill="#fff"/><path id="path4576" transform="translate(-2 -1)" d="M780.7 633.4c-9 11-24.2 26-46.2 26-37.6 0-50.5-27-50.5-47.8a53 53 0 0 1 53.7-56.2c19.2 0 41.2 11.2 41.2 39.2v5.5h-69.8c0 28.3 10.3 43.2 31.7 43.2 12.7 0 23-7.3 32.6-16.7zm-25.8-45.1c0-9.5-1-22.2-17.7-22.2-17.2 0-25.3 11.6-27 24.3z" class="cls-3" fill="#fff"/><path id="path4578" transform="translate(-2 -1)" d="M841.2 612c-10-.3-19.3-.6-28.8-.6s-18.8.3-28.3.5a55.2 55.2 0 0 0 5.4-12.9c10 .2 19.3.6 28.8.6s18.8-.4 28.3-.6a55.2 55.2 0 0 0-5.4 13z" class="cls-3" fill="#fff"/><path id="path4580" transform="translate(-2 -1)" d="M853.8 560.2c6.8-.4 21-2.9 28.4-4.9h8.4l-1.2 17.2.4.2c8.4-9.1 18.2-17.4 33.3-17.4 15.7 0 21.8 8.8 26 18.6 7.6-9.8 19.1-18.6 33.6-18.6 21 0 29.6 13.3 29.6 32v21.6c0 16 0 29.5 1.7 39.7l10.4 2v6.6c-3.4-.1-12.1-.5-19.1-.5-6.1 0-11.7.2-16.1.5.3-7.8.9-16.6.9-28v-22c0-26.4-4.2-35.7-17.8-35.7-17.7 0-21.3 17.5-21.3 37.4 0 16 0 29.5 1.8 39.7l10.4 2v6.6c-7.7-.1-15.6-.5-23.3-.5-7.7 0-15.6.4-23.3.5v-6.6l10.4-2c1.8-10.2 1.8-23.6 1.8-41.5 0-26.4-4.1-35.7-17.7-35.7-17.8 0-21.3 17.6-21.3 37.4 0 16.2 0 29.6 1.8 39.8l10.3 2v6.6c-7.7-.2-15.6-.5-23.3-.5-7.7 0-15.5.4-23.2.5v-6.6l10.4-2c1.8-10.2 1.8-23.6 1.8-39.8v-11.6a230.2 230.2 0 0 0-1.8-28l-12-2.4z" class="cls-3" fill="#fff"/><path id="path4582" transform="translate(-2 -1)" d="M1129.5 657.2c-5.5-.3-10.5-.5-15.7-.5q-7.3 0-14.5.5l-1.8-21.8h-.4c-6 10-14.5 24-39 24-11.4 0-32-5.4-32-27 0-30.5 39-37.8 69.3-37.8v-10c0-11.1-4.1-16.3-20.2-16.3-13 0-20.3 3-26.3 5.6v9.8l-6.7 1.8a112.3 112.3 0 0 0-9.5-21.7c11.5-3.7 25.5-8.4 45.3-8.4 34.6 0 39.6 15.4 39.6 35.7 0 7 1.5 35.2 2.2 54.4l9.8 5.2zm-39.5-52c-13 0-40 5.3-40 23.5 0 7.4 5.4 14.6 17.3 14.6 16.6 0 27.2-14.5 28-38z" class="cls-3" fill="#fff"/><path id="path4584" transform="translate(-2 -1)" d="M1131.1 650.6l10.4-2c1.8-10.2 1.8-23.6 1.8-39.8v-41.1c0-16.1 0-29.6-1.8-39.8l-12-2.3V519a186 186 0 0 0 28.5-4.8h9.3c-1.8 10.2-1.8 23.6-1.8 39.7v42.8l34.6-30.6-7.2-2v-6.6a414.5 414.5 0 0 0 38 0v6.6l-8.8 2c-13.2 9-26.1 19.5-38.5 30 12 13.3 37.4 41 49.6 52.5l7.2 2v6.7c-13.5 0-22 .7-29.2 2.1l-13.6-16.3-16.3-18.6-15.8-18v2.4c0 16.1 0 29.6 1.8 39.8l10.4 2v6.6c-7.7-.2-15.6-.5-23.3-.5-7.7 0-15.6.3-23.3.5z" class="cls-3" fill="#fff"/><path id="path4586" transform="translate(-2 -1)" d="M1235.9 650.6l10.4-2c1.8-10.2 1.8-23.6 1.8-39.8v-41.1c0-16.1 0-29.6-1.8-39.8l-12-2.3V519a186 186 0 0 0 28.4-4.8h9.4c-1.8 10.2-1.8 23.6-1.8 39.7v55c0 16.1 0 29.6 1.8 39.8l10.3 2v6.6c-7.7-.2-15.5-.5-23.2-.5-7.7 0-15.6.3-23.3.5z" class="cls-3" fill="#fff"/><path id="path4588" transform="translate(-2 -1)" d="M1382.5 633.4c-9 11-24.1 26-46.2 26-37.6 0-50.5-27-50.5-47.8a53 53 0 0 1 53.8-56.2c19.1 0 41.2 11.2 41.2 39.2v5.5h-69.9c0 28.3 10.4 43.2 31.7 43.2 12.7 0 23.1-7.3 32.6-16.7zm-25.7-45.1c0-9.5-1.1-22.2-17.8-22.2-17.2 0-25.2 11.6-27 24.3z" class="cls-3" fill="#fff"/><path id="path4590" transform="translate(-2 -1)" d="M1385.8 650.6l10.4-2c1.8-10.2 1.8-23.6 1.8-39.7v-11.7a230.2 230.2 0 0 0-1.8-28c-3.8-.8-7.9-1.7-12-2.4v-6.6a186 186 0 0 0 28.5-4.9h6.6c-.9 8-1.2 16.9-2 26.2l.4.3c3.6-9 14-26.5 32.6-26.5a26.5 26.5 0 0 1 11.6 2.7 142.3 142.3 0 0 0-8.8 25l-6.6-1v-8.4a8.3 8.3 0 0 0-4.1-1c-6.6 0-22.2 6.5-22.2 41.1 0 11.8.7 23.8 1.4 35 4.5.6 8.8 1.2 13.3 2v6.5c-9.2-.3-18.1-.5-27.3-.5-9.5 0-17.7.4-21.8.5z" class="cls-3" fill="#fff"/></g><g id="houses"><path id="polygon4614" d="M716.5 304.7l-14.1 14.1 174.5 174.5h28.3z"/><path id="rect4616" transform="rotate(-135 672.3 362.9)" d="M663.5 290.7h20v144.6h-20z"/><path id="path4618" transform="translate(-2 -1)" d="M1047.8 431.5a53.3 53.3 0 0 1-9 15.4 70.5 70.5 0 0 0 16.3 8 71 71 0 0 0 8.9-15.9 53 53 0 0 1-16.2-7.5z"/><path id="path4620" transform="translate(-2 -1)" d="M1028.2 368.7a53.2 53.2 0 0 1 9-15.4 70.6 70.6 0 0 0-16.4-8 70.5 70.5 0 0 0-8.8 15.9 53 53 0 0 1 16.2 7.5z"/><path id="path4622" transform="translate(-2 -1)" d="M993 483.5v49.2h20V482a71.3 71.3 0 0 1-15 1.6l-5-.2z"/><path id="path4624" transform="translate(-2 -1)" d="M1038.8 446.9a53.3 53.3 0 1 1-26.8-85.7 70.5 70.5 0 0 1 8.9-15.9 71 71 0 1 0-28 138.2l5 .2a71.1 71.1 0 0 0 57.2-28.8 70.5 70.5 0 0 1-16.3-8z"/><path id="path4626" transform="translate(-2 -1)" d="M1067 457.8v56.9h20V458a70 70 0 0 1-20-.3z"/><path id="path4628" transform="translate(-2 -1)" d="M1078 316.5a71 71 0 0 0-57.1 28.8 70.6 70.6 0 0 1 16.3 8A53.3 53.3 0 1 1 1064 439a71 71 0 0 1-8.8 15.9 70 70 0 0 0 11.8 2.9 71 71 0 1 0 11-141.3z"/><path id="polygon4630" d="M463.4 485.3h28.2l88.2-88.1-14.2-14.1z"/><path id="polygon4632" d="M668.3 415.4v70.2L566.6 384l-14.1 14.1 105.2 105.2 44.7.1v-88z"/><path id="rect4634" d="M726.1 415.4h28v88h-28z"/><path id="rect4636" d="M710.1 415.4h8v88h-8z"/><path id="polygon4638" d="M716.5 304.7l-14.1 14.1 174.5 174.5h28.3z"/><path id="rect4640" transform="rotate(-135 672.3 362.9)" d="M663.5 290.7h20v144.6h-20z"/><path id="path4642" transform="translate(-2 -1)" d="M1047.8 431.5a53.3 53.3 0 0 1-9 15.4 70.5 70.5 0 0 0 16.3 8 71 71 0 0 0 8.9-15.9 53 53 0 0 1-16.2-7.5z"/><path id="path4644" transform="translate(-2 -1)" d="M1028.2 368.7a53.2 53.2 0 0 1 9-15.4 70.6 70.6 0 0 0-16.4-8 70.5 70.5 0 0 0-8.8 15.9 53 53 0 0 1 16.2 7.5z"/><path id="path4646" transform="translate(-2 -1)" d="M993 483.5v49.2h20V482a71.3 71.3 0 0 1-15 1.6l-5-.2z"/><path id="path4648" transform="translate(-2 -1)" d="M1038.8 446.9a53.3 53.3 0 1 1-26.8-85.7 70.5 70.5 0 0 1 8.9-15.9 71 71 0 1 0-28 138.2l5 .2a71.1 71.1 0 0 0 57.2-28.8 70.5 70.5 0 0 1-16.3-8z"/><path id="path4650" transform="translate(-2 -1)" d="M1067 457.8v56.9h20V458a70 70 0 0 1-20-.3z"/><path id="path4652" transform="translate(-2 -1)" d="M1078 316.5a71 71 0 0 0-57.1 28.8 70.6 70.6 0 0 1 16.3 8A53.3 53.3 0 1 1 1064 439a71 71 0 0 1-8.8 15.9 70 70 0 0 0 11.8 2.9 71 71 0 1 0 11-141.3z"/><path id="polygon4654" d="M463.4 485.3h28.2l88.2-88.1-14.2-14.1z"/><path id="polygon4656" d="M668.3 415.4v70.2L566.6 384l-14.1 14.1 105.2 105.2 44.7.1v-88z"/><path id="rect4658" d="M726.1 415.4h28v88h-28z"/><path id="rect4660" d="M710.1 415.4h8v88h-8z"/><path id="polygon4662" class="cls-2" fill="#60b2e6" d="M716.5 304.7l-14.1 14.1 174.5 174.5h28.3z"/><path id="rect4664" transform="rotate(-135 672.3 362.9)" class="cls-2" fill="#60b2e6" d="M663.5 290.7h20v144.6h-20z"/><path id="path4666" transform="translate(-2 -1)" d="M1069 412.6a71 71 0 0 1-5 26.4 53.3 53.3 0 1 0-26.8-85.7 71 71 0 0 1 31.8 59.3z" class="cls-6" fill="none"/><path id="path4668" transform="translate(-2 -1)" d="M1007 387.6a71 71 0 0 1 5-26.4 53.3 53.3 0 1 0 26.8 85.7 71 71 0 0 1-31.9-59.3z" class="cls-6" fill="none"/><path id="path4670" transform="translate(-2 -1)" d="M1028.2 368.7a53.3 53.3 0 0 0 19.6 62.8 53.3 53.3 0 0 0-19.6-62.8z" class="cls-6" fill="none"/><path id="path4672" transform="translate(-2 -1)" d="M1047.8 431.5a53.3 53.3 0 0 1-9 15.4 70.5 70.5 0 0 0 16.3 8 71 71 0 0 0 8.9-15.9 53 53 0 0 1-16.2-7.5z" class="cls-2" fill="#60b2e6"/><path id="path4674" transform="translate(-2 -1)" d="M1028.2 368.7a53.2 53.2 0 0 1 9-15.4 70.6 70.6 0 0 0-16.4-8 70.5 70.5 0 0 0-8.8 15.9 53 53 0 0 1 16.2 7.5z" class="cls-2" fill="#60b2e6"/><path id="path4676" transform="translate(-2 -1)" d="M993 483.5v49.2h20V482a71.3 71.3 0 0 1-15 1.6l-5-.2z" class="cls-2" fill="#60b2e6"/><path id="path4678" transform="translate(-2 -1)" d="M1038.8 446.9a53.3 53.3 0 1 1-26.8-85.7 70.5 70.5 0 0 1 8.9-15.9 71 71 0 1 0-28 138.2l5 .2a71.1 71.1 0 0 0 57.2-28.8 70.5 70.5 0 0 1-16.3-8z" class="cls-2" fill="#60b2e6"/><path id="path4680" transform="translate(-2 -1)" d="M1067 457.8v56.9h20V458a70 70 0 0 1-20-.3z" class="cls-2" fill="#60b2e6"/><path id="path4682" transform="translate(-2 -1)" d="M1078 316.5a71 71 0 0 0-57.1 28.8 70.6 70.6 0 0 1 16.3 8A53.3 53.3 0 1 1 1064 439a71 71 0 0 1-8.8 15.9 70 70 0 0 0 11.8 2.9 71 71 0 1 0 11-141.3z" class="cls-2" fill="#60b2e6"/><path id="polygon4684" class="cls-2" fill="#60b2e6" d="M463.4 485.3h28.2l88.2-88.1-14.2-14.1z"/><path id="polygon4686" class="cls-2" fill="#60b2e6" d="M668.3 415.4v70.2L566.6 384l-14.1 14.1 105.2 105.2 44.7.1v-88z"/><path id="rect4688" class="cls-2" fill="#60b2e6" d="M726.1 415.4h28v88h-28z"/><path id="rect4690" class="cls-2" fill="#60b2e6" d="M710.1 415.4h8v88h-8z"/><path id="rect4692" class="cls-6" fill="none" d="M702.4 415.4h8v88h-8z"/><path id="rect4694" class="cls-6" fill="none" d="M718.1 415.4h8v88h-8z"/><path id="polygon4696" class="cls-2" fill="#60b2e6" d="M716.5 304.7l-14.1 14.1 174.5 174.5h28.3z"/><path id="rect4698" transform="rotate(-135 672.3 362.9)" class="cls-2" fill="#60b2e6" d="M663.5 290.7h20v144.6h-20z"/><path id="path4700" transform="translate(-2 -1)" d="M1069 412.6a71 71 0 0 1-5 26.4 53.3 53.3 0 1 0-26.8-85.7 71 71 0 0 1 31.8 59.3z" class="cls-6" fill="none"/><path id="path4702" transform="translate(-2 -1)" d="M1007 387.6a71 71 0 0 1 5-26.4 53.3 53.3 0 1 0 26.8 85.7 71 71 0 0 1-31.9-59.3z" class="cls-6" fill="none"/><path id="path4704" transform="translate(-2 -1)" d="M1028.2 368.7a53.3 53.3 0 0 0 19.6 62.8 53.3 53.3 0 0 0-19.6-62.8z" class="cls-6" fill="none"/><path id="path4706" transform="translate(-2 -1)" d="M1047.8 431.5a53.3 53.3 0 0 1-9 15.4 70.5 70.5 0 0 0 16.3 8 71 71 0 0 0 8.9-15.9 53 53 0 0 1-16.2-7.5z" class="cls-2" fill="#60b2e6"/><path id="path4708" transform="translate(-2 -1)" d="M1028.2 368.7a53.2 53.2 0 0 1 9-15.4c-5.2-4.3-8-5.6-16.4-8a70.5 70.5 0 0 0-8.8 15.9 53 53 0 0 1 16.2 7.5z" class="cls-2" fill="#60b2e6"/><path id="path4710" transform="translate(-2 -1)" d="M993 483.5v49.2h20V482a71.3 71.3 0 0 1-15 1.6l-5-.2z" class="cls-2" fill="#60b2e6"/><path id="path4712" transform="translate(-2 -1)" d="M1038.8 446.9a53.3 53.3 0 1 1-26.8-85.7c2.3-5.7 5.2-11 8.9-15.9A71 71 0 1 0 1055 455c-5.9-9.6-7.8-6.2-16.2-8z" class="cls-2" fill="#60b2e6"/><path id="path4714" transform="translate(-2 -1)" d="M1067 457.8v56.9h20V458a50.7 50.7 0 0 0-20-.3z" class="cls-2" fill="#60b2e6"/><path id="path4716" transform="translate(-2 -1)" d="M1078 316.5a71 71 0 0 0-57.1 28.8c5.2 4.3 10.8 6 16.3 8A53.3 53.3 0 1 1 1064 439c-3.6 4.8-6.8 10-8.8 15.9a71 71 0 1 0 22.8-138.3z" class="cls-2" fill="#60b2e6"/><path id="polygon4718" class="cls-2" fill="#60b2e6" d="M463.4 485.3h28.2l88.2-88.1-14.2-14.1z"/><path id="polygon4720" class="cls-2" fill="#60b2e6" d="M668.3 415.4v70.2L566.6 384l-14.1 14.1 105.2 105.2 44.7.1v-88z"/><path id="rect4722" class="cls-2" fill="#60b2e6" d="M726.1 415.4h28v88h-28z"/><path id="rect4724" class="cls-2" fill="#60b2e6" d="M710.1 415.4h8v88h-8z"/><path id="rect4726" class="cls-6" fill="none" d="M702.4 415.4h8v88h-8z"/><path id="rect4728" class="cls-6" fill="none" d="M718.1 415.4h8v88h-8z"/></g></g></svg>