<svg id="Ebene_1" data-name="Ebene 1" xmlns="http://www.w3.org/2000/svg" viewBox="0 0 579.71 709.45"><defs><style>.cls-2{fill:#fff}</style></defs><path fill="#282827" d="M0 0h579.71v709.45H0z"/><path class="cls-2" d="M64.06 557.76c-17.38 0-27.41-10.86-27.41-27.82s10-28.14 27.41-28.14 27.2 10.86 27.2 27.83-9.82 28.13-27.2 28.13zm0-10.34c7.65 0 11.27-5.28 11.27-17.48 0-12-3.72-17.8-11.38-17.8-7.86.11-11.48 5.9-11.48 17.9s3.83 17.38 11.59 17.38z" transform="translate(.6)"/><path class="cls-2" d="M122 556.42a1.45 1.45 0 01-1.25-.73L111.57 538l-9.31 17.68a1.43 1.43 0 01-1.24.73H86.64a.47.47 0 01-.41-.73l16-27.51L87 503.87a.47.47 0 01.41-.73h15.73a1.46 1.46 0 011.24.73l9.1 16.86 8.28-16.86a1.59 1.59 0 011.24-.73h14a.47.47 0 01.42.73l-14.8 25.34 15.73 26.48a.47.47 0 01-.42.73zM140.56 498a.89.89 0 01-.83-.82v-12.34a.89.89 0 01.83-.83h14.07a.89.89 0 01.83.83v12.31a.89.89 0 01-.83.82zm0 58.45a.89.89 0 01-.83-.83l.21-25.76-.21-25.86a.9.9 0 01.83-.83h14.07a.9.9 0 01.83.83l-.21 25.86.21 25.76a.89.89 0 01-.83.83zm57.01-.03a.88.88 0 01-.83-.83l.31-5.38a19.53 19.53 0 01-15.73 7.25c-15.1 0-23.06-12-23.06-27.52s8.89-27.83 23.38-27.83c6.51 0 11.58 2.28 15.2 6.52v-23.79a.89.89 0 01.83-.83h13.86a.88.88 0 01.83.83l-.1 35.37.1 35.38a.88.88 0 01-.83.83zm-11.9-9.21c7.55 0 11.59-5.69 11.69-17 .1-11.49-3.93-17.79-11.38-17.9-7.86-.21-11.9 5.79-11.9 16.86 0 12.04 4.14 18.15 11.59 18.04zM217.05 498a.89.89 0 01-.83-.82v-12.34a.89.89 0 01.83-.83h14.07a.89.89 0 01.83.83v12.31a.89.89 0 01-.83.82zm0 58.45a.89.89 0 01-.83-.83l.21-25.76-.21-25.86a.9.9 0 01.83-.83h14.07a.9.9 0 01.83.83l-.21 25.86.21 25.76a.89.89 0 01-.83.83zm62.8-.86a.88.88 0 01-.83.83h-43.34a.88.88 0 01-.83-.83v-9.31a2.24 2.24 0 01.52-1.45l24.1-30.72h-21.62a.89.89 0 01-.83-.83V504a.9.9 0 01.83-.83h39.62a.9.9 0 01.83.83v9.52a2.52 2.52 0 01-.52 1.45l-24.21 30.51H279a.89.89 0 01.83.83zM283.6 498a.89.89 0 01-.83-.82v-12.34a.89.89 0 01.83-.83h14.07a.89.89 0 01.83.83v12.31a.89.89 0 01-.83.82zm0 58.45a.89.89 0 01-.83-.83l.21-25.76-.21-25.86a.9.9 0 01.83-.83h14.07a.9.9 0 01.83.83l-.21 25.86.21 25.76a.89.89 0 01-.83.83zm19.56-.03a.89.89 0 01-.83-.83l.21-24.72V504a.89.89 0 01.83-.83h13.34a.9.9 0 01.83.83l-.31 5.9a21.51 21.51 0 0117.17-8c11.27 0 18.62 7.65 18.62 20.68v11.18l.21 21.82a.89.89 0 01-.83.83h-14.07a.89.89 0 01-.83-.83l.21-21.82v-11c0-5.79-3.42-9.52-8.07-9.52-5.58 0-11.58 5.18-11.58 16.55v3.94l.2 21.82a.88.88 0 01-.82.83zm79.58 20.69c-14.07.21-24.62-5.48-25.45-17.28a.88.88 0 01.83-.82h13.65a1 1 0 01.93.82c.62 4.45 4.25 7 10.55 7 6.73 0 11.38-3.72 11.38-12.11v-6.1a18.42 18.42 0 01-15.31 7.45c-15.82 0-24.1-11.69-24.1-26.69s8.9-27 23.38-27c6.62 0 11.79 2.28 15.41 6.52l-.31-5a.9.9 0 01.83-.83h13.86a.89.89 0 01.83.83l-.22 26.66V555c0 13.42-8.68 22.11-26.26 22.11zm-.11-31.11c7.56 0 11.59-5.38 11.7-16.14.1-11.07-3.94-17.17-11.38-17.27-7.87-.21-11.9 5.58-11.9 16.24 0 11.45 4.13 17.25 11.58 17.17zM62.2 652.54c-15.83 0-25.24-6.31-25.66-18.31a.89.89 0 01.83-.83h13.45a.82.82 0 01.83.83c.3 6 4.24 8.69 11.58 8.69 6.1 0 9.42-2.38 9.42-6.52 0-10.14-34.87-.31-34.87-22.65 0-11.07 8.9-17 23.28-17 14.07 0 23.48 5.59 24.31 16.86a.74.74 0 01-.73.83H71.82a1 1 0 01-.94-.83c-.82-4.55-3.72-7.44-10-7.44-5.07 0-8.27 1.86-8.27 6.41 0 10.14 34.86-.21 34.86 22.45-.03 11.2-10.58 17.51-25.27 17.51zm53.2 15.51a1.22 1.22 0 01-1.14.83h-13.14a.57.57 0 01-.52-.83l5.59-16.24-21.42-53.06a.56.56 0 01.52-.73h15.83a1.21 1.21 0 011.14.83l11.58 33.31 9.63-33.31a1 1 0 011-.83h14.07a.57.57 0 01.52.83zm47.71-15.51c-15.83 0-25.24-6.31-25.66-18.31a.89.89 0 01.83-.83h13.45a.81.81 0 01.82.83c.32 6 4.25 8.69 11.59 8.69 6.11 0 9.42-2.38 9.42-6.52 0-10.14-34.87-.31-34.87-22.65 0-11.07 8.9-17 23.28-17 14.07 0 23.48 5.59 24.31 16.86a.74.74 0 01-.72.83h-12.83a1 1 0 01-.93-.83c-.83-4.55-3.73-7.44-10-7.44-5.08 0-8.28 1.86-8.28 6.41 0 10.14 34.86-.21 34.86 22.45-.03 11.2-10.58 17.51-25.27 17.51zm59.2-3.1a1.2 1.2 0 01-.83 1.13 33.7 33.7 0 01-9.72 1.76c-9 0-17.59-4.55-17.59-16.65l.1-26.69h-6.1a.89.89 0 01-.83-.83v-9.31a.89.89 0 01.83-.83h6.1l-.1-12.52a.89.89 0 01.83-.82h13.86a.88.88 0 01.83.82l-.11 12.5h12a.89.89 0 01.83.83v9.31a.89.89 0 01-.83.83h-12l.11 26.27c0 4.56 2.27 6 5.69 6a18.84 18.84 0 006.1-.93.67.67 0 01.83.62z" transform="translate(.6)"/><path class="cls-2" d="M274.26 633.3a.73.73 0 01.72.83c-1.24 9.82-10.55 18.51-25.55 18.51-17.8 0-27.41-11.69-27.41-27.83 0-17 10.13-28.13 27.1-28.13 17.58 0 27.2 11.69 27.51 30.31a.88.88 0 01-.82.82h-38.17c.62 10 4.55 14.49 12 14.49 5.28 0 9-2.38 10.35-8.17a1.08 1.08 0 011-.83zm-25-26.38c-6.21 0-9.93 3.72-11.17 11.07h21.83c-.67-5.69-3.87-11.07-10.7-11.07zm45.61 25.24l.21 18.31a.9.9 0 01-.83.83H280a.89.89 0 01-.82-.83l.21-18.31v-33.31a.89.89 0 01.82-.83h13.35a.89.89 0 01.82.83l-.3 5.9c3.72-5.18 8.48-8 15.3-8 7.45 0 12.83 3.21 15.31 10 4.56-8.06 9.83-10 16.14-10 10.76 0 17 6.52 17 20.69v14.69l.2 18.31a.89.89 0 01-.82.83h-14.13a.89.89 0 01-.83-.83l.21-18.31v-14.45c0-6.42-2.59-9.52-6.83-9.52s-9.31 5.69-9.31 16.55v7.45l.2 18.31a.89.89 0 01-.82.83h-14.07a.9.9 0 01-.83-.83l.21-18.31v-14.48c0-6.42-2.49-9.52-6.83-9.52s-9.31 5.69-9.31 16.55zm90.66 20.38c-15.82 0-25.24-6.31-25.65-18.31a.88.88 0 01.83-.83h13.44a.81.81 0 01.83.83c.31 6 4.24 8.69 11.58 8.69 6.11 0 9.42-2.38 9.42-6.52 0-10.14-34.86-.31-34.86-22.65 0-11.07 8.89-17 23.28-17 14.06 0 23.47 5.59 24.3 16.86a.73.73 0 01-.72.83h-12.83a1 1 0 01-.93-.83c-.82-4.55-3.72-7.44-10-7.44-5.07 0-8.28 1.86-8.28 6.41 0 10.14 34.86-.21 34.86 22.45-.03 11.2-10.58 17.51-25.27 17.51z" transform="translate(.6)"/><path class="cls-2" d="M.25 440.61h495.58v22.68H.25z"/></svg>