<svg xmlns="http://www.w3.org/2000/svg" viewBox="0 0 1043.256 460.158"><path d="M158.361 250.236l-86.639 40.399V77.755l86.639 40.399v132.082zm0 50.171l-86.639 40.399v-21.683l86.639-40.399v21.683zm25.818 1.942V130.195l20.083 9.326v116.116c14.255.016 25.818-11.533 25.818-25.789V138.15a22.772 22.772 0 00-13.146-20.636L71.722 49.268V27.584l112.457 52.437v-12.06A25.788 25.788 0 00169.29 44.59L78.296 2.161C63.201-4.879 45.904 6.14 45.904 22.797v411.575c0 14.239 11.543 25.785 25.785 25.785h.032v-90.864l99.311-46.308a22.767 22.767 0 0013.147-20.636M25.789 46.298C11.546 46.298 0 57.845 0 72.084v316.729c0 14.242 11.546 25.789 25.789 25.789V46.298z" fill="#f5333f"/><path d="M374.956 160.536c-12.377 0-22.391 3.52-30.036 10.56v-7.829h-24.033v134.535h24.033V246.28c7.645 7.04 17.659 10.56 30.036 10.56 12.015 0 22.453-4.551 31.313-13.654s13.292-20.571 13.292-34.406c0-13.835-4.461-25.336-13.382-34.5-8.922-9.161-19.328-13.744-31.223-13.744zm14.11 67.994c-4.794 4.917-10.893 7.373-18.296 7.373-6.798 0-12.804-2.518-18.024-7.554-5.217-5.036-7.826-11.559-7.826-19.569s2.609-14.566 7.826-19.663c5.22-5.098 11.226-7.645 18.024-7.645 7.402 0 13.502 2.489 18.296 7.464 4.794 4.975 7.192 11.592 7.192 19.844 0 8.253-2.399 14.837-7.192 19.75zm115.874-58.982c-7.16-6.009-16.87-9.012-29.128-9.012-10.318 0-19.207 2.699-26.671 8.101-7.464 5.401-12.044 12.532-13.744 21.392l22.938 4.551c1.823-8.86 8.133-13.292 18.932-13.292 4.613 0 8.346 1.396 11.197 4.189 2.854 2.79 4.28 6.494 4.28 11.103v1.455h-26.215c-11.288 0-20.119 2.641-26.49 7.923-6.371 5.279-9.558 12.348-9.558 21.208 0 8.86 3.158 16.02 9.468 21.483 6.31 5.46 14.685 8.191 25.123 8.191 11.407 0 20.633-3.397 27.673-10.195v7.464h22.938v-59.348c-.002-10.803-3.584-19.207-10.743-25.213zm-12.196 47.789c0 5.702-2.366 10.528-7.102 14.472-4.732 3.944-10.315 5.915-16.747 5.915-4.613 0-8.346-.999-11.197-3.003-2.851-2.004-4.277-4.703-4.277-8.1 0-3.155 1.183-5.676 3.549-7.554 2.366-1.881 5.43-2.822 9.193-2.822h26.581v1.092zm111.775-46.241c-7.648-7.04-17.659-10.56-30.039-10.56-11.892 0-22.301 4.58-31.222 13.744-8.918 9.164-13.379 20.665-13.379 34.5s4.428 25.304 13.289 34.406c8.86 9.103 19.298 13.654 31.313 13.654 12.38 0 22.391-3.52 30.039-10.56v6.374c0 7.645-2.518 13.47-7.554 17.475-5.039 4.005-11.563 6.009-19.572 6.009-5.702 0-10.315-1.002-13.835-3.006-3.52-2.001-7.16-5.369-10.922-10.101l-19.479 16.566c8.372 13.35 23.118 20.025 44.236 20.025 15.05 0 27.34-3.824 36.866-11.469 9.526-7.648 14.291-18.267 14.291-31.859v-93.027h-24.03v7.829zm-7.829 57.253c-5.217 5.036-11.226 7.554-18.024 7.554-7.402 0-13.502-2.457-18.296-7.373-4.794-4.913-7.189-11.498-7.189-19.75 0-8.253 2.395-14.869 7.189-19.844 4.794-4.975 10.894-7.464 18.296-7.464 6.798 0 12.807 2.547 18.024 7.645 5.22 5.098 7.829 11.653 7.829 19.663s-2.608 14.533-7.829 19.569zm97.032-67.813c-13.227 0-24.363 4.519-33.404 13.563-9.044 9.041-13.563 20.6-13.563 34.681 0 14.077 4.49 25.607 13.47 34.587 8.983 8.983 20.028 13.473 33.136 13.473 10.192 0 19.114-2.366 26.758-7.098 7.648-4.736 13.411-11.714 17.297-20.937l-21.483-4.551c-4.732 8.01-12.257 12.015-22.572 12.015-5.586 0-10.47-1.914-14.656-5.734-4.186-3.824-6.888-8.951-8.101-15.383h69.178v-8.194c-.485-13.592-5.188-24.728-14.11-33.404-8.919-8.68-19.57-13.018-31.95-13.018zm-22.391 37.684c1.335-5.34 4.157-9.468 8.466-12.377 4.309-2.916 8.951-4.37 13.925-4.37 5.098 0 9.587 1.396 13.473 4.186 3.882 2.793 6.552 6.979 8.01 12.561h-43.874zm140.723-37.684c-12.377 0-22.391 3.52-30.036 10.56v-7.829h-24.033v134.535h24.033V246.28c7.645 7.04 17.659 10.56 30.036 10.56 12.015 0 22.453-4.551 31.313-13.654s13.289-20.571 13.289-34.406c0-13.835-4.458-25.336-13.379-34.5-8.922-9.161-19.328-13.744-31.223-13.744zm14.11 67.994c-4.794 4.917-10.893 7.373-18.296 7.373-6.798 0-12.804-2.518-18.024-7.554-5.217-5.036-7.826-11.559-7.826-19.569s2.609-14.566 7.826-19.663c5.22-5.098 11.226-7.645 18.024-7.645 7.402 0 13.502 2.489 18.296 7.464 4.794 4.975 7.192 11.592 7.192 19.844 0 8.253-2.399 14.837-7.192 19.75zm72.729-48.697v-16.566h-24.03v90.842h24.03V224.8c0-25.973 10.8-38.958 32.405-38.958h5.279l1.274-23.122c-1.458-.485-3.581-.727-6.371-.727-13.474 0-24.335 5.948-32.587 17.84zm130.073-5.37c-9.529-8.922-21.088-13.382-34.681-13.382-13.835 0-25.546 4.461-35.137 13.382-9.587 8.918-14.381 20.358-14.381 34.316 0 13.958 4.794 25.397 14.381 34.316 9.591 8.922 21.302 13.382 35.137 13.382 13.593 0 25.152-4.461 34.681-13.382 9.526-8.918 14.291-20.358 14.291-34.316-.001-13.958-4.765-25.398-14.291-34.316zm-16.841 53.885c-5.217 5.039-11.165 7.558-17.84 7.558-6.917 0-13.017-2.489-18.296-7.464-5.279-4.978-7.92-11.53-7.92-19.663 0-8.129 2.641-14.685 7.92-19.66 5.279-4.978 11.378-7.464 18.296-7.464 6.675 0 12.623 2.515 17.84 7.554 5.221 5.036 7.829 11.559 7.829 19.569 0 8.011-2.609 14.534-7.829 19.57z" fill="#00263a"/></svg>