<svg width="24" height="28" viewBox="0 0 24 28" xmlns="http://www.w3.org/2000/svg"><g fill="#2962FF" fill-rule="evenodd"><path d="M3.716 3.58c-4.432 4.439-4.432 11.614 0 16.02l8.014 8.025 8.015-8.025c4.432-4.437 4.432-11.613 0-16.02a11.315 11.315 0 00-16.03 0m14.16 14.202c-3.378 3.386-8.88 3.386-12.307 0-3.379-3.387-3.379-8.901 0-12.336 3.379-3.435 8.88-3.386 12.308 0 3.426 3.386 3.426 8.901 0 12.336"/><path d="M14.351 9.902h1.294l.597 1.371h-1.89v-1.37zm2.75 5.535h1.18v-2.844c-.149-.507-1.343-1.116-1.343-1.116l-.945-2.133h-2.587.05v6.093h1.12c.03-.688.585-1.237 1.263-1.237.68 0 1.233.549 1.262 1.237zM6.662 10.948h5.363v-.15H6.662v.15zm0-1.544h5.363v-.15H6.662v.15zm0 2.988h5.363v-.15H6.662v.15zm2.367 2.64H13v-7.72H5.688v7.72h.867c.028-.676.571-1.214 1.237-1.214.665 0 1.207.538 1.237 1.213z"/><path d="M18.281 13.89c0 .188-.174.329-.406.329-.232 0-.406-.141-.406-.328v-.563c0-.187.174-.328.406-.328.232 0 .406.14.406.328v.563m-12.593.406c0 .187-.175.328-.406.328-.233 0-.407-.14-.407-.328v-.562c0-.188.174-.329.407-.329.231 0 .406.14.406.329v.562m10.968.937a1.016 1.016 0 11-2.032 0 1.016 1.016 0 012.032 0m-8.125 0a1.016 1.016 0 11-2.032 0 1.016 1.016 0 012.032 0"/></g></svg>