<svg xmlns="http://www.w3.org/2000/svg" viewBox="0 0 497.88 181.58"><defs><style>.cls-1{fill:#36b7c1}</style></defs><g id="Layer_2" data-name="Layer 2"><g id="Layer_1-2" data-name="Layer 1"><path class="cls-1" d="M145.83 159.81a5.14 5.14 0 0 1 1.58 3.76q0 4.35-5.84 8.51a50.75 50.75 0 0 1-14.45 6.83 54 54 0 0 1-15.93 2.67q-11.28 0-18.89-2.47a122.6 122.6 0 0 1-16.72-7 87.23 87.23 0 0 0-12.47-5.74 36.94 36.94 0 0 0-12.07-1.78 16.88 16.88 0 0 0-4.65.59 35.18 35.18 0 0 0-5 2q-4.35 2-6.33 2a5.37 5.37 0 0 1-4.06-1.85 5.87 5.87 0 0 1-1.68-4.16q0-4 3.36-5.14l25.92-9.3a61.81 61.81 0 0 1-30.5-11.38 65.15 65.15 0 0 1-20.68-25A78.44 78.44 0 0 1 0 77.89q0-20.58 8.51-36.8a63.27 63.27 0 0 1 23.55-25.33q15-9.1 34.23-9.1t34.23 9.1a63.3 63.3 0 0 1 23.55 25.33q8.51 16.22 8.51 36.8a79.37 79.37 0 0 1-6.43 32.25 66.15 66.15 0 0 1-17.91 24.34 61.14 61.14 0 0 1-26.71 13.06l-20.78 6.93a37.94 37.94 0 0 1 10.39 2.47q4.65 1.88 11.77 5.24a102.31 102.31 0 0 0 14.45 6.23 45.58 45.58 0 0 0 14.25 2.08 33.63 33.63 0 0 0 11.57-1.78 53.72 53.72 0 0 0 9.4-4.55 17.64 17.64 0 0 0 3.76-3 21.06 21.06 0 0 1 2.87-2.08 5.58 5.58 0 0 1 2.87-.89 5.13 5.13 0 0 1 3.75 1.62zM19.49 108.66a51.23 51.23 0 0 0 19 21.07 51.76 51.76 0 0 0 27.8 7.52 51.78 51.78 0 0 0 27.8-7.52 51.22 51.22 0 0 0 19-21.07q6.83-13.55 6.83-30.77t-6.83-30.77a51.27 51.27 0 0 0-19-21.07 51.81 51.81 0 0 0-27.8-7.52 51.79 51.79 0 0 0-27.8 7.52 51.28 51.28 0 0 0-19 21.07q-6.83 13.56-6.83 30.77t6.83 30.77z"/><path d="M259.35 45.44a5.7 5.7 0 0 1 1.65 4.35c0 .13-.2 1-.59 2.57l-30.47 91a8.31 8.31 0 0 1-2.57 2.87 4.85 4.85 0 0 1-3.36.89 5.27 5.27 0 0 1-3.16-1 6.56 6.56 0 0 1-2.18-2.77l-25.9-60.91-23.15 60.95a7.4 7.4 0 0 1-2.27 2.67 5.13 5.13 0 0 1-3.07 1.09 5.55 5.55 0 0 1-3.66-.89 5.36 5.36 0 0 1-2.27-2.87l-15.49-42.74a5.69 5.69 0 0 1-.59-2.57 5.6 5.6 0 0 1 1.73-4.26 6.11 6.11 0 0 1 4.35-1.68 5.42 5.42 0 0 1 3.26 1.09 5.72 5.72 0 0 1 2.08 2.87l10.54 30.67 23.59-59.17a5.39 5.39 0 0 1 5.54-3.76 5.61 5.61 0 0 1 5.54 3.76l24.73 58.77 25.92-78.55q1.19-4 5.54-4a6 6 0 0 1 4.26 1.62zm30.28 100.03a5.94 5.94 0 0 1-10.19-4.25v-91a5.94 5.94 0 1 1 11.87 0v91a5.77 5.77 0 0 1-1.68 4.25zm89.63-99.73a37.58 37.58 0 0 1 12.86 5.64q4.88 3.56 4.88 7.71a6 6 0 0 1-1.48 4 4.58 4.58 0 0 1-3.66 1.78 6.11 6.11 0 0 1-3.26-.79 16.09 16.09 0 0 1-2.87-2.37 19.77 19.77 0 0 0-4.95-3.76 33.12 33.12 0 0 0-7.82-2.27 57.55 57.55 0 0 0-10.39-.89 37.22 37.22 0 0 0-19.89 5.54 39.3 39.3 0 0 0-14.15 15 43.3 43.3 0 0 0-5.14 21 45.54 45.54 0 0 0 4.95 21.37 37 37 0 0 0 33.8 20.3 43.75 43.75 0 0 0 11.38-1.19 43 43 0 0 0 8.41-3.36 42.3 42.3 0 0 0 4.75-3.56 18.91 18.91 0 0 1 2.77-2.08 5 5 0 0 1 2.57-.69 4.89 4.89 0 0 1 3.76 1.48 5.43 5.43 0 0 1 1.39 3.86q0 3.37-4.75 7.22a41.52 41.52 0 0 1-13.06 6.63 58 58 0 0 1-18.4 2.77 48.68 48.68 0 0 1-25.72-6.83 46.6 46.6 0 0 1-17.51-18.9 58.19 58.19 0 0 1-6.23-27.11 55.62 55.62 0 0 1 6.33-26.42 48.64 48.64 0 0 1 44.13-26.22 68.88 68.88 0 0 1 17.3 2.14zm118.62 95.47a5.25 5.25 0 0 1-2.08 4.25 6.32 6.32 0 0 1-3.86 1.68 5.42 5.42 0 0 1-4.35-2.18l-43.73-46.3L429 111.33v29.88a5.94 5.94 0 1 1-11.87 0V6.66a5.94 5.94 0 1 1 11.87 0v90.23l40.63-32.69a5.45 5.45 0 0 1 4.15-2 5.37 5.37 0 0 1 4 1.88 5.82 5.82 0 0 1 1.78 4.06 6.43 6.43 0 0 1-2.18 4.55l-24.22 18.07 42.94 45.9a6.61 6.61 0 0 1 1.78 4.55z" fill="#424a4f"/><path class="cls-1" d="M286.75 1.07l2.71 8.34a1.55 1.55 0 0 0 1.47 1.07h8.77a1.55 1.55 0 0 1 .91 2.81l-7.1 5.16a1.55 1.55 0 0 0-.56 1.73l2.71 8.34a1.55 1.55 0 0 1-2.39 1.73l-7.1-5.16a1.55 1.55 0 0 0-1.82 0l-7.1 5.16a1.55 1.55 0 0 1-2.39-1.73l2.71-8.34a1.55 1.55 0 0 0-.56-1.73l-7.1-5.16a1.55 1.55 0 0 1 .91-2.81h8.77a1.55 1.55 0 0 0 1.47-1.07l2.71-8.34a1.55 1.55 0 0 1 2.98 0z"/></g></g></svg>