<svg width="240" height="140" viewBox="0 0 240 140" xmlns="http://www.w3.org/2000/svg"><g fill="none" fill-rule="evenodd"><path fill="#02072F" d="M0 0h240v141H0z"/><g fill="#FFF"><path d="M122.416 62.76h-4.705l-3.612-6.148h-2.08v6.15h-4.377V44.047h7.66c1.833 0 3.366.615 4.651 1.87 1.286 1.258 1.915 2.755 1.915 4.546 0 2.272-1.423 4.357-3.528 5.426l4.076 6.871zm-7.113-14.702h-3.283v4.812h3.283c1.204 0 2.188-1.042 2.188-2.406s-.984-2.406-2.188-2.406zm17.982 2.594v-1.257h4.104V62.76h-4.104v-1.255c-.957 1.096-2.326 1.63-4.076 1.63-1.806 0-3.337-.668-4.624-2.032-1.286-1.363-1.914-3.046-1.914-5.025 0-1.98.628-3.636 1.914-4.999 1.285-1.363 2.818-2.058 4.624-2.058 1.75 0 3.118.534 4.076 1.63v.001zm-5.609 7.805c.601.588 1.395.882 2.353.882.957 0 1.751-.294 2.353-.882.602-.588.903-1.39.903-2.38 0-.989-.301-1.79-.903-2.378-.6-.589-1.396-.882-2.353-.882-.957 0-1.75.293-2.353.88-.6.59-.903 1.392-.903 2.38 0 .99.302 1.792.903 2.38zm22.36-7.806v-6.603h4.103V62.76h-4.104v-1.256c-.957 1.096-2.325 1.63-4.075 1.63-1.806 0-3.337-.668-4.624-2.032-1.286-1.363-1.914-3.046-1.914-5.025 0-1.98.628-3.636 1.914-4.999 1.285-1.363 2.818-2.058 4.624-2.058 1.75 0 3.118.534 4.075 1.63zm-5.609 7.806c.601.588 1.395.882 2.353.882.957 0 1.751-.294 2.352-.882.603-.588.903-1.39.903-2.38 0-.989-.3-1.79-.903-2.378-.601-.589-1.395-.882-2.352-.882-.957 0-1.75.293-2.353.88-.6.59-.903 1.392-.903 2.38 0 .99.3 1.792.903 2.38zm16.204-10.933c-.957.934-2.49.934-3.474 0-.957-.963-.957-2.461 0-3.395.984-.963 2.516-.963 3.474 0 .984.935.984 2.432 0 3.394v.001zm.328 15.237h-4.104V49.395h4.104V62.76zm10.732-13.366v3.85h-2.818v4.73c0 1.07.822 1.257 2.818 1.15v3.636c-2.598.267-4.404.027-5.416-.721-1.013-.776-1.506-2.112-1.506-4.064v-4.732h-2.188v-3.85h2.188v-2.54l4.104-1.202v3.743h2.818zm8.352 8.18l2.572-8.181h4.377l-4.678 12.966c-1.532 4.198-3.94 5.935-7.798 5.748v-3.743c1.888 0 2.791-.587 3.42-2.219l-5.444-12.751h4.515l3.036 8.18z"/><path d="M44.777 101.033c.988 0 1.86-.157 2.614-.469.755-.312 1.387-.726 1.897-1.24a5.186 5.186 0 001.155-1.765c.26-.66.39-1.345.39-2.052 0-.344-.036-.718-.11-1.124a5.994 5.994 0 00-.358-1.218 5.472 5.472 0 00-.68-1.186 4.499 4.499 0 00-1.076-1.023 5.464 5.464 0 00-1.53-.71c-.588-.177-1.272-.265-2.053-.265h-3.855v11.052h3.606zm-.219-1.405h-1.889v-8.242h2.248c.895 0 1.623.148 2.185.445.562.296 1.002.658 1.32 1.084.317.427.533.877.647 1.35.115.474.172.888.172 1.242 0 .686-.125 1.287-.375 1.803a3.7 3.7 0 01-1.014 1.287 4.368 4.368 0 01-1.491.773 6.19 6.19 0 01-1.803.258zm10.448 1.405V89.98h-1.498v11.052h1.498zm8.59.28a9.845 9.845 0 002.194-.257 9.92 9.92 0 001.07-.32 5 5 0 00.92-.437V94.85h-3.95v1.405h2.452v3.075c-.333.187-.737.33-1.21.43a7.36 7.36 0 01-1.506.148 4.262 4.262 0 01-1.702-.336 4.178 4.178 0 01-1.358-.929 4.314 4.314 0 01-.905-1.397 4.565 4.565 0 01-.328-1.74c0-.604.099-1.174.296-1.71a4.164 4.164 0 01.843-1.397c.365-.395.802-.71 1.312-.944.51-.234 1.082-.351 1.717-.351.562 0 1.098.086 1.607.257.51.172.994.476 1.452.913l1.062-1.14a4.592 4.592 0 00-1.624-1.053c-.645-.255-1.478-.382-2.497-.382-.843 0-1.619.148-2.326.445a5.417 5.417 0 00-1.819 1.225c-.504.52-.9 1.134-1.186 1.842a6.063 6.063 0 00-.43 2.295c0 .78.133 1.522.399 2.224.265.702.65 1.32 1.155 1.85s1.124.952 1.857 1.264c.734.312 1.57.468 2.506.468zm8.935-.28V89.98h-1.499v11.052h1.499zm7.17 0v-9.647h3.559V89.98h-8.617v1.405h3.56v9.647H79.7zm4.579 0l1.092-2.732h5.26l1.11 2.732h1.747L88.76 89.98h-1.357l-4.87 11.052h1.748zm5.807-4.043h-4.184l2.092-5.074h.031l2.06 5.074zm11.93 4.043v-1.405h-5.073V89.98h-1.498v11.052h6.572zm9.533.28c.53 0 1.03-.078 1.498-.234.469-.156.875-.38 1.218-.67.343-.292.617-.651.82-1.078.202-.427.304-.905.304-1.436 0-.666-.135-1.189-.406-1.569a3.048 3.048 0 00-1.007-.905 5.611 5.611 0 00-1.311-.523c-.473-.125-.91-.265-1.311-.422a3.152 3.152 0 01-1.007-.608c-.27-.25-.406-.61-.406-1.077 0-.167.034-.349.102-.547a1.49 1.49 0 01.35-.554c.167-.172.388-.312.664-.421.276-.11.622-.164 1.038-.164.437 0 .828.088 1.171.265.343.177.609.411.796.703l1.218-1.109c-.417-.51-.9-.848-1.452-1.014a5.963 5.963 0 00-1.733-.25c-.666 0-1.236.101-1.709.304a3.672 3.672 0 00-1.163.757 2.868 2.868 0 00-.663 1c-.14.364-.211.707-.211 1.03 0 .718.135 1.287.406 1.709.27.421.606.757 1.007 1.007.4.25.837.445 1.31.585.474.14.911.286 1.312.437.4.151.736.338 1.007.562.27.224.406.549.406.976 0 .301-.068.567-.203.796-.135.229-.31.421-.523.577-.213.156-.45.273-.71.352-.26.078-.515.117-.765.117-.448 0-.882-.097-1.304-.29a2.462 2.462 0 01-1.038-.897l-1.233 1.062c.375.52.88.905 1.514 1.155a5.45 5.45 0 002.014.374zm11.65 0a5.97 5.97 0 002.326-.444 5.417 5.417 0 001.818-1.226c.505-.52.9-1.134 1.187-1.842a6.06 6.06 0 00.429-2.294 6.05 6.05 0 00-.43-2.295 5.664 5.664 0 00-1.186-1.842 5.417 5.417 0 00-1.818-1.225 5.958 5.958 0 00-2.326-.445c-.843 0-1.618.148-2.326.445a5.417 5.417 0 00-1.818 1.225c-.505.52-.9 1.134-1.187 1.842a6.063 6.063 0 00-.429 2.295c0 .822.143 1.587.43 2.294a5.664 5.664 0 001.186 1.842c.504.52 1.11.929 1.818 1.226a5.958 5.958 0 002.326.444zm0-1.404c-.635 0-1.207-.117-1.717-.352a4.069 4.069 0 01-1.311-.944 4.164 4.164 0 01-.843-1.397 4.899 4.899 0 01-.297-1.71c0-.603.1-1.173.297-1.709a4.164 4.164 0 01.843-1.397c.364-.395.801-.71 1.31-.944.51-.234 1.083-.351 1.718-.351s1.207.117 1.717.35c.51.235.947.55 1.311.945.365.396.645.861.843 1.397.198.536.297 1.106.297 1.71 0 .603-.1 1.173-.297 1.709a4.164 4.164 0 01-.843 1.397c-.364.395-.801.71-1.31.944-.51.235-1.083.352-1.718.352zm15.006 1.124v-1.405h-5.073V89.98h-1.499v11.052h6.572zm6.124.28c.604 0 1.166-.104 1.686-.312.52-.208.973-.504 1.358-.89.385-.384.687-.84.906-1.365a4.544 4.544 0 00.327-1.756v-7.01h-1.498v6.775c0 .344-.047.7-.14 1.07-.094.37-.25.71-.469 1.022a2.544 2.544 0 01-.858.765c-.354.198-.791.297-1.312.297-.52 0-.957-.1-1.31-.297a2.544 2.544 0 01-.86-.765 3.095 3.095 0 01-.468-1.022 4.347 4.347 0 01-.14-1.07v-6.774h-1.499v7.009c0 .645.11 1.23.328 1.756.219.525.52.98.906 1.366.385.385.837.681 1.358.89.52.207 1.082.311 1.685.311zm11.245-.28v-9.647h3.559V89.98h-8.617v1.405h3.56v9.647h1.498zm7.17 0V89.98h-1.499v11.052h1.499zm8.434.28a5.97 5.97 0 002.326-.444 5.417 5.417 0 001.819-1.226c.504-.52.9-1.134 1.186-1.842.286-.707.43-1.472.43-2.294a6.07 6.07 0 00-.43-2.295 5.664 5.664 0 00-1.186-1.842 5.417 5.417 0 00-1.819-1.225 5.958 5.958 0 00-2.326-.445c-.843 0-1.618.148-2.326.445a5.417 5.417 0 00-1.818 1.225c-.505.52-.9 1.134-1.187 1.842a6.063 6.063 0 00-.429 2.295c0 .822.143 1.587.43 2.294a5.664 5.664 0 001.186 1.842c.505.52 1.11.929 1.818 1.226a5.958 5.958 0 002.326.444zm0-1.404c-.635 0-1.207-.117-1.717-.352a4.069 4.069 0 01-1.311-.944 4.164 4.164 0 01-.843-1.397 4.899 4.899 0 01-.297-1.71c0-.603.1-1.173.297-1.709a4.164 4.164 0 01.843-1.397c.364-.395.801-.71 1.311-.944.51-.234 1.082-.351 1.717-.351s1.207.117 1.717.35c.51.235.947.55 1.311.945.365.396.646.861.843 1.397.198.536.297 1.106.297 1.71 0 .603-.099 1.173-.297 1.709a4.164 4.164 0 01-.843 1.397c-.364.395-.8.71-1.31.944-.51.235-1.083.352-1.718.352zm9.933 1.124v-9.085h.031l6.15 9.085h1.905V89.98H187.7v9.085h-.032l-6.088-9.085h-1.966v11.052h1.498zm14.07.28c.53 0 1.03-.078 1.498-.234.469-.156.874-.38 1.218-.67.343-.292.616-.651.82-1.078.202-.427.304-.905.304-1.436 0-.666-.135-1.189-.406-1.569a3.048 3.048 0 00-1.007-.905 5.611 5.611 0 00-1.311-.523c-.474-.125-.91-.265-1.311-.422a3.152 3.152 0 01-1.007-.608c-.27-.25-.406-.61-.406-1.077 0-.167.034-.349.101-.547a1.49 1.49 0 01.352-.554c.166-.172.387-.312.663-.421.276-.11.622-.164 1.038-.164.437 0 .827.088 1.17.265.344.177.61.411.797.703l1.218-1.109c-.417-.51-.9-.848-1.452-1.014a5.963 5.963 0 00-1.733-.25c-.666 0-1.236.101-1.71.304-.473.203-.86.456-1.162.757a2.868 2.868 0 00-.663 1 2.854 2.854 0 00-.211 1.03c0 .718.135 1.287.406 1.709.27.421.606.757 1.006 1.007.401.25.838.445 1.312.585.473.14.91.286 1.31.437.402.151.737.338 1.008.562.27.224.406.549.406.976 0 .301-.068.567-.203.796-.136.229-.31.421-.523.577-.214.156-.45.273-.71.352a2.66 2.66 0 01-.765.117c-.448 0-.882-.097-1.304-.29a2.462 2.462 0 01-1.038-.897l-1.233 1.062c.375.52.88.905 1.514 1.155a5.45 5.45 0 002.014.374z" fill-rule="nonzero" opacity=".9"/><path d="M78.444 72.124a2.341 2.341 0 012.341 2.342v.42a2.341 2.341 0 01-2.341 2.342H42.34A2.341 2.341 0 0140 74.886v-.42a2.341 2.341 0 012.341-2.342h36.103zM73.28 64.3a2.341 2.341 0 012.342 2.341v.42a2.341 2.341 0 01-2.342 2.342H42.34A2.341 2.341 0 0140 67.062v-.42a2.341 2.341 0 012.341-2.342h30.94zm-5.162-7.825a2.341 2.341 0 012.341 2.342v.42a2.341 2.341 0 01-2.341 2.341H42.34A2.341 2.341 0 0140 59.237v-.42a2.341 2.341 0 012.341-2.342H68.12zm13.767-7.826a2.341 2.341 0 012.342 2.342v.42a2.341 2.341 0 01-2.342 2.342H42.341A2.341 2.341 0 0140 51.41v-.42a2.341 2.341 0 012.341-2.342h39.545zm0-7.824a2.341 2.341 0 012.342 2.341v.42a2.341 2.341 0 01-2.342 2.342H42.341A2.341 2.341 0 0140 43.587v-.42a2.341 2.341 0 012.341-2.342h39.545zM71.56 33a2.341 2.341 0 012.341 2.341v.42a2.341 2.341 0 01-2.341 2.342H42.34A2.341 2.341 0 0140 35.762v-.42A2.341 2.341 0 0142.341 33H71.56z"/></g></g></svg>