<svg xmlns="http://www.w3.org/2000/svg" viewBox="0 0 246.88 276.77"><defs><style>.cls-1{fill:#f9543e}</style></defs><g id="Ebene_2" data-name="Ebene 2"><g id="Guides"><path class="cls-1" d="M19.76 235h-4.88a.76.76 0 0 0-.76.76v8.87a.76.76 0 0 1-.76.77H3.81a.76.76 0 0 1-.76-.77V207a.76.76 0 0 1 .76-.76h17.13a22.26 22.26 0 0 1 9.23 1.76 13.67 13.67 0 0 1 6 5 13.84 13.84 0 0 1 2.12 7.69 13.68 13.68 0 0 1-2 7.41 13.23 13.23 0 0 1-4.91 4.55.76.76 0 0 0-.28 1.1l7.13 10.4a.76.76 0 0 1-.63 1.2h-10a.77.77 0 0 1-.6-.35l-6.64-9.73a.77.77 0 0 0-.6-.27zm5.66-18.51a7.65 7.65 0 0 0-5.15-1.51h-5.39a.76.76 0 0 0-.76.76v9.94a.76.76 0 0 0 .76.76h5.39a7.76 7.76 0 0 0 5.15-1.48 5.26 5.26 0 0 0 1.73-4.22 5.35 5.35 0 0 0-1.73-4.29zm51.41 21.07v7a.76.76 0 0 1-.77.77H46.17a.77.77 0 0 1-.77-.77V207a.77.77 0 0 1 .77-.76h29.17a.76.76 0 0 1 .76.76v7a.76.76 0 0 1-.76.76H57.13a.76.76 0 0 0-.77.76v5.08a.76.76 0 0 0 .77.76H73a.76.76 0 0 1 .76.76v6.75a.76.76 0 0 1-.76.76H57.13a.77.77 0 0 0-.77.77v5.6a.76.76 0 0 0 .77.76h18.93a.76.76 0 0 1 .77.8zm32.7.19H94a.75.75 0 0 0-.7.48l-2.69 6.65a.77.77 0 0 1-.71.48h-9.61a.77.77 0 0 1-.7-1.07l16.61-37.62a.76.76 0 0 1 .7-.45h9.9a.76.76 0 0 1 .7.45l16.66 37.61a.77.77 0 0 1-.7 1.08h-9.83a.77.77 0 0 1-.71-.48l-2.69-6.65a.75.75 0 0 0-.7-.48zm-3.15-9.21l-3.91-9.71a.76.76 0 0 0-1.41 0l-3.91 9.71a.77.77 0 0 0 .71 1.05h7.81a.77.77 0 0 0 .71-1.05zM131.3 245l-2.59-.69a.78.78 0 0 1-.53-.47l-2.64-7.15a.76.76 0 0 1 .92-1 72.35 72.35 0 0 0 7.29 1.61 40.43 40.43 0 0 0 6.78.51c4.25 0 6.43-1.31 6.43-3.44a2.64 2.64 0 0 0-1.82-2.49 33 33 0 0 0-5.84-1.7 58.31 58.31 0 0 1-7.38-2 12.4 12.4 0 0 1-5.09-3.5 9.4 9.4 0 0 1-2.12-6.48 11.25 11.25 0 0 1 2-6.46 13.17 13.17 0 0 1 5.85-4.56 24 24 0 0 1 9.53-1.68 33.59 33.59 0 0 1 7.61.87 24 24 0 0 1 6 2.21.77.77 0 0 1 .33 1l-2.83 6.82a.76.76 0 0 1-1.05.38A22.3 22.3 0 0 0 142 214a9.09 9.09 0 0 0-4.8 1 2.94 2.94 0 0 0-1.51 2.55 2.53 2.53 0 0 0 1.79 2.35 32.56 32.56 0 0 0 5.75 1.62 52.46 52.46 0 0 1 7.41 2 12.8 12.8 0 0 1 5.09 3.46 9.25 9.25 0 0 1 2.15 6.46 11 11 0 0 1-2 6.38 13.31 13.31 0 0 1-5.87 4.55 23.71 23.71 0 0 1-9.51 1.71 36.38 36.38 0 0 1-9.2-1.08z"/><path class="cls-1" d="M171.2 243.51a20 20 0 0 1 0-35.45 25 25 0 0 1 22.31 0 20 20 0 0 1 0 35.45 25 25 0 0 1-22.31 0zm16.52-7.94a10 10 0 0 0 3.8-3.94 12.9 12.9 0 0 0 0-11.69 10.08 10.08 0 0 0-3.8-3.94 11 11 0 0 0-10.72 0 10 10 0 0 0-3.81 3.94 13 13 0 0 0 0 11.69 10 10 0 0 0 3.81 3.94 11 11 0 0 0 10.73 0zM246.88 207v37.61a.76.76 0 0 1-.77.77h-8a.74.74 0 0 1-.58-.28l-15.7-19a.76.76 0 0 0-1.35.49v18a.76.76 0 0 1-.77.77h-9.31a.76.76 0 0 1-.76-.77V207a.76.76 0 0 1 .76-.76h8a.76.76 0 0 1 .58.27l15.7 18.95A.76.76 0 0 0 236 225v-18a.76.76 0 0 1 .76-.76h9.32a.76.76 0 0 1 .8.76zM24.46 276.09l-9.14-20.64-.05-.11h-6v.11L.11 276.09l-.11.27h6.37v-.12l1.38-3.42a.76.76 0 0 1 .7-.47H16a.77.77 0 0 1 .7.47l1.3 3.42v.12h6.5zm-11.71-13l1.43 3.57a.75.75 0 0 1-.7 1H11a.75.75 0 0 1-.7-1l1.43-3.57a.57.57 0 0 1 1.02-.03zm31.61 6.83a6 6 0 0 1-1.07 3.46 7.19 7.19 0 0 1-3.17 2.47 12.75 12.75 0 0 1-5.09.92 19.11 19.11 0 0 1-4.91-.63 21.25 21.25 0 0 1-3.78-1.64.28.28 0 0 1-.13-.38L28 270a.29.29 0 0 1 .41-.14 21.33 21.33 0 0 0 3.08 1.42 12.25 12.25 0 0 0 3.54.55c2.11 0 3.17-.5 3.17-1.49a1.21 1.21 0 0 0-.84-1.14 17.48 17.48 0 0 0-3-.89 28.73 28.73 0 0 1-3.92-1.08 6.69 6.69 0 0 1-2.75-1.9 5.13 5.13 0 0 1-1.18-3.54 6.18 6.18 0 0 1 1.07-3.51 7.13 7.13 0 0 1 3.16-2.47 12.89 12.89 0 0 1 5.1-.9 17.86 17.86 0 0 1 4.06.46 21.77 21.77 0 0 1 3.41 1.32.32.32 0 0 1 .15.4l-1.7 4.09a.3.3 0 0 1-.42.16 12.54 12.54 0 0 0-5.52-1.51 5.42 5.42 0 0 0-2.44.48 1.36 1.36 0 0 0-.71 1.19 1.15 1.15 0 0 0 .83 1.06 16.82 16.82 0 0 0 3 .84 28.4 28.4 0 0 1 3.92 1.09 6.92 6.92 0 0 1 2.76 1.87 5.09 5.09 0 0 1 1.18 3.56zm20.39 0a6 6 0 0 1-1.07 3.46 7.19 7.19 0 0 1-3.17 2.47 12.75 12.75 0 0 1-5.09.92 19.11 19.11 0 0 1-4.91-.63 21.25 21.25 0 0 1-3.78-1.64.29.29 0 0 1-.13-.38l1.83-4.1a.28.28 0 0 1 .4-.14 21.85 21.85 0 0 0 3.08 1.42 12.3 12.3 0 0 0 3.54.55c2.11 0 3.17-.5 3.17-1.49a1.21 1.21 0 0 0-.84-1.14 17.48 17.48 0 0 0-3.05-.89 28.73 28.73 0 0 1-3.92-1.08 6.69 6.69 0 0 1-2.75-1.9 5.13 5.13 0 0 1-1.17-3.54A6.18 6.18 0 0 1 48 258.3a7.16 7.16 0 0 1 3.17-2.47 12.81 12.81 0 0 1 5.09-.9 17.86 17.86 0 0 1 4.06.46 21.77 21.77 0 0 1 3.41 1.32.31.31 0 0 1 .15.4l-1.7 4.09a.3.3 0 0 1-.42.16 12.54 12.54 0 0 0-5.52-1.51 5.42 5.42 0 0 0-2.44.48 1.38 1.38 0 0 0-.71 1.19 1.15 1.15 0 0 0 .83 1.06 17.08 17.08 0 0 0 3 .84 29 29 0 0 1 3.93 1.09 7 7 0 0 1 2.75 1.87 5.09 5.09 0 0 1 1.15 3.54zm24.45-9.69a10.64 10.64 0 0 0-4.2-3.89 13.34 13.34 0 0 0-11.94 0 10.74 10.74 0 0 0 0 19 13.34 13.34 0 0 0 11.94 0 10.9 10.9 0 0 0 4.17-15.13zm-10.13 11.33a5.48 5.48 0 0 1-2.74-.71 5.19 5.19 0 0 1-1.93-2 6.07 6.07 0 0 1-.72-3 6.13 6.13 0 0 1 .72-3 5.16 5.16 0 0 1 1.93-2 5.62 5.62 0 0 1 5.47 0 5.18 5.18 0 0 1 1.94 2 6.24 6.24 0 0 1 .71 3 6.17 6.17 0 0 1-.71 3 5.21 5.21 0 0 1-1.94 2 5.47 5.47 0 0 1-2.73.71zm35.06.98l.13.13-.1.14a10.12 10.12 0 0 1-3.85 2.94 12.7 12.7 0 0 1-5.18 1 12.51 12.51 0 0 1-5.91-1.39 10.6 10.6 0 0 1-4.13-3.89 11.35 11.35 0 0 1 0-11.28 10.6 10.6 0 0 1 4.13-3.89 12.51 12.51 0 0 1 5.91-1.39 12.87 12.87 0 0 1 5.18 1 10 10 0 0 1 3.85 2.95l.1.14-.13.12-3.71 3.36-.15.13-.12-.15a6 6 0 0 0-4.72-2.35 5.88 5.88 0 0 0-2.9.71 5 5 0 0 0-2 2 6.24 6.24 0 0 0-.7 3 6.17 6.17 0 0 0 .7 3 5 5 0 0 0 2 2 6 6 0 0 0 7.62-1.64l.12-.15.15.12z"/><rect class="cls-1" x="117.57" y="255.34" width="6.22" height="21.02" rx=".76" ry=".76"/><path class="cls-1" d="M150.84 276.09l-9.14-20.64v-.11h-6v.11l-9.11 20.64-.12.27h6.38v-.12l1.38-3.42a.77.77 0 0 1 .7-.47h7.46a.76.76 0 0 1 .7.47l1.38 3.42.05.12H151zm-14.18-9.46l1.43-3.57a.57.57 0 0 1 1 0l1.43 3.57a.76.76 0 0 1-.7 1h-2.51a.75.75 0 0 1-.65-1zm31.51-10.53v3.68a.58.58 0 0 1-.57.57h-5.17a.56.56 0 0 0-.57.56v14.69a.76.76 0 0 1-.76.76h-4.7a.76.76 0 0 1-.76-.76v-14.69a.56.56 0 0 0-.56-.56h-5.21a.57.57 0 0 1-.56-.57v-3.68a.75.75 0 0 1 .75-.76h17.35a.76.76 0 0 1 .76.76z"/><rect class="cls-1" x="171.12" y="255.34" width="6.22" height="21.02" rx=".76" ry=".76"/><path class="cls-1" d="M203.17 260.23a10.64 10.64 0 0 0-4.17-3.89 13.34 13.34 0 0 0-11.94 0 10.74 10.74 0 0 0 0 19 13.34 13.34 0 0 0 11.94 0 10.9 10.9 0 0 0 4.17-15.13zM193 271.56a5.51 5.51 0 0 1-2.74-.71 5.33 5.33 0 0 1-1.93-2 6.06 6.06 0 0 1-.71-3 6.13 6.13 0 0 1 .71-3 5.23 5.23 0 0 1 1.93-2 5.62 5.62 0 0 1 5.47 0 5.11 5.11 0 0 1 1.94 2 6.24 6.24 0 0 1 .71 3 6.17 6.17 0 0 1-.71 3 5.14 5.14 0 0 1-1.94 2 5.47 5.47 0 0 1-2.73.71zm35.69-15.46v19.5a.76.76 0 0 1-.75.76h-4.33l-.05-.08-7.44-9a.75.75 0 0 0-1.34.48v7.81a.76.76 0 0 1-.76.76h-4.58a.76.76 0 0 1-.76-.76V256.1a.76.76 0 0 1 .76-.76h4.33v.07l7.77 9.38a.57.57 0 0 0 1-.36v-8.33a.75.75 0 0 1 .75-.76h4.59a.76.76 0 0 1 .81.76zM65.52 42.23a1.52 1.52 0 0 1 .28.09zm-.63 0zm0 0a1.42 1.42 0 0 0-.36.14 1.42 1.42 0 0 1 .34-.11zm0 0a2.09 2.09 0 0 1 .35 0 1.39 1.39 0 0 0-.35.02zm.36 0zm0 0h.24z"/><path class="cls-1" d="M151.29 122.11l-18.18-38.85a2.13 2.13 0 0 1 0-1.86l18-34.52a4.51 4.51 0 0 0-1.76-6L79.67.61a4.53 4.53 0 0 0-4.54 0L5.93 40.55a4.56 4.56 0 0 0-2.27 3.93v79.89a4.57 4.57 0 0 0 2.28 3.95l69.19 40a4.64 4.64 0 0 0 2.27.6 4.7 4.7 0 0 0 2.27-.6L149.44 128a4.6 4.6 0 0 0 1.85-5.89zM77.4 13.87l53.21 30.73-53.9 30.75L52 61.14l20.82-12a1.83 1.83 0 0 0 .91-1.6 1.8 1.8 0 0 0-.95-1.54l-6.62-3.91a1.68 1.68 0 0 0-.91-.25 1.93 1.93 0 0 0-.94.24l-22.62 13-17-10.33zm-60.31 41l47 27.7-47.79 28zm4 67.57l21.36-12.6 18.16 35.46zm58.69 31.16l-26.47-50.21L75.67 90l.22-.1 55.07-31L119 81.4a1.85 1.85 0 0 0 0 1.65l17.59 37.77z"/></g></g></svg>