<svg width="300" height="94" viewBox="0 0 300 94" xmlns="http://www.w3.org/2000/svg"><g fill="none" fill-rule="evenodd"><path d="M161.903 34.018c-1.181-.761-2.332-1.25-3.428-1.46-4.183-.821-7.547-.058-10.153 1.62a12.33 12.33 0 0 0-2.547 2.167V34.47c0-.7-.556-1.27-1.23-1.27h-7.022c-.68 0-1.231.57-1.231 1.27v38.154c0 .703.55 1.275 1.23 1.275h7.354c.68 0 1.23-.572 1.23-1.275V52.686c0-1.561.172-3.059.507-4.467.325-1.356.833-2.58 1.502-3.624.652-1.014 1.45-1.79 2.43-2.374 1.984-1.176 4.727-1.176 7.865.289.31.14.66.149.975.023.311-.138.557-.4.678-.726l2.343-6.248c.218-.577 0-1.221-.503-1.541m27.937 6.727c3.357 0 5.988 1.092 8.052 3.32 2.049 2.222 3.087 5.414 3.087 9.485 0 1.979-.285 3.772-.845 5.343-.553 1.557-1.33 2.9-2.3 3.996a10.356 10.356 0 0 1-3.47 2.554c-2.692 1.208-6.362 1.204-9.1-.004a10.202 10.202 0 0 1-3.504-2.546c-.969-1.092-1.724-2.434-2.25-3.986-.534-1.565-.809-3.372-.809-5.357 0-1.94.275-3.73.812-5.333.523-1.57 1.28-2.923 2.247-4.01a10.158 10.158 0 0 1 3.505-2.545c1.373-.607 2.913-.917 4.575-.917m15.518-2.696c-1.87-1.863-4.153-3.307-6.782-4.3-2.607-.992-5.543-1.49-8.736-1.49-3.082 0-5.96.498-8.537 1.49-2.6.993-4.866 2.437-6.732 4.3-1.871 1.865-3.362 4.138-4.423 6.759-1.06 2.624-1.594 5.56-1.594 8.742 0 3.228.492 6.162 1.456 8.744.977 2.61 2.427 4.88 4.306 6.757 1.87 1.854 4.135 3.304 6.742 4.299 2.569.99 5.526 1.486 8.782 1.486 3.028 0 5.882-.497 8.487-1.485 2.633-.996 4.91-2.446 6.778-4.3 1.867-1.86 3.355-4.118 4.419-6.72 1.062-2.592 1.603-5.544 1.603-8.78 0-3.16-.49-6.095-1.458-8.706-.98-2.642-2.429-4.924-4.31-6.796m36.965 2.696c3.357 0 5.99 1.092 8.05 3.32 2.05 2.222 3.09 5.41 3.09 9.485 0 1.972-.284 3.772-.844 5.343-.553 1.557-1.332 2.9-2.305 4a10.24 10.24 0 0 1-3.47 2.55c-2.687 1.208-6.356 1.204-9.094-.004a10.115 10.115 0 0 1-3.505-2.546c-.966-1.092-1.722-2.43-2.251-3.981-.535-1.577-.807-3.379-.807-5.362 0-1.932.272-3.73.807-5.333.53-1.57 1.285-2.927 2.247-4.01a10.218 10.218 0 0 1 3.509-2.545c1.376-.607 2.91-.917 4.573-.917m15.523-2.696c-1.878-1.863-4.16-3.307-6.786-4.3-2.606-.992-5.544-1.49-8.737-1.49-3.087 0-5.957.498-8.537 1.49-2.597.993-4.864 2.437-6.734 4.3-1.869 1.86-3.355 4.131-4.419 6.759-1.064 2.624-1.598 5.56-1.598 8.742 0 3.218.492 6.158 1.46 8.744.977 2.61 2.425 4.88 4.306 6.757 1.867 1.854 4.135 3.304 6.738 4.299 2.577.99 5.53 1.486 8.784 1.486 3.033 0 5.887-.497 8.485-1.485 2.633-.996 4.914-2.446 6.785-4.305 1.864-1.858 3.353-4.113 4.416-6.715 1.063-2.596 1.603-5.549 1.603-8.78 0-3.16-.494-6.095-1.462-8.706-.975-2.642-2.431-4.924-4.304-6.796m40.673 3.324c.678 0 1.23-.566 1.23-1.274V34.47c0-.699-.552-1.27-1.23-1.27h-9.47V22.9c0-.705-.548-1.274-1.229-1.274h-7.358c-.678 0-1.229.569-1.229 1.275v10.3h-6.455c-.68 0-1.233.57-1.233 1.27v5.628c0 .708.553 1.274 1.233 1.274h6.455V61.68c0 4.124 1.16 7.236 3.44 9.254 2.225 1.97 5.534 2.964 9.83 2.964h6.015c.68 0 1.23-.571 1.23-1.275v-5.94c0-.704-.55-1.273-1.23-1.273h-5.017c-1.654 0-2.864-.324-3.504-.944-.631-.609-.947-1.758-.947-3.413v-19.68h9.468z" fill="#202B40"/><g fill="#5E97FC"><path d="M45.652 67.162V47.39h5.811a7.081 7.081 0 0 0 5.908 3.167c3.914 0 7.098-3.188 7.098-7.108 0-3.92-3.184-7.11-7.098-7.11a7.083 7.083 0 0 0-5.908 3.167H38.921c-.634 0-1.15.516-1.15 1.151V69.95c0 .306.122.6.338.815l23.157 22.257c.215.216.509.336.812.336h7.889a1.15 1.15 0 1 0 .813-1.966l-25.128-24.23z"/><path d="M100.698 92.075l-.01-90.002c0-.635-.515-1.152-1.15-1.152H1.15C.516.921 0 1.438 0 2.073v90.189a1.15 1.15 0 0 0 1.15 1.152h1.474c.117 0 .232-.02.338-.056h3.767c.634 0 1.151-.515 1.151-1.151V8.809h84.928v77.64L71.952 67.544h8.625a1.15 1.15 0 0 0 1.151-1.152V20.608a1.15 1.15 0 0 0-1.15-1.152H19.965a1.15 1.15 0 0 0-1.15 1.152v71.599a1.15 1.15 0 0 0 1.15 1.151h5.579a1.15 1.15 0 0 0 1.15-1.151V27.345H73.85v32.31H59.43c-.636 0-1.15.518-1.15 1.153v4.162c0 .317.129.62.359.836l28.805 27.237c.214.203.497.315.79.315h11.32c.326 0 .64-.14.858-.385a1.16 1.16 0 0 0 .285-.898"/></g></g></svg>