<svg id="Layer_1___1226585640" data-name="Layer 1" xmlns="http://www.w3.org/2000/svg" viewBox="0 0 1020.47 566.93" style="height:50px"><defs><style>.cls-1{fill:#2eb5c0}</style></defs><path class="cls-1" d="M31.11 33.93a19.78 19.78 0 0 1 7.11 8.32q2.69 5.33 2.68 14.14V181q0 9.35-2.68 15a20.16 20.16 0 0 1-7 8.69 24.51 24.51 0 0 1-10.29 4c-3.24.54-11.95.85-17.56.94A3.38 3.38 0 0 0 0 213.05v10a3.39 3.39 0 0 0 3.39 3.39h115.4a3.39 3.39 0 0 0 3.39-3.39v-10a3.39 3.39 0 0 0-3.39-3.39h-7.7a85.73 85.73 0 0 1-12.61-.88 29.07 29.07 0 0 1-10.45-3.61 18.58 18.58 0 0 1-7.03-8.08c-1.8-3.53-2.68-8.26-2.68-14.12v-62.8c0-5.08.25-10.72.82-17a176.69 176.69 0 0 1 2.61-18.79 153.42 153.42 0 0 1 4.89-18.46A70.76 70.76 0 0 1 94.06 50a40 40 0 0 1 10.2-11.13 22.58 22.58 0 0 1 13.29-4.18c7.79 0 13.27 2.44 16.4 7.28q4.19 6.59 4.61 20.58a3.38 3.38 0 0 0 3.49 3.25 55.48 55.48 0 0 0 13.73-2 30.52 30.52 0 0 0 11.48-5.8 22.27 22.27 0 0 0 6.57-9 30.93 30.93 0 0 0 2.07-11.51c0-9.24-3.54-16.42-10.63-21.46s-17.93-7.63-32.5-7.63c-8.88 0-16.2 1.13-22.06 3.41A42.7 42.7 0 0 0 96 21.12 55.78 55.78 0 0 0 86 35c-1.41 2.7-4 7.08-6.16 10.7a2 2 0 0 1-3.76-1V29.22a17 17 0 0 0-17-16.94H3.39A3.39 3.39 0 0 0 0 15.67a13.84 13.84 0 0 0 13.21 13.81c3.21.15 6.12.33 7.5.55a26.51 26.51 0 0 1 10.4 3.9zM513 102.6q-45.83 1.38-68.45 16.76t-22.65 47.22c0 10.92 1.59 20.4 4.7 28.37a54.14 54.14 0 0 0 13 19.91 52.26 52.26 0 0 0 19.7 11.69 77.43 77.43 0 0 0 24.65 3.82q12.54 0 21.38-2.84a56 56 0 0 0 15.9-7.89 70.5 70.5 0 0 0 12.86-12.1c4-4.69 14-15.33 14-15.33v17.59a16.65 16.65 0 0 0 16.65 16.65h41.9a3.21 3.21 0 0 0 3.21-3.21v-10.52a3.21 3.21 0 0 0-3-3.2 62.7 62.7 0 0 1-9.63-1.2 15.63 15.63 0 0 1-7.68-4.66 21.08 21.08 0 0 1-4.32-8.79 61.11 61.11 0 0 1-1.36-13.87V77.46q0-19.15-4.63-32.32a49.88 49.88 0 0 0-13.72-21.33c-6.11-5.49-13.75-9.41-22.83-11.81s-19.79-3.59-32-3.59a174.12 174.12 0 0 0-27.87 2.1 88.83 88.83 0 0 0-22.92 6.77 41.09 41.09 0 0 0-15.54 11.79c-3.79 4.82-5.64 10.63-5.64 17.53 0 9.26 2.87 15.77 8.66 19.51 5.15 3.36 12.36 5.23 21.69 5.61a3.5 3.5 0 0 0 3.64-3.36 102.91 102.91 0 0 1 1.3-13.95 34.38 34.38 0 0 1 5.38-13.83 25.89 25.89 0 0 1 11.11-9.08c4.72-2.12 11-3.2 18.61-3.2 8.2 0 14.77 1.21 19.65 3.59A26 26 0 0 1 539.93 42 39.86 39.86 0 0 1 545 57.65a148.66 148.66 0 0 1 1.18 19.81v20.86a3.22 3.22 0 0 1-3.11 3.22zm33.17 47.57a67.78 67.78 0 0 1-3.7 23 48.55 48.55 0 0 1-10.61 17.56A46.67 46.67 0 0 1 515 201.88a58.9 58.9 0 0 1-21.94 3.9c-11 0-19.22-3.08-24.44-9.26s-7.91-15.5-7.91-28a64.06 64.06 0 0 1 3-20.68 34 34 0 0 1 10.06-15.12c4.66-4.11 10.81-7.26 18.4-9.56s17.06-3.67 28.4-4.18l21.91-1a3.46 3.46 0 0 1 3.62 3.46zM186.51 15.64a14.37 14.37 0 0 0 12.64 14.24l1.1.16a26.87 26.87 0 0 1 10.4 3.9 20 20 0 0 1 7.11 8.31q2.69 5.33 2.68 14.12v95.79q0 20.5 4.36 35.29t12.75 24.41a49.88 49.88 0 0 0 20.72 14 81.39 81.39 0 0 0 28.1 4.51 115.87 115.87 0 0 0 18.7-1.49 59.73 59.73 0 0 0 32.67-16.48c3.28-3.12 9-10.19 12.43-14.58a1.63 1.63 0 0 1 2.9 1 27.63 27.63 0 0 0 27.63 27.63h37.8a3.21 3.21 0 0 0 3.21-3.21v-10.45a3.21 3.21 0 0 0-3.07-3.21c-3.2-.13-8.1-.39-10.65-.78a26.94 26.94 0 0 1-10.43-3.59 18.39 18.39 0 0 1-7.11-8.12c-1.79-3.57-2.68-8.26-2.68-14.12V15.69a3.41 3.41 0 0 0-3.41-3.41h-64.53a3.41 3.41 0 0 0-3.41 3.41A14.25 14.25 0 0 0 329 29.84c.51.06 1 .12 1.37.19a25.45 25.45 0 0 1 10.36 4 21.24 21.24 0 0 1 7 8.77c1.79 3.85 2.66 8.89 2.66 15.13v82.31a109.86 109.86 0 0 1-2.93 26.32 57 57 0 0 1-9.1 20.44 42.5 42.5 0 0 1-15.63 13.16c-6.31 3.11-13.86 4.69-22.72 4.69-8 0-14.76-1.23-20.19-3.61a30 30 0 0 1-12.88-10.63 47.55 47.55 0 0 1-6.81-17.15 116.89 116.89 0 0 1-2-23.25V15.71a3.43 3.43 0 0 0-3.43-3.43h-64.83a3.36 3.36 0 0 0-3.36 3.36zm647.6 213.68a46 46 0 0 0-11.05 15.06c-2.78 5.87-4.13 12.73-4.13 20.54q0 27.62 20.74 43t62.62 15.45q27.17 0 47.26-5.28t33.22-15a60.36 60.36 0 0 0 19.39-23.57 73.62 73.62 0 0 0 6.36-31.12 76.35 76.35 0 0 0-3.65-24 46.28 46.28 0 0 0-11.51-19A54.85 54.85 0 0 0 973 193.11c-8.39-3-18.57-4.5-30.56-4.5H897a98.7 98.7 0 0 1-9.87-.46 23.85 23.85 0 0 1-7.93-2.17 12.68 12.68 0 0 1-5.2-4.6 14.66 14.66 0 0 1-1.85-7.86 21 21 0 0 1 1.55-8.2 23.17 23.17 0 0 1 4.22-6.63 30.63 30.63 0 0 1 6.15-5.3q2.88-1.88 6-3.53a5.32 5.32 0 0 1 3.12-.56l2.42.29c1.69.18 3.56.33 5.49.39s3.92.12 5.88.2 3.74.07 5.29.07c12.15 0 22.72-1.72 31.79-5.16a61.28 61.28 0 0 0 22.52-14.4A59.41 59.41 0 0 0 980 108.88a80.45 80.45 0 0 0 4.51-27.5q0-17.21-4.42-28.64a74.61 74.61 0 0 0-9-17 3.24 3.24 0 0 1 1.28-4.8 29.18 29.18 0 0 1 4.57-1.76 32.69 32.69 0 0 1 9.12-1.18 14.75 14.75 0 0 1 6.63 1.26 10.39 10.39 0 0 1 4 3.32 13.25 13.25 0 0 1 2.07 4.4c.13.59.24 1.17.33 1.76a3.24 3.24 0 0 0 3.47 2.76 21.76 21.76 0 0 0 6.27-1.47 18 18 0 0 0 6.54-4.52 18.55 18.55 0 0 0 3.81-6.63 25.22 25.22 0 0 0 1.28-8.16 21 21 0 0 0-1.46-7.92 18.68 18.68 0 0 0-4.37-6.63 21 21 0 0 0-7.36-4.5A29.64 29.64 0 0 0 996.82 0a35.76 35.76 0 0 0-12.44 2.13 53 53 0 0 0-10.64 5.4 57.14 57.14 0 0 0-8.84 7 183.46 183.46 0 0 0-4.83 4.82 3.25 3.25 0 0 1-4.18.45 42 42 0 0 0-5.55-3.2 74.28 74.28 0 0 0-10.76-4.19 87.93 87.93 0 0 0-13-3 94.59 94.59 0 0 0-14.29-1c-12.65 0-23.65 1.64-33.06 5.06a61.68 61.68 0 0 0-23.49 14.69 60.89 60.89 0 0 0-14.11 23.27q-4.69 13.69-4.67 31.14a76.19 76.19 0 0 0 2.46 19.36 68.33 68.33 0 0 0 7 17.31 60.81 60.81 0 0 0 11.37 14.09 51.83 51.83 0 0 0 9.55 6.89 3.74 3.74 0 0 1 .28 6.35q-9.52 6.54-14.41 13.37c-4.22 5.81-6.26 12.7-6.26 20.65a34 34 0 0 0 2 11.76 34.36 34.36 0 0 0 5.08 9.38 36.13 36.13 0 0 0 7 7.05 43.91 43.91 0 0 0 4 2.64 1.6 1.6 0 0 1-.41 3 84.68 84.68 0 0 0-14.62 4.72 57.79 57.79 0 0 0-15.89 10.18zM883 41.19c5.56-8.8 14.77-13.2 27.71-13.2s22.29 4.3 27.8 12.91 8.23 21.91 8.23 39.9a117.6 117.6 0 0 1-1.91 22.61 40.33 40.33 0 0 1-6.12 15.59 26.16 26.16 0 0 1-11.12 9q-6.7 2.92-16.5 2.93c-12.9 0-22.22-4-27.87-11.93s-8.54-20.49-8.54-37.59q0-27.04 8.32-40.22zM855.15 243a29.42 29.42 0 0 1 9.85-11.55 37.67 37.67 0 0 1 14.08-5.58 89.79 89.79 0 0 1 16.36-1.44h39.29a99.59 99.59 0 0 1 17.64 1.36 34.42 34.42 0 0 1 12.85 4.79A21.45 21.45 0 0 1 973 240c1.76 4 2.67 9 2.67 15.18a55.52 55.52 0 0 1-3.33 19.46A34.79 34.79 0 0 1 960.81 290c-5.45 4.3-12.9 7.67-22.22 10.08s-21.17 3.58-35.53 3.58q-15.28 0-25.25-3.11T862 291.93a30 30 0 0 1-8.23-13.11 56.17 56.17 0 0 1-2.37-16.43c-.01-7.95 1.22-14.39 3.75-19.39z"/><path class="cls-1" d="M791.49 51.31c-3.09-9.89-7.5-18-13.29-24.3A53.58 53.58 0 0 0 757.14 13a81.22 81.22 0 0 0-28.21-4.6 107.56 107.56 0 0 0-18.24 1.45 54.34 54.34 0 0 0-16.36 5.46 56.86 56.86 0 0 0-14.65 11.1c-2.81 2.9-7.8 9-11.27 13.41a2.14 2.14 0 0 1-3.81-1.34V30.3a18 18 0 0 0-18-18h-48.5a3.37 3.37 0 0 0-3.37 3.37 14.34 14.34 0 0 0 12.7 14.22l1.09.15a27.24 27.24 0 0 1 10.4 3.92 20.44 20.44 0 0 1 7.08 8.25q2.62 5.38 2.61 14.15v166.71a3.39 3.39 0 0 0 3.39 3.39h64.57a3.47 3.47 0 0 0 3.47-3.47v-10.2a3.21 3.21 0 0 0-3.07-3.21c-3.22-.14-8.15-.39-10.68-.76a27.38 27.38 0 0 1-10.45-3.63 18.77 18.77 0 0 1-7.13-8.1c-1.75-3.53-2.61-8.26-2.61-14.12V98.69a119.42 119.42 0 0 1 2.45-24.56 61.61 61.61 0 0 1 8.07-20.66 41.78 41.78 0 0 1 15-14.25c6.13-3.51 13.79-5.28 22.9-5.28q12.1 0 20.47 3.59a33 33 0 0 1 13.59 10.67 45.48 45.48 0 0 1 7.47 17.15 105 105 0 0 1 2.36 23.22v134.7a3.21 3.21 0 0 0 3.21 3.21h63.21a3.21 3.21 0 0 0 3.21-3.21v-10.49a3.21 3.21 0 0 0-3.06-3.21c-3.23-.15-8.19-.44-10.6-.85a22.54 22.54 0 0 1-9.79-4 19 19 0 0 1-6.29-8.67c-1.5-3.76-2.27-8.76-2.27-15V86.61q-.03-20.5-4.54-35.3zM185.42 468.35a46.52 46.52 0 0 0-11.54-18.91A54.15 54.15 0 0 0 153.53 437q-12.54-4.46-30.44-4.49H77.81a98.42 98.42 0 0 1-9.84-.47 23.67 23.67 0 0 1-7.91-2.15 12.9 12.9 0 0 1-5.18-4.59 14.69 14.69 0 0 1-1.88-7.81 21.4 21.4 0 0 1 1.55-8.18 24.37 24.37 0 0 1 4.2-6.61 31.06 31.06 0 0 1 6.16-5.28 76.62 76.62 0 0 1 7.43-4.28c1 .14 2.41.28 4.11.49s3.48.34 5.43.39 3.88.12 5.84.21 3.75.08 5.27.08q18.16 0 31.69-5.16a60.77 60.77 0 0 0 22.44-14.35 59.24 59.24 0 0 0 13.34-21.74 80.28 80.28 0 0 0 4.54-27.44c0-11.43-1.33-21-4.41-28.56a75.22 75.22 0 0 0-14.09-23.18c-1.06-1.2-2.07-2.28-3-3.26a3.21 3.21 0 0 1-.41-4 29.12 29.12 0 0 1 3.55-4.52 32.77 32.77 0 0 1 7.37-5.58 15 15 0 0 1 6.35-2.22 10.9 10.9 0 0 1 5.11.86 13.43 13.43 0 0 1 4 2.78q.6.64 1.14 1.31a3.23 3.23 0 0 0 4.39.75 21.71 21.71 0 0 0 4.7-4.41 17.87 17.87 0 0 0 3.39-7.17 18.13 18.13 0 0 0 0-7.63 25 25 0 0 0-3-7.67 21.8 21.8 0 0 0-5.19-6.12 18.47 18.47 0 0 0-7.12-3.52 20.93 20.93 0 0 0-8.6-.22 29.47 29.47 0 0 0-9.85 3.75 35.82 35.82 0 0 0-9.68 8 53.41 53.41 0 0 0-6.5 10 55.6 55.6 0 0 0-4.08 10.47l-.22.78a3.18 3.18 0 0 1-4.18 2.13q-2.12-.79-4.41-1.51a88.7 88.7 0 0 0-13-2.94A94.64 94.64 0 0 0 93 252.91c-12.61 0-23.63 1.65-33 5.05a61.46 61.46 0 0 0-23.42 14.63 60.73 60.73 0 0 0-14 23.21q-4.7 13.65-4.68 31a76 76 0 0 0 2.48 19.31 66.61 66.61 0 0 0 7 17.24 58.66 58.66 0 0 0 11.27 14A51.48 51.48 0 0 0 54 387.1c-9.13 5.45-15.74 11.1-19.88 16.87a36.59 36.59 0 0 0-4.32 32.29 35 35 0 0 0 5.06 9.36 35.54 35.54 0 0 0 7 7 39.59 39.59 0 0 0 8 4.69A85.83 85.83 0 0 0 31 463a58.06 58.06 0 0 0-15.9 10.15 46.48 46.48 0 0 0-11 15A48.47 48.47 0 0 0 0 508.63q0 27.52 20.65 42.9t62.45 15.4c18 0 33.78-1.76 47.09-5.25s24.35-8.49 33.08-14.93a59.73 59.73 0 0 0 19.38-23.5 73.35 73.35 0 0 0 6.36-31 76.3 76.3 0 0 0-3.59-23.9zM63.86 285.56c5.54-8.77 14.72-13.14 27.65-13.14s22.19 4.27 27.67 12.86 8.2 21.84 8.2 39.79a119.7 119.7 0 0 1-1.84 22.53 41.11 41.11 0 0 1-6.16 15.51 26 26 0 0 1-11 9Q101.62 375 91.87 375q-19.32 0-27.81-11.89c-5.63-8-8.5-20.43-8.5-37.48q.01-26.91 8.3-40.07zm89.05 232.72a35.22 35.22 0 0 1-11.47 15.34q-8.25 6.42-22.15 10c-9.34 2.38-21.13 3.56-35.44 3.56-10.13 0-18.49-1-25.17-3.1s-11.88-5-15.79-8.59a29.81 29.81 0 0 1-8.2-13.07 56.71 56.71 0 0 1-2.29-16.38c0-7.92 1.23-14.38 3.68-19.3a29.34 29.34 0 0 1 9.86-11.54 37.1 37.1 0 0 1 14-5.55 89.49 89.49 0 0 1 16.31-1.44h39.25a99.45 99.45 0 0 1 17.5 1.4 33.86 33.86 0 0 1 12.77 4.77 21.19 21.19 0 0 1 7.79 9.38c1.79 4 2.66 9 2.66 15.12a55.35 55.35 0 0 1-3.31 19.4zm33.6-258.14a14.37 14.37 0 0 0 12.64 14.24l1.1.16a26.87 26.87 0 0 1 10.4 3.9 20 20 0 0 1 7.11 8.31q2.69 5.33 2.68 14.12v95.79q0 20.5 4.36 35.29t12.75 24.41a49.88 49.88 0 0 0 20.72 14 81.39 81.39 0 0 0 28.1 4.51 115.87 115.87 0 0 0 18.7-1.49 59.73 59.73 0 0 0 32.67-16.48c3.28-3.12 9-10.19 12.43-14.58a1.63 1.63 0 0 1 2.9 1A27.63 27.63 0 0 0 380.71 471h37.79a3.21 3.21 0 0 0 3.21-3.21v-10.5a3.21 3.21 0 0 0-3.07-3.21c-3.2-.13-8.1-.39-10.65-.78a26.94 26.94 0 0 1-10.43-3.59 18.39 18.39 0 0 1-7.11-8.12c-1.79-3.57-2.68-8.26-2.68-14.12V260.19a3.41 3.41 0 0 0-3.41-3.41h-64.53a3.41 3.41 0 0 0-3.41 3.41A14.25 14.25 0 0 0 329 274.35c.51.06 1 .12 1.37.19a25.45 25.45 0 0 1 10.36 4 21.24 21.24 0 0 1 7 8.77c1.79 3.85 2.66 8.89 2.66 15.13v82.31a109.86 109.86 0 0 1-2.93 26.32 57 57 0 0 1-9.07 20.41 42.5 42.5 0 0 1-15.63 13.16c-6.31 3.11-13.86 4.69-22.72 4.69-8 0-14.76-1.23-20.19-3.61a30 30 0 0 1-12.88-10.63 47.55 47.55 0 0 1-6.81-17.15 116.89 116.89 0 0 1-2-23.25V260.21a3.43 3.43 0 0 0-3.43-3.43h-64.86a3.36 3.36 0 0 0-3.36 3.36zm386.2.35q-10.66-7.62-32.49-7.59c-8.88 0-16.2 1.13-22.06 3.41a42.7 42.7 0 0 0-14.7 9.3 55.79 55.79 0 0 0-10.07 13.89c-1.41 2.7-4 7.08-6.16 10.7a2 2 0 0 1-3.76-1v-15.48a17 17 0 0 0-16.95-16.95h-55.68a3.38 3.38 0 0 0-3.39 3.35A13.84 13.84 0 0 0 420.66 274c3.21.15 6.12.33 7.5.55a26.51 26.51 0 0 1 10.4 3.9 19.78 19.78 0 0 1 7.11 8.32q2.69 5.33 2.68 14.14v166.84a3.21 3.21 0 0 0 3.21 3.21h74.71a3.39 3.39 0 0 0 3.39-3.39v-10a3.39 3.39 0 0 0-3.39-3.39h-7.7a85.79 85.79 0 0 1-12.61-.88 29.06 29.06 0 0 1-10.45-3.61 18.58 18.58 0 0 1-7.07-8.12c-1.8-3.53-2.68-8.26-2.68-14.12v-62.8c0-5.08.25-10.72.82-17a176.66 176.66 0 0 1 2.61-18.79 153.42 153.42 0 0 1 4.89-18.46 70.77 70.77 0 0 1 7.43-15.86 40 40 0 0 1 10.2-11.13 22.58 22.58 0 0 1 13.29-4.19c7.79 0 13.27 2.44 16.4 7.28q4.18 6.58 4.61 20.57a3.4 3.4 0 0 0 3.5 3.26 55.44 55.44 0 0 0 13.72-2 30.52 30.52 0 0 0 11.47-5.84 22.27 22.27 0 0 0 6.56-9.08 30.93 30.93 0 0 0 2.09-11.41c0-9.28-3.55-16.46-10.64-21.51zM823.84 454c-2.94-.15-6.39-.37-8.4-.68a26.94 26.94 0 0 1-10.44-3.61 18.39 18.39 0 0 1-7.11-8.12c-1.79-3.57-2.68-8.26-2.68-14.12V260.19a3.41 3.41 0 0 0-3.41-3.41h-64.52a3.4 3.4 0 0 0-3.41 3.35 14.25 14.25 0 0 0 12.58 14.22c.51.06 1 .12 1.37.19a25.44 25.44 0 0 1 10.36 4 21.24 21.24 0 0 1 7 8.77c1.79 3.85 2.66 8.89 2.66 15.13v82.31a109.86 109.86 0 0 1-2.93 26.32 57 57 0 0 1-9.07 20.41 42.5 42.5 0 0 1-15.63 13.16c-6.32 3.11-13.86 4.69-22.72 4.69-8 0-14.76-1.23-20.19-3.61a30 30 0 0 1-12.88-10.63 47.54 47.54 0 0 1-6.81-17.15 116.89 116.89 0 0 1-2-23.25V260.21a3.43 3.43 0 0 0-3.43-3.43h-64.85a3.36 3.36 0 0 0-3.36 3.36 14.37 14.37 0 0 0 12.64 14.24l1.1.16a26.87 26.87 0 0 1 10.4 3.9 20 20 0 0 1 7.11 8.32q2.69 5.33 2.68 14.12v95.79q0 20.5 4.36 35.29T645 456.35a49.88 49.88 0 0 0 20.72 14 81.4 81.4 0 0 0 28.1 4.51 115.8 115.8 0 0 0 18.7-1.49 59.72 59.72 0 0 0 32.67-16.48c3.28-3.12 9-10.19 12.43-14.58a1.63 1.63 0 0 1 2.9 1A27.63 27.63 0 0 0 788.16 471h217.54a2.83 2.83 0 0 0 2.83-2.83v-11.36a2.83 2.83 0 0 0-2.83-2.83z"/></svg>