<svg version="1.0" xmlns="http://www.w3.org/2000/svg" width="266.667" height="266.667" viewBox="0 0 200 200"><path d="M30 46.3c.3.3 4.1 1.2 8.5 2.1 8.7 1.8 17.8 5.6 21.2 8.8 1.4 1.3 2.3 3.3 2.3 5V65l-18.2.1-18.3.1 7.6 1.4C48 69.3 59 75.2 59 80.6V83l-18.7.2-18.8.3 8.5 1.7c16 3.1 26 8.6 26 14.4v2.4l-17.2.1-17.3.1 9.1 2.3c14.4 3.6 22.4 8.6 22.4 14v2.5l-17.2.1-17.3.1 6.8 1.4c14.5 3.1 24.7 8.9 24.7 13.9v2.5l-17.7.2c-12.4.2-16.6.5-13.8 1.1C35.2 143.7 47 150 47 155.6v2.4h38.6l3.3-20.8c1.8-11.4 3.5-21.5 3.7-22.5.8-2.7 17-2.5 22.5.3 5.3 2.8 11.6 11.5 16.9 23.7 2.3 5.4 5.3 11.9 6.7 14.5l2.3 4.8h21c11.6 0 21-.4 21-.9 0-1.9-16.6-35.1-20.2-40.2-2.1-3-5.9-6.8-8.4-8.4l-4.6-2.9 3.4-1.2c20.7-7.1 32.1-23.3 26.3-37.2-2.1-5-8.9-11.8-14.7-14.8-11.3-5.8-11.3-5.8-75.8-6.2-32.7-.2-59.2-.1-59 .1zm104.6 22.6c5.3 2.4 7.2 6.5 5.5 12.1-2.5 8.3-10.5 11.2-30.3 10.8l-13.4-.3 1.9-12.3 1.9-12.2h15.2c12.5 0 15.8.4 19.2 1.9z" fill="#3F51B5"/></svg>