<svg width="573" height="120" viewBox="0 0 573 120" xmlns="http://www.w3.org/2000/svg" xmlns:xlink="http://www.w3.org/1999/xlink"><defs><path d="M566.696 37.184h3.797l1.233-3.288h1.118v10.488h-1.118l-1.233-3.288h-3.797v8.63l-.871.559L551.458 38.4l.345-1.101h12.46V34.01h2.433v3.173zm-9.271 3.797l6.838 5.605v-5.605h-6.838zm9.27 15.238h3.798l1.233-3.287h1.118v10.421h-1.118l-1.233-3.287h-3.797v8.63l-.871.559-14.367-11.885.345-1.085h12.46v-3.173h2.433v3.107zM557.426 60l6.838 5.753V60h-6.838zm-1.677 19.2l1.956 1.644-.18.937-5.754-.855-.132-.937.92-.69V68.12l.445-.346 19.857 9.058v3.88l-17.112-9.502v7.99zm15.978 5.556h1.118v10.439h-1.118l-1.233-3.288h-15.616l-1.184 3.288h-1.003l-1.035-6.74.098-.313h18.74l1.233-3.386zm-28.57-50.416a2.12 2.12 0 0 1-2.088 2.104 2.071 2.071 0 0 1-2.054-2.104 2.055 2.055 0 0 1 2.038-2.072 2.055 2.055 0 0 1 2.088 2.055l.016.017zm-14.038 2.202l-2.778 2.088c-1.76 1.381-2.4 1.956-2.45 3.288v1.25h16.932l.674-3.108h1.15v10.192h-1.15l-.674-3.041H523.89v1.414c0 1.38.23 1.643 1.99 3.024l3.287 2.4-.23 1.135-6.395-.987V36.395l6.395-1.02.18 1.167zm14.005 28.932a8.22 8.22 0 0 1-1.035 4.258l1.035 1.167v1.183l-7.019.378-.214-1.282c4.554-1.989 5.474-3.715 5.474-5.901 0-2.187-.87-3.6-2.86-3.6-1.989 0-2.81.723-4.044 3.698-.41 1.003-.822 2.187-1.298 3.157A5.523 5.523 0 0 1 528 71.918a6.066 6.066 0 0 1-6.033-6.165v-.197a5.474 5.474 0 0 1 1.036-3.288l-1.069-1.232v-1.151l6.198-.543.164 1.25c-3.403 1.808-4.57 3.04-4.57 5.096a2.86 2.86 0 0 0 2.597 3.008c1.496 0 2.466-.641 3.452-2.877.51-1.118.954-2.4 1.513-3.583 1.233-2.565 2.844-3.765 5.194-3.765a6.723 6.723 0 0 1 6.576 6.806l.065.197zm-14.515 12.641l.263 1.052-3.14 1.858c-1.43 1.134-1.446 1.742-1.479 3.83v3.468h7.496v-1.38c0-1.43-.362-1.957-2.45-2.614l-1.035-.313v-1.2h8.663v1.2l-.986.313c-2.055.657-2.466 1.183-2.466 2.613v1.381h7.512l-.164-4.701c0-1.808 0-2.532-1.233-3.518l-3.501-2.038.197-1.102 6.362.74v17.523h-1.151l-.674-2.942h-16.438l-.658 2.942h-1.167V78.79l6.05-.674zm-55.364 17.063a49.315 49.315 0 0 1-18.608-3.386l-.132-16.587 2.515-.263c6.79 11.951 11.95 16.439 18.608 16.439a8.91 8.91 0 0 0 9.568-9.567c0-6.576-6.674-9.041-13.825-11.951-7.923-3.386-16.356-7.167-16.356-17.589 0-9.863 8.794-17.869 21.633-17.869 5.15.03 10.27.793 15.205 2.269l.378 14.959-2.383.641c-6.165-10.192-10.192-14.088-15.979-14.088-5.276 0-8.547 3.518-8.547 8.039 0 6.575 6.805 9.189 13.956 12.082 7.923 3.288 16.438 7.035 16.438 17.72 0 11.705-10.323 19.102-22.52 19.102l.049.05zm-15.09-69.288l-22.406 28.554h-2.762l11.787-28.554h13.38zm-56.598 71.178c-6.296 15.469-12.197 22.258-20.005 22.258-6.658 0-9.863-3.896-9.863-7.907a7.48 7.48 0 0 1 7.545-7.167c4.274 0 6.789 2.252 9.863 6.016a49.134 49.134 0 0 0 6.937-10.668l2.12-4.784-22.24-53.72-7.694-2.992V36.46h30.69v1.644l-8.038 2.992 13.513 36.871h.624L417.337 42l-7.299-3.896V36.46h21.633v1.644l-8.219 4.159-21.896 54.805zm-68.104-1.89a85.233 85.233 0 0 1-21.238-3.288V12.822l-8.811-5.655V5.901L325.085 0l.51.378V42.51l.51.246a25.677 25.677 0 0 1 18.23-8.219c11.95 0 22.766 10.948 22.766 28.931 0 17.984-13.594 31.727-33.715 31.727l.066-.017zm2.071-51.912a25.134 25.134 0 0 0-9.863 2.005v39.863a19.003 19.003 0 0 0 13.71 5.787c7.414 0 13.578-6.658 13.578-24.395 0-15.6-6.575-23.26-17.359-23.26h-.066zm-74.696 17.227c0 15.962 4.537 26.4 18.74 26.4 6.296 0 11.507-1.25 18.986-4.01l.757 1.495c-7.66 6.658-16.225 10.8-24.263 10.8-17.228 0-28.472-11.803-28.472-29.277 0-17.983 13.496-31.38 28.85-31.38 16.602 0 24.657 11.194 24.51 26.038l-39.108-.066zm25.036-4.274c-.51-11.835-3.912-18.246-11.326-18.246-7.414 0-12.953 7.676-13.578 19.364l24.904-1.118zM209.77 44.022a27.37 27.37 0 0 0-13.15 3.14v41.605l7.035 2.63v1.76h-28.34v-1.743l7.907-2.63V12.822l-8.663-5.655v-1.25L196.175 0l.51.378v44.006l.51.263c7.413-7.036 14.202-10.192 20.991-10.192 11.326 0 16.11 8.548 16.11 17.474v36.838l7.923 2.63v1.76h-28.438v-1.743l7.052-2.63V57.09c0-8.219-3.288-13.068-11.063-13.068zm-58.734 50.663c-9.863 0-13.069-4.932-13.069-13.94v-37.61h-9.32v-1.76l11.506-9.172 9.19-11.95h1.89V36.69h19.118v6.576h-19.118v32.433c0 5.046.756 8.054 3.288 9.863 2.153 1.512 5.03 2.005 9.189 2.005 2.005 0 4.52-.131 6.92-.246l.115 1.758a41.704 41.704 0 0 1-19.726 5.655l.017-.05zm-57.222.493c-19.118 0-28.537-13.693-28.537-30.41 0-15.453 10.8-30.247 30.164-30.247 19.118 0 28.307 13.578 28.307 30.18 0 15.6-10.57 30.543-29.934 30.543v-.066zm.51-57.205c-8.812 0-14.22 9.863-14.22 27.04 0 17.179 5.786 26.664 14.795 26.664 9.008 0 14.219-9.863 14.219-27.041s-5.556-26.663-14.795-26.663zm-66.527 57.09A42.362 42.362 0 0 1 8.68 90.658l-4.931 4.405H1.512L0 67.167l2.647-.263C10.57 84.986 19.874 90.79 28.537 90.79c9.058 0 14.35-5.901 14.35-13.825 0-7.545-2.892-11.194-14.712-16.093-4.027-1.644-8.68-3.287-12.575-5.161C6.789 51.304 2.137 44.384 2.137 35.21c0-14.959 12.953-24.016 25.66-24.016a27.501 27.501 0 0 1 14.795 4.142l4.931-4.274h2.137l2.137 24.658-2.63.443c-6.92-13.906-14.334-20.696-22.504-20.696-7.167 0-11.868 4.784-11.868 12.198 0 5.918 2.515 10.438 11.506 14.334 4.406 2.022 9.567 3.78 14.22 6.033 10.175 4.931 14.958 11.326 14.958 20.63 0 16.586-13.956 26.4-27.534 26.4h-.148z" id="a"/></defs><g fill="none" fill-rule="evenodd"><mask id="b" fill="#fff"><use xlink:href="#a"/></mask><use fill="#000" fill-rule="nonzero" xlink:href="#a"/><g mask="url(#b)" fill="#000"><path d="M0 0h573v120H0z"/></g></g></svg>