<svg xmlns="http://www.w3.org/2000/svg" version="1.0" width="1627" height="1627"><rect width="100%" height="100%" fill="none"/><g fill="#1975d2"><path d="M179.2 1.6C125 7.5 85.3 24.5 54.9 54.9 26 83.8 9.7 120.2 2.3 172 .6 183.9.5 215.1.5 813.5s.1 629.6 1.8 641.5c7.4 51.8 23.7 88.2 52.6 117.1 28.9 28.9 65.3 45.2 117.1 52.6 11.9 1.7 43.1 1.8 641.5 1.8s629.6-.1 641.5-1.8c51.8-7.4 88.2-23.7 117.1-52.6 28.9-28.9 45.2-65.3 52.6-117.1 1.7-11.9 1.8-43.1 1.8-641.5s-.1-629.6-1.8-641.5c-7.4-51.8-23.7-88.2-52.6-117.1-28.7-28.6-63.9-44.6-116.1-52.6C1445.1.6 1410.6.5 818 .4 298 .2 189.4.4 179.2 1.6zm192.3 499.9c23.7 3.1 46.1 8.3 64.3 15.1 5.2 1.9 8.2 3.7 11 6.8 12.2 13.2 4.1 36-13.5 38.3-2.8.3-7.7-.8-17.8-4-29.3-9.4-47.2-12.2-79-12.2-18.1 0-24.9.4-31.9 1.8-22.8 4.6-37.3 11.3-48.7 22.6-11.2 11.2-14.9 20-14.9 35.7 0 15.6 5.1 25.8 17.6 35.3 14.1 10.6 27.8 15.8 73.4 27.6 62.9 16.3 80.5 22.9 100 37.7 16.1 12 27.4 28.4 32.1 46.3 3 11.5 3.8 34.2 1.4 45.6-6.1 30.3-28.1 56.8-59 70.9-24.2 11.1-47.7 15.6-80.9 15.3-42.8-.4-76-6.7-113.6-21.4-13.8-5.4-18.6-8.7-22.8-15.7-7-12.1-.5-29.1 12.7-33.1 6.6-1.9 10.8-1.3 23.9 3.8 31.3 12.1 51.9 16.7 86.2 19.2 17.8 1.3 37.5.1 52.7-3.2 35.1-7.6 52.5-26.3 52.6-56.6.1-8.3-.2-9.7-3.2-15.7-6.6-13.4-22.4-23.5-50.8-32.5-8.7-2.7-27.6-8.2-42.1-12.1-62.8-16.9-84.6-26.6-105.9-47.1-17-16.3-24.3-34.9-24.3-61.4 0-44.6 26.6-80.8 72.5-98.8 10.4-4.1 28.5-8.3 41.2-9.7 12.5-1.3 52.5-.4 66.8 1.5zm315.4 4.5c27.8 1.7 45.9 5.5 66.6 13.9 30.4 12.5 61.8 39 79.9 67.5 13.8 21.7 24.1 50.7 28.1 79.1 2 14.1 2.1 40.7.1 54.5-3.4 23.9-12.3 50.1-23.7 70-25 43.7-67.5 74.9-115.5 84.9-19.1 3.9-26.3 4.2-96.9 3.9-75.3-.3-70.4.1-77.4-7-7.2-7.3-6.6 9.5-6.3-177.8.2-101.2.7-170 1.3-172.2 1.5-5.8 6.7-12 12.8-15.1l5.5-2.7h54.5c30 0 62 .5 71 1zm384.9 96.2c4.9 2.7 128.5 125.6 131 130.2 2.1 4.1 2.1 13.2-.1 17.2-.9 1.8-29.6 31.3-63.7 65.7-43.7 44.1-63.4 63.2-66.4 64.6-10.1 4.9-23.7-.1-27.5-10.2-1.6-4.2-1.3-12.3.5-16 .9-1.8 26.2-27.8 56.2-58l54.7-54.7-55.7-55.8c-42-42-55.8-56.4-56.3-58.7-.3-1.7-.8-3.8-1-4.7-.6-3.5 1.7-10.6 4.7-14.3 6.1-7.3 15.9-9.5 23.6-5.3zm-95.6 5.8c5.7 2.1 13.4 9 16.1 14.6 2.4 4.7 3.6 14.1 2.7 20.7-2.1 15.1-13.3 25.5-28.5 26.5-14.3.9-24.6-3.5-31.6-13.6-6.4-9.1-7.3-23.7-2-34 2.6-5.2 11.1-12.7 16.4-14.5 6.4-2.3 20.4-2.1 26.9.3zm1.2 214c7 3.6 14.2 11.9 16.2 18.7 2.2 7.5 1.5 18.4-1.5 24.7-5.6 11.5-16 17.6-30.1 17.6-22.5 0-36.4-16.1-32.9-37.9 1.7-11 8.9-19.9 19.7-24.2 7-2.8 21.9-2.3 28.6 1.1zm461.1 23.5c6.1 3.8 9.5 9.8 9.5 16.8 0 11.1-7.6 19-19.3 20.2-3.4.3-44.9.5-92.2.3-95.7-.3-88.8.2-95.3-7.2-9.6-11-4.4-28.4 9.8-32.4 2.2-.7 35.5-1 93.1-.9l89.6.2 4.8 3zM285.2 1181.7c1 .9 1.8 2.6 1.8 3.9 0 3.6-3.6 5.4-10.7 5.4H270v97h6.8c5.7 0 7.2.4 8.7 2 1.5 1.6 1.7 2.6.9 4.8l-.9 2.7-12.1.3c-10.7.2-12.2.1-13.7-1.6-1.6-1.8-1.7-6.3-1.5-57.1l.3-55.3 2.4-1.9c3.2-2.6 21.4-2.8 24.3-.2zm413 1c1.7 1.5 1.8 4.4 1.8 49 0 46-.1 47.4-2 49.3-1.1 1.1-2.8 2-3.9 2-3 0-7.1-3.9-7.1-6.7v-2.6l-2.2 2.1c-4.6 4.2-12.8 7.2-20 7.2-13.4 0-24-6.6-30-18.8-3.1-6.3-3.3-7.3-3.3-17.7 0-10 .3-11.5 2.8-16.7 9.2-18.7 31.7-25.4 47.5-14.2l4.7 3.4.5-16.9c.4-14.8.7-17.2 2.4-19 2.3-2.5 6.3-2.7 8.8-.4zm-215.7 1.8c3.3 3.2 3.3 7.8-.1 11.2-2 2-3.1 2.4-5.7 1.9-6.5-1.3-8.9-8.5-4.2-13.1 1.3-1.4 3.6-2.5 5-2.5s3.7 1.1 5 2.5zm515.1-1.1c1.7 1.3 1.9 3.1 2.4 19l.5 17.5 5-3.3c16.6-11.2 38.2-4.2 47.3 15.2 2.4 5 2.7 6.9 2.7 16.2 0 9.3-.3 11.2-2.7 16.2-3.7 8-10.9 15-18.4 17.8-4.8 1.8-7.3 2.1-13.9 1.8-8.5-.5-13-2.1-17.7-6.6-2.8-2.6-2.8-2.6-2.8-.3 0 2.8-4.2 7.1-7 7.1-1.1 0-3.2-1.1-4.5-2.5l-2.5-2.4v-22.4c0-12.3.3-33.3.7-46.7.6-21.7.8-24.5 2.5-26.2 2.2-2.2 5.7-2.3 8.4-.4zm259.3 2.2c1.9 2.5 2.1 4 2.1 19.9v17.3l6.5-4.3c9.8-6.6 16.5-7.9 26-5.1 6.3 2 11.9 7.5 14.6 14.6 1.9 5.1 2.1 7.3 2 28.9-.1 12.8-.6 24.2-1.1 25.1-1.5 2.8-5.9 3.4-8.9 1.2l-2.6-1.9-.5-24c-.4-20.6-.7-24.3-2.3-26.6-2.8-4.3-7.2-6-13.7-5.4-6.9.6-10.9 2.5-16 7.8l-3.9 4-.3 21.9c-.3 19.1-.5 22.2-2 23.6-2.6 2.6-7.7 2.2-10.1-.7-1.9-2.3-2-3.5-1.4-48.3.5-39.2.8-46.2 2.2-48.2 2.2-3.3 6.7-3.2 9.4.2zm86.4-1.5c1.2.7 2.5 1.7 2.9 2.3.4.6.8 26 .8 56.3 0 65.8 1.6 59.3-14.7 59.3-11.4 0-14.3-1.1-14.3-5.3 0-4.1 2.8-5.7 10-5.7h6.7l.6-47.6c.4-26.1.5-48 .2-48.5-.4-.5-3.7-.9-7.4-.9-7.3 0-9.1-1-9.1-4.9 0-4.9 2.4-6.1 12.7-6.1 5.2 0 10.4.5 11.6 1.1zm-461 1.6c6.3 7.1-3.1 17.4-10.4 11.4-2.9-2.3-3.1-8.1-.4-11.1 2.3-2.6 8.5-2.7 10.8-.3zM334 1210.6c8.5 2 11 3.7 11 7.4 0 5.4-3.8 7.1-11 5-5.7-1.7-18.2-1.4-21.8.4-5.2 2.7-6.8 7.8-3.3 11 1 .9 7.5 3.4 14.4 5.5 7.3 2.2 14.4 5 16.8 6.7 13.3 9.2 8.7 29.2-7.8 34-11.5 3.4-32.9-.4-37.5-6.7-1.5-2-1.7-3-.9-5.2 1.3-3.5 5-4.3 10.1-2.3 10.1 4 24.7 3.9 28.3-.2 2.2-2.6 2.6-5.9 1-8.1-1.3-1.9-4.6-3.2-20.3-7.5-11.6-3.2-18.9-10.6-19-19.1-.1-17 17.5-26.2 40-20.9zm33.4 1.6c.8 1.3 4.8 13.2 8.8 26.5 4 13.4 7.5 24.3 7.8 24.3.3 0 3.9-10.9 8-24.3 5-16.3 8.2-24.9 9.7-26.5 3-3 7.6-2.9 10.1.2 1 1.3 5.2 13.3 9.2 26.5 4 13.3 7.7 23.8 8.1 23.4.4-.5 4.1-11.8 8.3-25.3 4.6-14.8 8.3-25 9.3-25.8 4-2.9 10.3.2 10.3 5.1 0 2.1-12.7 40.2-18.6 56-3.6 9.3-9 12.2-14.7 7.6-2.2-1.6-3.9-6-9.2-22.7-3.6-11.4-6.9-21.6-7.4-22.6-.5-1.5-2.4 3.2-6.9 17.5-7.8 24.4-9.1 27.2-13.3 28.9-2.8 1.2-3.6 1.1-6.8-.6-3.6-1.9-3.7-2.2-13.8-31.9-5.6-16.5-10.2-30.9-10.2-32.1-.2-5.5 8.4-8.7 11.3-4.2zm114-.1l2.6 2v31.7c0 31 0 31.6-2.2 33.9-2.6 2.8-5.8 2.9-8.9.4-2.3-1.8-2.4-2.7-2.7-14.8-.2-7-.1-21.5.3-32.2.6-17 1-19.6 2.6-21.2 2.5-2.5 5-2.4 8.3.2zm61-.3c7.1 2 10.5 5.6 8.7 9.1-1.9 3.5-4.3 4.1-10.2 2.6-6.9-1.9-17-1.9-21.4-.1-6.8 2.9-8.2 10.1-2.6 13 1.4.8 7.6 2.8 13.6 4.5 16.9 4.8 22.6 9.7 23.3 19.8 1 15.2-12.7 23.9-33.6 21.3-9-1.2-18.1-4.7-19.4-7.6-1.6-3.4-.2-7.3 2.7-8 1.5-.4 5.3.2 9.3 1.5 7 2.3 15.4 2.9 20.9 1.7 3.8-.9 7.3-4.8 7.3-8.2 0-3.4-3.5-5.3-15.6-8.6-16.3-4.4-21.7-8-24.4-16.3-2.3-6.9 1.9-17.8 8.6-22.1 6.9-4.6 21.6-5.7 32.8-2.6zm67.3.6c5.7 1.8 7.8 4.3 6.9 8.2-1 4-4.4 4.9-11.8 3-14.4-3.6-25.8-.3-25.8 7.3 0 4.1 2.1 5.8 10.3 8.2 16.4 4.7 20.1 6.3 23.7 9.5 5 4.5 6.3 8.1 5.8 15.4-.5 7.4-4 12.3-11.4 16-4.3 2.2-6.1 2.5-14.9 2.4-8.2 0-11.4-.5-17.5-2.7-4.1-1.5-8.1-3.5-8.8-4.4-1.9-2.7-1.1-6.5 1.9-8.2 2.4-1.3 3.3-1.2 9.8.9 12.1 3.9 25.5 2.6 27.5-2.5 1.2-3.3.6-6.5-1.6-7.9-1.3-.8-7.6-3-14-4.9-18.3-5.3-23.8-10.1-23.8-20.6 0-9.9 5.1-16.9 15-20.5 5.6-2 21-1.6 28.7.8zm154.8 1.5c10.4 5.1 17.2 16.1 17.7 28.7.2 4.8-.1 5.9-2.1 7.5-2.1 1.7-4.3 1.9-26.1 1.9h-23.8l1 3.7c1.4 5.3 5.2 9.9 10.1 12.5 5.9 3 19 3 26.5 0 6.5-2.7 7.7-2.7 10.2-.2 4.9 4.9 1.2 9.7-10.2 13.1-5.7 1.8-8.8 2-17.6 1.7-12.2-.5-17.8-2.6-24.4-9.5-11.6-11.9-12.3-36.8-1.5-51.1 9-11.9 25.8-15.4 40.2-8.3zm35.7-1c1.7 1.4 5.2 9.1 12.4 27.5 5.4 14 10.2 25.2 10.5 24.8.3-.4 5-11.7 10.3-25.2 5.4-13.5 10.5-25.3 11.3-26.3 2.3-2.5 7.8-2.2 9.7.5.9 1.2 1.6 2.9 1.6 3.8 0 .8-5.7 15.1-12.7 31.8-11.7 28.1-13 30.5-15.9 31.9-3.8 1.8-9.4 1.1-11.7-1.5-1.8-2-25.7-60.2-25.7-62.6 0-2.1 4.4-6.6 6.3-6.6.8 0 2.5.9 3.9 1.9zm151.1 1.9c7.5 3.7 11.9 8.3 15.6 16.2 2.3 4.9 2.6 6.7 2.6 16.5 0 10-.3 11.6-2.8 17-5.5 11.7-15.6 18.4-29.3 19.3-15.4 1-28.2-5.9-34.1-18.5-9.7-20.7-.5-45.9 19.1-52.3 9.3-3.1 20.4-2.4 28.9 1.8zm159.9-.7c5.5 1.6 6.9 2.4 7.4 4.3 1.6 6.5-2.1 9.1-9.9 7-6.7-1.8-16.9-1.8-21.2 0-4.3 1.8-6.9 5.8-6.1 9.1.8 3.1 1.8 3.6 15.1 7.5 12.6 3.7 16.9 5.7 20.7 9.7 9.5 10 3.9 27-10.4 31.3-12.8 3.8-38.1-1.4-38.9-8-.4-3.5.2-5 2.6-6.6 2.4-1.6 2.9-1.5 8.2.5 12.6 4.8 27 3.6 29.3-2.5 2.3-5.9-.2-7.8-15.2-11.8-11.9-3.1-16.5-5.4-20.6-10-5.2-6-5.4-14-.6-22.3 6-10.3 21.4-13.5 39.6-8.2zm-230-.4c1.7 1.5 1.8 4.2 1.8 44.7 0 39.7-.2 43.4-1.9 47.1-3.3 7.3-9.3 10.1-19.3 9.2-8.9-.8-12.4-5.1-7.8-9.7 1.5-1.5 3.3-2 7.4-2 3.8 0 5.8-.5 6.7-1.7 1.1-1.3 1.5-10.1 1.9-44 .5-40.6.6-42.5 2.4-43.9 2.6-1.9 6.5-1.8 8.8.3zm335.7-.1c8.1 2.2 13.6 6.3 13.6 9.8 0 1.9-.9 3.5-2.6 4.9l-2.7 1.9-6.3-2.8c-7.9-3.6-16.9-3.8-24.1-.6-12.3 5.4-16.5 24.3-8.2 36.3 5.7 8.3 20.8 11.6 31.3 6.9 5.5-2.5 9.3-2.5 11.6 0 4.1 4.6-.5 9.4-12.9 13.2-13.3 4.1-28 .5-37.7-9.1-7.9-8-10.2-14.4-9.7-27.1.3-6.9 1-10.8 2.5-14.2 3.9-8.7 14.9-17.5 24.7-19.9 5.4-1.2 14.8-1 20.5.7zm-66.8 54.7c8.5 6.5.1 19.6-9.4 14.5-5.3-2.8-6.4-9.2-2.2-13.3 2.7-2.8 8.8-3.4 11.6-1.2z"/><path d="M591.7 603.1c-.4 28.2-.7 91.7-.7 141.1V834h44.3c47 0 59.3-.8 75.5-4.9 28.8-7.4 51.6-21 70.2-41.8 8.5-9.5 13.2-16.7 19-28.9 9.7-20.1 14.2-41.3 14.1-66.9-.1-55.5-26.2-99.5-73.1-123-12.7-6.3-22.6-9.7-38.5-13.2-11.8-2.6-12.7-2.6-61.1-3l-49.1-.5-.6 51.3zm66 621.4c-9.9 3.5-15.2 15.1-12.8 28.1 2.2 11.6 9.3 17.4 21.2 17.4 7.1 0 12.4-2 17.7-6.4l3.2-2.8v-28.5l-4.5-3.2c-8.2-5.9-16.8-7.5-24.8-4.6zm355.7.9c-2.3.7-6.3 2.8-8.8 4.6l-4.6 3.3v14.2c0 14.1 0 14.1 2.8 16.7 5.9 5.5 14.9 8.2 22.9 6.7 10.4-2 16.3-10 16.3-22.2 0-9.1-1.6-14.2-6-18.8-5.3-5.6-13.7-7.3-22.6-4.5zm-272.4-1.2c-4.9 2.6-7.5 5.6-9.5 11.4l-1.3 3.9 18.6.5c10.3.3 19.1.2 19.6-.2.4-.3.3-2.2-.4-4.2-3.7-11.3-16.5-16.7-27-11.4zm189.3-.1c-8.6 1.6-13.4 6.2-16.3 15.3-1.9 5.9-.7 16.8 2.4 22.1 8.5 14.4 31.8 12.8 38.1-2.7 2.2-5.6 2.3-17 .1-22.3-3.9-9.3-13.9-14.4-24.3-12.4z"/></g></svg>