<svg xmlns="http://www.w3.org/2000/svg" width="566.929" height="280.666" viewBox="0 0 566.929 280.666"><path d="M111.622 85.795H167.5a3.248 3.248 0 0 0 3.203-2.68l5.159-29.41a3.25 3.25 0 0 0-3.202-3.815h-55.154a2.597 2.597 0 0 1-2.572-2.971l6.219-43.204A3.25 3.25 0 0 0 117.938 0H84.457a3.246 3.246 0 0 0-3.214 2.778L60.15 146.693a2.599 2.599 0 0 1-2.576 2.221H8.473a3.254 3.254 0 0 0-3.199 2.686L.05 181a3.253 3.253 0 0 0 3.203 3.819h160.742a3.25 3.25 0 0 0 3.199-2.685l5.223-29.397a3.252 3.252 0 0 0-3.203-3.823H103.21a2.601 2.601 0 0 1-2.572-2.98l8.41-57.908a2.608 2.608 0 0 1 2.574-2.231zm237.8 14.706l28.655-6.943a2.598 2.598 0 0 0 1.959-2.139l4.303-28.452c.274-1.828-1.391-3.353-3.188-2.916l-42.028 10.184a2.604 2.604 0 0 1-3.086-1.722l-2.313-7.085a2.6 2.6 0 0 1 1.863-3.332l41.038-9.944a2.603 2.603 0 0 0 1.96-2.137l4.301-28.451c.276-1.831-1.387-3.356-3.182-2.921l-12.467 3.023a2.604 2.604 0 0 1-3.086-1.724l-4.604-14.146A2.605 2.605 0 0 0 357.074 0h-26.937a2.603 2.603 0 0 0-2.481 3.381l6.115 19.539a2.6 2.6 0 0 1-1.869 3.307l-6.618 1.601a2.593 2.593 0 0 1-3.082-1.72l-7.92-24.31A2.6 2.6 0 0 0 311.809 0h-31.525a2.601 2.601 0 0 0-2.481 3.381l9.846 31.427a1.952 1.952 0 0 1-1.404 2.479l-8.817 2.137a2.596 2.596 0 0 0-1.958 2.139l-4.303 28.451c-.276 1.829 1.387 3.353 3.184 2.917l21.696-5.255a1.95 1.95 0 0 1 2.323 1.312l2.409 7.682a2.598 2.598 0 0 1-1.871 3.305l-22.171 5.375a2.596 2.596 0 0 0-1.958 2.137l-4.303 28.45c-.278 1.832 1.389 3.354 3.184 2.92l35.726-8.655a1.95 1.95 0 0 1 2.323 1.31l2.667 8.502a2.603 2.603 0 0 1-1.869 3.306l-40.32 9.821a2.618 2.618 0 0 0-1.956 2.141l-4.299 28.451c-.276 1.827 1.389 3.352 3.186 2.914l53.265-12.98a2.606 2.606 0 0 1 3.097 1.752l9.06 27.579a2.599 2.599 0 0 0 2.481 1.823h33.8a2.605 2.605 0 0 0 2.476-3.409l-11.658-34.426a2.6 2.6 0 0 1 1.859-3.333l14.126-3.443a2.61 2.61 0 0 0 1.956-2.139l4.297-28.447c.28-1.829-1.387-3.356-3.184-2.916l-27.483 6.696a2.602 2.602 0 0 1-3.088-1.72l-2.561-7.845a2.601 2.601 0 0 1 1.861-3.338zm-88.369-57.225h-12.21c-.888 0-1.515-.783-1.236-1.625l12.338-37.379A3.248 3.248 0 0 0 256.86 0h-28.462a3.25 3.25 0 0 0-3.084 2.215L200.725 75.46c-.707 2.109.861 4.288 3.084 4.288h15.341c.89 0 1.514.866 1.236 1.708l-17.261 52.029c-.697 2.107.871 4.279 3.088 4.279h49.742a3.25 3.25 0 0 0 3.203-2.697l4.564-26.187a3.253 3.253 0 0 0-3.203-3.81h-13.352a1.3 1.3 0 0 1-1.234-1.704l18.212-55.745c.686-2.102-.879-4.345-3.092-4.345zm-62.562 139.589l51.307-1.412a3.254 3.254 0 0 0 3.12-2.725l4.444-27.105a3.251 3.251 0 0 0-3.295-3.776l-50.899 1.387a3.25 3.25 0 0 0-3.113 2.676l-4.851 27.131a3.25 3.25 0 0 0 3.287 3.824zm271.3-34.707h-31.767a3.235 3.235 0 0 0-3.197 2.653l-5.479 30.163c-.365 2.001 1.168 3.845 3.195 3.845h45.751c3.995 0 7.776-1.823 10.272-4.953l16.589-20.805a28.17 28.17 0 0 0 5.851-13.525l6.028-45.005a29.945 29.945 0 0 1 4.762-12.384l35.123-46.972a37.415 37.415 0 0 0 5.747-14.164l4.208-23.167c.364-2.001-1.17-3.844-3.198-3.844H412.402a3.254 3.254 0 0 0-3.199 2.678l-5.119 28.626c-.361 2.001 1.171 3.846 3.201 3.846h107.276c1.572 0 2.498 1.765 1.606 3.063l-29.675 37.584a35.96 35.96 0 0 0-5.922 15.104l-7.565 54.452c-.234 1.597-1.602 2.805-3.214 2.805zM156.043 272.009l5.216-6.14c.51-.603 1.46-.663 2.169-.123 4.503 3.439 8.98 5.184 13.574 5.184 2.994 0 4.981-1.296 4.729-3.372-.214-1.753-1.563-2.663-8.239-5.129-7.556-2.727-12.554-5.843-13.37-12.527-1.102-9.02 6.312-15.443 17.437-15.443 7.266 0 13.402 2.141 18.112 5.645.776.579.98 1.625.453 2.302l-4.93 6.359c-.48.622-1.417.716-2.141.202-3.475-2.46-7.272-4.059-11.388-4.059-3.06 0-4.77 1.428-4.549 3.245.221 1.816 1.665 2.466 8.213 4.932 7.352 2.659 12.556 5.841 13.389 12.656 1.142 9.345-6.151 15.706-17.471 15.706-8.239 0-15.462-2.608-20.869-7.153-.728-.614-.879-1.643-.335-2.285zm59.507-16.057l-10.297-18.476c-.59-1.057.042-2.238 1.196-2.238h10.32c.66 0 1.302.405 1.618 1.019l4.789 9.319c.575 1.115 2.073 1.374 2.759.474l7.78-10.265a1.408 1.408 0 0 1 1.14-.546h10.813c1.402 0 2.332 1.667 1.502 2.689l-15.515 19.126c-.378.465-.412 1.147-.083 1.729l11.012 19.64c.592 1.058-.04 2.241-1.194 2.241h-10.375c-.662 0-1.306-.404-1.62-1.021l-5.401-10.543c-.573-1.119-2.069-1.379-2.755-.476l-8.734 11.499a1.417 1.417 0 0 1-1.138.541h-10.879c-1.402 0-2.33-1.667-1.502-2.691l16.479-20.294c.376-.465.408-1.145.085-1.727zm42.943-20.714h9.366c1.054 0 1.946 1 1.795 2.017l-4.446 30.367c-.149 1.015.739 2.011 1.792 2.011h17.546c1.056 0 1.946 1.001 1.795 2.02l-1.168 7.833c-.102.695-.678 1.181-1.404 1.181H252.67c-1.053 0-1.943-.996-1.793-2.015l6.211-42.227c.104-.701.679-1.187 1.405-1.187zm37.695 32.772h9.553c1.059 0 1.947 1.005 1.795 2.021l-1.423 9.458c-.106.691-.68 1.177-1.404 1.177h-9.503c-1.053 0-1.943-.996-1.793-2.011l1.372-9.457c.101-.7.675-1.188 1.403-1.188zm17.438-6.295c-1.64-13.432 7.585-27.384 25.09-27.384 8.659 0 15.313 3.881 19.087 10.072.47.773.281 1.707-.429 2.111l-7.71 4.407c-.695.398-1.64.138-2.181-.577-2.181-2.886-5.064-4.528-8.991-4.528-7.55 0-12.735 7.073-11.77 14.992.707 5.777 4.979 9.345 10.25 9.345 3.503 0 5.983-1.315 8.287-3.632.539-.54 1.455-.542 2.128-.005l6.856 5.467c.767.61.93 1.676.359 2.328-3.768 4.329-9.095 7.264-17.015 7.264-12.622 0-22.477-7.725-23.961-19.86zm56.155-26.477h9.526c.624 0 1.234.363 1.565.926l11.973 20.339c.796 1.355 2.757 1.187 2.971-.259l2.944-19.824c.102-.697.68-1.183 1.404-1.183h9.235c1.056 0 1.944 1 1.795 2.017l-6.214 42.227c-.102.699-.676 1.185-1.402 1.185h-8.812c-.622 0-1.23-.359-1.564-.92l-12.595-21.267c-.799-1.35-2.757-1.176-2.971.266l-3.039 20.736c-.102.699-.676 1.185-1.404 1.185h-9.233c-1.055 0-1.947-.996-1.795-2.015l6.213-42.227c.102-.7.679-1.186 1.403-1.186z" fill="#7040AA"/></svg>