<svg width="196" height="196" viewBox="0 0 196 196" xmlns="http://www.w3.org/2000/svg"><g fill="none" fill-rule="evenodd"><circle fill="#FF8585" cx="98" cy="98" r="98"/><path d="M145.892 72.593v19.01H113.45v62.821H79.956V91.602h-32.44V59.17h64.347l-7.807-7.486 3.748-4.169 15.025 14.41-15.025 14.409-3.748-4.169 7.807-7.487h-58.66v21.416h32.441v62.822h22.118V86.094h32.441v-13.5c-4.907-1.224-8.533-5.537-8.533-10.67 0-6.083 5.094-11.015 11.377-11.015 6.284 0 11.377 4.932 11.377 11.015 0 5.133-3.626 9.446-8.532 10.67zm-2.845-5.16c3.142 0 5.689-2.467 5.689-5.509 0-3.042-2.547-5.508-5.689-5.508-3.141 0-5.688 2.466-5.688 5.508s2.547 5.508 5.688 5.508z" fill="#FFF" fill-rule="nonzero"/></g></svg>