<svg height="130" viewBox="0 0 592 130" width="592" xmlns="http://www.w3.org/2000/svg"><g fill="none"><path d="M47.535 129.247H19.98V72.173H0V49.51h67.686v22.662h-20.15zM75.953 49.51h56.32v22.327H101.96v6.882h28.59v20.816h-28.59v7.386h32.38v22.326H75.952zm70.787 0h27.384l23.424 40.456h.516l-1.205-40.455h26.179v79.736h-28.074L172.23 91.14h-.517l1.206 38.106h-26.18zm87.493 57.41l30.657-35.083h-29.28V49.51h65.276v19.304l-32.552 37.434h33.585v22.83h-67.686zm80.087-57.41h27.728v79.737H314.32zm42.368 0h35.307c3.961 0 7.923.337 11.884 1.176 3.961.84 7.578 2.182 10.678 4.196 3.1 2.015 5.684 4.7 7.578 8.058 1.895 3.357 2.928 7.554 2.928 12.59 0 4.868-1.205 9.232-3.617 12.925s-6.028 6.547-10.506 8.562l20.84 32.398h-31.518l-15.673-28.538h-.86v28.538h-26.697zm26.523 33.742h5.34c.86 0 1.894 0 3.1-.168 1.205-.168 2.066-.504 3.1-1.007s1.722-1.175 2.411-2.015c.689-.84 1.033-2.014 1.033-3.357 0-1.343-.344-2.518-.86-3.357-.517-.84-1.206-1.511-2.067-1.847-.862-.336-1.723-.671-2.756-.84s-1.895-.167-2.756-.167h-6.545z" fill="#222218"/><path d="M487.805 63.917L513.662 2.78A2 2 0 00511.82 0h-63.178a2 2 0 00-1.846 1.23L436.669 25.5a2 2 0 001.846 2.77h30.583a2 2 0 011.846 2.77l-25.558 61.326a2 2 0 001.846 2.77h66.954a2 2 0 001.847-1.234l10.137-24.44a2 2 0 00-1.847-2.766h-34.676a2 2 0 01-1.842-2.779z" fill="#00a4f1"/><path d="M502.79 58.402h26.617a2 2 0 001.844-1.226l11.622-27.68a2 2 0 011.844-1.226h34.265a2 2 0 001.846-1.23l10.127-24.27A2 2 0 00589.109 0h-63.705a2 2 0 00-1.847 1.232l-22.613 54.402a2 2 0 001.846 2.768z" fill="#93ed00"/></g></svg>